<svg xmlns="http://www.w3.org/2000/svg" width="24" height="24" viewBox="0 0 24 24">
  <g id="Group_26084" data-name="Group 26084" transform="translate(-113 -623)">
    <path id="Path_43168" data-name="Path 43168" d="M-23.454-296.123q-3.944-3.257-7.888-6.513a.586.586,0,0,0-.668-.118.583.583,0,0,0-.322.6c0,.926,0,1.851,0,2.777,0,.08-.008.159-.012.247-.062,0-.1.011-.143.011l-9.691,0a.709.709,0,0,0-.709.709v5.533a.7.7,0,0,0,.7.7h9.678c.049,0,.1.006.181.011v.3q0,1.389,0,2.777a.553.553,0,0,0,.338.561.561.561,0,0,0,.626-.105c.4-.332.8-.659,1.2-.988q3.347-2.762,6.693-5.525A.573.573,0,0,0-23.454-296.123Zm-7.733,5.863c0-.551,0-1.046,0-1.542,0-.3.007-.6,0-.9a.563.563,0,0,0-.614-.6l-9.639-.011a.384.384,0,0,1-.384-.384v-3.788a.492.492,0,0,1,.492-.492h5.45v-.009h4.046a.576.576,0,0,0,.649-.645c0-.692,0-1.384,0-2.076v-.323l6.53,5.388Z" transform="translate(158.041 930.648)" fill="#fff"/>
    <rect id="Rectangle_20227" data-name="Rectangle 20227" width="24" height="24" transform="translate(113 623)" fill="none"/>
  </g>
</svg>
