<svg xmlns="http://www.w3.org/2000/svg" width="20.024" height="14.361" viewBox="0 0 20.024 14.361">
  <g id="acholdernamer" transform="translate(0 0.125)">
    <g id="Group_6490" data-name="Group 6490" transform="translate(0 8.434)">
      <path id="Path_9857" data-name="Path 9857" d="M55.366-270.834H47.175a1.824,1.824,0,0,1-1.816-1.8q-.006-1.1,0-2.191a1.82,1.82,0,0,1,1.74-1.8c.07,0,.141,0,.211,0q8,0,16,0a2.1,2.1,0,0,1,1.174.264,1.771,1.771,0,0,1,.881,1.527c.016.74.009,1.481,0,2.222a1.822,1.822,0,0,1-1.845,1.79Zm0-.647q4.066,0,8.133,0a1.183,1.183,0,0,0,1.23-1.227q0-1.02,0-2.041a1.187,1.187,0,0,0-1.237-1.236H47.256A1.186,1.186,0,0,0,46-274.75c0,.68-.011,1.361.005,2.041a1.422,1.422,0,0,0,.135.58,1.137,1.137,0,0,0,1.1.649Q51.307-271.483,55.365-271.481Z" transform="translate(-45.355 276.636)" fill="#282a3b"/>
      <path id="Path_9858" data-name="Path 9858" d="M102.228-224.43c.136.138.24.251.352.354s.1.17,0,.265c-.243.243-.241.246-.478.007-.073-.074-.142-.153-.212-.229l-.039.018c0,.148,0,.3,0,.444s-.055.189-.188.192c-.332.006-.341,0-.341-.325,0-.1,0-.2,0-.339-.125.121-.223.211-.315.305s-.146.076-.231,0c-.267-.247-.27-.25-.017-.5.053-.052.115-.1.172-.145l-.019-.046c-.147,0-.293-.005-.439,0s-.2-.052-.194-.2c0-.33,0-.33.33-.331h.3l.026-.043c-.105-.1-.209-.194-.317-.288s-.1-.167,0-.264c.244-.245.242-.249.487,0,.06.061.111.129.167.194l.054-.018q0-.2,0-.392c0-.212.021-.234.232-.235h.136c.115,0,.162.056.161.168,0,.151,0,.3.006.452,0,0,.006.007.035.038.119-.128.238-.254.355-.382.082-.09.155-.086.243,0,.262.249.265.248.009.5-.082.079-.172.151-.258.226l.028.048c.148,0,.3,0,.445,0,.13,0,.177.05.177.18,0,.346,0,.346-.34.346Z" transform="translate(-98.62 227.531)" fill="#282a3b"/>
      <path id="Path_9859" data-name="Path 9859" d="M221.968-225.5c0-.154,0-.307,0-.461,0-.121.05-.171.171-.174.353-.01.357-.009.357.338,0,.1,0,.19,0,.332.142-.142.256-.256.371-.37s.157-.123.284,0c.238.232.239.232,0,.463-.085.083-.174.163-.262.244l.017.039c.148,0,.3,0,.443,0s.187.053.186.189c0,.337,0,.337-.339.337h-.328c.133.137.234.25.345.353s.1.179-.006.275c-.242.227-.21.262-.464,0-.069-.072-.128-.154-.192-.231l-.059.028c0,.136,0,.273,0,.409,0,.185-.032.215-.222.216h-.015c-.289,0-.29,0-.29-.282,0-.116,0-.231,0-.387-.122.119-.222.211-.316.31a.141.141,0,0,1-.231,0c-.275-.252-.278-.251-.011-.507a1.708,1.708,0,0,1,.177-.132l-.039-.054c-.154,0-.308,0-.461,0-.116,0-.159-.052-.164-.164-.014-.36-.015-.362.345-.361h.282l.028-.04c-.105-.1-.208-.194-.316-.287s-.108-.162-.01-.263c.248-.254.245-.258.5,0,.062.064.118.132.177.2Z" transform="translate(-215.609 227.663)" fill="#282a3b"/>
      <path id="Path_9860" data-name="Path 9860" d="M463.051-225.036c-.1-.094-.2-.191-.308-.28s-.115-.171-.011-.275c.244-.245.242-.249.488,0,.062.064.117.135.176.2l.046-.024c0-.148,0-.3,0-.445s.056-.2.19-.186h.03c.305,0,.305,0,.3.31,0,.106,0,.211,0,.363l.368-.365c.138-.136.164-.136.306,0l.064.064c.142.144.143.177,0,.317-.11.107-.224.21-.336.315l.021.039c.154,0,.307,0,.461,0,.114,0,.161.051.167.163.018.352.011.362-.344.362h-.322l.333.343c.129.132.13.156.005.282-.232.235-.233.235-.465,0-.074-.074-.144-.153-.216-.23l-.04.013c0,.152,0,.3,0,.455.005.129-.052.18-.178.185-.335.012-.348,0-.347-.333v-.3l-.044-.029c-.082.092-.165.183-.245.276s-.172.11-.277.007c-.241-.239-.246-.236,0-.478.056-.055.121-.1.181-.151l-.028-.046c-.153,0-.307,0-.46,0-.12,0-.17-.049-.173-.172-.007-.355-.01-.355.339-.354h.287Z" transform="translate(-449.783 227.571)" fill="#282a3b"/>
      <path id="Path_9861" data-name="Path 9861" d="M342.439-224.579c-.154,0-.308,0-.462,0-.115,0-.16-.046-.164-.162-.01-.364-.013-.364.356-.364h.268l.028-.038c-.108-.1-.214-.2-.325-.3s-.089-.163,0-.254c.246-.254.244-.257.489-.01.066.067.125.14.187.211l.043-.023c0-.153,0-.306,0-.459,0-.123.048-.171.168-.175.352-.012.354-.012.354.336v.3l.047.031c.113-.124.228-.247.34-.373.089-.1.165-.1.264,0,.245.245.25.243,0,.486-.082.08-.171.154-.256.23l.02.043c.147,0,.3,0,.442,0s.19.048.191.186c0,.341.007.341-.335.34h-.3l-.038.051c.116.1.231.2.347.3.1.086.107.163.006.263-.246.245-.244.25-.487,0-.07-.071-.131-.151-.2-.227l-.051.024c0,.147-.006.294,0,.441s-.06.194-.2.194c-.326,0-.326,0-.324-.323,0-.1,0-.208,0-.312l-.049-.034c-.091.1-.183.207-.274.311-.071.082-.139.077-.219.007-.282-.249-.284-.249-.016-.517a1.781,1.781,0,0,1,.173-.136Z" transform="translate(-332.848 227.68)" fill="#282a3b"/>
      <path id="Path_9862" data-name="Path 9862" d="M584.4-146.951c-.282,0-.564,0-.846,0-.14,0-.186-.053-.184-.188,0-.37-.012-.335.336-.335h1.555c.182,0,.2.016.2.2,0,.32,0,.32-.32.32Z" transform="translate(-567.102 151.378)" fill="#282a3b"/>
    </g>
    <g id="Group_6491" data-name="Group 6491" transform="translate(6.437 0)">
      <path id="Path_9805" data-name="Path 9805" d="M289.772,343.553a2.219,2.219,0,1,1-2.222,2.157A2.217,2.217,0,0,1,289.772,343.553Zm.006.394a1.823,1.823,0,1,0,1.816,1.781A1.815,1.815,0,0,0,289.778,343.948Z" transform="translate(-286.156 -343.553)" fill="#282a3b" stroke="#282a3b" stroke-width="0.25"/>
      <path id="Path_9806" data-name="Path 9806" d="M279.257,385a3.618,3.618,0,0,1,3.577,2.986,4.615,4.615,0,0,1,.053.6.194.194,0,0,1-.2.226.206.206,0,0,1-.2-.224,3.16,3.16,0,0,0-1.28-2.542,3.108,3.108,0,0,0-1.762-.646,3.22,3.22,0,0,0-3.278,2.34,3.131,3.131,0,0,0-.12.856.2.2,0,0,1-.276.2.194.194,0,0,1-.117-.193,3.47,3.47,0,0,1,.4-1.646,3.616,3.616,0,0,1,3.19-1.954Z" transform="translate(-275.663 -380.139)" fill="#282a3b" stroke="#282a3b" stroke-width="0.25"/>
    </g>
  </g>
</svg>
