<svg xmlns="http://www.w3.org/2000/svg" width="24" height="24" viewBox="0 0 24 24">
  <g id="Group_26065" data-name="Group 26065" transform="translate(-46 -356)">
    <path id="user-5" d="M12,25.461c1.141-8.826,14.8-8.546,15.177.817H12.324a.4.4,0,1,0,0,.8H27.585a.4.4,0,0,0,.4-.4c0-10.782-15.506-11.214-16.785-1.322a.4.4,0,1,0,.8.1Zm4.634-16.4a4,4,0,1,1-.657.93.4.4,0,1,0-.715-.366,4.829,4.829,0,1,0,.788-1.115.4.4,0,1,0,.584.551Z" transform="translate(38.407 350.959)" fill="#1a1c3d" fill-rule="evenodd"/>
    <rect id="Rectangle_20202" data-name="Rectangle 20202" width="24" height="24" transform="translate(46 356)" fill="none"/>
  </g>
</svg>
