<svg xmlns="http://www.w3.org/2000/svg" width="24" height="24" viewBox="0 0 24 24">
  <g id="Group_26068" data-name="Group 26068" transform="translate(-110 -362)">
    <rect id="Rectangle_20210" data-name="Rectangle 20210" width="24" height="24" transform="translate(110 362)" fill="none"/>
    <path id="Path_43194" data-name="Path 43194" d="M-566.215-61.007V-62.8a1.352,1.352,0,0,0-.671.082,3.4,3.4,0,0,0-.579.273,1.713,1.713,0,0,1-1.354.19l-.3-.066a1.364,1.364,0,0,0,.677.723,1.961,1.961,0,0,0,1,.147.605.605,0,0,1,.1,0,.154.154,0,0,1,.15.152.149.149,0,0,1-.126.172,1.844,1.844,0,0,1-2.226-1.4c-.038-.17.082-.266.252-.205a3.137,3.137,0,0,0,.961.207,1.062,1.062,0,0,0,.566-.141,2.956,2.956,0,0,1,1.017-.429,4.421,4.421,0,0,1,.711-.018c.117,0,.162.077.162.218q0,.877,0,1.754v.126c.216.047.424.076.623.137a2.482,2.482,0,0,1,1.76,2.467c0,.963,0,1.927,0,2.89a.248.248,0,0,0,.146.261c.273.143.535.307.8.459a.328.328,0,0,1,.188.318c-.007.365,0,.729,0,1.107h4c.2,0,.246.045.246.246q0,.457,0,.914c0,.209-.038.247-.243.248h-.629v.145c0,.951,0,1.9,0,2.853a.279.279,0,0,0,.115.275.784.784,0,0,1,.126.132c.047-.031.093-.064.14-.093a.906.906,0,0,1,.729-.145.775.775,0,0,1,.564.927,1.912,1.912,0,0,1-.122.451,1.023,1.023,0,0,0-.083.454c.006.16,0,.321,0,.482,0,.13-.059.184-.19.189-.033,0-.066,0-.1,0h-16.81c-.159,0-.217-.058-.219-.215,0-.218,0-.437,0-.655a.9.9,0,0,0-.041-.2,4.843,4.843,0,0,1-.143-.547.777.777,0,0,1,1.057-.857,3.059,3.059,0,0,1,.37.183c.156-.1.309-.187.454-.288.026-.018.034-.078.035-.119q0-1.007,0-2.013v-.949c-.043,0-.078-.009-.114-.009-.2,0-.4,0-.593,0-.131,0-.193-.054-.194-.172,0-.354,0-.708,0-1.062a.162.162,0,0,1,.169-.174c.033,0,.066,0,.1,0h3.952c0-.054.006-.1.006-.141,0-.354,0-.708,0-1.062a.219.219,0,0,1,.128-.217c.318-.174.631-.356.949-.528a.187.187,0,0,0,.113-.192c0-.959.013-1.919-.006-2.878a2.508,2.508,0,0,1,2.3-2.6Zm-.467,14.357v-.159q0-2.2,0-4.409c0-.2.047-.244.249-.245h.667c.242,0,.276.034.276.28v4.526h.585V-46.8q0-2.211,0-4.421c0-.19.048-.238.242-.238h.679c.228,0,.268.039.268.262v4.546h.972v-6.664a.647.647,0,0,0-.079-.01c-.823,0-1.647,0-2.47,0a.282.282,0,0,0-.152.061,1.077,1.077,0,0,1-1.3,0,.342.342,0,0,0-.188-.066c-.79,0-1.581,0-2.371,0h-.126v6.679h1.036v-.162q0-2.2,0-4.409c0-.192.049-.24.241-.24h.692c.215,0,.259.044.259.259q0,2.2,0,4.4v.157Zm-1.564-8.941.125-.068c.642-.36,1.285-.717,1.925-1.081a.281.281,0,0,1,.318,0c.638.374,1.281.742,1.922,1.111.039.023.081.042.127.067v-2.772h-4.417Zm6.573,8.94v-.173q0-2.192,0-4.384c0-.212.043-.255.25-.255h.692c.2,0,.249.047.249.244v3.774h.245l-.031-.076a.421.421,0,0,1,.346-.629c.109-.017.127-.062.136-.157a.576.576,0,0,1,.364-.553c.092-.032.106-.076.105-.158q0-1.414,0-2.828c0-.04,0-.079-.007-.131h-.143c-.931,0-1.861,0-2.791,0-.115,0-.144.031-.144.144q.005,2.526,0,5.051c0,.043,0,.087.006.133Zm-10.206-.792v-.381q0-1.7,0-3.4c0-.193.05-.243.24-.243h.692c.221,0,.264.044.264.269v4.54h.9v-5.312h-2.975v.157c0,.939,0,1.877,0,2.816a.349.349,0,0,0,.1.286.58.58,0,0,1,.123.237,2.551,2.551,0,0,1,.062.3.566.566,0,0,1,.451.221.5.5,0,0,1-.021.507Zm3.647-11.245h4.387a2.141,2.141,0,0,0-2.18-1.98A2.145,2.145,0,0,0-568.232-58.688Zm5.066,3.944.008-.03-.134-.08q-1.325-.764-2.649-1.53a.174.174,0,0,0-.2,0q-1.38.779-2.763,1.552l-.116.067c.018.011.025.019.031.019.658,0,1.317,0,1.975,0a.194.194,0,0,0,.12-.065,1.06,1.06,0,0,1,1.584-.006.217.217,0,0,0,.181.076c.465,0,.93,0,1.4,0Zm4.716,1.7h-3.942v.719h3.942Zm-15.208,0v.722h3.874v-.722Zm2.628,1.927h-.507v4.462h.507Zm2.98,0v4.466h.5v-4.466Zm1.713,4.466h.5v-4.462h-.5Zm5.007-4.466v4.464h.5v-4.464Zm-3.228,0v4.463h.5v-4.463Zm-8.955,3.65h.9a.3.3,0,0,0,.3-.208c.024-.067.008-.117-.063-.132a1.267,1.267,0,0,0-.231-.026c-.18,0-.217-.047-.222-.228a1.334,1.334,0,0,0-.052-.374.148.148,0,0,0-.263-.065,1.167,1.167,0,0,0-.2.235c-.109.167-.185.173-.345.047a1.51,1.51,0,0,0-.393-.245.426.426,0,0,0-.6.433,2.693,2.693,0,0,0,.1.467c.017.076.065.1.143.1C-574.129-47.47-573.821-47.467-573.513-47.467Zm14.7,0c.312,0,.625,0,.937,0,.04,0,.107-.03.114-.058a2.7,2.7,0,0,0,.112-.574.407.407,0,0,0-.5-.385.974.974,0,0,0-.482.282c-.122.115-.222.1-.312-.04a1.366,1.366,0,0,0-.2-.25c-.108-.1-.225-.075-.268.066a1.279,1.279,0,0,0-.046.375c0,.153-.05.216-.206.22a1.181,1.181,0,0,0-.243.028.116.116,0,0,0-.071.082.313.313,0,0,0,.255.255Zm-6.3-6.21h2.411v-.718h-2.36a3.055,3.055,0,0,1,.016.365A2.9,2.9,0,0,1-565.106-53.677Zm-2.03-.723h-2.291v.723h2.342a3.281,3.281,0,0,1-.063-.357A3.308,3.308,0,0,1-567.136-54.4Zm1.034,1.014a.725.725,0,0,0,.73-.715.726.726,0,0,0-.717-.728.725.725,0,0,0-.73.716A.723.723,0,0,0-566.1-53.386Zm5.652,6.733h2.6v-.436h-2.6Zm-11.434-.434h-2.6v.433h2.6Z" transform="translate(688.159 428.716)" stroke="rgba(0,0,0,0)" stroke-miterlimit="10" stroke-width="1"/>
  </g>
</svg>
