<svg xmlns="http://www.w3.org/2000/svg" width="18.693" height="18.441" viewBox="0 0 18.693 18.441">
  <g id="bank" transform="translate(0.507 0.553)">
    <path id="Path_32939" data-name="Path 32939" d="M-799.7,1545.186h2.5V1536.9c0-.332.075-.406.409-.406s.655,0,.983,0c.258,0,.344.09.344.348q0,4.065,0,8.132v.2h2.508v-8.245c0-.357.078-.433.439-.433.316,0,.632,0,.949,0,.269,0,.366.1.366.367q0,4.032,0,8.065v.26c.18,0,.353,0,.526,0a.3.3,0,0,1,.341.343q0,.526,0,1.051c0,.226-.115.363-.293.36s-.294-.141-.294-.361c0-.259,0-.518,0-.79h-15.066c0,.249,0,.491,0,.732,0,.275-.1.417-.287.419s-.3-.142-.3-.421c0-.327,0-.655,0-.983,0-.244.108-.348.352-.35.164,0,.327,0,.52,0v-.2q0-4.041,0-8.081c0-.331.08-.411.407-.41s.666,0,1,0c.228,0,.327.1.34.327,0,.056,0,.113,0,.169q0,4.007,0,8.014v.173h2.5v-.193q0-4.032,0-8.064c0-.344.083-.427.429-.428h.915c.326,0,.413.086.413.408q0,4.032,0,8.064Zm-4.855,0V1537.1h-.549v8.089Zm3.709-8.092v8.086h.543v-8.086Zm4.8,8.089V1537.1h-.553v8.085Zm3.712-8.087v8.088h.54V1537.1Z" transform="translate(807.285 -1530.345)" fill="#035c96" stroke="rgba(0,0,0,0)" stroke-width="1"/>
    <path id="Path_32940" data-name="Path 32940" d="M-806.735,1458.245a2.335,2.335,0,0,1,.293.133q3.443,2.216,6.883,4.436l1.409.906c.234.151.308.33.206.5a.424.424,0,0,1-.61.093q-.968-.621-1.935-1.246-3.058-1.971-6.113-3.945a.209.209,0,0,0-.269.011q-3.532,2.281-7.066,4.559c-.322.208-.642.419-.97.618a.582.582,0,0,1-.3.088.338.338,0,0,1-.343-.273.338.338,0,0,1,.2-.375l3.128-2.017q2.56-1.65,5.12-3.3A4.062,4.062,0,0,1-806.735,1458.245Z" transform="translate(815.56 -1458.245)" fill="#035c96" stroke="rgba(0,0,0,0)" stroke-width="1"/>
    <path id="Path_32941" data-name="Path 32941" d="M-806.76,1672.411q-4.21,0-8.42,0c-.148,0-.286-.014-.363-.161a.284.284,0,0,1,.249-.424c.287-.015.576-.008.864-.008l16.112,0c.27,0,.389.088.391.288a.282.282,0,0,1-.26.3,1.391,1.391,0,0,1-.169,0Z" transform="translate(815.58 -1655.024)" fill="#035c96" stroke="rgba(0,0,0,0)" stroke-width="1"/>
    <path id="Path_32942" data-name="Path 32942" d="M-774.664,1522.534h5.69a.759.759,0,0,1,.2.025.241.241,0,0,1,.195.277.525.525,0,0,1-.2.264.406.406,0,0,1-.229.032h-11.261a1.227,1.227,0,0,1-.252-.016.283.283,0,0,1-.242-.3.307.307,0,0,1,.27-.282,1.2,1.2,0,0,1,.169,0h5.656Z" transform="translate(783.497 -1517.477)" fill="#035c96" stroke="rgba(0,0,0,0)" stroke-width="1"/>
  </g>
</svg>
