<svg xmlns="http://www.w3.org/2000/svg" xmlns:xlink="http://www.w3.org/1999/xlink" width="24" height="24" viewBox="0 0 24 24">
  <defs>
    <linearGradient id="linear-gradient" x1="0.897" y1="2.001" x2="0.299" y2="-0.259" gradientUnits="objectBoundingBox">
      <stop offset="0" stop-color="#fff"/>
      <stop offset="0.014" stop-color="#f5f5f5"/>
      <stop offset="0.072" stop-color="#d4d4d4"/>
      <stop offset="0.131" stop-color="#bababa"/>
      <stop offset="0.191" stop-color="#a7a7a7"/>
      <stop offset="0.254" stop-color="#9c9c9c"/>
      <stop offset="0.323" stop-color="#999"/>
      <stop offset="0.397" stop-color="#9e9e9e"/>
      <stop offset="0.496" stop-color="#afafaf"/>
      <stop offset="0.609" stop-color="#cbcbcb"/>
      <stop offset="0.661" stop-color="#dbdbdb"/>
      <stop offset="0.721" stop-color="#e4e4e4"/>
      <stop offset="0.887" stop-color="#f7f7f7"/>
      <stop offset="1" stop-color="#fff"/>
    </linearGradient>
    <linearGradient id="linear-gradient-2" x1="0.394" y1="0.931" x2="0.547" y2="0.287" xlink:href="#linear-gradient"/>
  </defs>
  <g id="Group_26084" data-name="Group 26084" transform="translate(-72 -250)">
    <g id="visa" transform="translate(24.004 -39.528)">
      <g id="Group_16006" data-name="Group 16006" transform="translate(49.662 295.578)">
        <rect id="Rectangle_10524" data-name="Rectangle 10524" width="20.668" height="11.9" rx="5.95" transform="translate(0 0)" fill="url(#linear-gradient)"/>
        <path id="Path_33110" data-name="Path 33110" d="M168.741,128.936c.032,0,.036.012.064,0s.108-.065.136-.072.045,0,0,.025a.647.647,0,0,0-.107.068.992.992,0,0,0,.114-.049c.058-.027.053-.015.068-.044l.023-.044s.092.094.1.1.011,0,.016-.012.014-.028.027-.022,0,.028.009.031.021,0,.045-.008.012-.025.012-.025l.025,0a.579.579,0,0,1,.143.04c.026.01.105.019.128.026s.03-.013.061,0,.053.038.03.05-.08.02-.051.027a.452.452,0,0,0,.117.015c.042,0,.119-.017.142-.017s.038.014.06.051.04.052.048.055-.008-.017,0-.036a.14.14,0,0,0-.01-.066c0-.012,0-.018-.01-.036s-.027-.014,0-.03.053-.037.091-.033.048.053.081.057a.68.68,0,0,0,.095.02c.056,0,.033,0,.1.005s.039-.007.053-.039.027-.038.042-.037.068.008.068.015-.022.041-.011.058a.26.26,0,0,0,.056.045s-.01-.039-.01-.043,0-.035,0-.04.043,0,.067-.042-.016-.043-.016-.043-.014,0-.007-.018.049-.03.049-.03,0,.008,0-.007-.033-.012-.062-.014-.049-.006-.055-.031a.7.7,0,0,1-.007-.113c0-.036.028-.023.034-.043a.537.537,0,0,0-.008-.138c-.007-.02.01-.063.014-.092s.033-.016.033-.016.008-.037.048-.049a.347.347,0,0,1,.114,0s-.006,0-.025.024-.007.066-.034.1-.1.02-.1.02.021.049.012.065a.182.182,0,0,0-.015.048s.061.017.064.056.034.045.041.081-.03.066-.022.071.01.008.033.009l.052.005a.038.038,0,0,0,0,.038c.011.019,0,.031,0,.052s.014.038.019.035a.32.32,0,0,0,.035-.081c0-.023.009-.036.019-.036a.112.112,0,0,1,.049.044c0,.011.007.027-.013.059s-.017.046,0,.059a.246.246,0,0,0,.048.023c.031.014.025.013.044.008s-.008-.054-.006-.055.045-.006.035-.03-.02-.036,0-.049l.035-.022a.214.214,0,0,1-.026-.057c-.014-.041.012-.03.069-.026s.059.024.089.039.011.02.021.045-.025.028-.025.028-.022,0-.017.023a.377.377,0,0,0,.032.071c.016.029,0,.049-.03.073a.122.122,0,0,1-.086.031c-.03,0-.043.012-.045,0a.027.027,0,0,0-.033-.012c-.016,0-.053.018-.04.023s.048,0,.033.03-.027.027-.055.024-.056,0-.074,0l-.108-.006a.633.633,0,0,0,.109.052.239.239,0,0,0,.1.006s-.019.036-.043.075-.045.022-.065.024-.031.018-.068.023-.113-.01-.1,0,.017.015.038.018a.092.092,0,0,1,.052.022c.018.015-.012.019-.036.023a.05.05,0,0,0-.042.023l-.065.093a.2.2,0,0,0-.03.084c0,.036-.036.079-.022.088s.065.01.087.024.046.079.062.1.029.044.047.024.054-.015.088,0a.531.531,0,0,1,.125.081c.021.021.059.018.1.024s.047.022.047.022.044,0,.026.021-.023,0-.005.032a.142.142,0,0,1,.012.1c0,.021.059.01.086.026s.028.08.042.072.036-.022.039-.039a.353.353,0,0,0,0-.069.293.293,0,0,0-.024-.1c-.014-.021.026-.03.019-.039s0-.027.022-.035.029,0,.045-.012.017-.066.02-.085a.208.208,0,0,0-.011-.077.517.517,0,0,0-.043-.077c-.01-.011-.022-.014,0-.048s.011-.026.007-.037a.573.573,0,0,1-.015-.059c-.005-.023.011-.049,0-.082s-.02-.025-.018-.033a.291.291,0,0,1,.11,0,.276.276,0,0,0,.077,0,.159.159,0,0,1,.062.029c.025.016.035.012.048.032s.02.031.047.03a.15.15,0,0,1,.056.011s-.019.011-.015.047a.542.542,0,0,1,0,.077c0,.014.008.015.02.017s.045.032.08.044.044.008.055-.019.014-.025.027-.027.018,0,.024,0-.011-.018-.007-.037a.133.133,0,0,1,.039-.06c.015-.015.026.014.04.041s.061.114.075.142.031.03.015.057-.024.038,0,.05.049.034.047.054-.007.02,0,.026.039-.011.061,0a.211.211,0,0,1,.065.034c.016.016.014.021-.008.029a.429.429,0,0,0-.055.022c-.011.007-.029.019-.028.03s0,.027.013.014a.229.229,0,0,1,.067-.033c.021-.006.005,0,.024,0a.182.182,0,0,1,.064.016c.026.007.019.024.012.039a.048.048,0,0,0,0,.047c.011.017,0,.032-.027.053a.114.114,0,0,1-.077.029c-.037,0-.055.027-.081.051s-.039.018-.077.02-.023-.019-.035-.015a.149.149,0,0,1-.051.02.99.99,0,0,0-.137.012c-.031.009-.022.03-.029.048s-.02.01-.044.018a.205.205,0,0,0-.079.09.3.3,0,0,1-.064.077.21.21,0,0,0,.065-.049,1.028,1.028,0,0,1,.123-.095.2.2,0,0,1,.089-.038c.012,0,.043.027.043.039s-.009.022-.031.042-.052,0-.05.008a.056.056,0,0,0,.034.032c.017,0,.016.025.016.035s-.01.024.029.057a.121.121,0,0,0,.1.033c.028,0,.013.009.025.008s.014-.024.018-.042a.076.076,0,0,1,.021-.043c.01-.008.018-.022.022.005a.093.093,0,0,1-.027.075c-.015.008-.012.019-.012.028s-.017.009-.057.032-.054.028-.061.025-.022,0-.042.021-.04.042-.055.041-.027-.007-.007-.027.026-.048.045-.058a.083.083,0,0,1,.045-.008c.016,0,.008-.009.021-.019s-.01-.007-.032-.01-.005-.023-.005-.023l-.023.012a.305.305,0,0,1-.044.019c-.009,0-.007.007-.009.011a.142.142,0,0,1-.035.006s-.017.034-.042.039-.008,0-.026.011-.015-.009-.018,0a.125.125,0,0,1-.028.024c-.02.015-.032.02-.046.076a.136.136,0,0,0,0,.084c0,.008-.025-.005-.032,0a.121.121,0,0,1-.045.033.252.252,0,0,0-.074.027c-.01.01-.01.025-.015.046a.469.469,0,0,1-.03.071.035.035,0,0,0-.012-.034c-.017-.015-.015-.028-.015-.028a.09.09,0,0,0,0,.04.123.123,0,0,1,.014.064.107.107,0,0,1-.031.058c-.013.008,0-.015,0-.033s-.009-.019-.015-.029a.091.091,0,0,1,0-.063c.01-.031-.01-.012-.022.009a.085.085,0,0,0,0,.084c.018.025-.011.022,0,.058s-.015.054-.01.059.019,0,.026.015-.013.01-.02.014,0,.011,0,.021.011,0,.008.007a.072.072,0,0,1-.029.02c-.017.005-.018,0-.029.009l-.029.037c-.011.014-.019.009-.031.018s-.016.018-.03.03a.373.373,0,0,0-.065.055c-.017.024-.013.03-.021.068a.475.475,0,0,0,.04.168c.019.063.027.046.024.066a.11.11,0,0,1-.024.058c-.014.014-.021-.01-.04-.024s0-.023-.022-.053a.1.1,0,0,1-.019-.061.281.281,0,0,0-.015-.075c-.01-.023-.031-.052-.062-.041s-.023.006-.04,0-.062-.023-.085-.011-.1,0-.11,0-.026,0-.026.015-.006.012.02.019.023.015.021.027-.021-.006-.032-.01-.02.008-.038.008-.022-.017-.038-.02a.148.148,0,0,1-.038-.006.145.145,0,0,0-.055-.015.539.539,0,0,0-.122.073.2.2,0,0,0-.067.069c-.007.02-.008.022.018.052s.014.025.009.042-.021.038-.04.082-.007.065.015.107a.375.375,0,0,0,.062.09.239.239,0,0,0,.047.043.06.06,0,0,1,.026.016c.007.007,0,.01.03,0a.3.3,0,0,1,.061-.016.064.064,0,0,1,.044.01c.009.009.011,0,.011,0a.127.127,0,0,1,.01-.028.273.273,0,0,0,.03-.057c0-.018,0-.055.027-.057a.6.6,0,0,1,.116-.011c.044,0,.025.025.013.048s-.016.025-.016.043.005.017-.009.028,0-.006-.011,0a.109.109,0,0,1-.024.022s.009.017.009.027,0,.014,0,.038-.046.048-.046.048a.089.089,0,0,0,.042.01.192.192,0,0,1,.081.012c.026.012.076-.01.113.008s.023.029.026.046a.545.545,0,0,1,0,.089c0,.013-.019.051-.029.078s.026.046.059.068a.281.281,0,0,0,.079.036c.017,0,.048-.025.106-.022a.092.092,0,0,1,.077.052.248.248,0,0,1,.032-.072c.026-.041.027-.053.063-.067s.047-.016.1-.034.047,0,.077,0a.853.853,0,0,1,.169.029c.069.021.175.027.215.044s.059.065.1.1.094.074.116.092a1.268,1.268,0,0,0,.174.046.135.135,0,0,1,.068.083c0,.027.03.04.068.056s.049.034.074.083.017.062.051.074.27.076.328.1a1.439,1.439,0,0,1,.153.093c.019.007.055-.006.071,0s-.009.055.01.088.021.035.009.06-.059.083-.077.112a.2.2,0,0,1-.08.06c-.022.012-.042,0-.022.024s0,.045-.016.067,0,.019,0,.09,0,.147-.007.177-.054-.027-.106.039-.066.116-.1.123a.416.416,0,0,0-.13.067.16.16,0,0,0-.046.066c-.015.034-.031.1-.048.146a.363.363,0,0,1-.107.124,1.564,1.564,0,0,0-.131.161c-.04.045-.03.035-.038.044s-.111-.035-.088,0-.009,0,0,.021.025.031-.006.07-.067.031-.092.037-.062-.026-.064-.01a.1.1,0,0,1-.037.065c-.019.01-.072.024-.07.03.025.116.075.128.022.122-.148-.014-.042-.049-.145.165-.015.033-.031.016-.028.055s0,.068.021.093.006.023-.029.056a.267.267,0,0,0-.07.078c-.033.049-.064.047-.052.085s.014.094.034.15.06.046.124.085.072.018.1.028-.022.012-.079.022a.355.355,0,0,1-.132.012.671.671,0,0,1-.163-.085.332.332,0,0,1-.1-.1c-.018-.04-.031-.08-.055-.135s-.007-.089,0-.209a1.925,1.925,0,0,1,.035-.279c.017-.064.069-.351.084-.426s.081-.376.086-.424a1.107,1.107,0,0,1,.019-.132.749.749,0,0,0,0-.148s0-.008-.018-.054a.136.136,0,0,0-.07-.083c-.033-.019-.067-.044-.093-.062a.4.4,0,0,1-.083-.077.7.7,0,0,1-.064-.128,1.7,1.7,0,0,0-.106-.189.364.364,0,0,1-.069-.136c-.022-.069.019-.071.027-.11a.586.586,0,0,1,.063-.133c.029-.055.067-.071.089-.119s.005-.049,0-.1,0-.04-.012-.066-.022-.057-.035-.066-.032-.014-.044,0-.032.052-.045.055-.018-.012-.026-.021-.046-.008-.053-.017-.027-.01-.04-.016a.583.583,0,0,1-.079-.045.1.1,0,0,1-.032-.073c0-.031-.027-.044-.089-.087a.359.359,0,0,0-.162-.068.325.325,0,0,1-.129-.085c-.025-.014-.022-.03-.077-.024a.378.378,0,0,1-.163-.041,1.159,1.159,0,0,1-.148-.05c-.031-.02-.086-.028-.11-.078s-.02-.03-.01-.074-.054-.08-.092-.122-.066-.047-.086-.1-.048-.049-.086-.085a.283.283,0,0,1-.055-.124c-.015-.041-.12-.1-.12-.1s.027.069.039.1a1.014,1.014,0,0,0,.07.145c.031.05.059.062.088.112s0,.08-.009.061-.052-.028-.052-.051a.114.114,0,0,0-.02-.056c-.009-.018-.049-.039-.089-.07s-.066-.046-.042-.046.06.023.054.008-.051-.06-.072-.091a.719.719,0,0,1-.048-.121.211.211,0,0,0-.136-.108c-.038,0-.048-.022-.061-.061a.768.768,0,0,0-.033-.111.7.7,0,0,1-.091-.171.576.576,0,0,1,0-.216.643.643,0,0,0,.016-.232c0-.028-.051-.081-.051-.1s.027-.008.048,0,.065.024.065.024a.567.567,0,0,0-.055-.085.3.3,0,0,0-.11-.056.121.121,0,0,1-.077-.039c-.014-.023-.03-.054-.041-.073s-.055-.042-.065-.063-.007-.061-.022-.081a.05.05,0,0,0-.059-.024c-.024.008-.031-.012-.05-.043a.132.132,0,0,0-.07-.048.2.2,0,0,1-.055-.071.468.468,0,0,0-.088-.1,2.287,2.287,0,0,0-.229-.08.419.419,0,0,1-.08,0c-.015,0-.069-.051-.1-.061s-.047.01-.06.041a.391.391,0,0,1-.113.106c-.035.023-.064.025-.061.013a.231.231,0,0,1,.013-.061.086.086,0,0,1,.055-.056c.037-.018.035-.019.021-.018s-.025,0,0-.019.04-.019.039-.034-.063.02-.1.051a.357.357,0,0,0-.1.109c-.034.056,0,.035-.025.072s-.127.111-.155.139a.789.789,0,0,1-.2.1.224.224,0,0,0-.091.04c-.024.019-.082.026-.063.012s.056-.044.081-.058a1.01,1.01,0,0,1,.111-.049.357.357,0,0,0,.1-.072.619.619,0,0,0,.064-.095c.018-.029.022-.043-.015-.03a.165.165,0,0,1-.1,0c-.02-.007-.071.023-.089.009s0-.041-.011-.055-.052,0-.078-.009-.063-.026-.063-.062-.026-.068-.011-.1.035-.035.059-.051a.337.337,0,0,1,.1-.036.076.076,0,0,0,.043-.026c.011-.012-.027-.056-.027-.056l.022-.014c.016-.01,0-.03-.023-.027s-.086.032-.123.041-.086,0-.085-.012.009-.026,0-.038-.023-.025-.01-.032.094-.051.094-.051a.121.121,0,0,0,.06.035c.031,0,.1-.055.1-.055-.041-.025-.032-.033-.032-.033a.3.3,0,0,1-.084-.011.071.071,0,0,1-.025-.046c0-.017-.07-.03-.052-.058s.052-.038.075-.066a.265.265,0,0,1,.106-.11,1.416,1.416,0,0,0,.175-.08c.034-.024.05,0,.063,0s.094,0,.126,0,.036.035.047.044.287.017.287.017a2.444,2.444,0,0,1,.281.017c.047.013.132.049.132.049C168.713,129,168.709,128.936,168.741,128.936Zm3.142-1.411a.181.181,0,0,1-.118.124,2.461,2.461,0,0,0-.274.107c-.008,0,.01.058.034.085s.045.045.066.072.058.024.086.052.05.018.128.02.058.007.145.012a.461.461,0,0,1,.209.039.843.843,0,0,1,.1.195c.027.063.076.168.076.177s-.03.087-.03.1a.116.116,0,0,0,.03.05c.014.017.006.03,0,.046a.163.163,0,0,0,.018.061s.042-.039.067-.046.086.044.086.079c0,.08.022.052-.108.147a.233.233,0,0,0-.021.154c.013.046.044.1.069.167a1.719,1.719,0,0,0,.122.2c.023.043.03.1.082.115s.1.031.14.04.063.021.081-.014.055-.169.085-.267,0-.126.068-.148.183-.066.213-.079.025-.11.092-.141a.727.727,0,0,1,.141-.05.9.9,0,0,0,.222-.109c.065-.046.084-.021.107-.064s-.023-.1-.029-.168.021-.067.034-.124a.191.191,0,0,1,.071-.134c.051-.039.078-.061.069-.1a.613.613,0,0,1-.035-.131c0-.04.009-.017-.012-.073a.117.117,0,0,1,0-.116c.019-.052.072-.039.068-.062s-.084-.058-.085-.123a.126.126,0,0,1,.027-.1c.013-.016.147-.122.155-.132s0-.036.063-.068.087-.052.112-.062.064-.008-.012-.03a.3.3,0,0,0-.142-.025,1.074,1.074,0,0,1-.155.042.79.79,0,0,0-.19.05.035.035,0,0,0,0-.052c-.026-.025.068-.109.084-.119s-.123-.044-.194-.057a1.474,1.474,0,0,0-.294-.05,1.813,1.813,0,0,0-.241.018c-.04.013-.035.066-.081.068a1.4,1.4,0,0,0-.2-.017,1.307,1.307,0,0,0-.182.057c-.011,0,.041.034.075.041s.078.078.078.078-.091-.03-.184-.056a.486.486,0,0,0-.239.011.592.592,0,0,1-.163.035.47.47,0,0,0-.205.095c-.043.029-.177.107-.211.126s-.021.026.015.036A.767.767,0,0,0,171.882,127.525Zm-1.936,1.006c.01.044.01.109-.014.081s-.044-.084-.084-.061-.082.016-.075.011,0-.029-.021-.036-.032,0-.053.016-.087.028-.06.007.018-.032.008-.057-.078.017-.115.043a.427.427,0,0,0-.08.092c-.022.027-.007.044.027.054s.086.016.042.032-.079.027-.056.041a.173.173,0,0,0,.1.011.287.287,0,0,1,.135,0,.386.386,0,0,0,.1.016.194.194,0,0,1-.066.022c-.041.007-.118,0-.158.007s-.1.018-.085.032a.161.161,0,0,0,.082.054c.054.017.064,0,.1.009s.015.044.024.05a.512.512,0,0,0,.131-.016c.061-.011.038-.021.086-.033s.049-.048.077-.056.008.018.041.026.015.011.051.016.028.019.063.017.076-.026.071-.03a.031.031,0,0,1-.007-.031c0-.016-.035,0-.049.011s-.013-.022.016-.037.056,0,.073,0,0-.05-.029-.058-.045-.027-.093-.053-.022-.037-.036-.071-.043-.135-.07-.152-.054-.013-.08-.031A.182.182,0,0,0,169.946,128.531Zm-.723-.069c.011.032.013.012-.009.047s-.009.049-.025.076-.057.062-.044.08.055.028.072.042.035.042.066.031a.335.335,0,0,0,.064-.029c.021-.011.04-.024.039-.052s0-.042.007-.04.023.015.03,0a.168.168,0,0,1,.034-.057c.015-.014.057-.029.077-.046a.42.42,0,0,0,.064-.05c.009-.014-.017-.026-.034-.032s-.036-.032-.074-.032-.059.029-.057.016-.026-.019-.042-.025a.137.137,0,0,0-.08-.009.575.575,0,0,0-.11.02C169.166,128.407,169.212,128.429,169.223,128.462Zm1.134.388c-.005.007-.028.014-.042.031s.029.007.043.012.024.019.036.023a.206.206,0,0,0,.1-.006c.025-.012.028-.016.025-.021a.374.374,0,0,0-.089-.074c-.036-.019-.037-.02-.045-.015S170.362,128.843,170.357,128.85Zm-.165-.38c-.023.012-.04.026,0,.046a.76.76,0,0,1,.08.054c.027.017.038.066.095.044s.079-.048.087-.071-.008-.027-.022-.048-.017-.03-.046-.027l-.038,0a.159.159,0,0,1,.05-.04c.031-.015,0-.026.02-.04s-.037-.022-.06-.016-.024,0-.061,0-.1.032-.094.044.03.007.056.022.034.013.008.054-.04-.009-.049-.016S170.217,128.459,170.192,128.471Zm-.167-.074c-.039,0-.052.031-.037.035s.024,0,.048.021.044.039.054,0S170.086,128.39,170.026,128.4Zm-.629-.314c-.044.035-.052.062-.086.084s-.026.041-.015.053.045,0,.061-.009.028-.028.038-.016.049-.042.065-.06a.133.133,0,0,1,.044-.035s-.015.021-.008.038.038.017.066-.011,0-.056.024-.079.04-.019,0-.04a.062.062,0,0,0-.079.013A.286.286,0,0,0,169.4,128.082Zm.266.055a.179.179,0,0,0-.077.022.148.148,0,0,0-.068.089c-.009.025,0,.025.042.04a.082.082,0,0,0,.1-.039c.012-.035.027.008.02.026s.026,0,.042-.006a.251.251,0,0,1,.066-.011.234.234,0,0,1-.079.045.622.622,0,0,1-.085.023c-.011,0,.01.018.058.028s.077-.029.146-.055.065-.031.088-.024.047-.011.075-.018.039,0,.051-.037.034-.081-.005-.083-.041,0-.047.042-.008.017-.008.017-.026-.039-.042-.059-.027-.052-.044-.069-.025.007-.052.037-.005.041.021.054.046.046.033.055-.028,0-.078,0-.048-.015-.062-.022.023-.02-.029-.042S169.68,128.137,169.662,128.138Zm-.161.042a.282.282,0,0,0-.077.059c-.011.016.011.014.033.013S169.483,128.211,169.5,128.18Zm.138-.107c-.018.008-.018.014.011.017s.046-.009.04-.021S169.653,128.066,169.639,128.073Zm.149-.155a.208.208,0,0,0-.079.033.078.078,0,0,0,.009.047c.009.017.012.019.06.006s.083-.038.066-.043a.325.325,0,0,0-.04-.014c-.014,0,.012-.009.045-.019S169.892,127.9,169.787,127.918Zm-.165.025c-.014.006-.019.006.01.018s.06.01.056,0A.049.049,0,0,0,169.622,127.943Zm.112-.08a.077.077,0,0,0-.039.038c-.006.007.031-.006.048-.01s.021.006.037-.008.049,0,.079-.006.034-.026.028-.043S169.813,127.833,169.734,127.864Zm.3.074c-.008,0-.005.016,0,.031s.009.011.023.017a.125.125,0,0,1,.033.021s.006,0,.011-.009,0-.012-.019-.032S170.051,127.927,170.03,127.937Zm.1.127a.052.052,0,0,0-.044.011c-.008,0,0,.013.01.031s0,.023.034.025.043,0,.046-.025S170.151,128.07,170.131,128.065Zm.128.038c-.02-.015-.03-.027-.051-.019s0,.019,0,.025.025,0,.026.013.008.019-.022.021-.039,0-.05.009.022,0,.033.012.028.015.058.011l.069-.011a.261.261,0,0,0-.03.034.032.032,0,0,0,0,.045c.015.01.017-.01.059-.011a.064.064,0,0,0,.055-.023.038.038,0,0,1-.008-.03.1.1,0,0,0,0-.026.242.242,0,0,1,.021.017l-.009-.035c-.006-.022,0-.024-.008-.055s-.005-.037-.037-.036-.054.011-.08.011-.037,0-.018.015.022.021.031.032a.075.075,0,0,1,.008.036Zm-.159.115h0a.038.038,0,0,0-.019.031c0,.01.017,0,.047-.006S170.141,128.205,170.1,128.218Zm.411-.055a.222.222,0,0,0-.057.046c-.014.016,0,.018.034.036s.075.022.092,0S170.572,128.13,170.511,128.163Zm.168-.142c-.046,0-.032.011-.086-.006a.5.5,0,0,0-.139-.02c-.018,0-.01.009.009.04s.024.042.063.032.071-.016.1.025.044.054.02.069-.012.039,0,.071.045.03.089.03.321,0,.364-.012a.279.279,0,0,0,.1-.061c.023-.016.035-.042,0-.061a.24.24,0,0,0-.111-.036c-.035,0-.065.018-.119.023s-.042.031-.09.032-.025.022-.084,0-.1-.054-.075-.059.051-.008.035-.021S170.722,128.017,170.679,128.022Zm-.554-.226c.029.009.036.017,0,.025s-.057.031-.025.027a.339.339,0,0,1,.1.009c.041.007.038,0,.056.026a.055.055,0,0,0,.066.016c.028-.007.032-.008.014-.028s-.037-.057-.062-.072-.046-.035-.071-.033-.03,0-.052-.026-.039-.015-.07-.007-.041.03-.053.04S170.1,127.785,170.125,127.8Zm.376-.3c-.034.042-.061.078-.023.083s.056,0,.058.009-.006.02-.064.02-.04.013-.007.051.035.025.084.023.065-.019.106-.008.053.021.016.032-.123.031-.1.05a.343.343,0,0,0,.108.066c.027,0,.033-.018.093-.011s.045.012.052,0,.039-.058.046-.073.022-.025.055-.032.043-.017.012-.028-.065-.016-.062-.024.022-.033.009-.046-.034-.012-.051-.019-.036-.037-.057-.051a.545.545,0,0,1-.067-.035c-.026-.02-.068-.069-.12-.066C170.55,127.434,170.535,127.455,170.5,127.5Zm-.067.356c-.013.007-.045.007-.021.028s.018.02.048.009a.243.243,0,0,0,.079-.049c0-.008-.031-.025-.054-.032a.609.609,0,0,0-.089-.04C170.327,127.75,170.448,127.846,170.435,127.853Zm1.6-.633a1.08,1.08,0,0,0-.31-.037c-.063.014-.059-.032-.146-.021s-.221,0-.263.011.021.024.043.039-.108-.016-.207.011-.163.042-.057.083a.724.724,0,0,1,.12.052,1.423,1.423,0,0,1-.193-.047c-.057-.022-.026-.021-.134.009s-.212.047-.207.08.087.076.141.088a.517.517,0,0,0,.174-.019c.008,0-.044.044-.044.044s.056-.011.119-.028.112-.034.171-.055a.531.531,0,0,0,.069-.028.919.919,0,0,1-.174.107.8.8,0,0,1-.207.047c-.043,0-.037.029.007.052a.644.644,0,0,1,.1.087.071.071,0,0,1,.026.042.122.122,0,0,0-.143,0c-.075.053-.065.081-.045.088s.085.013.1.035.1-.021.1-.021-.043.055-.085.055-.04-.036-.1-.029-.057.021-.031.042.047.027,0,.049-.066.027-.068.053.059.026.1.026.075,0,.145-.005.061-.024.087-.024.052.008.042.034.01.009.087-.018.041-.07.036-.084-.033-.019-.05-.028.052-.079.041-.1.086,0,.129-.062.028-.1,0-.109.058,0,.085-.019a.4.4,0,0,0,.114-.066c.024-.031.033-.042-.026-.036s.085-.026.155-.071.15-.1.167-.112.033-.006-.049,0-.179-.006-.126-.013a.869.869,0,0,0,.256-.057A.491.491,0,0,1,172.033,127.22Zm-.975,1.126c-.087-.008-.214-.029-.24.045a2.28,2.28,0,0,0-.07.271c0,.03.1.076.179.079s.2.008.172-.01,0-.027.066-.024.077-.015.077-.029.012.018.061.044.091.1.134.141.141.1.122.132.021.146-.129.172-.158.008-.157.042.009.048.068.048.141-.048.169-.013a.177.177,0,0,0,.091.057c.024.008-.03.023-.044.027s.03.01.115.05.188.045.138.016-.075-.083-.1-.1,0,0,.038.006a.257.257,0,0,1,.094.057c.017.014.026-.005.038-.062s-.005-.057-.073-.1-.089-.081-.1-.114.035-.039.052-.062.066.041.1.078.061.1.087.055a.6.6,0,0,0,.05-.177c0-.024-.026,0-.138-.054a.942.942,0,0,0-.179-.076c-.01,0,.029-.021.078-.045s.07-.021-.035-.12-.134-.12-.2-.127-.087-.078-.136-.1-.162.029-.195.037-.023.021-.065-.039S171.058,128.346,171.058,128.346Zm.078,0c-.043,0,.026.084.082.088a.266.266,0,0,0,.115-.028A.387.387,0,0,0,171.136,128.346Zm-.2.8a.409.409,0,0,0-.027.1.18.18,0,0,1-.014.058c-.006.02.021,0,.039.026s.01.039.043,0a.1.1,0,0,1,.115-.033c.046.014.081.02.065-.007s-.036-.025-.068-.063a.184.184,0,0,0-.094-.062C170.96,129.159,170.956,129.113,170.941,129.151Zm.329,2.843a.143.143,0,0,0-.119-.09.2.2,0,0,0-.145.026c-.031.01.029.016.069,0a.077.077,0,0,1,.077,0c0,.007-.014.011-.02,0s-.008.019.037.035.056.024.061.044a.13.13,0,0,0,.015.046c.01.016.014.023,0,.03s-.012.006,0,.015a.183.183,0,0,0,.083.027c.039,0,.053.01.025-.026S171.273,132,171.269,131.993Zm.127.178a.064.064,0,0,1,.014.06c0,.013-.025,0-.069-.008s-.037-.006,0,.014.063.015.061.043.035,0,.051-.013.015,0,.083.008.081.022.07-.007.031-.027-.029-.056S171.371,132.146,171.4,132.171Zm-.193.017c-.025-.028-.057-.032-.057-.008s.008.022.032.029S171.22,132.206,171.2,132.188Zm.491.122c-.027-.009-.033.011-.015.029s.047.011.074.01S171.742,132.327,171.694,132.31Zm-.318-3.4c-.036.015-.058.026-.026.068s.051.068.063.037S171.438,128.889,171.376,128.915Zm-.293.451c-.055.008-.073.01-.065.041s.024.026.061.007S171.143,129.356,171.083,129.366Zm.115.047c-.009,0-.012.024,0,.044s.036-.006.046-.03S171.233,129.4,171.2,129.413Zm-.6-1.5c-.052,0-.131.02-.087.021a1.236,1.236,0,0,0,.15.005c.07,0,.077-.009.079-.043S170.691,127.912,170.6,127.916Zm-.326-.287c-.053.016-.04.027.022.055s.064.014.057-.037S170.3,127.619,170.269,127.629Zm3.723,1.358c-.066.018-.088.007-.1.041s-.038.015-.053.02-.036.1-.047.084a.283.283,0,0,1-.029-.054c-.015-.032,0-.026-.024-.06s-.086-.03-.091-.016.04.025.025.041a.743.743,0,0,1-.064.046c-.013.011.026.006.051,0s.041.019.051.036-.011.034-.022.042.036.006.054.01.029.019.016.04.055,0,.093,0,.047.026.1.008a.351.351,0,0,0,.136-.055c.052-.038.048-.029.082-.054s.026-.032.027-.06.023.007.015-.034-.051-.03-.08-.033-.029-.026-.044-.034S174.059,128.968,173.992,128.987Zm4.41,3.574a.127.127,0,0,0-.007.043c0,.022,0,.046,0,.067s0,.037.015.042a.039.039,0,0,0,.04,0c.02-.009.039-.026.029-.051a.717.717,0,0,0-.04-.078C178.428,132.565,178.407,132.542,178.4,132.56Zm-.016-.03c0,.009,0,.007.009.013s.009,0,0-.007-.005-.009-.005-.009-.007,0-.007,0m1.881,1.293,0,0c-.035.036-.068.026-.13.045a.407.407,0,0,0-.179.111c-.008.028,0,.032-.008.028a.089.089,0,0,1-.021-.02.131.131,0,0,0-.013.064.38.38,0,0,1,.017.088c0,.039-.015.062-.014.089s.046.078.058.11a.181.181,0,0,1,.026.08c.006.057.036.089.006.119s-.052.024-.015.056a.109.109,0,0,0,.125.032c.059-.02.043-.039.089-.049a.582.582,0,0,1,.094-.022c.039,0,.067,0,.081-.026s0-.027.043-.046.035-.024.062-.029.043.013.078-.014.009-.03.087-.03a.381.381,0,0,1,.14.02.221.221,0,0,1,.088.054c.011.018.027.04.032.04s.012,0,.03-.017a.882.882,0,0,1,.071-.055.128.128,0,0,1-.014.054.07.07,0,0,0-.011.042c0,.007.03-.023.034-.024s.008.054.011.059.016,0,.027.018a.205.205,0,0,1,.039.059.142.142,0,0,0,.093.065.263.263,0,0,0,.082,0c.024,0,.025-.032.05-.021s0,.034.057.029a.157.157,0,0,0,.1-.04c.023-.015.026.022.056-.019s.035-.031.04-.081a.185.185,0,0,1,.032-.107c.029-.047.035-.024.055-.094a.685.685,0,0,0,.042-.192.269.269,0,0,0-.012-.084c-.013-.065,0-.057-.046-.084s-.052-.019-.063-.057,0-.049-.017-.049-.036.008-.048-.017a.157.157,0,0,0-.032-.06c-.022-.024-.043-.019-.084-.037s-.02-.023-.02-.055,0-.065-.03-.08-.013.008-.013-.044,0-.044-.026-.053-.035-.008-.052-.04-.038-.083-.046-.1-.017,0-.028.018a.163.163,0,0,0-.025.081c0,.031.014.049.014.092a.2.2,0,0,1-.048.109c-.018.024-.033,0-.049,0s-.019-.03-.052-.046a.612.612,0,0,1-.122-.056c-.028-.025-.009-.026,0-.052a.129.129,0,0,1,.042-.064c.021-.017.014-.023-.011-.038a.232.232,0,0,0-.107-.015c-.044,0-.071,0-.068.022s.029.035-.008.028-.07-.01-.086.007a.121.121,0,0,0-.029.067c-.01.038,0,.04-.013.04a.587.587,0,0,1-.1-.039c-.021-.009-.032-.008-.057.014a1.273,1.273,0,0,1-.14.115C180.3,133.73,180.3,133.725,180.267,133.825Zm-1.163-1.1c-.018,0-.028-.007-.006.022a.379.379,0,0,0,.05.055c.022.02.03-.014.046.024s.01.039.027.054.031.018.035.033a.1.1,0,0,0,.029.053.07.07,0,0,1,.03.045c.011.031.029.054.037.081s.058.052.084.084.068.08.075.066.025,0,.038,0,.017-.023.026-.069a.073.073,0,0,0-.02-.077c-.012-.01-.035-.013-.041-.023s-.016-.043-.031-.053-.018,0-.018-.025.017-.023,0-.038a.116.116,0,0,1-.031-.032c-.007-.007-.054-.019-.066-.032s-.063-.036-.088-.061a.326.326,0,0,1-.059-.061C179.209,132.754,179.184,132.739,179.1,132.728Zm.507.523c-.02,0-.031-.012-.045.013s-.012.025.009.025.017.011.016.014-.01,0,.034.015a.112.112,0,0,0,.088,0c.012-.006.016.016.077.026s.093-.005.133,0,.03,0,0-.026-.025-.009-.053-.03a.194.194,0,0,0-.085-.024c-.018,0,.015.019-.04.012s-.035,0-.064-.013-.029-.022-.048-.025S179.611,133.252,179.611,133.252Zm.443.089c-.015,0-.048.014-.033.02s0,.01.05.006a.2.2,0,0,0,.092-.019c.006-.01-.008,0-.027-.009s-.017,0-.044.007A.056.056,0,0,1,180.053,133.341Zm.162,0c-.031,0-.027.011,0,.018a.128.128,0,0,0,.065.006.281.281,0,0,1,.055-.015c.034-.005.045,0,.072-.008l.027,0s0-.006-.021-.005l-.05,0c-.018,0-.05.016-.063.015s-.038-.008-.044,0S180.249,133.333,180.216,133.337Zm.174.04h0c-.021.015-.022.019-.02.03a.024.024,0,0,1,0,.017.092.092,0,0,0,.056-.026.092.092,0,0,1,.05-.032.19.19,0,0,0,.053-.036.157.157,0,0,1-.041,0,.082.082,0,0,0-.05.017C180.427,133.356,180.441,133.358,180.39,133.377Zm-.182.013c-.023-.016-.045-.014-.046,0s-.02.009.012.021.063.027.06.011S180.217,133.4,180.208,133.39Zm-.208-.676c-.013.018.012.014-.007.03s-.034.009-.053.033a.286.286,0,0,1-.06.05c-.012.009-.051.019-.069.043a.023.023,0,0,0,.006.036s-.01,0-.038-.005-.029-.023-.029-.023-.02,0-.031.029-.017.033,0,.051-.014.018-.009.031,0,.035.016.037.015-.011.03.007,0,.071.021.074.033-.005.05,0a.062.062,0,0,0,.05.006.074.074,0,0,1,.057.006.187.187,0,0,0,.072.018c.02,0,.023,0,.027-.025s0-.055.025-.077.025-.022.027-.042a.111.111,0,0,1,.016-.062c.015-.021.023.012.031,0s.015-.016.011-.024-.027-.008-.036-.023,0-.023-.008-.055-.016-.019,0-.037.027-.021.028-.035.008-.014.026-.027,0-.007-.02-.02-.05-.061-.07-.061S180.013,132.7,180,132.714Zm2.574,1.722c-.008-.006-.015,0,0,.021s.02.016.033.017.022.045.029.057a.22.22,0,0,0,.02.025.234.234,0,0,1,0,.071c-.006.022-.019.031-.023.052s.02.014.036.021.013.006.007.024-.024.026-.024.029.036.023.054,0a.322.322,0,0,0,.055-.078c.008-.024-.014-.013.011-.03s.022-.009.035-.03.027-.043.012-.054-.031.014-.045.019a.047.047,0,0,1-.042,0c-.018-.009-.021-.009-.028-.025a.086.086,0,0,0-.016-.025s0,.027-.018.019-.01-.019-.019-.034-.009-.02-.016-.031,0-.033-.031-.036S182.581,134.442,182.573,134.436Zm.006.295a.327.327,0,0,0-.046.051.225.225,0,0,0-.032.057.166.166,0,0,1-.074.058.171.171,0,0,0-.071.051c-.014.02-.064.084-.07.091s.023.014.054.014.079.027.1,0a.955.955,0,0,0,.069-.12.317.317,0,0,1,.058-.057c.026-.023.07-.067.07-.084a.154.154,0,0,0-.011-.044.032.032,0,0,1-.032.016C182.574,134.76,182.579,134.73,182.579,134.73Zm-.205.311c-.031-.016-.037.014-.042.045s.013,0,.04-.009S182.385,135.048,182.373,135.042Zm-1.036-.212c-.034-.011-.028.021-.023.045a.188.188,0,0,0,.025.064.084.084,0,0,0,.081.019c.019-.009.033-.039.052-.067a.121.121,0,0,0,.024-.078c0-.017-.027.015-.043.022a.087.087,0,0,1-.066.018A.3.3,0,0,1,181.337,134.83Zm-.434-1.742c-.028.006-.042-.018-.064-.065s-.04-.053-.1-.032-.049.016-.01.031.044.019.049.019.061.008.049.016-.064.016-.031.039a.952.952,0,0,0,.106.05c.087.044.1.011.129.068s.028.047,0,.062-.052.029-.04.031a.792.792,0,0,0,.094.009c.059,0,0,.037.069.037a.116.116,0,0,0,.11-.052c.026-.031.031-.014.087,0s.075.061.145.081.1.046.056,0a1.482,1.482,0,0,0-.119-.117c-.059-.047-.063-.052-.08-.088a.3.3,0,0,0-.147-.105,1.384,1.384,0,0,0-.186-.054C180.946,133,180.932,133.081,180.9,133.088Zm-.458-.162c-.026.018-.029.007-.049,0s-.014.025-.058,0-.059-.03-.106,0-.017.048-.018.073a.474.474,0,0,1-.053.118c-.014.025-.014.034,0,.051s.026.01.032.018a.224.224,0,0,1-.007.093c-.007.021.018.025.045.019s0-.008,0-.03.013-.032.013-.074v-.06s.007,0,.017.01.024.053.036.074.023.035.042.021.036-.03.036-.03-.036-.011-.036-.023a.062.062,0,0,0-.009-.063c-.025-.04-.038-.042-.006-.044s.03-.033.049-.042a.088.088,0,0,1,.044-.006.048.048,0,0,0-.046-.011.359.359,0,0,0-.077.025c-.024.013-.045.021-.049,0a.168.168,0,0,1,0-.064c0-.033.041-.008.07-.016s.028-.006.09,0,.066-.01.085-.035a.262.262,0,0,0,.029-.055S180.472,132.907,180.446,132.926Zm.147-.089c.005-.01-.045.035-.055.044s0,.022.007.035a.38.38,0,0,1,.008.067c0,.01.029.019.029.019a.1.1,0,0,1,.008-.044c.01-.014,0-.031,0-.056S180.575,132.867,180.592,132.837Zm-.1.267c-.04-.015-.055-.005-.055.015s0,.031.038.031S180.566,133.132,180.492,133.1Zm.079-.013c-.009,0-.02.034-.014.053s.012.006.035,0,.019-.021.047-.024a.3.3,0,0,1,.086.02s.012-.014-.032-.043A.114.114,0,0,0,180.571,133.09Zm-.8-1.032h-.046c-.006,0-.02.015-.03.021s-.01.014,0,.03.019.016.038.022.012-.008.027-.014a.038.038,0,0,0,.021-.03.041.041,0,0,1,.016-.021s-.011-.018-.011-.019Zm.472.056c-.016-.011-.024.029-.029.05s-.009.035,0,.05,0,.02,0,.02l-.022-.017a.146.146,0,0,0-.006.036c0,.017-.007.024.019.036s.035.005.038.024,0,.027.021.03a.071.071,0,0,1,.044.022c.007.011,0-.03.015-.027a.07.07,0,0,1,.035.031.031.031,0,0,0,.022.015s-.02-.033-.011-.037.011-.007-.011-.021a.127.127,0,0,0-.058-.013c-.017,0-.017.012-.031-.022a.1.1,0,0,1,0-.062c0-.007.009.011.02-.012a.123.123,0,0,0,.011-.065c0-.022.016-.031,0-.032A.188.188,0,0,1,180.246,132.114Zm.207.436c0,.016-.016,0-.023,0s-.01.007-.021.012a.235.235,0,0,0-.038.029s0-.016,0-.019-.008-.023-.016-.01a.071.071,0,0,1-.034.03.054.054,0,0,0-.032.039c0,.016.011.015.011.015a.1.1,0,0,0,.019-.024c.012-.018.014-.018.036-.021s.02,0,.027.009,0,.03,0,.043,0,.029.021.037.012,0,.033,0,.02,0,.017-.011a.181.181,0,0,1-.01-.032c0-.012.012-.017.016-.019s.007.012.013.027.008.014.011,0a.183.183,0,0,0,.007-.054.212.212,0,0,1,0-.038.046.046,0,0,0-.016-.031l-.026-.022S180.451,132.534,180.454,132.55Zm-.1-.1s0-.01-.019-.029-.019-.024-.048-.029-.058,0-.046.033.016.035.04.039a.049.049,0,0,0,.039-.01s0,.005-.021.019-.026.042-.007.053.017.027.028.019.018-.036.039-.056.022-.023.025-.044a.18.18,0,0,0,0-.038Zm.049-.06s-.017,0,0,.014.03.018.028.029,0,.013-.009.012-.011,0-.015,0,0,.007,0,.014,0,0,.009.011.005.016.008.03.008.006.008.006,0-.032,0-.039,0-.023.008-.017.008.024.015.006a.083.083,0,0,0,0-.049c0-.014-.014-.015-.028-.015Zm-.225.056c-.006,0-.01.008-.014.03a.084.084,0,0,1-.029.047.443.443,0,0,0-.052.055c0,.007,0,0,.025-.01s.049-.03.052-.047,0-.006.021-.018.011-.015.012-.032S180.189,132.445,180.177,132.448Zm1.442.664c0,.022.006.029-.014.046a.134.134,0,0,1-.067.02c-.022,0-.006,0-.033,0s-.034,0-.021.015.009.027.05.025a.355.355,0,0,0,.1-.031c.026-.008.024-.029.026-.039S181.622,133.088,181.619,133.112Zm.113.049c.011.016.007.013.021.034a.089.089,0,0,0,.054.03c.017.005,0-.006-.012-.023a.191.191,0,0,0-.032-.044C181.744,133.142,181.713,133.133,181.732,133.161Zm-1.471-1.364c-.056.035-.081.033-.059.078s.036.064.039.073.014-.005.029-.041a.877.877,0,0,0,.023-.1C180.3,131.8,180.281,131.785,180.261,131.8Zm.956-1.75c.006.023.012.06,0,.064s-.023.03-.027.057a.127.127,0,0,0,0,.082c.015.021,0,.022,0,.04a.314.314,0,0,1,0,.09.109.109,0,0,0-.01.061.524.524,0,0,1,0,.075c0,.04,0,.073,0,.089s.01-.008.016-.014a.036.036,0,0,1,.042,0l.013.014s.02.009-.008-.053-.034-.049-.026-.1.012-.057.041-.062.045.035.049.039,0-.014-.013-.045a.275.275,0,0,1-.023-.082.128.128,0,0,0-.031-.084c-.016-.011-.008-.03,0-.045a.127.127,0,0,0,.006-.066.757.757,0,0,0-.015-.079c0-.014-.022.009-.022.009Zm-.026.621a.08.08,0,0,1-.008.054c-.012.02,0,.025-.01.054s-.041,0-.041.006a.058.058,0,0,1-.014.033c-.008.007-.038.009-.029.037a.43.43,0,0,0,.024.058.139.139,0,0,1,.022-.018l.019-.005s0-.008-.022-.017a.027.027,0,0,1-.015-.033c0-.006.027,0,.043,0s.029-.01.048.005a.132.132,0,0,0,.047.021.145.145,0,0,1,.012-.039c.008-.016.034-.009.059-.016s.044-.011.036-.022-.008-.034-.013-.052-.022,0-.035.005a.049.049,0,0,1-.047-.009.359.359,0,0,1-.06-.071S181.189,130.651,181.191,130.668Zm-.078.266a.058.058,0,0,0-.016.049c0,.024.022,0,0,.071s-.039.089-.064.108a.062.062,0,0,1-.059.014c-.01,0,0-.021.01-.026s-.022-.007-.035,0,0,.016,0,.027-.025.042-.023.057,0,.018-.013.023-.026-.012-.031-.014a.331.331,0,0,0-.059.008.058.058,0,0,0-.051.037c-.013.023-.044.026-.066.035s-.013.04-.038.051-.024.031-.026.048.015,0,.017,0,0-.023.018-.021.017,0,.009.02l-.02.04c-.008.015,0,.021.014.036s.023,0,.048-.03.027-.032.025-.062-.012-.03-.03-.039-.022,0,0-.023.029,0,.043-.011a.336.336,0,0,1,.079-.017c.032-.008.063-.018.064-.008s.011.045.012.052.022-.01.044-.018,0-.011,0-.025a.024.024,0,0,1,.009-.022s.011.023.046.007.037-.023.046-.021.015.011.029,0,.017,0,.014.006.042-.014.051-.02,0,0,0-.026-.016-.027-.009-.06a.275.275,0,0,0,.007-.057c0-.021.009-.023.015-.025s.005-.028.016-.043.008-.021.008-.055-.018-.027-.019-.051a.169.169,0,0,1,0-.047s-.037.014-.041.022l0,.008S181.125,130.928,181.113,130.934Zm-.244.366a.664.664,0,0,0-.089.018c-.023.007-.028.017-.024.04a.5.5,0,0,0,.015.058c0,.012.016,0,.037-.011s.02-.045.041-.045.013.024.04-.009.007-.036.007-.053S180.869,131.3,180.869,131.3Zm2.441-1.8c-.041-.008-.053-.017-.057,0s-.008.02.017.029.039-.007.064.011a.053.053,0,0,0,.05.015.042.042,0,0,0,.026-.011A.581.581,0,0,0,183.31,129.5Zm-.472-.65c-.015,0-.027-.01-.023.026s.012.041.06.035a.53.53,0,0,1,.077-.007.2.2,0,0,0,.079-.014.112.112,0,0,0-.031-.035c-.022-.017-.052.011-.1,0A.548.548,0,0,0,182.838,128.848Zm-1.472-.548c0,.014.065.054.089.066s.042.006.092,0,.053-.027.059-.039-.023-.008-.057-.014-.061.006-.072,0,.017-.012-.012-.023-.036,0-.043,0-.007-.015-.022-.016A.033.033,0,0,0,181.367,128.3Zm-.256.083c-.022.009-.021.017,0,.038s.017.016.006.031,0,0,.037.016.051.046.074.053a.052.052,0,0,0,.038,0,.2.2,0,0,0-.029-.054c-.021-.029-.068-.037-.076-.063S181.143,128.371,181.111,128.384Zm.233-.119-.084-.052a.246.246,0,0,0-.086-.042c-.017,0-.014.017-.021.033s-.011.012-.037,0a.4.4,0,0,0-.079-.038c-.027-.006-.043.016-.074.046s-.013.039.024.084.053.047.083.03.021-.029.043-.021a.323.323,0,0,0,.1-.008s0,.041.028.03a.2.2,0,0,0,.078-.033Zm-2.262-.869c-.009.008-.065,0-.094.049s-.049.014-.063.041a.554.554,0,0,0-.027.061s.026.031.054.028a.125.125,0,0,1,.1.047c.027.037.047.037.112.048s.036.02.07.016.081,0,.071-.013a.073.073,0,0,1-.014-.061c0-.033.034-.032,0-.054a.074.074,0,0,0-.059-.008s.032-.016.02-.017-.072,0-.079-.038.016-.036.029-.039.008-.006-.026-.031a.928.928,0,0,0-.082-.051C179.073,127.385,179.091,127.387,179.082,127.4Zm.327.246a.111.111,0,0,0-.061.052.407.407,0,0,1-.063.07c-.018.014-.013.018.016.029s.082-.018.1-.019.026.022.073.016.119-.015.084-.04a.668.668,0,0,1-.061-.044.166.166,0,0,0-.087-.033s.079-.026.06-.028Zm-2.014-.4c-.045.016-.029.024-.059.048s-.01.03.054.014a.4.4,0,0,0,.108-.04C177.539,127.245,177.463,127.217,177.4,127.241Zm.1.115c-.043.019-.031.039-.02.055s.042-.009.051.008.011.01.051-.016.025-.018.01-.047S177.57,127.323,177.5,127.356Zm-.238-.012c-.027.013-.027.011,0,.024a.155.155,0,0,0,.122,0c.033-.021.03-.017-.011-.023A.2.2,0,0,0,177.259,127.344Zm-.4.049a.656.656,0,0,1,.116,0c.034,0,.021.033-.041.04s.006.016.05.014.015-.038.053-.051.061,0,.105-.02-.025-.031-.077-.03a1.071,1.071,0,0,1-.112,0,.529.529,0,0,0-.124.024C176.731,127.385,176.812,127.4,176.854,127.393Zm.333.011c-.037,0-.128.021-.052.028s.07.012.1,0S177.227,127.4,177.188,127.4Zm.264.016a.17.17,0,0,0-.1-.008c-.041,0-.057.027-.03.038a.105.105,0,0,0,.067,0c.022,0,.02-.01.006-.016S177.483,127.431,177.452,127.421Zm.223-.066c-.041,0-.043.012-.047.025s.006.01.049,0a.219.219,0,0,0,.091-.027c.028-.015-.006-.052-.006-.059s-.039.02-.051.03S177.724,127.349,177.675,127.355Zm-3.2,2.333c-.021.057-.055.083-.014.067s.08-.065.078-.023-.041.036-.029.077,0,.037.07.052.012.009.029.049.027.051.01.063-.069-.036-.072-.016.007.035.019.063-.008.043-.047.062,0,.029.025.028.1-.016.092.01-.048,0-.074.039-.12.081-.071.078.042-.015.189-.036.045,0,.142-.031.066-.038.012-.029.035-.052.023-.109-.047,0-.07-.038-.019-.046.024-.033.039-.008-.044-.062-.032-.043-.07-.087a.057.057,0,1,1-.059-.088c.016-.032.02-.03.037-.069s-.017-.036-.062-.026-.059.014-.049,0a.191.191,0,0,1,.036-.046c.021-.022.025-.033-.013-.024a.287.287,0,0,0-.076.023C174.463,129.6,174.5,129.631,174.476,129.688Zm-.1.134c-.067.026-.048.044-.037.053s.032-.009-.031.027-.063.075-.031.083.029-.019-.006.046-.058.11.012.093.09-.053.124-.058.04-.031.04-.072-.022-.042,0-.076.029-.07-.024-.087S174.414,129.805,174.372,129.822Zm.844.916c0,.009,0,.034-.023.051s.013.032.022.049.02-.055.017-.089S175.227,130.709,175.216,130.738Zm-.013.135a.073.073,0,0,0-.052.07c0,.033.036.006.025.035s0,.044.045.017.02-.052.027-.088S175.262,130.845,175.2,130.873Zm.683.358c-.039,0-.056.02.01.028a.365.365,0,0,0,.121,0c.025-.006,0,0-.028-.023S175.935,131.236,175.886,131.231Zm.371.02c-.054-.011-.039.054.016.044s.034,0,.059-.036S176.313,131.264,176.257,131.252Zm-1.334-.3c-.044.005-.047.02-.013.029s.03,0,.049-.015S174.942,130.947,174.923,130.95Zm-2.639-.794a.368.368,0,0,0-.1.12.289.289,0,0,1-.07.1c-.036.038-.018.029.1.051s.1.039.131.031.031.014.031.038.025.009.037-.027a.214.214,0,0,0-.035-.14c-.023-.037-.029-.037-.065-.028s-.025-.008-.038-.037-.034-.006,0-.05S172.31,130.135,172.284,130.156Zm-3.478-.078a.194.194,0,0,0,.067.118c.028.02.022.009.009-.034s0-.043-.009-.071S168.806,130.065,168.806,130.078Zm.191.2a.349.349,0,0,0,.07.067.244.244,0,0,0,.093.042c.042.012.06,0,.033-.028s0-.022-.053-.033-.059-.007-.084-.023S168.98,130.259,169,130.276Zm-1.062-.4c-.031-.007-.044-.008-.065.008s-.027.032-.016.05,0,.009.032-.01.014-.021.049-.03.027-.02.027-.02A.035.035,0,0,1,167.935,129.872Zm-.011-.042c-.021.012-.028.023,0,.018s.02-.018.035-.015.02,0,.02,0A.06.06,0,0,0,167.924,129.83Zm-.6-.1c-.029.014-.056,0-.038.008a.1.1,0,0,0,.061.018c.019,0,.031,0,.024-.011a.029.029,0,0,1-.009-.021C167.358,129.715,167.35,129.72,167.321,129.734Zm9.643,3.964c-.033.073-.1.037-.159.091s-.047.037,0,.112-.035.067-.054.154.023.072.045.146.033.052.075.042a.245.245,0,0,0,.071-.029,1.029,1.029,0,0,1,.035-.16,1.24,1.24,0,0,0,.052-.229c0-.063.01-.109.024-.089s.015.019.015-.011a.245.245,0,0,0-.043-.138C176.973,133.55,177,133.625,176.963,133.7Zm.049-4.99c-.046.01-.067.038-.034.049s.03,0,.085-.015S177.057,128.7,177.012,128.708Zm.853-.829c-.015-.024-.029.008-.19.078s-.158.009-.308.128-.117.1-.126.175-.044.041-.058.106-.09.068-.052.122a.284.284,0,0,0,.168.107c.08.022.1,0,.086-.01a.272.272,0,0,1-.066-.212c.012-.109.052-.093.087-.133a1.1,1.1,0,0,1,.184-.182,2.206,2.206,0,0,1,.288-.11l.006,0C177.947,127.877,177.882,127.9,177.866,127.879Zm-.432.729c-.019,0-.028,0,.007.037s.065.06.054.015A.059.059,0,0,0,177.433,128.608Zm.572-.33c-.025-.012-.039-.024-.045-.005s.028.045.063.052S178.031,128.289,178.006,128.278Zm-6,2.042a.27.27,0,0,0-.1-.035c-.025,0,.006.026.045.048S172.031,130.331,172.009,130.32Zm-.092.163c0-.032-.021.037.007.052s.044.019.062,0,0-.007-.022-.011S171.915,130.509,171.916,130.483Zm11.413-1.118a.194.194,0,0,1-.082-.008.131.131,0,0,1-.017.056.035.035,0,0,0,0,.038s-.047-.021-.074-.03-.052,0-.068-.043-.063-.034-.1-.034-.026-.047-.026-.047h-.022c-.022,0-.018.055-.047.072a.491.491,0,0,1-.119.028.229.229,0,0,1,.069.075.32.32,0,0,0,.034.067s-.005.016-.075,0-.065.013-.14.044a1.029,1.029,0,0,0-.18.094c-.021.017-.022.007-.087-.008a.09.09,0,0,0-.1.026c-.017.008-.01-.039-.01-.039a.126.126,0,0,0-.052.015c-.3.151-.092.143-.1.174l-.031.118c-.044.131-.074.062-.111.165-.118.329-.185-.05-.185-.137,0-.054-.012-.123.022-.139.293-.136.027-.019.3-.207.089-.061.04-.1.06-.114a.121.121,0,0,1,.051-.022l-.048,0c-.048,0-.05.006-.088.047s-.068.049-.06.017.009-.064-.019-.047a.249.249,0,0,1-.094.026.26.26,0,0,0-.159.1c-.048.061-.021.053-.005.068s-.077.011-.122.007-.021-.012.005-.02-.039-.016-.1-.028-.035.009-.069.023-.033-.012-.05-.016-.093-.008-.146-.014-.05,0-.064.022-.114.106-.157.156-.1.061-.146.107-.056.044-.017.051.045,0,.051.04.025.049.067.049.03.011.037-.021-.01-.068.025-.04a.172.172,0,0,1,.075.089c.01.04,0,.069-.021.137a1.487,1.487,0,0,1-.05.211l-.072.139a.843.843,0,0,1-.191.2c-.03.012-.049.013-.064-.013s-.025-.022-.059.008a.167.167,0,0,0-.063.1c-.013.049-.042.049-.072.085s-.038.028-.016.069a.416.416,0,0,1,.063.125.266.266,0,0,1-.032.125c-.014.025-.083.037-.081.025a.957.957,0,0,0,0-.109c0-.035-.029-.035-.019-.046s.047-.029.019-.055-.047,0-.059-.034.005-.055,0-.066-.026-.023-.066-.027-.05.036-.059,0,0-.039-.014-.053-.034,0-.081.035a.227.227,0,0,1-.1.048c-.039.017-.039.027-.03.04s.042.072.069.078.047-.012.089-.012.049.006.039.022-.039.031-.09.083-.035.041-.018.062a.359.359,0,0,1,.06.087c.018.04,0,.054,0,.078a.107.107,0,0,0,.027.095c.034.036.01.024.006.038s-.061.118-.087.17-.026.057-.111.117a.35.35,0,0,1-.168.074.54.54,0,0,0-.109.032c-.023.009-.014.029-.017.041s-.025,0-.021-.017,0-.031-.01-.036a.074.074,0,0,0-.086.017c-.038.037-.084.039-.1.085s-.013.03,0,.05a.878.878,0,0,1,.119.141.266.266,0,0,1,.025.121c0,.046-.094.132-.136.16s-.051.055-.045.011-.018-.069-.048-.1a.358.358,0,0,0-.139-.063c-.017,0,.007-.03,0-.029s-.039-.006-.035.037-.027.029-.034.072-.014.086.013.083.022.037.043.084.013.021.065.063.039.035.051.078a.288.288,0,0,0,.034.106c.026.039.027.047-.015.025a.25.25,0,0,1-.1-.076.764.764,0,0,1-.038-.129c-.01-.034-.081-.074-.1-.1s-.009-.044,0-.1a.4.4,0,0,0-.009-.144.976.976,0,0,0-.045-.162c-.013-.032-.007-.028-.028,0s-.036.045-.055.045-.048,0-.046-.015.022-.062.016-.08a.231.231,0,0,0-.052-.1.208.208,0,0,1-.076-.1c-.018-.048-.022-.034-.056-.009a.352.352,0,0,1-.149.031c-.037,0-.006.021-.015.039s-.053.042-.141.134-.1.095-.125.1-.037.007-.036.044a.623.623,0,0,1,0,.092.193.193,0,0,1-.024.069.43.43,0,0,0-.023.081.115.115,0,0,1-.051.064c-.028.02-.028.017-.042-.013s-.081-.147-.136-.257a.318.318,0,0,1-.047-.16c0-.032-.006-.222,0-.236s-.026.022-.034.038-.007.034-.038.037-.038,0-.068-.026-.043-.046-.038-.045a.174.174,0,0,0,.059-.013c.019-.01.013-.02.013-.02l-.046,0c-.025,0-.014-.006-.047-.019s-.041-.014-.047-.029-.014-.036-.019-.047-.008-.012-.014-.026-.022,0-.058,0-.028,0-.071.019a.178.178,0,0,1-.1.009.312.312,0,0,1-.109-.031.3.3,0,0,0-.065-.01c-.036-.005-.028-.024-.038-.039s-.024-.019-.072-.015a.154.154,0,0,1-.077-.006c-.027-.007-.029-.017-.052-.04s-.015,0-.03-.016a.128.128,0,0,1-.041-.06c-.012-.031-.009-.038-.022-.053s-.013-.011-.055-.011-.023,0-.028.005a.287.287,0,0,0-.03.036c-.011.015.01.035.027.055s0,.018.029.048.018.027.037.069.031.052.035.065.008,0,.013-.016a.2.2,0,0,0,0-.052.232.232,0,0,1,.015.047c.007.03,0,.03.007.049s0,.016.033.016a.324.324,0,0,0,.089-.007c.036-.008.052-.041.069-.051s.017-.044.028-.04,0,.04.011.064.013.015.038.026.032.017.058.026.008.011.022.036.013.011.026.02.008,0,0,.033a.1.1,0,0,1-.034.055c-.022.025-.022.017-.026.016s-.01-.018-.01-.018a.2.2,0,0,0-.017.064c0,.034.011.022-.03.038a.317.317,0,0,0-.082.037c-.016.014-.016.032-.025.041s-.021,0-.049.01a.1.1,0,0,0-.044.026c-.023.017,0,.016-.032.027a.639.639,0,0,1-.112.04c-.027,0-.021.01-.028.02s-.007.015-.042.02a.451.451,0,0,0-.1.021c-.021.01-.053.034-.076.029s-.016,0-.024-.025a.264.264,0,0,1-.014-.068.324.324,0,0,0-.034-.116c-.019-.032-.019-.034-.04-.068a.29.29,0,0,0-.053-.075c-.018-.013-.027-.013-.036-.023s0-.043-.012-.071a.237.237,0,0,0-.029-.072.36.36,0,0,1-.053-.068c-.018-.034-.02-.037-.047-.089s-.036-.058-.054-.093-.006-.028-.013-.049-.023.034-.037.044-.02,0-.031-.026-.02-.058-.028-.045-.014.024,0,.057.017.026.031.057.055.11.072.142a.2.2,0,0,1,.025.066.135.135,0,0,0,.044.075c.02.02.017.01.026.043a.44.44,0,0,1,.007.093c0,.02.012.031.037.051s.012.013.023.035a.461.461,0,0,1,.029.073.064.064,0,0,0,.033.045.268.268,0,0,0,.044.017c.019.007.012.012.025.028s.038.029.054.056,0,.018,0,.044-.009.014,0,.027a.328.328,0,0,0,.064.046c.033.022.006.006.036.005a.275.275,0,0,0,.067-.015c.032-.007.073-.018.112-.028s.078-.015.1-.022.02.015.005.049-.023.063-.036.09-.018.03-.027.052-.074.114-.088.143a.365.365,0,0,1-.049.076,1.049,1.049,0,0,1-.11.09c-.028.023-.021.023-.042.05s-.086.1-.1.13a.5.5,0,0,0-.04.063c-.013.026-.05.064-.052.083s-.023.021-.007.038.024.019.029.04-.017.045,0,.084,0,.011.026.041a.143.143,0,0,1,.023.1.476.476,0,0,1,0,.119.571.571,0,0,1-.026.075c-.01.026-.065.044-.1.058s-.031.008-.046.026a.612.612,0,0,0-.072.083c-.014.027-.025.024-.019.042s.018.04.032.073,0,.03,0,.058l-.007.058c0,.034-.044.035-.09.053s-.029.009-.034.033,0,.074,0,.1-.015.017-.04.054-.035.053-.061.1a.162.162,0,0,1-.058.065c-.033.027-.06.034-.075.065s-.032.01-.1.033a.184.184,0,0,1-.088.019c-.068.008-.093.013-.129.019s-.031,0-.054-.026-.025-.022-.035-.042,0-.025-.006-.062a.1.1,0,0,0-.019-.06.377.377,0,0,1-.027-.062.288.288,0,0,0-.038-.071c-.016-.024-.021-.016-.036-.032a.078.078,0,0,1-.019-.052c0-.022-.008-.075-.016-.131s0-.026-.009-.049-.019-.052-.034-.083a.478.478,0,0,0-.032-.062.36.36,0,0,1-.035-.067c-.014-.034-.016-.019-.017-.032s.007-.036.008-.059a.8.8,0,0,1,.013-.084c.006-.035-.007-.034.008-.058a.383.383,0,0,0,.039-.073.13.13,0,0,0,.008-.063.114.114,0,0,0-.014-.06c-.01-.029-.014-.062-.027-.109a.282.282,0,0,1-.014-.062.411.411,0,0,0-.019-.083c-.008-.024-.013-.014-.032-.03s-.007-.008-.023-.026-.013-.023-.029-.042a.211.211,0,0,1-.031-.041c-.013-.021-.006-.008,0-.045s.012-.105.019-.145.008-.038-.007-.054-.026-.041-.038-.045-.04,0-.082,0-.039-.01-.057-.031-.041-.049-.05-.057-.022-.007-.093,0-.028.006-.075.014-.065.032-.1.044-.046.009-.11,0a.176.176,0,0,0-.128.028.062.062,0,0,1-.071-.009.414.414,0,0,0-.074-.047c-.036-.018-.027-.028-.063-.045s-.024-.018-.054-.046-.031-.056-.052-.085a.955.955,0,0,0-.065-.1.982.982,0,0,1-.068-.112c-.013-.018-.024-.02-.023-.029s.026-.061.037-.088.014-.024.019-.041a.228.228,0,0,0-.017-.093c-.011-.027-.022-.083-.031-.11s0-.027.014-.042a.935.935,0,0,0,.059-.092c.025-.046.039-.069.052-.091a.657.657,0,0,1,.063-.105.611.611,0,0,1,.091-.065c.021-.011.038-.017.042-.026s.013-.09.019-.124,0-.052.022-.065l.084-.048c.02-.011.023-.028.034-.053s.015-.056.031-.066.011,0,.031.018a.08.08,0,0,0,.034.017c.009,0,.018-.007.042-.008a.061.061,0,0,1,.041.01c.014.008.006.008.047-.017a.657.657,0,0,1,.127-.06.563.563,0,0,1,.115-.034c.024,0,.012,0,.04.011s.029.016.035.008.024-.031.036-.03.025.006.055.011a.075.075,0,0,0,.055,0c.012-.006.027-.019.031-.019l.049.016c.021.008.021.009.017.014a.114.114,0,0,0-.02.033c-.01.023-.005.011,0,.035s.016.022.012.04-.024.034-.038.051-.011.02.024.04a.479.479,0,0,0,.066.034.454.454,0,0,0,.088.025c.046.014.04.015.057.034s.017.036.045.046a.634.634,0,0,1,.073.02.147.147,0,0,0,.051.029c.021,0,.021.007.032-.009s.019-.03.015-.038-.016-.021-.013-.028a.471.471,0,0,1,.027-.048c.005-.009.02-.012.054-.013s.058-.006.064.014,0,.01.031.022l.052.019c.022.009.01.021.022.02a.15.15,0,0,1,.051,0,.368.368,0,0,0,.1.026.1.1,0,0,0,.062-.013c.006,0,.034-.038.052-.014s.039.025.082.022.043-.009.053-.02a.3.3,0,0,0,.043-.081c.008-.028.031-.09.037-.118a.167.167,0,0,0,0-.067.094.094,0,0,1,.008-.046c.006-.019-.02-.007-.031,0s-.014-.005-.024-.008-.02,0-.028.013,0,.028-.044.026-.032,0-.045-.019a.117.117,0,0,0-.053-.023c-.018,0-.019,0-.021.007s0,.019-.014.023a.112.112,0,0,1-.068-.012.166.166,0,0,1-.057-.041c-.024-.024-.02-.024-.031-.061a.161.161,0,0,1-.005-.08c0-.01.011-.014-.007-.008s-.031.008-.018-.019a.046.046,0,0,1,.037-.033.353.353,0,0,1,.058-.005.154.154,0,0,0,.053-.018c.008,0,.026-.01.017-.012s-.037-.005-.032-.013.008-.007.022-.008l.058,0c.019,0,.031,0,.038-.009a.094.094,0,0,1,.03-.039c.015-.009.032,0,.072-.006s.034.008.047.017.021,0,.038.008.006.013.02.019.037.01.066.02.01,0,.046,0a.239.239,0,0,0,.063,0,.125.125,0,0,0,.06-.029c.02-.014.006-.045,0-.069s-.039-.039-.053-.05-.045-.046-.062-.06a.309.309,0,0,0-.054-.028c-.018-.01-.051-.027-.054-.04s.007-.014.034-.02.018-.012.023-.026.007-.014.029-.022-.025-.025-.032-.034.014-.006.037-.012a.03.03,0,0,0,.027-.025c0-.009,0-.014-.024-.013a.507.507,0,0,0-.1.023c-.044.011-.024.012-.05.032s-.028.012-.025.023,0,.022.032.036.015.014.023.017.025,0,.017.007-.016.015-.028.015-.017.012-.038.024a.115.115,0,0,1-.045.016c-.015,0-.026,0-.024-.029s-.008-.008-.024-.014a.061.061,0,0,1-.022-.013.171.171,0,0,0,.032-.015.064.064,0,0,0,.031-.036c.008-.02-.017-.009-.036-.011s-.013,0-.031-.006a.033.033,0,0,1-.024-.016.057.057,0,0,0,.023,0c.015,0,.011-.005.017-.009s.01-.008.005-.008-.023,0-.036,0a.122.122,0,0,0-.038,0c-.018,0-.011.009-.024.018a.047.047,0,0,0-.02.024c-.007.012-.009.01-.014.019a.118.118,0,0,0,0,.042.041.041,0,0,1-.012.03c-.008.011-.008.006-.022.013s0,.012-.006.026-.006.019-.008.037-.008.018-.019.031-.017.013-.018.026a.154.154,0,0,0,0,.044c0,.025.01.018.03.044s.03.016.023.029-.005.008-.03.005-.027,0-.045.017-.021.026-.03.032-.006-.012-.009-.02-.043-.011-.071-.02a.353.353,0,0,0-.042-.013.078.078,0,0,0-.046.014c-.029.016-.022.025-.02.045s.025.025.018.074.024.026.037.056,0,.027-.006.031-.016.029-.022.053,0,.027-.006.026a.029.029,0,0,1-.029-.016c-.013-.02-.025,0-.027-.013s-.019-.031-.012-.058.017-.029-.006-.043-.017-.016-.028-.045a.165.165,0,0,0-.035-.06c-.021-.026-.02-.019-.014-.045a.11.11,0,0,0,0-.078.436.436,0,0,0-.112-.093c-.044-.023-.053-.005-.073-.043s-.028-.077-.061-.1-.016-.025-.048-.013-.032.016-.029.026a.075.075,0,0,1,.005.046c0,.024-.011.017.021.036s.019.015.035.051a.185.185,0,0,0,.032.057.075.075,0,0,0,.05.035c.033.007.027,0,.036.006s-.023.011-.017.014a.32.32,0,0,0,.04.031.211.211,0,0,1,.063.048c.007.013.031.064,0,.026s-.036-.02-.046.005.009.045.008.064-.017.011-.029.026a.2.2,0,0,1-.03.043c-.013.01-.009-.011-.016-.011s-.01.009-.019.027,0,.025,0,.048.01.026-.015.024-.019-.025-.043-.041-.037-.01-.057-.022.008-.015.057-.021.055-.011.07-.023.01-.014.026-.037,0-.032-.011-.06a.1.1,0,0,0-.039-.046.328.328,0,0,1-.038-.038.1.1,0,0,0-.054-.024c-.025-.006-.02-.028-.034-.035a.5.5,0,0,1-.059-.055c-.031-.029-.019-.051-.034-.077s-.029-.045-.06-.045-.055.022-.086.052-.025.045-.061.022-.05-.02-.076,0a.1.1,0,0,0-.031.088c0,.044-.031.025-.056.037s-.047.043-.085.115,0,.037-.006.062,0,.044-.032.076-.02,0-.041.022a.1.1,0,0,1-.1.04c-.05-.006-.035.013-.067.021s-.048.018-.04-.017,0-.031-.059-.028-.081.018-.076.01a.2.2,0,0,0,.014-.057c.006-.034.015-.045.006-.045s-.029,0-.014-.056.02-.072.013-.107,0-.083,0-.1.015-.041,0-.052-.022-.025-.014-.025a.526.526,0,0,1,.082.008.72.72,0,0,0,.11,0c.025,0,.077.013.13.022s.051-.007.045-.084,0-.112-.011-.128-.033-.014-.05-.035,0-.051-.04-.062-.077,0-.057-.009.027-.01.006-.025-.026-.033-.01-.035.06,0,.06,0a.018.018,0,0,0,.027.012c.024-.01.054-.02.047-.035s-.018-.035-.014-.035a.079.079,0,0,0,.063.022c.049,0,.045-.007.042-.028s.032-.019.057-.037-.009-.036,0-.052.034-.025.085-.029.042-.012.037-.018,0-.031,0-.064,0-.044.022-.06.018-.009.072-.014.021-.017.03-.019.073-.018.085-.023.01,0,0-.026a.315.315,0,0,1-.037-.144c-.011-.107-.009-.107.056-.127s.051-.013.046.046-.034.059-.04.1a.151.151,0,0,0,.026.117c.027.046.025.023.084.023s.045.014.085.028.026-.024.064-.038.03.008.119,0l.048-.007s-.012,0,0-.005.026-.034.056-.038.051.009.049-.037-.018-.039-.013-.074.006-.019.009-.047,0-.033.034-.043.011.034.057.044.039.017.047-.018.033-.081.01-.079-.027,0-.049-.034-.035-.04-.021-.04a.75.75,0,0,1,.132-.011c.069,0,.089.008.093,0s-.012-.014.011-.029.1.007.089-.006a.2.2,0,0,0-.126-.024c-.046.007-.157.02-.174.019a.126.126,0,0,1-.056-.022c-.007-.008-.032-.014-.032-.055s.014-.056-.009-.095.043-.072.089-.113.034-.076.061-.078.038-.017.025-.03a.285.285,0,0,0-.085-.064c-.023-.005-.059-.032-.1.031s0,.069.009.1-.051.057-.094.088-.059.023-.072.1-.026.08.022.107.057.04.035.063-.069.022-.1.077-.017.081-.028.106-.048.035-.059.059-.01.071-.055.063-.019-.067-.039-.1-.035-.056-.059-.094-.005-.074-.027-.094a.106.106,0,0,1-.027-.058l-.008.018a.205.205,0,0,1-.048.084.131.131,0,0,1-.144.045c-.033-.013-.027-.045-.027-.085a1.2,1.2,0,0,1,0-.156c.006-.064.025-.059.094-.1s.07-.039.087-.066a.593.593,0,0,1,.1-.089.642.642,0,0,0,.1-.182,1.094,1.094,0,0,1,.122-.176.53.53,0,0,1,.238-.177c.107-.045.089-.05.114-.085s.035-.015.077-.023.035,0-.006.041-.06.085-.025.052.063-.072.118-.069.033,0,.086.024.063.027.033.046a.153.153,0,0,1-.081.014.084.084,0,0,0,.067.046c.049.006.077-.039.11-.022s.042.029,0,.025-.058.024,0,.044a.448.448,0,0,0,.132.031c.072.01.1.062.158.085s.119,0,.1.054.014.1-.081.122-.093-.007-.172-.031a1.437,1.437,0,0,1-.136-.049.509.509,0,0,0,.058.062c.036.034.04.066.036.128s-.021.079.042.109.053.022.073.017.052-.011.044-.021-.014-.028-.035-.038a.023.023,0,0,1,0-.044c.021-.01.041.01.086.007s0-.017.022-.04.023-.062.077-.083.111.01.125-.013a.062.062,0,0,0,0-.085c-.03-.035-.053-.047-.035-.065s.055-.062.072-.036.06.054,0,.049-.017.081.033.077.045-.021.086-.04a1.727,1.727,0,0,1,.176-.1c.056-.019.068-.015.09,0s.022.028.084.016.08-.027.138-.037,0,.021.022.029.029.016.048,0,.082-.035.054-.057l-.05-.036a.078.078,0,0,1,.076-.043.513.513,0,0,1,.192.091.791.791,0,0,1,.119.115.144.144,0,0,0,0-.107c-.019-.067-.069-.051-.069-.114s-.046-.046-.03-.091.06-.062.072-.12.022-.1.063-.1.128.012.128.012a.37.37,0,0,1-.033.13c-.032.078.017.086.009.181s-.009.107.013.129.064.048.048.09a.122.122,0,0,1-.082.09c-.059.023-.134.009-.106.028a.269.269,0,0,0,.1.04c.039.006.019,0,.051-.028s.1-.077.1-.1-.04-.062-.014-.08.037-.046.077-.023.08.11.08.106a.24.24,0,0,0-.056-.134c-.048-.049-.128,0-.128-.045a1.259,1.259,0,0,0,.017-.148c0-.046-.023-.092.006-.133a.138.138,0,0,0,.031-.072.176.176,0,0,1,0,.085c-.01.047.005.075.027.075s.121,0,.068-.014-.069-.03-.016-.059.051-.01.13.008a.8.8,0,0,0,.123.03c.026,0,.022,0,.013-.027a.107.107,0,0,0-.046-.055c-.025-.016-.042,0-.05-.02s-.022-.085-.028-.109.019,0,.061,0,.155-.006.243-.008,0-.094,0-.158.162-.067.244-.079a2.516,2.516,0,0,0,.332-.045c.154-.036.055-.03.077-.074a.1.1,0,0,1,.106-.051c.046,0,.088.008.071.014s-.068.031.011.049.059.015.017.03-.006.041.075.041.032-.007.019-.034.012-.017.078-.006a.2.2,0,0,1,.13.056c.036.034.043.026.056.073s0,.04-.058.084-.09.044-.171.1-.061.078-.106.112-.033.024.061,0a.613.613,0,0,1,.193-.035c.048,0,.072.023.108.023a.75.75,0,0,0,.113.006c.115,0,.1,0,.056.033s.008.043.059.043a1.212,1.212,0,0,0,.161,0c.047-.007.006-.043.063-.045s.074-.007.135-.007.042.024.063.046.049.037.03.081-.03.045-.018.1.042.068.079.079.036-.053.072-.075.043.044.083.034a.243.243,0,0,1,.122.006.194.194,0,0,0,.115.006c.05-.011.034-.03.017-.061s-.018-.028.013-.06.052-.016.154.011.069.027.127.042a.565.565,0,0,1,.127.052c.088.04.071.088.111.113s.043,0,.124-.007.08.009.168.033.065.052.065.078-.024.045.03.057a.227.227,0,0,0,.124.011c.047-.012,0,.012.11.013s.069-.012.1.009.039.066.09.061.047,0,.026-.048-.034-.053,0-.051.092.014.205.033a.406.406,0,0,1,.21.1,2.06,2.06,0,0,1,.187.116c.026.02.031.026.031.027a.16.16,0,0,1,.035.014c.073.034.06.023.123.054a.71.71,0,0,1,.116.073S183.376,129.36,183.329,129.365Zm-6.1,1.236s-.007.009.03-.02-.017,0-.038-.007-.027-.016-.021-.043,0-.027-.025-.062c0,0-.012-.007-.036.007s-.039-.014-.069,0-.063.006-.081.051-.039.016-.046.052-.063.056-.063.056.022.022.039.042.005.007.022.076.028.062.052.072a.479.479,0,0,1,.06.033s-.022-.013-.022.023-.035.062-.031.116-.048.1-.006.108.028.023.074.035a.438.438,0,0,0,.139.02c.067,0,.03-.025.021-.063a.485.485,0,0,1-.017-.1c0-.041-.018-.03-.029-.056s.006-.04.036-.04.035,0,.018-.029-.006-.039-.027-.051-.03.04-.03.04-.013-.012-.008-.063.009-.027-.006-.037-.025,0-.046-.031,0-.027-.027-.068-.012-.019.016-.019.013-.006,0-.019-.022-.034.013-.031.081.009.1.011S177.233,130.6,177.233,130.6Zm-4.874-1.874c-.012.02.02.047.044.039s.031,0,.045-.009.014-.026,0-.042-.009-.024-.012-.026C172.4,128.67,172.371,128.706,172.359,128.727Zm6.459-1.342c-.035,0-.075,0-.042.013s.019.066.082.035.049-.033.093-.051.018-.009-.034-.023C178.884,127.351,178.853,127.384,178.818,127.385Z" transform="translate(-165.202 -125.143)" fill="url(#linear-gradient-2)"/>
      </g>
      <g id="Layer_1" data-name="Layer 1" transform="translate(50.775 298.497)">
        <g id="Group_6717" data-name="Group 6717" transform="translate(0 0)">
          <path id="Path_33111" data-name="Path 33111" d="M279.369,374.729l.929-5.434h1.484l-.929,5.434Z" transform="translate(-272.93 -369.205)" fill="#004790" fill-rule="evenodd"/>
          <path id="Path_33112" data-name="Path 33112" d="M307.568,368.635a3.976,3.976,0,0,0-1.327-.225c-1.469,0-2.5.734-2.5,1.791-.008.78.735,1.214,1.3,1.477.577.27.772.435.765.675,0,.367-.457.532-.884.532a3.116,3.116,0,0,1-1.394-.285l-.195-.09-.2,1.214a4.548,4.548,0,0,0,1.649.292c1.559,0,2.564-.727,2.578-1.859.008-.615-.39-1.087-1.244-1.477-.517-.247-.832-.412-.832-.667,0-.232.27-.472.847-.472a2.674,2.674,0,0,1,1.109.21l.135.06.2-1.177Z" transform="translate(-294.271 -368.41)" fill="#004790" fill-rule="evenodd"/>
          <path id="Path_33113" data-name="Path 33113" d="M347.819,369.369h-1.147a.746.746,0,0,0-.78.45l-2.2,4.984h1.552s.255-.675.315-.817h1.9c.045.187.18.817.18.817h1.372l-1.192-5.434Zm-1.829,3.5.592-1.514c-.015.015.12-.315.195-.517l.1.465s.285,1.3.345,1.567Z" transform="translate(-330.722 -369.272)" fill="#004790" fill-rule="evenodd"/>
          <path id="Path_33114" data-name="Path 33114" d="M234.855,369.369l-1.454,3.7-.15-.75a4.257,4.257,0,0,0-2.054-2.279l1.327,4.752h1.567l2.331-5.427Z" transform="translate(-229.653 -369.272)" fill="#004790" fill-rule="evenodd"/>
          <path id="Path_33115" data-name="Path 33115" d="M218.406,369.3h-2.391l-.015.12a4.915,4.915,0,0,1,3.6,2.841l-.525-2.5a.622.622,0,0,0-.667-.465Z" transform="translate(-216 -369.205)" fill="#fc9200" fill-rule="evenodd"/>
        </g>
      </g>
    </g>
    <rect id="Rectangle_20218" data-name="Rectangle 20218" width="24" height="24" transform="translate(72 250)" fill="none"/>
  </g>
</svg>
