<svg xmlns="http://www.w3.org/2000/svg" width="24" height="24" viewBox="0 0 24 24">
  <g id="Group_26079" data-name="Group 26079" transform="translate(-252 -716)">
    <g id="Group_25764" data-name="Group 25764" transform="translate(254.309 721.824)">
      <path id="Path_43156" data-name="Path 43156" d="M261.914,365.681a4.41,4.41,0,0,1-.337.78,1.691,1.691,0,0,1-1.51.711q-5.526,0-11.052,0h-4.931a1.8,1.8,0,0,1-1.134-.341,1.673,1.673,0,0,1-.688-1.39q-.006-4.71,0-9.421a1.7,1.7,0,0,1,1.821-1.73q4.452,0,8.9,0h7.08a1.817,1.817,0,0,1,1.214.387,1.668,1.668,0,0,1,.6,1.036.288.288,0,0,0,.03.067Zm-.5-7.4H242.76v.215q0,3.425,0,6.851a1.218,1.218,0,0,0,1.322,1.328q8,0,16,0a1.762,1.762,0,0,0,.437-.048,1.185,1.185,0,0,0,.891-1.214q0-3.493,0-6.985Zm-18.648-1.24h18.643c0-.386.012-.757-.006-1.126a1.18,1.18,0,0,0-.125-.457,1.218,1.218,0,0,0-1.2-.668q-7.993,0-15.986,0c-.038,0-.077,0-.115,0a1.187,1.187,0,0,0-1.207,1.106C242.745,356.268,242.767,356.646,242.767,357.037Z" transform="translate(-242.258 -354.287)" stroke="#000" stroke-width="0.5"/>
      <path id="Path_43157" data-name="Path 43157" d="M258.2,401.274c-.461,0-.921,0-1.382,0a.981.981,0,0,1-1.049-1.042q-.007-.508,0-1.017a.986.986,0,0,1,1.051-1.043q1.381-.007,2.763,0a.987.987,0,0,1,1.05,1.045q.005.508,0,1.017a.983.983,0,0,1-1.052,1.04C259.122,401.276,258.662,401.274,258.2,401.274Zm-.01-.5c.467,0,.934,0,1.4,0a.493.493,0,0,0,.542-.531q.006-.518,0-1.036a.494.494,0,0,0-.539-.536q-1.391,0-2.782,0a.5.5,0,0,0-.543.533q-.006.518,0,1.036a.5.5,0,0,0,.54.534C257.271,400.776,257.731,400.775,258.191,400.775Z" transform="translate(-253.689 -391.416)" stroke="#000" stroke-width="0.5"/>
      <path id="Path_43158" data-name="Path 43158" d="M305.22,398.682h-3.894c-.07,0-.155.02-.207-.012-.078-.047-.183-.129-.187-.2a.385.385,0,0,1,.142-.254c.046-.041.146-.032.221-.032q3.932,0,7.864,0c.069,0,.161-.01.2.028.072.064.161.167.154.246s-.114.162-.2.214c-.051.032-.137.011-.207.011Z" transform="translate(-291.904 -391.427)" stroke="#000" stroke-width="0.5"/>
      <path id="Path_43159" data-name="Path 43159" d="M303.038,410.863h1.82c.063,0,.148-.014.186.02a.426.426,0,0,1,.162.244c0,.073-.1.157-.17.219-.03.027-.1.014-.149.015h-3.736c-.211,0-.319-.086-.322-.244s.11-.252.332-.255c.1,0,.2,0,.306,0Z" transform="translate(-291.816 -402.156)" stroke="#000" stroke-width="0.5"/>
    </g>
    <rect id="Rectangle_20212" data-name="Rectangle 20212" width="24" height="24" transform="translate(252 716)" fill="none"/>
  </g>
</svg>
