<svg xmlns="http://www.w3.org/2000/svg" width="24" height="24" viewBox="0 0 24 24">
  <g id="Group_26083" data-name="Group 26083" transform="translate(-78 -144)">
    <g id="mastercard" transform="translate(79.289 149.306)">
      <path id="Shape" d="M13.384,6.694A6.692,6.692,0,1,1,6.692,0,6.692,6.692,0,0,1,13.384,6.694Z" transform="translate(0 0)" fill="#f64000"/>
      <path id="Shape-2" data-name="Shape" d="M6.695,0a6.655,6.655,0,0,0-4,1.335H2.7a5.736,5.736,0,0,1,.649.606l-1.392.022a6.883,6.883,0,0,0-.6.709H3.808a6.22,6.22,0,0,1,.516.667H.908a6.67,6.67,0,0,0-.342.667H4.713A5.7,5.7,0,0,1,5,4.652H.32a6.447,6.447,0,0,0-.186.708H5.2c.05.232.088.446.114.664H.033C.011,6.245,0,6.468,0,6.694H5.349a5.88,5.88,0,0,1-.041.669H.033q.034.34.1.669H5.189c-.052.217-.112.435-.188.661H.3a6.5,6.5,0,0,0,.252.668H4.713a6.1,6.1,0,0,1-.39.667H.9a6.513,6.513,0,0,0,.446.672l2.466.037a6.516,6.516,0,0,1-.726.625c.013.011-.393,0-1.193-.014A6.692,6.692,0,1,0,6.695,0Z" transform="translate(8.034 0)" fill="#f6b900"/>
    </g>
    <rect id="Rectangle_20217" data-name="Rectangle 20217" width="24" height="24" transform="translate(78 144)" fill="none"/>
  </g>
</svg>
