<svg xmlns="http://www.w3.org/2000/svg" width="24" height="24" viewBox="0 0 24 24">
  <path id="Path_43187" data-name="Path 43187" d="M-62.929,255.3A12.031,12.031,0,0,1-74.942,267.3a12.032,12.032,0,0,1-11.987-12.021A12.031,12.031,0,0,1-74.9,243.3a12.125,12.125,0,0,1,9.134,4.27A11.757,11.757,0,0,1-62.929,255.3Zm-17.95-4.564-.006.1c.23.141.451.3.693.418.593.287,1.208.529,1.79.836a2.928,2.928,0,0,1,1.473,1.785c.068.223.136.446.215.665.13.361.259.4.586.2a3.269,3.269,0,0,0,.314-.24,9.043,9.043,0,0,1,.759-.609,1.123,1.123,0,0,1,1.643.352,1.877,1.877,0,0,1,.159,1.668,7.425,7.425,0,0,1-1.924,3.1,1.521,1.521,0,0,0-.455,1.543.989.989,0,0,1-.32.995c-.2.189-.4.373-.6.565a1.624,1.624,0,0,0-.518,1.164,1.161,1.161,0,0,1-.158.516,2.131,2.131,0,0,1-1.506,1.034,1.416,1.416,0,0,1-1.8-1.187,8.207,8.207,0,0,1-.081-1.516c.021-.853.094-1.7.132-2.556a1.216,1.216,0,0,0-.352-.9,8.231,8.231,0,0,1-.919-1.248,4.02,4.02,0,0,1-.565-3.347.7.7,0,0,0-.037-.475,7.985,7.985,0,0,0-.719-1.224,10.036,10.036,0,0,0-1.9-1.833c-.036.066-.057.1-.074.136a10.956,10.956,0,0,0-.779,6.844,11.1,11.1,0,0,0,9.95,8.855,10.857,10.857,0,0,0,8.477-2.9,1.768,1.768,0,0,0,.089-2.593,1.2,1.2,0,0,1-.281-1.44c.146-.367.294-.734.421-1.108a.864.864,0,0,0-.246-.975,2.423,2.423,0,0,0-.73-.473,7.42,7.42,0,0,0-1.092-.252,1.9,1.9,0,0,1-1.337-.816,3.022,3.022,0,0,1,.494-3.7,2.128,2.128,0,0,1,2.367-.6,9.826,9.826,0,0,0,3.393.49,1.442,1.442,0,0,0-.027-.155,10.431,10.431,0,0,0-1.488-2.95.484.484,0,0,0-.353-.142,4.626,4.626,0,0,1-2.53-.52.5.5,0,0,0-.587.072,13.155,13.155,0,0,1-1.372.839,1.637,1.637,0,0,1-.875.166,1.522,1.522,0,0,1-1.19-1.851,5.817,5.817,0,0,1,.709-1.431,12.579,12.579,0,0,1,.973-1.182,11.225,11.225,0,0,0-6.092-.473c.077.144.143.246.189.356a18.788,18.788,0,0,1,.842,2.079,2.314,2.314,0,0,1-1.668,3.063c-.672.187-1.351.349-2.025.531C-80.174,250.52-80.525,250.635-80.878,250.741Zm-3.668-1.036c.6.565,1.2,1.057,1.711,1.633a11.552,11.552,0,0,1,1.2,1.712A1.981,1.981,0,0,1-81.5,254.5a3.2,3.2,0,0,0-.021,1.171,4.915,4.915,0,0,0,1.393,2.489,1.71,1.71,0,0,1,.5,1.234c-.009.71-.072,1.419-.084,2.13-.011.648-.017,1.3.033,1.944.035.446.34.612.786.513a1.512,1.512,0,0,0,.346-.11,1,1,0,0,0,.65-.9,1.942,1.942,0,0,1,.326-.93,5.761,5.761,0,0,1,.853-.944.56.56,0,0,0,.2-.585,2.231,2.231,0,0,1,.7-2.093,11.35,11.35,0,0,0,1.311-1.784,5.5,5.5,0,0,0,.481-1.423.486.486,0,0,0-.29-.606c-.144-.041-.369.1-.523.21-.348.243-.653.553-1.016.769a1.09,1.09,0,0,1-1.582-.506,4.827,4.827,0,0,1-.282-.8,2.253,2.253,0,0,0-1.244-1.5c-.518-.254-1.069-.445-1.573-.723a4.928,4.928,0,0,1-1.117-.816.684.684,0,0,1,.145-1.081,3.216,3.216,0,0,1,.876-.4c.893-.26,1.8-.478,2.693-.731a1.37,1.37,0,0,0,1.05-1.452,6.933,6.933,0,0,0-1.169-2.957A11.241,11.241,0,0,0-84.546,249.705Zm20.481,3.153c-.427,0-.8.018-1.178,0a7.326,7.326,0,0,1-2.851-.54.842.842,0,0,0-.5-.028,2.033,2.033,0,0,0-1.452,2.557,1.1,1.1,0,0,0,.968.945,6.376,6.376,0,0,1,1.3.308,2.068,2.068,0,0,1,1.314,2.931c-.107.263-.233.519-.325.787a.41.41,0,0,0,.011.335,2.93,2.93,0,0,1,.866,1.674A11.237,11.237,0,0,0-64.065,252.858Zm-2.568-4.96a11.1,11.1,0,0,0-3.384-2.574.278.278,0,0,0-.256.048c-.437.492-.877.983-1.282,1.5a2.557,2.557,0,0,0-.35.735.661.661,0,0,0,.3.767.7.7,0,0,0,.581-.01,4.374,4.374,0,0,0,1.013-.606,1.476,1.476,0,0,1,1.895-.174A3.053,3.053,0,0,0-66.633,247.9Z" transform="translate(86.929 -243.299)"/>
</svg>
