<svg xmlns="http://www.w3.org/2000/svg" width="24" height="24" viewBox="0 0 24 24">
  <g id="Group_26075" data-name="Group 26075" transform="translate(-55 -642)">
    <rect id="Rectangle_20217" data-name="Rectangle 20217" width="24" height="24" transform="translate(55 642)" fill="none"/>
    <g id="city" transform="translate(57.32 644.347)">
      <g id="Group_2100" data-name="Group 2100" transform="translate(0)">
        <g id="Group_2099" data-name="Group 2099">
          <path id="Path_2358" data-name="Path 2358" d="M19.072,15.364h-1.9V13.015a.288.288,0,0,0-.575,0v6.507H11.669V10.98H16.6v.693a.288.288,0,0,0,.575,0v-.981a.288.288,0,0,0-.288-.288H12.963V1.084A.288.288,0,0,0,12.675.8H6.694a.288.288,0,0,0-.288.288v4.3H2.688a.288.288,0,0,0-.288.288v7.07H.288A.288.288,0,0,0,0,13.036v6.78a.288.288,0,0,0,.288.288H19.072a.288.288,0,0,0,.288-.288V15.652A.288.288,0,0,0,19.072,15.364ZM2.4,19.523H.575V13.318H2.4Zm5.981,0h-5.4V17.932H8.381Zm0-4.1H5.789a.288.288,0,1,0,0,.575H8.38v1.358h-5.4V16H4.448a.288.288,0,1,0,0-.575H2.975V14.06H8.381Zm0-1.936h-5.4V12.124H8.381Zm0-1.936h-5.4V10.188H8.381Zm0-1.936h-5.4V8.252H8.381Zm0-1.936h-5.4V5.959H8.381Zm2.714,3.014v8.831H8.955V5.673a.288.288,0,0,0-.288-.288H8.277V4.81a.288.288,0,1,0-.575,0v.575h-.72V1.371h5.4V10.4H11.382a.288.288,0,0,0-.288.288Zm7.692,8.83H17.179V15.94h1.607Z" transform="translate(0 -0.796)"/>
        </g>
      </g>
      <g id="Group_2102" data-name="Group 2102" transform="translate(11.094 6.23)">
        <g id="Group_2101" data-name="Group 2101" transform="translate(0)">
          <path id="Path_2359" data-name="Path 2359" d="M293.665,165.543a.288.288,0,0,0-.288.288v.862a.288.288,0,1,0,.575,0v-.862a.288.288,0,0,0-.287-.288Z" transform="translate(-293.376 -165.543)"/>
        </g>
      </g>
      <g id="Group_2104" data-name="Group 2104" transform="translate(9.397 6.23)">
        <g id="Group_2103" data-name="Group 2103" transform="translate(0)">
          <path id="Path_2360" data-name="Path 2360" d="M248.8,165.543a.288.288,0,0,0-.288.288v.862a.288.288,0,1,0,.575,0v-.862a.288.288,0,0,0-.287-.288Z" transform="translate(-248.516 -165.543)"/>
        </g>
      </g>
      <g id="Group_2106" data-name="Group 2106" transform="translate(11.094 3.727)">
        <g id="Group_2105" data-name="Group 2105">
          <path id="Path_2361" data-name="Path 2361" d="M293.665,99.34a.288.288,0,0,0-.288.288v.862a.288.288,0,0,0,.575,0v-.862A.288.288,0,0,0,293.665,99.34Z" transform="translate(-293.377 -99.34)"/>
        </g>
      </g>
      <g id="Group_2108" data-name="Group 2108" transform="translate(9.397 3.727)">
        <g id="Group_2107" data-name="Group 2107" transform="translate(0)">
          <path id="Path_2362" data-name="Path 2362" d="M248.8,99.34a.288.288,0,0,0-.288.288v.862a.288.288,0,1,0,.575,0v-.862A.288.288,0,0,0,248.8,99.34Z" transform="translate(-248.516 -99.34)"/>
        </g>
      </g>
      <g id="Group_2110" data-name="Group 2110" transform="translate(7.7 1.223)">
        <g id="Group_2109" data-name="Group 2109" transform="translate(0)">
          <path id="Path_2363" data-name="Path 2363" d="M203.942,33.137a.288.288,0,0,0-.288.288v.867a.288.288,0,1,0,.575,0V33.43a.288.288,0,0,0-.287-.293Z" transform="translate(-203.653 -33.137)"/>
        </g>
      </g>
      <g id="Group_2112" data-name="Group 2112" transform="translate(11.094 1.223)">
        <g id="Group_2111" data-name="Group 2111">
          <path id="Path_2364" data-name="Path 2364" d="M293.665,33.137a.288.288,0,0,0-.288.288v.867a.288.288,0,0,0,.575,0V33.43a.288.288,0,0,0-.287-.293Z" transform="translate(-293.377 -33.137)"/>
        </g>
      </g>
      <g id="Group_2114" data-name="Group 2114" transform="translate(9.397 1.223)">
        <g id="Group_2113" data-name="Group 2113" transform="translate(0)">
          <path id="Path_2365" data-name="Path 2365" d="M248.8,33.137a.288.288,0,0,0-.288.288v.867a.288.288,0,1,0,.575,0V33.43a.288.288,0,0,0-.287-.293Z" transform="translate(-248.516 -33.137)"/>
        </g>
      </g>
      <g id="Group_2116" data-name="Group 2116" transform="translate(11.093 8.747)">
        <g id="Group_2115" data-name="Group 2115" transform="translate(0 0)">
          <path id="Path_2366" data-name="Path 2366" d="M293.522,232.152a.289.289,0,1,0,.329.018A.288.288,0,0,0,293.522,232.152Z" transform="translate(-293.388 -232.109)"/>
        </g>
      </g>
      <g id="Group_2118" data-name="Group 2118" transform="translate(9.397 8.746)">
        <g id="Group_2117" data-name="Group 2117" transform="translate(0)">
          <path id="Path_2367" data-name="Path 2367" d="M248.8,232.075a.288.288,0,0,0-.288.288v.862a.288.288,0,1,0,.575,0v-.862a.288.288,0,0,0-.287-.288Z" transform="translate(-248.516 -232.075)"/>
        </g>
      </g>
      <g id="Group_2120" data-name="Group 2120" transform="translate(9.397 16.294)">
        <g id="Group_2119" data-name="Group 2119" transform="translate(0)">
          <path id="Path_2368" data-name="Path 2368" d="M248.8,431.671a.288.288,0,0,0-.288.288v.862a.288.288,0,1,0,.575,0v-.862a.288.288,0,0,0-.287-.288Z" transform="translate(-248.516 -431.671)"/>
        </g>
      </g>
      <g id="Group_2122" data-name="Group 2122" transform="translate(9.398 13.777)">
        <g id="Group_2121" data-name="Group 2121" transform="translate(0)">
          <path id="Path_2369" data-name="Path 2369" d="M248.8,365.139a.288.288,0,0,0-.288.288v.862a.288.288,0,0,0,.575,0v-.862a.288.288,0,0,0-.287-.288Z" transform="translate(-248.516 -365.139)"/>
        </g>
      </g>
      <g id="Group_2124" data-name="Group 2124" transform="translate(9.398 11.262)">
        <g id="Group_2123" data-name="Group 2123" transform="translate(0)">
          <path id="Path_2370" data-name="Path 2370" d="M248.8,298.608a.288.288,0,0,0-.288.288v.863a.288.288,0,0,0,.575,0V298.9a.288.288,0,0,0-.287-.288Z" transform="translate(-248.516 -298.608)"/>
        </g>
      </g>
      <g id="Group_2126" data-name="Group 2126" transform="translate(12.277 16.206)">
        <g id="Group_2125" data-name="Group 2125" transform="translate(0 0)">
          <path id="Path_2371" data-name="Path 2371" d="M327.636,429.355h-3.181a.288.288,0,0,0,0,.575h3.181a.288.288,0,1,0,0-.575Z" transform="translate(-324.185 -429.355)"/>
        </g>
      </g>
      <g id="Group_2128" data-name="Group 2128" transform="translate(12.277 17.566)">
        <g id="Group_2127" data-name="Group 2127" transform="translate(0 0)">
          <path id="Path_2372" data-name="Path 2372" d="M327.636,465.3h-3.181a.288.288,0,0,0,0,.575h3.181a.288.288,0,1,0,0-.574Z" transform="translate(-324.185 -465.299)"/>
        </g>
      </g>
      <g id="Group_2130" data-name="Group 2130" transform="translate(12.277 14.847)">
        <g id="Group_2129" data-name="Group 2129" transform="translate(0)">
          <path id="Path_2373" data-name="Path 2373" d="M327.636,393.413h-3.181a.288.288,0,0,0,0,.575h3.181a.288.288,0,0,0,0-.574Z" transform="translate(-324.185 -393.413)"/>
        </g>
      </g>
      <g id="Group_2132" data-name="Group 2132" transform="translate(12.277 10.769)">
        <g id="Group_2131" data-name="Group 2131" transform="translate(0)">
          <path id="Path_2374" data-name="Path 2374" d="M327.636,285.583h-3.181a.288.288,0,0,0,0,.575h3.181a.288.288,0,0,0,0-.575Z" transform="translate(-324.185 -285.583)"/>
        </g>
      </g>
      <g id="Group_2134" data-name="Group 2134" transform="translate(12.277 13.487)">
        <g id="Group_2133" data-name="Group 2133" transform="translate(0 0)">
          <path id="Path_2375" data-name="Path 2375" d="M327.636,357.469h-3.181a.288.288,0,0,0,0,.575h3.181a.288.288,0,1,0,0-.575Z" transform="translate(-324.185 -357.468)"/>
        </g>
      </g>
      <g id="Group_2136" data-name="Group 2136" transform="translate(12.277 12.128)">
        <g id="Group_2135" data-name="Group 2135" transform="translate(0)">
          <path id="Path_2376" data-name="Path 2376" d="M327.636,321.527h-3.181a.288.288,0,0,0,0,.575h3.181a.288.288,0,0,0,0-.575Z" transform="translate(-324.185 -321.527)"/>
        </g>
      </g>
      <g id="Group_2138" data-name="Group 2138" transform="translate(1.2 12.974)">
        <g id="Group_2137" data-name="Group 2137" transform="translate(0 0)">
          <path id="Path_2377" data-name="Path 2377" d="M32.023,344a.288.288,0,0,0-.288.288v.747a.288.288,0,0,0,.575,0v-.747a.288.288,0,0,0-.287-.288Z" transform="translate(-31.735 -344)"/>
        </g>
      </g>
      <g id="Group_2140" data-name="Group 2140" transform="translate(1.2 14.963)">
        <g id="Group_2139" data-name="Group 2139">
          <path id="Path_2378" data-name="Path 2378" d="M32.023,396.469a.288.288,0,0,0-.288.288v.747a.288.288,0,0,0,.575,0v-.747A.288.288,0,0,0,32.023,396.469Z" transform="translate(-31.735 -396.469)"/>
        </g>
      </g>
      <g id="Group_2142" data-name="Group 2142" transform="translate(1.2 16.947)">
        <g id="Group_2141" data-name="Group 2141">
          <path id="Path_2379" data-name="Path 2379" d="M32.023,448.934a.288.288,0,0,0-.288.288v.747a.288.288,0,0,0,.575,0v-.747A.288.288,0,0,0,32.023,448.934Z" transform="translate(-31.735 -448.934)"/>
        </g>
      </g>
      <g id="Group_2144" data-name="Group 2144" transform="translate(17.694 15.832)">
        <g id="Group_2143" data-name="Group 2143" transform="translate(0 0)">
          <path id="Path_2380" data-name="Path 2380" d="M468.228,419.5a.288.288,0,0,0-.288.288v.813a.288.288,0,1,0,.575,0v-.813a.288.288,0,0,0-.287-.288Z" transform="translate(-467.939 -419.5)"/>
        </g>
      </g>
      <g id="Group_2146" data-name="Group 2146" transform="translate(13.326 5.539)">
        <g id="Group_2145" data-name="Group 2145" transform="translate(0 0)">
          <path id="Path_2381" data-name="Path 2381" d="M356.682,147.293h-3.507a.288.288,0,1,0,0,.575h3.507a.288.288,0,0,0,0-.575Z" transform="translate(-352.869 -147.292)"/>
        </g>
      </g>
      <g id="Group_2148" data-name="Group 2148" transform="translate(15.433 6.747)">
        <g id="Group_2147" data-name="Group 2147" transform="translate(0)">
          <path id="Path_2382" data-name="Path 2382" d="M410.444,179.228h-2.53a.288.288,0,0,0,0,.575h2.53a.288.288,0,0,0,0-.575Z" transform="translate(-407.644 -179.228)"/>
        </g>
      </g>
      <g id="Group_2150" data-name="Group 2150" transform="translate(2.379 2.147)">
        <g id="Group_2149" data-name="Group 2149" transform="translate(0 0)">
          <path id="Path_2383" data-name="Path 2383" d="M65.24,57.571H62.71a.288.288,0,0,0,0,.575h2.53a.288.288,0,1,0,0-.575Z" transform="translate(-62.44 -57.571)"/>
        </g>
      </g>
      <g id="Group_2152" data-name="Group 2152" transform="translate(0.904 3.105)">
        <g id="Group_2151" data-name="Group 2151" transform="translate(0 0)">
          <path id="Path_2384" data-name="Path 2384" d="M27.229,82.916H24.7a.288.288,0,1,0,0,.575h2.53a.288.288,0,1,0,0-.575Z" transform="translate(-24.392 -82.915)"/>
        </g>
      </g>
    </g>
  </g>
</svg>
