<svg xmlns="http://www.w3.org/2000/svg" width="24" height="24" viewBox="0 0 24 24">
  <g id="Group_26069" data-name="Group 26069" transform="translate(-43 -578)">
    <g id="contactus" transform="translate(45.952 568.593)">
      <g id="Group_15972" data-name="Group 15972" transform="translate(0.001 12.813)">
        <g id="Group_15971" data-name="Group 15971" transform="translate(0 0)">
          <path id="Path_38259" data-name="Path 38259" d="M17.326,12.813H4.687a.77.77,0,0,0-.769.769v3.486L3.34,16.2a.894.894,0,0,0-1.207-.271l-1.189.715a1.745,1.745,0,0,0-.8,1.034c-.434,1.579-.112,4.3,3.882,8.3C7.206,29.146,9.574,30,11.206,30a4.214,4.214,0,0,0,1.119-.146,1.748,1.748,0,0,0,1.034-.8l.714-1.19a.894.894,0,0,0-.271-1.205l-2.847-1.9a.9.9,0,0,0-1.2.2l-.829,1.066a.289.289,0,0,1-.369.078L8.4,26.018a9.483,9.483,0,0,1-2.47-1.94c-.141-.141-.269-.273-.389-.4H17.326a.769.769,0,0,0,.769-.766v-9.33A.77.77,0,0,0,17.326,12.813ZM8.107,26.548l.153.084A.889.889,0,0,0,9.4,26.4l.829-1.066a.293.293,0,0,1,.392-.064l2.847,1.9a.291.291,0,0,1,.088.392l-.714,1.19a1.146,1.146,0,0,1-.676.525c-1.426.392-3.921.06-7.709-3.727S.339,19.263.73,17.838a1.146,1.146,0,0,1,.525-.676l1.19-.714a.292.292,0,0,1,.392.088l1.9,2.847a.293.293,0,0,1-.064.392L3.606,20.6a.888.888,0,0,0-.235,1.138l.084.153A10,10,0,0,0,5.5,24.5,10.02,10.02,0,0,0,8.107,26.548Zm9.385-3.635a.165.165,0,0,1-.166.163H4.992a7.607,7.607,0,0,1-1.007-1.467L3.9,21.45a.288.288,0,0,1,.078-.369l1.066-.829a.9.9,0,0,0,.2-1.2l-.717-1.076V13.582a.164.164,0,0,1,.166-.166H17.326a.164.164,0,0,1,.166.166v9.33Z" transform="translate(-0.001 -12.813)" fill="#000812"/>
          <path id="Path_38260" data-name="Path 38260" d="M159.357,50.649l-5.041,3.823a.407.407,0,0,1-.478,0L148.8,50.649a.3.3,0,0,0-.365.481l5.04,3.823a1.015,1.015,0,0,0,1.207,0l5.042-3.823a.3.3,0,0,0-.364-.481Z" transform="translate(-143.071 -49.252)" fill="#000812"/>
          <path id="Path_38261" data-name="Path 38261" d="M151.981,172.5l-3.09,3.309a.3.3,0,0,0,.441.411l3.09-3.31a.3.3,0,0,0-.441-.41Z" transform="translate(-143.55 -166.769)" fill="#000812"/>
          <path id="Path_38262" data-name="Path 38262" d="M370.474,172.174a.3.3,0,1,0-.441.411l3.089,3.309a.3.3,0,0,0,.441-.411Z" transform="translate(-356.874 -166.449)" fill="#000812"/>
        </g>
      </g>
    </g>
    <rect id="Rectangle_20201" data-name="Rectangle 20201" width="24" height="24" transform="translate(43 578)" fill="none"/>
  </g>
</svg>
