<svg xmlns="http://www.w3.org/2000/svg" xmlns:xlink="http://www.w3.org/1999/xlink" width="24" height="24" viewBox="0 0 24 24">
  <defs>
    <linearGradient id="linear-gradient" x1="0.897" y1="2.001" x2="0.299" y2="-0.259" gradientUnits="objectBoundingBox">
      <stop offset="0" stop-color="#fff"/>
      <stop offset="0.014" stop-color="#f5f5f5"/>
      <stop offset="0.072" stop-color="#d4d4d4"/>
      <stop offset="0.496" stop-color="#afafaf"/>
      <stop offset="0.609" stop-color="#cbcbcb"/>
      <stop offset="0.661" stop-color="#dbdbdb"/>
      <stop offset="0.721" stop-color="#e4e4e4"/>
      <stop offset="0.887" stop-color="#f7f7f7"/>
      <stop offset="1" stop-color="#fff"/>
    </linearGradient>
    <linearGradient id="linear-gradient-2" x1="0.394" y1="0.931" x2="0.547" y2="0.287" gradientUnits="objectBoundingBox">
      <stop offset="0" stop-color="#fff"/>
      <stop offset="0.014" stop-color="#f5f5f5"/>
      <stop offset="0.072" stop-color="#d4d4d4"/>
      <stop offset="0.131" stop-color="#bababa"/>
      <stop offset="0.191" stop-color="#a7a7a7"/>
      <stop offset="0.254" stop-color="#9c9c9c"/>
      <stop offset="0.323" stop-color="#999"/>
      <stop offset="0.397" stop-color="#9e9e9e"/>
      <stop offset="0.496" stop-color="#afafaf"/>
      <stop offset="0.609" stop-color="#cbcbcb"/>
      <stop offset="0.661" stop-color="#dbdbdb"/>
      <stop offset="0.721" stop-color="#e4e4e4"/>
      <stop offset="0.887" stop-color="#f7f7f7"/>
      <stop offset="1" stop-color="#fff"/>
    </linearGradient>
  </defs>
  <g id="Group_26085" data-name="Group 26085" transform="translate(-51 -354)">
    <g id="paypal" transform="translate(-1585.44 -317.649)">
      <g id="Group_6707" data-name="Group 6707" transform="translate(1637.898 677.579)">
        <rect id="Rectangle_10524" data-name="Rectangle 10524" width="21.085" height="12.14" rx="6.07" transform="translate(0 0)" fill="url(#linear-gradient)"/>
        <path id="Path_33110" data-name="Path 33110" d="M168.77,128.975c.033,0,.037.012.065,0s.11-.066.138-.074.046,0,.005.025a.658.658,0,0,0-.109.069,1.017,1.017,0,0,0,.116-.05c.059-.028.054-.015.069-.045l.023-.045s.094.1.1.1.012,0,.017-.013.014-.029.028-.023,0,.028.01.031.021,0,.046-.009.012-.026.012-.026l.026,0a.592.592,0,0,1,.145.041c.026.011.107.019.13.027s.031-.013.063,0,.054.039.031.051-.082.02-.052.028a.462.462,0,0,0,.119.016c.043,0,.121-.017.145-.017s.039.015.062.052.041.053.049.056-.009-.018,0-.037a.143.143,0,0,0-.01-.068c-.005-.012,0-.019-.011-.037s-.028-.015,0-.031.054-.038.093-.034.049.054.083.058a.7.7,0,0,0,.1.021c.057,0,.034,0,.1.005s.04-.007.054-.04.028-.039.043-.038.069.009.069.015-.023.042-.011.059a.265.265,0,0,0,.057.046s-.01-.04-.01-.044,0-.036,0-.041.044,0,.069-.043-.016-.044-.016-.044-.015,0-.007-.018.05-.031.05-.031,0,.009,0-.007-.034-.012-.064-.014-.05-.006-.056-.032a.706.706,0,0,1-.007-.115c0-.037.029-.024.035-.044a.547.547,0,0,0-.009-.141c-.008-.02.011-.065.015-.094s.034-.016.034-.016.009-.038.049-.05a.355.355,0,0,1,.116,0s-.007,0-.025.025-.007.067-.035.1-.1.02-.1.02.022.05.013.067a.186.186,0,0,0-.015.049s.063.017.066.057.035.046.042.083-.031.067-.023.073.011.008.034.009l.053.006a.039.039,0,0,0,0,.039c.012.02,0,.032,0,.053s.014.039.019.036a.328.328,0,0,0,.036-.082c.005-.024.009-.037.02-.037a.115.115,0,0,1,.05.045c0,.012.007.028-.013.06s-.018.047,0,.06a.251.251,0,0,0,.049.023c.032.015.025.014.045.008s-.008-.055-.006-.056.046-.006.036-.031-.02-.037,0-.05l.036-.022a.218.218,0,0,1-.026-.058c-.014-.042.013-.031.07-.026s.06.024.09.04.012.021.021.046-.025.028-.025.028-.023,0-.018.023a.386.386,0,0,0,.033.072c.017.03,0,.05-.031.074a.124.124,0,0,1-.087.032c-.031,0-.044.013-.046,0a.028.028,0,0,0-.034-.013c-.016,0-.054.018-.041.023s.049,0,.034.031-.027.027-.056.024-.057,0-.076,0l-.11-.007a.647.647,0,0,0,.111.053.244.244,0,0,0,.1.006s-.02.037-.044.077-.046.022-.067.025-.032.019-.069.023-.115-.01-.1,0,.017.015.039.018a.093.093,0,0,1,.053.022c.018.016-.012.019-.037.024a.051.051,0,0,0-.043.024l-.067.095a.2.2,0,0,0-.031.086c-.005.037-.037.081-.022.09s.067.011.088.024.047.081.064.106.03.045.048.025.055-.015.09,0a.539.539,0,0,1,.128.083c.022.022.061.018.1.024s.048.022.048.022.045,0,.026.021-.024,0-.006.033a.144.144,0,0,1,.013.1c-.005.022.06.011.087.027s.028.082.043.074.037-.022.04-.04a.362.362,0,0,0,0-.07.3.3,0,0,0-.024-.106c-.015-.022.026-.031.019-.04s-.005-.028.023-.036.03,0,.046-.012.018-.067.02-.087a.211.211,0,0,0-.011-.079.525.525,0,0,0-.044-.079c-.01-.011-.023-.014,0-.049s.011-.027.007-.038a.593.593,0,0,1-.015-.06c-.006-.024.011-.05,0-.083s-.021-.026-.019-.034a.3.3,0,0,1,.112,0,.283.283,0,0,0,.079-.005.163.163,0,0,1,.063.03c.026.017.036.012.049.033s.021.032.048.031a.154.154,0,0,1,.057.012s-.019.011-.016.048a.549.549,0,0,1,0,.078c0,.015.008.016.021.017s.046.033.082.045.045.009.056-.02.014-.026.028-.028.019,0,.025,0-.011-.019-.007-.038a.135.135,0,0,1,.04-.061c.016-.015.027.015.041.042s.063.116.077.145.032.031.015.059-.025.039,0,.051.05.035.048.055-.008.021,0,.026.04-.011.063,0a.215.215,0,0,1,.066.035c.016.016.015.022-.008.03a.436.436,0,0,0-.056.023c-.011.007-.029.02-.028.031s-.005.028.013.014a.234.234,0,0,1,.069-.034c.021-.006.005,0,.024,0a.186.186,0,0,1,.065.017c.026.008.019.024.012.04a.048.048,0,0,0,0,.048c.011.017,0,.033-.028.054a.116.116,0,0,1-.078.029c-.038,0-.056.028-.083.052s-.04.019-.078.021-.023-.019-.036-.015a.152.152,0,0,1-.052.02,1.016,1.016,0,0,0-.14.013c-.032.009-.022.031-.03.049s-.021.01-.045.018a.209.209,0,0,0-.081.092.306.306,0,0,1-.066.078.214.214,0,0,0,.066-.05,1.054,1.054,0,0,1,.125-.1.209.209,0,0,1,.09-.039c.013,0,.044.028.044.04s-.009.022-.032.043-.053,0-.051.009a.057.057,0,0,0,.035.033c.017,0,.017.025.017.036s-.01.024.03.058a.123.123,0,0,0,.1.034c.029,0,.014.01.026.009s.014-.024.018-.043a.077.077,0,0,1,.021-.044c.011-.008.019-.023.022.006a.1.1,0,0,1-.027.076c-.015.009-.012.02-.012.028s-.017.01-.058.033-.055.028-.062.025-.023,0-.043.021-.041.043-.056.042-.027-.007-.007-.027.026-.049.046-.059a.085.085,0,0,1,.046-.009c.017,0,.009-.01.022-.019s-.01-.007-.033-.011-.006-.024-.006-.024l-.023.013a.31.31,0,0,1-.045.02c-.009,0-.007.007-.01.011a.146.146,0,0,1-.036.006s-.017.035-.043.04-.008,0-.027.011-.015-.009-.019,0a.126.126,0,0,1-.028.024c-.02.016-.033.021-.047.077a.14.14,0,0,0,0,.085c0,.009-.026-.006-.033,0a.123.123,0,0,1-.046.034.257.257,0,0,0-.075.028c-.01.011-.011.025-.015.047a.481.481,0,0,1-.031.072.035.035,0,0,0-.012-.035c-.018-.015-.015-.028-.015-.028a.092.092,0,0,0,0,.041.125.125,0,0,1,.014.066.109.109,0,0,1-.032.06c-.014.008,0-.016,0-.034s-.01-.02-.016-.03a.093.093,0,0,1,.005-.065c.011-.032-.01-.012-.022.009a.086.086,0,0,0,0,.085c.019.025-.012.023,0,.059s-.015.055-.01.06.02,0,.027.015-.013.01-.02.015,0,.012,0,.022.012,0,.009.007a.074.074,0,0,1-.03.021c-.017.006-.019,0-.029.009l-.03.038c-.011.014-.019.009-.032.019s-.016.018-.031.031a.382.382,0,0,0-.066.056c-.018.024-.013.031-.022.07a.486.486,0,0,0,.041.172c.019.065.027.047.024.067a.112.112,0,0,1-.025.059c-.014.014-.022-.01-.041-.024s0-.024-.023-.054a.1.1,0,0,1-.019-.062.285.285,0,0,0-.015-.076c-.01-.023-.032-.053-.064-.042s-.024.007-.041,0-.063-.024-.087-.011-.1,0-.112,0-.027.005-.027.015-.006.013.021.02.023.016.021.027-.022-.006-.033-.011-.021.009-.039.009-.022-.018-.039-.02a.15.15,0,0,1-.039-.006.147.147,0,0,0-.056-.016.548.548,0,0,0-.125.075.209.209,0,0,0-.068.071c-.008.02-.009.022.019.053s.015.025.009.043-.021.039-.041.083-.008.066.015.109a.384.384,0,0,0,.063.092.243.243,0,0,0,.048.044.061.061,0,0,1,.027.017c.007.007.005.01.031,0a.3.3,0,0,1,.062-.017.065.065,0,0,1,.045.01c.01.009.011,0,.011,0a.131.131,0,0,1,.011-.028.278.278,0,0,0,.031-.058c0-.018,0-.056.027-.058a.61.61,0,0,1,.118-.011c.045,0,.025.025.013.049s-.017.026-.017.044.006.018-.009.028-.005-.006-.011,0a.11.11,0,0,1-.024.023s.009.018.009.028,0,.015,0,.039-.047.049-.047.049a.091.091,0,0,0,.043.01.2.2,0,0,1,.082.012c.027.012.077-.01.115.009s.024.03.026.047a.557.557,0,0,1,0,.09c0,.014-.02.052-.029.079s.027.047.06.07a.285.285,0,0,0,.08.037c.017.005.049-.026.108-.022a.094.094,0,0,1,.079.053.254.254,0,0,1,.033-.073c.027-.042.028-.054.064-.068s.048-.016.107-.035.048-.005.078,0a.873.873,0,0,1,.172.029c.07.021.178.027.22.045s.06.066.1.106.1.076.118.094a1.294,1.294,0,0,0,.177.047.138.138,0,0,1,.069.084c0,.027.031.041.07.057s.05.035.076.084.017.064.052.076.275.077.335.1a1.473,1.473,0,0,1,.156.095c.02.007.056-.007.072,0s-.01.056.011.089.021.036.009.061-.06.084-.079.114a.209.209,0,0,1-.081.061c-.022.012-.043,0-.022.025s0,.046-.016.068,0,.02,0,.092,0,.15-.008.181-.055-.027-.108.04-.068.118-.1.126a.425.425,0,0,0-.132.068.163.163,0,0,0-.047.067c-.016.035-.032.105-.049.149a.37.37,0,0,1-.109.127,1.591,1.591,0,0,0-.134.164c-.041.046-.031.036-.039.045s-.113-.036-.09,0-.01,0,0,.022.025.032-.007.071-.069.032-.094.038-.063-.026-.066-.01a.106.106,0,0,1-.038.066c-.02.01-.073.025-.072.031.025.118.077.13.022.125-.15-.015-.043-.05-.148.168-.016.034-.032.016-.029.056s0,.07.021.095.007.023-.03.057a.272.272,0,0,0-.072.08c-.034.05-.066.048-.053.086s.014.1.035.153.061.047.127.087.073.018.105.029-.023.012-.08.022a.362.362,0,0,1-.134.012.685.685,0,0,1-.167-.087.338.338,0,0,1-.1-.107c-.018-.041-.032-.082-.056-.138s-.007-.091,0-.214a1.964,1.964,0,0,1,.036-.284c.017-.066.071-.358.085-.434s.082-.384.088-.432a1.127,1.127,0,0,1,.02-.134.763.763,0,0,0,0-.151c0-.005,0-.009-.019-.055a.139.139,0,0,0-.072-.084c-.034-.02-.068-.045-.1-.063a.409.409,0,0,1-.085-.078.71.71,0,0,1-.066-.13,1.737,1.737,0,0,0-.108-.193.371.371,0,0,1-.071-.139c-.023-.071.02-.072.028-.112a.6.6,0,0,1,.064-.135c.03-.056.068-.072.09-.122s.006-.05,0-.1,0-.041-.012-.067-.022-.058-.036-.067-.033-.015-.045,0-.033.053-.046.056-.019-.013-.027-.021-.047-.009-.054-.017-.028-.01-.041-.016a.593.593,0,0,1-.08-.046.105.105,0,0,1-.033-.075c0-.032-.028-.045-.091-.089a.367.367,0,0,0-.165-.07.331.331,0,0,1-.132-.087c-.025-.015-.023-.031-.079-.025a.385.385,0,0,1-.167-.042,1.179,1.179,0,0,1-.15-.051c-.032-.021-.088-.028-.112-.079s-.02-.031-.011-.076-.055-.082-.094-.124-.068-.048-.088-.1-.049-.05-.088-.087a.289.289,0,0,1-.056-.127c-.016-.042-.122-.1-.122-.1s.028.071.04.1a1.042,1.042,0,0,0,.072.147c.032.051.06.064.09.114s0,.082-.009.062-.053-.028-.053-.052a.117.117,0,0,0-.02-.057c-.009-.018-.05-.04-.09-.072s-.068-.047-.043-.047.061.023.055.009-.052-.061-.074-.093a.739.739,0,0,1-.049-.123.215.215,0,0,0-.138-.11c-.039,0-.049-.022-.063-.062a.781.781,0,0,0-.034-.113.713.713,0,0,1-.093-.175.587.587,0,0,1,0-.22.656.656,0,0,0,.016-.237c0-.028-.052-.083-.052-.1s.028-.009.049,0,.067.025.067.025a.581.581,0,0,0-.056-.087.306.306,0,0,0-.112-.057.124.124,0,0,1-.078-.04c-.015-.024-.031-.055-.042-.075s-.056-.043-.067-.065-.008-.062-.022-.083a.051.051,0,0,0-.06-.025c-.024.009-.032-.013-.051-.044a.135.135,0,0,0-.072-.049.207.207,0,0,1-.056-.072.477.477,0,0,0-.089-.1,2.339,2.339,0,0,0-.233-.082.427.427,0,0,1-.081,0c-.016-.005-.071-.052-.1-.062s-.048.011-.061.042a.4.4,0,0,1-.115.108c-.036.023-.065.026-.063.014a.234.234,0,0,1,.013-.062.088.088,0,0,1,.056-.057c.038-.018.036-.02.021-.018s-.025,0,0-.02.041-.02.04-.035-.064.02-.1.052a.364.364,0,0,0-.1.111c-.035.057,0,.036-.025.074s-.129.113-.158.141a.8.8,0,0,1-.2.107.228.228,0,0,0-.093.041c-.024.02-.084.026-.064.013s.057-.045.083-.059a1.029,1.029,0,0,1,.113-.05.364.364,0,0,0,.1-.073.632.632,0,0,0,.065-.1c.019-.03.023-.044-.016-.031a.168.168,0,0,1-.1,0c-.02-.008-.072.023-.09.01s0-.042-.011-.056-.053-.005-.08-.01-.064-.026-.064-.064-.026-.07-.012-.1.036-.036.06-.052a.344.344,0,0,1,.1-.037.077.077,0,0,0,.044-.026c.012-.012-.028-.057-.028-.057l.022-.015c.016-.01,0-.031-.024-.027s-.088.033-.125.042-.088,0-.087-.012.01-.026,0-.039-.024-.026-.011-.033.1-.052.1-.052a.123.123,0,0,0,.062.036c.032,0,.1-.056.1-.056-.042-.026-.033-.034-.033-.034a.3.3,0,0,1-.085-.011.073.073,0,0,1-.025-.047c0-.017-.072-.031-.053-.059s.053-.039.076-.067a.271.271,0,0,1,.108-.112,1.443,1.443,0,0,0,.178-.082c.035-.025.051,0,.064,0s.1,0,.128,0,.037.036.048.045.292.017.292.017a2.5,2.5,0,0,1,.286.017c.048.014.135.05.135.05C168.742,129.039,168.738,128.975,168.77,128.975Zm3.205-1.439a.185.185,0,0,1-.12.127,2.512,2.512,0,0,0-.28.109c-.008,0,.011.059.035.086s.046.046.068.073.059.025.088.053.051.019.131.02.059.007.148.012a.47.47,0,0,1,.214.04.858.858,0,0,1,.1.2c.028.065.077.171.077.181s-.031.088-.031.1a.118.118,0,0,0,.031.051c.015.017.007.031,0,.047a.166.166,0,0,0,.018.062s.043-.04.068-.047.088.045.088.081c0,.081.022.053-.11.15a.237.237,0,0,0-.021.158c.013.047.045.1.07.17a1.754,1.754,0,0,0,.124.2c.024.044.031.1.084.117s.1.032.143.041.064.021.082-.015.056-.172.087-.272,0-.129.069-.151.187-.067.217-.081.025-.112.094-.144a.739.739,0,0,1,.144-.051.914.914,0,0,0,.227-.111c.067-.047.085-.022.109-.066s-.024-.107-.029-.171.021-.068.035-.127a.2.2,0,0,1,.072-.136c.052-.04.08-.062.071-.1a.627.627,0,0,1-.036-.134c0-.041.009-.017-.012-.075a.119.119,0,0,1,0-.118c.02-.053.073-.04.069-.063s-.085-.059-.086-.126a.129.129,0,0,1,.028-.1c.013-.016.15-.124.159-.134s0-.037.064-.07.089-.053.114-.063.066-.009-.012-.031a.307.307,0,0,0-.145-.026,1.1,1.1,0,0,1-.159.043.807.807,0,0,0-.194.051.036.036,0,0,0,0-.053c-.026-.026.07-.111.085-.122s-.125-.045-.2-.058a1.505,1.505,0,0,0-.3-.051,1.854,1.854,0,0,0-.246.019c-.041.014-.036.067-.082.07a1.428,1.428,0,0,0-.2-.018,1.333,1.333,0,0,0-.186.058c-.012,0,.042.035.076.042s.08.079.08.079-.093-.031-.188-.057a.5.5,0,0,0-.244.011.6.6,0,0,1-.166.036.479.479,0,0,0-.209.1c-.044.03-.181.109-.216.128s-.021.027.016.037A.784.784,0,0,0,171.975,127.536ZM170,128.562c.011.045.011.111-.014.083s-.045-.085-.085-.063-.083.017-.076.012,0-.029-.021-.037-.033,0-.054.017-.089.029-.062.007.018-.033.009-.058-.08.017-.117.044a.438.438,0,0,0-.081.094c-.022.027-.007.045.027.055s.088.016.043.033-.08.028-.057.042a.177.177,0,0,0,.1.011.294.294,0,0,1,.138,0,.393.393,0,0,0,.1.016.2.2,0,0,1-.067.022c-.042.008-.12,0-.161.008s-.1.018-.087.033a.164.164,0,0,0,.083.055c.055.017.065,0,.1.009s.015.045.024.051a.523.523,0,0,0,.133-.017c.062-.012.039-.021.088-.034s.05-.049.079-.057.008.019.042.027.015.011.052.017.029.02.065.017.077-.026.072-.031a.032.032,0,0,1-.007-.032c0-.017-.036,0-.05.012s-.013-.022.017-.038.057,0,.075,0,0-.051-.03-.059-.046-.028-.095-.054-.023-.038-.037-.073-.044-.138-.071-.156-.055-.013-.082-.032A.186.186,0,0,0,170,128.562Zm-.738-.07c.012.033.013.012-.01.048s-.01.05-.026.077-.058.064-.045.082.056.029.074.043.036.043.068.032a.34.34,0,0,0,.065-.03c.022-.011.041-.024.04-.053s0-.043.007-.041.023.016.031,0a.172.172,0,0,1,.035-.058c.015-.015.058-.03.079-.047a.428.428,0,0,0,.065-.051c.01-.015-.018-.026-.035-.033s-.037-.033-.076-.033-.061.03-.058.017-.026-.02-.043-.026a.14.14,0,0,0-.082-.009.586.586,0,0,0-.112.021C169.2,128.436,169.251,128.458,169.262,128.491Zm1.157.4c-.006.008-.028.015-.043.032s.03.008.044.012.025.019.037.023a.209.209,0,0,0,.1-.006c.025-.012.028-.016.025-.022a.382.382,0,0,0-.091-.076c-.037-.02-.038-.02-.046-.015S170.425,128.88,170.42,128.887Zm-.168-.387c-.024.012-.041.026,0,.047a.774.774,0,0,1,.082.055c.027.017.039.067.1.045s.081-.049.089-.072-.008-.028-.022-.049-.018-.031-.047-.027l-.039,0a.161.161,0,0,1,.051-.041c.032-.016.005-.026.02-.041s-.038-.022-.061-.017-.024,0-.063,0-.1.033-.1.045.031.008.057.022.035.013.008.055-.041-.01-.05-.017S170.276,128.488,170.251,128.5Zm-.17-.076c-.04,0-.053.032-.038.036s.025,0,.049.021.045.04.055,0S170.143,128.418,170.081,128.424Zm-.642-.32c-.045.036-.053.064-.088.086s-.026.042-.015.054.046,0,.063-.009.029-.029.039-.016.05-.043.067-.061a.136.136,0,0,1,.045-.036s-.015.021-.008.039.039.018.068-.012,0-.057.025-.08.041-.02,0-.041a.064.064,0,0,0-.08.013A.293.293,0,0,0,169.439,128.1Zm.271.056a.182.182,0,0,0-.078.023.151.151,0,0,0-.069.091c-.01.026,0,.026.043.041a.083.083,0,0,0,.1-.04c.013-.036.028.008.021.026s.026,0,.043-.007a.256.256,0,0,1,.067-.012.238.238,0,0,1-.081.046.633.633,0,0,1-.087.023c-.012,0,.011.019.059.029s.078-.03.148-.056.067-.031.089-.025.048-.012.077-.018.04,0,.052-.038.035-.082-.006-.085-.042,0-.048.043-.009.017-.009.017-.027-.04-.043-.061a.828.828,0,0,0-.045-.07c-.018-.018-.026.007-.053.038s-.006.042.022.055.047.047.034.056-.028,0-.079,0-.049-.016-.063-.022.024-.02-.03-.043S169.728,128.159,169.71,128.16Zm-.164.043a.288.288,0,0,0-.079.06c-.011.017.011.014.034.013S169.527,128.235,169.546,128.2Zm.14-.109c-.018.008-.018.014.012.017s.047-.01.041-.022S169.7,128.087,169.686,128.094Zm.151-.158a.212.212,0,0,0-.08.034.079.079,0,0,0,.009.048c.009.017.012.02.062.007s.084-.039.068-.044a.33.33,0,0,0-.041-.014c-.015,0,.013-.01.046-.02S169.945,127.918,169.838,127.936Zm-.168.026c-.014.007-.019.007.01.018s.061.01.057,0A.05.05,0,0,0,169.67,127.962Zm.114-.081a.078.078,0,0,0-.04.039c-.007.008.032-.006.049-.01s.021.006.038-.009.05,0,.08-.006.035-.026.028-.044S169.864,127.849,169.784,127.881Zm.3.075c-.009,0-.006.017,0,.032s.009.012.024.017a.128.128,0,0,1,.034.021s.006.005.012-.01,0-.012-.02-.033S170.107,127.945,170.086,127.956Zm.1.13a.054.054,0,0,0-.045.011c-.008,0,0,.014.01.032s0,.023.035.026.044,0,.047-.025S170.209,128.091,170.188,128.086Zm.131.039c-.021-.016-.031-.028-.052-.019s0,.019,0,.025.026,0,.026.013.008.02-.023.021-.04,0-.051.01.023,0,.034.013.029.016.059.011l.07-.011a.264.264,0,0,0-.031.035.033.033,0,0,0,0,.046c.015.01.017-.011.06-.012a.065.065,0,0,0,.056-.023.038.038,0,0,1-.009-.031.107.107,0,0,0,0-.026.249.249,0,0,1,.021.017l-.009-.036c-.007-.023,0-.024-.008-.056s-.006-.038-.038-.037-.055.012-.082.012-.038.005-.018.015.022.022.032.033a.076.076,0,0,1,.008.037Zm-.162.117h0a.038.038,0,0,0-.019.032c0,.011.018,0,.048-.006S170.2,128.229,170.157,128.242Zm.42-.056a.226.226,0,0,0-.058.047c-.014.016,0,.018.035.037s.076.022.094,0S170.639,128.152,170.576,128.186Zm.172-.144c-.047,0-.033.012-.087-.006a.511.511,0,0,0-.142-.02c-.019,0-.01.009.009.041s.025.043.065.033.073-.017.1.025.045.055.02.071-.013.04,0,.073.046.031.09.031.327,0,.371-.013a.285.285,0,0,0,.107-.062c.023-.017.036-.043,0-.062a.245.245,0,0,0-.113-.037c-.036,0-.067.018-.121.024s-.043.032-.092.033-.025.023-.086,0-.106-.055-.077-.06.052-.008.036-.022S170.792,128.037,170.748,128.042Zm-.565-.231c.029.01.037.017,0,.026s-.058.032-.025.027a.347.347,0,0,1,.1.01c.042.007.039,0,.057.026a.056.056,0,0,0,.067.016c.028-.007.033-.009.014-.029s-.038-.058-.064-.073-.047-.036-.072-.034-.031,0-.053-.026-.04-.016-.072-.008-.042.031-.054.041S170.153,127.8,170.183,127.811Zm.384-.3c-.035.043-.063.08-.023.084s.057,0,.059.009-.007.021-.066.021-.041.013-.008.052.036.025.086.024.067-.019.108-.009.054.021.017.033-.126.032-.105.051a.351.351,0,0,0,.11.068c.028,0,.034-.019.095-.012s.046.013.053,0,.04-.059.047-.075.023-.025.056-.033.044-.018.013-.029-.067-.016-.064-.025.023-.034.01-.047-.035-.013-.052-.019-.037-.038-.058-.052a.561.561,0,0,1-.068-.036c-.026-.02-.069-.07-.122-.068C170.616,127.443,170.6,127.463,170.567,127.507Zm-.068.363c-.013.007-.046.008-.022.028s.018.021.049.009a.248.248,0,0,0,.081-.05c0-.009-.032-.025-.055-.033a.623.623,0,0,0-.09-.041C170.388,127.765,170.512,127.863,170.5,127.87Zm1.631-.646a1.1,1.1,0,0,0-.316-.038c-.064.015-.061-.033-.149-.021s-.226,0-.268.011.021.025.044.04-.11-.017-.212.011-.167.043-.058.084a.737.737,0,0,1,.123.053,1.453,1.453,0,0,1-.2-.048c-.058-.023-.026-.021-.137.01s-.217.048-.212.081.089.078.144.089a.528.528,0,0,0,.178-.02c.009,0-.045.045-.045.045s.057-.012.121-.028.114-.035.174-.056a.544.544,0,0,0,.071-.028.937.937,0,0,1-.177.109.821.821,0,0,1-.211.048c-.044,0-.038.029.007.053a.654.654,0,0,1,.1.089.072.072,0,0,1,.027.043.124.124,0,0,0-.146,0c-.077.054-.066.083-.046.089s.087.013.1.036.1-.021.1-.021-.044.056-.087.056-.041-.037-.1-.03-.058.022-.032.043.048.028,0,.05-.068.028-.07.054.061.026.1.026.076,0,.147-.005.062-.025.089-.025.053.009.043.035.011.01.089-.018.042-.071.037-.086-.034-.02-.051-.028.053-.081.042-.106.087-.005.132-.063.028-.1,0-.111.059,0,.087-.02a.4.4,0,0,0,.116-.068c.024-.032.034-.043-.027-.037s.087-.026.158-.073.153-.1.171-.114.034-.007-.05,0-.183-.007-.128-.013a.887.887,0,0,0,.261-.058A.5.5,0,0,1,172.129,127.224Zm-1,1.149c-.089-.009-.219-.03-.245.046a2.331,2.331,0,0,0-.071.277c0,.031.107.078.183.081s.2.008.176-.01,0-.028.068-.024.078-.015.078-.03.012.018.062.045.093.1.137.144.144.1.125.134.021.149-.132.175-.162.008-.16.043.009.049.07.049.144-.049.172-.013a.18.18,0,0,0,.093.058c.025.008-.03.023-.045.028s.031.01.117.051.192.046.14.017-.076-.084-.1-.1,0,0,.039.007a.262.262,0,0,1,.1.058c.018.015.026-.005.039-.063s-.006-.058-.075-.1-.09-.082-.1-.116.036-.04.053-.063.068.042.1.08.062.1.089.056a.612.612,0,0,0,.051-.181c0-.025-.026,0-.14-.055a.963.963,0,0,0-.183-.078c-.011,0,.03-.021.08-.046s.071-.021-.036-.123-.137-.123-.206-.129-.089-.079-.139-.1-.165.03-.2.038-.023.021-.066-.04S171.134,128.373,171.134,128.373Zm.08,0c-.044.005.027.086.083.089a.271.271,0,0,0,.117-.028A.4.4,0,0,0,171.214,128.373Zm-.2.821a.418.418,0,0,0-.028.1.184.184,0,0,1-.015.059c-.007.021.021,0,.04.027s.01.04.044,0a.1.1,0,0,1,.117-.034c.047.015.082.021.067-.008s-.037-.026-.069-.065a.188.188,0,0,0-.1-.063C171.034,129.2,171.03,129.155,171.015,129.194Zm.336,2.9a.146.146,0,0,0-.121-.092.2.2,0,0,0-.147.027c-.032.011.03.016.071,0a.078.078,0,0,1,.078,0c.005.008-.014.012-.021,0s-.009.019.038.036.057.024.062.045a.133.133,0,0,0,.015.047c.01.016.014.023-.005.031s-.013.007,0,.015a.188.188,0,0,0,.084.027c.04,0,.054.011.025-.026S171.354,132.1,171.35,132.094Zm.129.182a.065.065,0,0,1,.014.062c0,.013-.026,0-.071-.009s-.038-.006,0,.015.064.016.062.044.036,0,.052-.013.015,0,.084.008.083.023.072-.007.032-.028-.029-.057S171.453,132.249,171.479,132.275Zm-.2.017c-.026-.028-.058-.033-.058-.008s.009.023.033.029S171.3,132.311,171.282,132.293Zm.5.125c-.028-.01-.034.012-.015.029s.048.012.076.01S171.833,132.434,171.783,132.417Zm-.324-3.463c-.037.016-.059.026-.026.07s.052.069.065.038S171.522,128.927,171.459,128.954Zm-.3.46c-.056.009-.075.011-.066.042s.024.026.063.007S171.221,129.4,171.16,129.413Zm.117.048c-.01,0-.012.025,0,.045s.037-.007.047-.031S171.312,129.45,171.277,129.461Zm-.615-1.527c-.053,0-.133.02-.089.021a1.258,1.258,0,0,0,.153.006c.072,0,.079-.009.081-.044S170.76,127.93,170.662,127.934Zm-.333-.292c-.054.017-.041.028.023.056s.066.015.058-.038S170.361,127.631,170.329,127.641Zm3.8,1.385c-.067.019-.089.008-.1.042s-.039.016-.054.02-.037.1-.048.085a.286.286,0,0,1-.03-.055c-.015-.033.005-.027-.024-.062s-.088-.031-.093-.016.041.026.025.042a.759.759,0,0,1-.065.047c-.014.012.026.007.052,0s.042.019.052.037-.011.035-.022.043.037.007.055.01.029.019.016.041.056,0,.1,0,.048.026.107.008a.358.358,0,0,0,.139-.056c.053-.039.049-.03.084-.055s.026-.033.028-.061.023.008.015-.035-.052-.031-.082-.034-.029-.027-.045-.035S174.2,129.008,174.127,129.026Zm4.5,3.646a.131.131,0,0,0-.007.044c0,.022,0,.047,0,.069s0,.038.016.043a.04.04,0,0,0,.041,0c.02-.01.04-.026.029-.052a.731.731,0,0,0-.041-.08C178.653,132.677,178.632,132.654,178.626,132.672Zm-.016-.031c0,.009.005.008.01.014s.009,0,0-.008-.006-.01-.006-.01-.008,0-.008.005m1.919,1.319,0,0c-.036.037-.07.027-.132.046a.415.415,0,0,0-.183.113c-.008.028,0,.033-.008.028a.091.091,0,0,1-.021-.021.134.134,0,0,0-.013.066.386.386,0,0,1,.017.089c0,.04-.016.063-.015.09s.047.079.059.112a.184.184,0,0,1,.026.082c.007.058.037.091.007.122s-.053.025-.016.057a.111.111,0,0,0,.128.033c.06-.021.044-.04.091-.05a.594.594,0,0,1,.1-.022c.04,0,.068,0,.083-.027s0-.027.044-.047.036-.025.063-.03.044.014.08-.015.009-.031.089-.031a.388.388,0,0,1,.143.021.226.226,0,0,1,.09.055c.012.018.028.041.033.041s.012,0,.031-.017a.894.894,0,0,1,.072-.056.13.13,0,0,1-.015.055.072.072,0,0,0-.012.043c0,.008.031-.023.035-.025s.008.055.012.06.016,0,.028.018a.211.211,0,0,1,.04.06.144.144,0,0,0,.095.067.268.268,0,0,0,.084,0c.024,0,.025-.033.051-.021s0,.035.058.03a.16.16,0,0,0,.1-.041c.024-.016.026.022.057-.02s.036-.032.041-.083a.189.189,0,0,1,.033-.109c.029-.048.036-.025.056-.1a.7.7,0,0,0,.043-.2.274.274,0,0,0-.012-.085c-.013-.066,0-.058-.047-.086s-.053-.02-.064-.058,0-.05-.017-.05-.037.009-.049-.017a.16.16,0,0,0-.033-.061c-.023-.025-.044-.02-.085-.038s-.02-.024-.02-.056,0-.066-.031-.081-.013.008-.013-.045,0-.045-.026-.054-.036-.008-.053-.041-.039-.085-.047-.107-.018,0-.028.018a.166.166,0,0,0-.026.083c0,.032.014.05.014.094a.2.2,0,0,1-.049.111c-.019.025-.034,0-.05,0s-.019-.031-.053-.047a.621.621,0,0,1-.124-.057c-.028-.026-.009-.026,0-.053a.132.132,0,0,1,.043-.065c.021-.017.015-.024-.012-.039a.237.237,0,0,0-.109-.016c-.045,0-.072,0-.07.022s.03.036-.009.028-.071-.011-.088.007a.124.124,0,0,0-.03.068c-.01.039,0,.041-.014.041a.6.6,0,0,1-.1-.04c-.021-.009-.033-.008-.058.015a1.3,1.3,0,0,1-.143.117C180.56,133.865,180.561,133.861,180.529,133.963Zm-1.186-1.119c-.019,0-.029-.007-.006.022a.387.387,0,0,0,.051.056c.022.021.031-.015.047.025s.011.04.027.055.032.019.036.034a.1.1,0,0,0,.029.054.072.072,0,0,1,.031.046c.012.032.029.055.038.083s.059.053.085.086.069.081.076.068.026,0,.039,0,.018-.024.027-.071a.075.075,0,0,0-.021-.078c-.012-.011-.036-.013-.042-.023s-.017-.044-.032-.054-.018,0-.018-.026.018-.024,0-.039a.118.118,0,0,1-.032-.033c-.007-.008-.055-.019-.068-.033s-.065-.037-.09-.062a.332.332,0,0,1-.06-.063C179.45,132.87,179.425,132.854,179.343,132.844Zm.517.534c-.021,0-.032-.012-.046.013s-.013.026.01.026.018.011.017.015-.011,0,.035.016a.114.114,0,0,0,.09,0c.012-.007.017.017.079.026s.1-.006.135,0,.031-.005,0-.026-.026-.01-.054-.03a.2.2,0,0,0-.087-.025c-.019,0,.016.02-.041.012s-.036.005-.066-.014-.029-.022-.049-.026S179.86,133.378,179.86,133.378Zm.451.091c-.016.005-.049.014-.034.021s0,.011.051.007a.205.205,0,0,0,.094-.02c.006-.01-.008,0-.027-.009s-.018,0-.045.007A.057.057,0,0,1,180.311,133.469Zm.166,0c-.032,0-.028.011,0,.018a.131.131,0,0,0,.067.006.284.284,0,0,1,.056-.016c.035-.006.046-.005.074-.009l.028,0s0-.006-.021-.005l-.051,0c-.019,0-.051.016-.064.015s-.039-.009-.045,0S180.511,133.461,180.477,133.465Zm.177.041h0c-.022.015-.023.019-.021.031a.024.024,0,0,1,0,.017.094.094,0,0,0,.057-.026.1.1,0,0,1,.051-.033.193.193,0,0,0,.054-.037.16.16,0,0,1-.042,0,.084.084,0,0,0-.051.017C180.693,133.484,180.706,133.486,180.655,133.506Zm-.186.013c-.023-.017-.046-.014-.047,0s-.02.01.012.022.064.028.062.011S180.479,133.526,180.469,133.519Zm-.213-.69c-.013.019.012.014-.007.031s-.035.009-.054.034a.292.292,0,0,1-.062.051c-.012.009-.052.02-.07.044a.024.024,0,0,0,.006.037s-.011.005-.039-.006S180,133,180,133s-.02,0-.032.029-.018.034,0,.052-.014.019-.01.032,0,.036.017.038.015-.012.031.007,0,.073.022.075.034-.006.051,0a.063.063,0,0,0,.051.007.076.076,0,0,1,.058.007.191.191,0,0,0,.074.019c.02,0,.024,0,.027-.025s0-.056.026-.079.025-.022.027-.043a.113.113,0,0,1,.017-.064c.015-.021.024.012.032,0s.016-.016.012-.025-.028-.008-.037-.024,0-.024-.008-.056-.017-.02,0-.038.027-.021.029-.036.008-.015.027-.028,0-.007-.021-.02-.051-.063-.072-.063S180.27,132.81,180.256,132.829Zm2.626,1.757c-.009-.006-.016,0,0,.022s.021.016.034.017.023.046.03.058a.226.226,0,0,0,.02.025.239.239,0,0,1,0,.072c-.006.022-.019.032-.024.053s.02.015.037.021.013.007.007.025-.025.026-.025.03.037.024.055,0a.328.328,0,0,0,.056-.079c.008-.024-.014-.014.012-.031s.022-.009.036-.031.027-.044.013-.055-.032.014-.046.019a.048.048,0,0,1-.043,0c-.018-.009-.022-.009-.029-.025a.088.088,0,0,0-.016-.026s-.005.028-.018.019-.01-.019-.02-.035-.01-.02-.016-.032,0-.034-.032-.037S182.89,134.592,182.882,134.586Zm.006.3a.335.335,0,0,0-.047.052.231.231,0,0,0-.033.058.169.169,0,0,1-.076.059.174.174,0,0,0-.073.052c-.014.021-.065.085-.071.093s.024.015.055.015.08.028.107,0a.975.975,0,0,0,.07-.123.323.323,0,0,1,.059-.058c.027-.024.071-.069.071-.086a.157.157,0,0,0-.012-.045.033.033,0,0,1-.033.016C182.883,134.917,182.888,134.886,182.888,134.886Zm-.209.318c-.032-.016-.038.014-.043.046s.014.005.041-.009S182.69,135.21,182.678,135.2Zm-1.057-.217c-.035-.012-.029.021-.024.046a.192.192,0,0,0,.026.065.086.086,0,0,0,.083.019c.019-.009.034-.04.053-.069a.123.123,0,0,0,.025-.079c0-.018-.028.015-.044.023a.088.088,0,0,1-.068.018A.311.311,0,0,1,181.621,134.987Zm-.442-1.777c-.029.007-.043-.018-.066-.066s-.041-.054-.1-.033-.05.017-.011.031.045.02.05.02.062.008.05.016-.066.017-.032.04a.977.977,0,0,0,.108.051c.089.045.1.012.132.07s.028.048.005.063-.053.03-.041.032a.811.811,0,0,0,.1.01c.061,0,0,.038.071.038a.119.119,0,0,0,.112-.053c.026-.032.032-.015.089,0s.076.063.147.082.1.047.057.005a1.509,1.509,0,0,0-.121-.119c-.061-.048-.064-.053-.082-.089a.3.3,0,0,0-.15-.107,1.413,1.413,0,0,0-.19-.055C181.221,133.121,181.207,133.2,181.179,133.21Zm-.467-.165c-.027.018-.03.007-.05-.005s-.015.025-.059.005-.061-.031-.108,0-.018.049-.019.074a.482.482,0,0,1-.054.12c-.014.026-.014.035,0,.052s.026.01.033.018a.228.228,0,0,1-.008.095c-.008.022.019.026.046.02s0-.008,0-.031.013-.033.013-.075v-.062s.008,0,.018.01.024.054.037.075.024.036.043.021.037-.031.037-.031-.037-.012-.037-.024a.063.063,0,0,0-.01-.064c-.025-.041-.039-.043-.007-.045s.031-.034.05-.043a.089.089,0,0,1,.045-.006.049.049,0,0,0-.047-.012.367.367,0,0,0-.079.026c-.024.013-.046.022-.05,0a.172.172,0,0,1,0-.065c0-.034.042-.008.071-.016s.028-.006.092,0,.068-.01.086-.036a.267.267,0,0,0,.03-.056S180.738,133.026,180.712,133.045Zm.149-.09c.006-.01-.046.036-.056.045s0,.022.007.036a.387.387,0,0,1,.008.069c0,.01.029.019.029.019a.1.1,0,0,1,.009-.045c.01-.014,0-.032,0-.057S180.844,132.986,180.861,132.954Zm-.1.272c-.041-.016-.056-.006-.056.016s0,.032.039.032S180.834,133.255,180.759,133.227Zm.081-.014c-.01,0-.02.035-.015.054s.013.007.036,0,.019-.022.048-.024a.309.309,0,0,1,.088.02s.013-.015-.033-.044A.116.116,0,0,0,180.84,133.213Zm-.813-1.053-.047,0c-.007,0-.021.016-.031.022s-.01.015,0,.031.019.017.039.022.013-.009.027-.014a.038.038,0,0,0,.022-.031.042.042,0,0,1,.017-.021s-.012-.018-.012-.02Zm.482.057c-.016-.012-.025.03-.03.051s-.01.036,0,.051,0,.021,0,.021l-.023-.017a.149.149,0,0,0-.006.037c0,.017-.007.025.019.037s.036.006.039.025,0,.027.021.031a.072.072,0,0,1,.045.022c.007.012,0-.031.016-.028a.071.071,0,0,1,.036.032.032.032,0,0,0,.022.015s-.02-.034-.012-.038.012-.008-.011-.022a.129.129,0,0,0-.059-.013c-.018,0-.018.013-.032-.022a.1.1,0,0,1,0-.064c0-.008.01.012.02-.012a.126.126,0,0,0,.012-.067c0-.023.016-.032,0-.033A.192.192,0,0,1,180.508,132.217Zm.212.445c0,.017-.016,0-.023.005s-.011.008-.022.012a.238.238,0,0,0-.039.03s0-.016,0-.02-.009-.023-.017-.01a.073.073,0,0,1-.035.031.055.055,0,0,0-.033.04c0,.017.011.016.011.016a.1.1,0,0,0,.02-.025c.012-.019.015-.018.037-.021s.02,0,.027.01,0,.031,0,.044,0,.029.022.038.012,0,.034,0,.02,0,.017-.012a.188.188,0,0,1-.011-.033c0-.012.012-.017.016-.02s.007.012.014.028.009.015.012,0a.186.186,0,0,0,.007-.055.218.218,0,0,1,0-.039.047.047,0,0,0-.016-.032l-.027-.023S180.717,132.645,180.72,132.662Zm-.1-.1s0-.011-.019-.029-.02-.024-.049-.029-.059,0-.047.034.016.036.041.04a.05.05,0,0,0,.04-.01s0,.005-.021.02-.026.043-.008.054.018.028.028.019.018-.037.04-.057.023-.023.026-.045a.183.183,0,0,0,0-.039Zm.05-.061s-.018,0,0,.014.031.019.029.03,0,.014-.01.013-.012,0-.016,0,0,.007,0,.014,0,0,.01.011a.062.062,0,0,1,.008.031c0,.014.008.007.008.007s0-.033,0-.04,0-.023.009-.018.009.025.015.007a.085.085,0,0,0,0-.05c0-.015-.015-.015-.028-.015Zm-.23.057c-.007,0-.011.008-.015.031a.086.086,0,0,1-.03.048.451.451,0,0,0-.053.056c0,.007,0,0,.025-.01s.05-.031.053-.048,0-.007.021-.018.012-.015.013-.033S180.45,132.554,180.437,132.557Zm1.471.678c0,.023.007.03-.015.047a.137.137,0,0,1-.068.021c-.022,0-.006,0-.034,0s-.035,0-.022.015.01.027.051.026a.362.362,0,0,0,.1-.032c.026-.009.024-.03.026-.04S181.912,133.21,181.909,133.235Zm.115.05c.012.016.007.014.022.035a.091.091,0,0,0,.055.031c.017.006,0-.006-.013-.023a.194.194,0,0,0-.033-.045C182.037,133.266,182,133.257,182.024,133.285Zm-1.5-1.392c-.057.036-.082.034-.06.079s.037.066.04.074.015-.006.03-.042a.893.893,0,0,0,.024-.1C180.564,131.892,180.543,131.881,180.523,131.893Zm.975-1.785c.007.024.013.061,0,.065s-.024.031-.027.058a.13.13,0,0,0,0,.084c.015.021,0,.023,0,.041a.322.322,0,0,1,0,.092.111.111,0,0,0-.011.063.54.54,0,0,1,0,.076c0,.041,0,.074,0,.091s.01-.008.017-.014a.036.036,0,0,1,.043.005l.014.014s.021.009-.008-.054-.035-.05-.026-.107.012-.058.042-.064.046.036.05.04,0-.014-.013-.046a.28.28,0,0,1-.024-.084.131.131,0,0,0-.032-.086c-.016-.012-.008-.031,0-.046a.13.13,0,0,0,.006-.067.776.776,0,0,0-.016-.08c0-.015-.022.009-.022.009Zm-.026.633a.081.081,0,0,1-.009.055c-.013.021,0,.026-.011.055s-.042,0-.042.006a.059.059,0,0,1-.014.034c-.009.008-.039.009-.03.038a.441.441,0,0,0,.025.059.143.143,0,0,1,.023-.018l.02-.006s0-.009-.022-.017a.027.027,0,0,1-.015-.034c0-.006.028,0,.044,0s.029-.01.049.006a.135.135,0,0,0,.048.022.149.149,0,0,1,.012-.04c.009-.017.035-.009.061-.017s.045-.012.037-.022-.008-.035-.014-.053-.022,0-.036.006a.05.05,0,0,1-.048-.01.368.368,0,0,1-.062-.073S181.47,130.724,181.472,130.742Zm-.08.272a.059.059,0,0,0-.017.05c0,.024.022,0,0,.073s-.04.091-.066.11a.063.063,0,0,1-.06.014c-.01,0,0-.021.01-.026s-.023-.007-.036-.005,0,.016,0,.028-.026.043-.023.058,0,.018-.013.023-.026-.012-.032-.014a.34.34,0,0,0-.06.009.059.059,0,0,0-.052.038c-.013.023-.045.027-.068.036s-.014.041-.039.052-.024.032-.026.049.015,0,.018,0,0-.023.018-.021.017,0,.009.021-.013.026-.02.041,0,.022.014.037.023,0,.049-.031.027-.033.025-.063-.012-.031-.031-.04-.023,0,0-.024.03,0,.044-.011a.342.342,0,0,1,.081-.018c.033-.008.064-.019.065-.008s.012.046.013.053.023-.011.045-.019,0-.012,0-.026a.024.024,0,0,1,.01-.022s.012.024.047.007.038-.024.047-.021.015.012.03,0,.017,0,.015.007.043-.014.052-.021.005,0,0-.027-.017-.027-.01-.061a.281.281,0,0,0,.008-.058c0-.021.01-.024.015-.025s.006-.029.017-.044.009-.021.009-.056-.019-.028-.02-.052a.173.173,0,0,1,0-.048s-.038.014-.042.023l0,.009S181.405,131.007,181.392,131.013Zm-.249.373a.676.676,0,0,0-.091.018c-.023.007-.029.017-.024.041a.515.515,0,0,0,.016.059c0,.012.016,0,.038-.012s.02-.046.042-.046.013.024.041-.01.007-.037.008-.054S181.144,131.386,181.144,131.386Zm2.49-1.838c-.042-.008-.054-.017-.058,0s-.009.02.018.029.04-.007.065.012a.054.054,0,0,0,.051.015.043.043,0,0,0,.027-.012A.593.593,0,0,0,183.634,129.548Zm-.481-.663c-.015,0-.028-.011-.024.027s.013.042.062.036a.539.539,0,0,1,.078-.007.2.2,0,0,0,.081-.014.114.114,0,0,0-.032-.036c-.023-.018-.053.012-.1,0A.56.56,0,0,0,183.153,128.885Zm-1.5-.559c0,.014.067.055.09.067s.043.007.094,0,.054-.027.061-.04-.024-.008-.058-.015-.062.006-.074,0,.018-.013-.012-.024-.037,0-.044,0-.008-.016-.022-.017A.034.034,0,0,0,181.651,128.326Zm-.261.085c-.023.009-.021.017,0,.039s.018.017.006.032,0,0,.038.016.052.047.076.054a.054.054,0,0,0,.039,0,.2.2,0,0,0-.03-.055c-.022-.029-.069-.038-.078-.065S181.423,128.4,181.39,128.411Zm.238-.122-.085-.053a.251.251,0,0,0-.088-.043c-.017,0-.014.018-.021.034s-.011.013-.038,0a.406.406,0,0,0-.081-.039c-.027-.006-.044.016-.075.047s-.013.04.025.085.054.048.085.031.022-.03.044-.021a.328.328,0,0,0,.1-.009s0,.042.028.031a.2.2,0,0,0,.079-.034Zm-2.308-.887c-.01.009-.067,0-.1.05s-.05.014-.065.042a.56.56,0,0,0-.028.062s.027.032.055.029a.127.127,0,0,1,.106.048c.027.038.048.038.114.049s.037.02.071.017.082,0,.072-.013a.075.075,0,0,1-.014-.062c0-.034.035-.033,0-.055a.076.076,0,0,0-.06-.008s.033-.016.02-.017-.074,0-.081-.039.017-.037.029-.04.009-.007-.027-.032a.951.951,0,0,0-.083-.052C179.311,127.392,179.33,127.395,179.32,127.4Zm.334.251a.113.113,0,0,0-.062.053.414.414,0,0,1-.064.071c-.019.015-.013.019.017.029s.083-.019.1-.02.027.022.075.017.121-.015.085-.041a.678.678,0,0,1-.063-.045.17.17,0,0,0-.088-.034s.081-.027.061-.029Zm-2.055-.408c-.046.017-.03.025-.06.049s-.01.031.055.015a.4.4,0,0,0,.11-.041C177.746,127.249,177.669,127.221,177.6,127.246Zm.1.117c-.044.019-.032.04-.02.056s.043-.01.052.009.012.011.052-.017.026-.019.01-.048S177.777,127.33,177.7,127.363Zm-.243-.012c-.028.013-.028.012,0,.024a.158.158,0,0,0,.125,0c.034-.022.031-.017-.011-.024A.2.2,0,0,0,177.46,127.351Zm-.412.05a.671.671,0,0,1,.118,0c.035,0,.022.034-.042.041s.006.017.051.015.016-.039.054-.052.062,0,.107-.021-.026-.032-.079-.031a1.089,1.089,0,0,1-.114,0,.541.541,0,0,0-.127.025C176.922,127.393,177,127.4,177.048,127.4Zm.34.012c-.038,0-.13.021-.053.028s.072.013.1,0S177.428,127.413,177.388,127.413Zm.269.016a.173.173,0,0,0-.1-.009c-.042,0-.058.028-.031.039a.107.107,0,0,0,.069,0c.022,0,.021-.011.007-.016S177.689,127.439,177.657,127.429Zm.228-.067c-.042.005-.044.012-.048.026s.006.011.05.005a.224.224,0,0,0,.093-.027c.029-.015-.006-.053-.006-.06s-.04.02-.052.031S177.934,127.356,177.885,127.362Zm-3.264,2.381c-.021.058-.056.085-.015.069s.082-.066.08-.023-.042.037-.029.079,0,.038.071.053.013.01.03.05.028.052.01.064-.07-.037-.073-.016.007.036.02.065-.008.044-.048.063-.005.03.025.028.107-.016.094.011-.049,0-.075.04-.123.083-.072.08.043-.016.193-.037.046,0,.144-.032.067-.039.013-.029.036-.053.023-.111-.048,0-.072-.039-.02-.047.024-.034.04-.009-.045-.063-.033-.044-.071-.089a.058.058,0,1,1-.06-.09c.017-.033.02-.031.038-.07s-.018-.037-.063-.027-.06.014-.05,0a.2.2,0,0,1,.037-.047c.021-.022.025-.034-.014-.025a.291.291,0,0,0-.077.023C174.608,129.652,174.642,129.684,174.621,129.742Zm-.106.136c-.068.027-.049.045-.038.054s.033-.009-.032.027-.065.077-.032.085.029-.02-.006.047-.059.112.013.1.092-.054.127-.059.041-.032.041-.074-.023-.043,0-.077.029-.072-.024-.088S174.558,129.862,174.515,129.878Zm.861.935c0,.01,0,.035-.023.052s.013.033.022.05.02-.056.018-.091S175.388,130.783,175.376,130.813Zm-.014.138a.074.074,0,0,0-.053.071c-.005.034.037.006.026.036s0,.045.046.017.02-.053.027-.089S175.423,130.922,175.363,130.951Zm.7.366c-.04,0-.057.021.011.028a.373.373,0,0,0,.124,0c.025-.006,0,0-.029-.023S176.11,131.321,176.06,131.316Zm.378.021c-.055-.012-.04.055.016.045s.035,0,.06-.037S176.5,131.35,176.438,131.337Zm-1.361-.308c-.045.006-.048.021-.014.03s.031,0,.05-.016S175.1,131.027,175.077,131.029Zm-2.692-.81a.376.376,0,0,0-.1.123.294.294,0,0,1-.072.1c-.037.039-.019.03.1.052s.107.04.134.032.032.015.032.039.025.01.038-.027a.218.218,0,0,0-.036-.143c-.024-.038-.029-.038-.067-.028s-.025-.009-.039-.038-.035-.007,0-.051S172.411,130.2,172.385,130.219Zm-3.548-.079a.2.2,0,0,0,.069.121c.029.021.023.009.01-.035s0-.044-.009-.072S168.837,130.126,168.837,130.14Zm.195.2a.357.357,0,0,0,.072.069.249.249,0,0,0,.095.043c.043.013.061,0,.034-.029s0-.022-.054-.034-.06-.008-.085-.023S169.015,130.324,169.032,130.342Zm-1.083-.412c-.032-.007-.045-.009-.067.009s-.028.033-.016.051.005.009.033-.01.015-.022.05-.031.028-.021.028-.021A.036.036,0,0,1,167.948,129.93Zm-.011-.043c-.022.013-.029.023,0,.018s.02-.018.036-.015.021,0,.021,0A.062.062,0,0,0,167.937,129.887Zm-.615-.1c-.029.014-.057,0-.039.008a.107.107,0,0,0,.062.019c.019,0,.032,0,.025-.012a.03.03,0,0,1-.009-.021C167.36,129.769,167.351,129.774,167.322,129.788Zm9.837,4.044c-.034.075-.105.038-.162.093s-.048.038-.005.114-.036.068-.055.157.023.073.046.149.034.053.077.043a.25.25,0,0,0,.073-.03,1.051,1.051,0,0,1,.036-.164,1.267,1.267,0,0,0,.053-.233c.005-.065.011-.111.025-.091s.016.02.016-.012a.25.25,0,0,0-.044-.14C177.169,133.682,177.193,133.758,177.159,133.833Zm.05-5.09c-.047.011-.069.039-.035.05s.03,0,.087-.015S177.255,128.731,177.209,128.742Zm.87-.846c-.016-.025-.03.009-.194.08s-.162.01-.314.131-.119.106-.128.178-.045.042-.059.108-.092.07-.053.124a.29.29,0,0,0,.172.109c.082.023.105,0,.087-.01a.278.278,0,0,1-.068-.217c.013-.111.053-.095.089-.136a1.123,1.123,0,0,1,.188-.186,2.248,2.248,0,0,1,.294-.112l.007,0C178.163,127.895,178.1,127.921,178.079,127.9Zm-.441.744c-.019,0-.028,0,.007.038s.067.062.055.015A.06.06,0,0,0,177.639,128.64Zm.584-.337c-.026-.012-.04-.025-.046-.005s.029.046.064.053S178.248,128.315,178.222,128.3Zm-6.118,2.083a.275.275,0,0,0-.1-.036c-.026,0,.006.027.046.049S172.127,130.4,172.1,130.386Zm-.094.166c0-.033-.022.038.008.053s.045.02.063,0,0-.007-.022-.012S172.008,130.58,172.01,130.553Zm11.643-1.14a.2.2,0,0,1-.084-.009.133.133,0,0,1-.017.057.036.036,0,0,0,0,.039s-.048-.021-.076-.031-.053,0-.069-.044-.064-.035-.1-.035-.027-.048-.027-.048h-.022c-.023,0-.019.056-.048.073a.5.5,0,0,1-.121.029.234.234,0,0,1,.071.077.326.326,0,0,0,.035.068s-.006.016-.076,0-.067.014-.142.045a1.05,1.05,0,0,0-.184.1c-.021.017-.023.007-.089-.009a.091.091,0,0,0-.1.027c-.017.009-.011-.04-.011-.04a.128.128,0,0,0-.053.015c-.3.154-.094.146-.1.177l-.032.12c-.045.133-.076.064-.113.169-.12.336-.189-.051-.189-.14,0-.055-.012-.126.022-.142.3-.139.028-.019.308-.211.091-.062.041-.1.061-.116a.123.123,0,0,1,.052-.022l-.049-.005c-.049-.005-.051.006-.089.048s-.069.05-.062.017.01-.066-.02-.048a.254.254,0,0,1-.1.026.266.266,0,0,0-.163.1c-.049.062-.021.054-.006.07s-.079.011-.124.007-.021-.012.006-.021-.04-.016-.1-.028-.036.01-.071.023-.034-.012-.051-.016-.095-.009-.149-.015-.051,0-.066.022-.116.108-.16.159-.1.063-.148.109-.057.045-.017.052.046,0,.052.041.025.05.068.05.03.011.038-.021-.011-.069.025-.041a.176.176,0,0,1,.076.09c.011.041,0,.071-.021.139a1.514,1.514,0,0,1-.051.216l-.073.142a.86.86,0,0,1-.195.2c-.031.013-.05.014-.065-.013s-.025-.022-.06.009a.17.17,0,0,0-.064.1c-.013.05-.043.05-.073.087s-.039.028-.016.071a.423.423,0,0,1,.064.128.271.271,0,0,1-.033.127c-.015.026-.084.038-.083.026a.97.97,0,0,0,0-.111c0-.036-.029-.036-.02-.047s.048-.03.02-.056-.048,0-.06-.035.006-.056,0-.067-.026-.024-.068-.027-.051.037-.06,0,0-.04-.015-.054-.035-.005-.082.036a.232.232,0,0,1-.1.049c-.04.018-.04.027-.031.041s.043.073.071.079.048-.012.09-.012.05.006.04.022-.04.032-.092.084-.036.042-.019.063a.366.366,0,0,1,.061.088c.019.041,0,.055,0,.079a.109.109,0,0,0,.028.1c.035.037.011.025.007.039s-.062.121-.089.174-.027.058-.113.119a.357.357,0,0,1-.172.076.553.553,0,0,0-.111.033c-.024.01-.015.029-.017.042s-.025,0-.021-.018,0-.032-.011-.037a.076.076,0,0,0-.088.017c-.039.038-.085.04-.1.087s-.013.031,0,.051a.9.9,0,0,1,.121.144.272.272,0,0,1,.025.123c0,.047-.1.134-.138.163s-.052.056-.046.011-.018-.071-.049-.1a.365.365,0,0,0-.141-.065c-.017,0,.007-.031-.005-.03s-.04-.006-.036.038-.028.03-.035.073-.015.088.013.084.023.038.044.085.013.021.067.065.04.036.052.079a.294.294,0,0,0,.035.108c.027.04.028.048-.016.026a.254.254,0,0,1-.1-.077.776.776,0,0,1-.039-.131c-.011-.035-.082-.076-.106-.1s-.01-.045,0-.1a.4.4,0,0,0-.009-.146,1,1,0,0,0-.046-.165c-.013-.033-.008-.028-.028,0s-.037.046-.056.046-.049,0-.047-.016.023-.063.017-.081a.236.236,0,0,0-.053-.1.212.212,0,0,1-.078-.1c-.018-.049-.023-.035-.057-.009a.359.359,0,0,1-.152.032c-.038,0-.007.022-.016.04s-.054.043-.144.137-.1.1-.127.107-.038.007-.037.045a.642.642,0,0,1,0,.094.2.2,0,0,1-.025.071.437.437,0,0,0-.023.082.117.117,0,0,1-.052.066c-.029.021-.029.017-.043-.014s-.082-.15-.138-.262a.325.325,0,0,1-.048-.164c-.005-.033-.006-.226,0-.241s-.027.023-.035.039-.007.035-.039.038-.039,0-.069-.027-.044-.047-.039-.046a.177.177,0,0,0,.06-.013c.02-.01.013-.021.013-.021l-.047,0c-.026,0-.014-.006-.048-.019s-.042-.015-.048-.03-.014-.037-.019-.048-.009-.013-.014-.027-.022,0-.059,0-.028,0-.073.02a.182.182,0,0,1-.1.01.319.319,0,0,1-.111-.032.306.306,0,0,0-.067-.01c-.037-.006-.029-.024-.039-.04s-.025-.019-.074-.016a.157.157,0,0,1-.078-.006c-.027-.008-.029-.017-.053-.041s-.015-.005-.031-.017a.13.13,0,0,1-.042-.061c-.012-.032-.009-.039-.023-.054s-.013-.011-.056-.011-.023,0-.028.006a.3.3,0,0,0-.031.037c-.012.015.01.036.027.056s0,.018.03.049.018.028.038.071.032.053.036.066.009-.005.013-.017a.2.2,0,0,0,0-.053.237.237,0,0,1,.016.048c.008.031,0,.031.008.05s0,.017.034.017a.331.331,0,0,0,.091-.007c.037-.009.053-.042.07-.052s.017-.045.029-.041,0,.041.011.066.013.016.039.026.033.017.059.027.008.011.023.037.013.012.027.021.008,0,0,.034a.1.1,0,0,1-.035.056c-.023.025-.023.018-.026.017s-.011-.019-.011-.019a.2.2,0,0,0-.017.066c0,.035.012.022-.031.039a.325.325,0,0,0-.084.038c-.016.014-.016.033-.026.042s-.022,0-.05.011a.1.1,0,0,0-.045.026c-.024.018,0,.016-.033.028a.65.65,0,0,1-.114.041c-.028,0-.022.011-.029.021s-.008.016-.043.021a.46.46,0,0,0-.1.021c-.022.011-.054.035-.077.03s-.017-.005-.024-.026a.268.268,0,0,1-.015-.07.331.331,0,0,0-.035-.118c-.02-.033-.019-.035-.041-.069a.3.3,0,0,0-.054-.077c-.019-.013-.028-.014-.037-.024s0-.044-.013-.073a.243.243,0,0,0-.029-.073.365.365,0,0,1-.054-.069c-.019-.035-.02-.038-.048-.091s-.037-.059-.055-.1-.007-.028-.013-.05-.024.035-.038.045-.021.005-.032-.026-.02-.059-.029-.046-.015.024,0,.058.017.026.032.058.056.112.073.145a.208.208,0,0,1,.026.067.137.137,0,0,0,.045.077c.021.021.018.01.027.044a.448.448,0,0,1,.007.095c0,.02.013.032.038.052s.012.013.024.036a.476.476,0,0,1,.03.074.065.065,0,0,0,.034.046.272.272,0,0,0,.045.018c.019.007.013.012.026.029s.039.03.055.057.005.019,0,.045-.009.014,0,.028a.335.335,0,0,0,.065.047c.034.022.007.007.037.006a.28.28,0,0,0,.069-.016c.033-.007.074-.019.114-.028s.079-.016.1-.022.021.016.006.05-.023.064-.037.092-.018.031-.028.053-.076.116-.09.145a.368.368,0,0,1-.05.077,1.063,1.063,0,0,1-.112.092c-.029.024-.021.024-.043.051s-.088.1-.106.132a.5.5,0,0,0-.041.064c-.014.027-.051.065-.053.084s-.024.022-.008.039.024.02.03.041-.018.046,0,.085,0,.011.027.042a.145.145,0,0,1,.024.1.486.486,0,0,1,0,.121.589.589,0,0,1-.027.076c-.01.027-.066.045-.1.059s-.032.009-.047.027a.624.624,0,0,0-.073.084c-.015.028-.026.025-.02.043s.018.041.033.074,0,.031,0,.059l-.007.059c0,.035-.045.036-.091.054s-.03.009-.035.034,0,.075,0,.1-.016.018-.041.055-.036.054-.063.1a.165.165,0,0,1-.059.066c-.034.027-.061.035-.076.067s-.033.011-.106.034a.188.188,0,0,1-.089.02c-.07.008-.095.013-.132.02s-.032,0-.055-.027-.026-.022-.036-.043,0-.025-.006-.063a.1.1,0,0,0-.02-.062.38.38,0,0,1-.028-.064.3.3,0,0,0-.039-.072c-.017-.025-.022-.017-.037-.033a.08.08,0,0,1-.02-.053c0-.023-.009-.077-.016-.133s0-.026-.01-.05-.02-.053-.035-.085a.489.489,0,0,0-.033-.063.368.368,0,0,1-.036-.068c-.015-.035-.017-.019-.018-.033s.008-.037.009-.06a.8.8,0,0,1,.014-.086c.006-.036-.008-.035.008-.059a.388.388,0,0,0,.04-.075.132.132,0,0,0,.009-.064.116.116,0,0,0-.014-.061c-.011-.03-.015-.064-.027-.111a.285.285,0,0,1-.015-.064.419.419,0,0,0-.019-.084c-.009-.024-.013-.015-.033-.031s-.007-.009-.024-.027-.014-.023-.03-.043a.215.215,0,0,1-.032-.042c-.013-.022-.006-.009,0-.046s.012-.107.019-.147.008-.039-.008-.055-.027-.042-.039-.046-.041,0-.083,0-.04-.01-.058-.032-.042-.05-.051-.058-.023-.008-.1,0-.028.007-.076.014-.067.033-.1.045-.047.01-.112,0a.179.179,0,0,0-.13.029.063.063,0,0,1-.073-.009.423.423,0,0,0-.075-.048c-.037-.018-.028-.028-.065-.046s-.024-.018-.055-.047-.032-.057-.053-.087a.981.981,0,0,0-.067-.1,1.006,1.006,0,0,1-.069-.114c-.014-.019-.024-.02-.024-.029s.027-.063.038-.09.014-.024.019-.042a.232.232,0,0,0-.017-.095c-.011-.027-.023-.085-.032-.112s0-.027.015-.043a.952.952,0,0,0,.06-.094c.025-.047.04-.071.053-.093a.668.668,0,0,1,.064-.107.62.62,0,0,1,.093-.066c.021-.011.039-.017.043-.027s.013-.092.019-.127,0-.053.023-.067l.085-.049c.021-.012.024-.029.035-.054s.015-.057.032-.068.011,0,.032.019a.082.082,0,0,0,.035.017c.01,0,.018-.008.043-.008a.063.063,0,0,1,.042.011c.014.008.006.008.048-.018a.668.668,0,0,1,.13-.062.572.572,0,0,1,.117-.035c.025,0,.012,0,.041.012s.03.016.036.008.024-.032.037-.031.025.006.056.011a.077.077,0,0,0,.056,0c.012-.007.028-.02.032-.02s.029.009.05.017.022.009.017.015a.115.115,0,0,0-.021.034c-.01.023-.005.011,0,.036s.017.023.012.041-.024.035-.039.052-.011.02.025.041a.491.491,0,0,0,.068.035.463.463,0,0,0,.09.025c.047.014.041.016.058.035s.017.037.046.047a.644.644,0,0,1,.075.02.151.151,0,0,0,.052.029c.022,0,.022.007.033-.009s.019-.031.016-.039-.016-.021-.014-.029a.491.491,0,0,1,.027-.049c.006-.01.02-.012.055-.014s.059-.007.065.014,0,.011.031.022l.053.019c.022.009.011.021.022.02a.153.153,0,0,1,.052,0,.375.375,0,0,0,.1.026.105.105,0,0,0,.064-.014c.006,0,.035-.039.053-.014s.04.025.083.023.044-.009.054-.02a.311.311,0,0,0,.044-.082c.009-.029.032-.092.038-.121a.17.17,0,0,0,0-.068.1.1,0,0,1,.009-.047c.007-.019-.021-.008-.032,0s-.014-.006-.024-.009-.021-.005-.028.014,0,.028-.045.026-.033,0-.046-.019a.119.119,0,0,0-.054-.023c-.018-.005-.02,0-.021.007s0,.019-.015.024a.115.115,0,0,1-.069-.013.169.169,0,0,1-.058-.042c-.025-.024-.021-.024-.032-.062a.164.164,0,0,1-.006-.081c0-.011.012-.014-.008-.008s-.032.009-.019-.02a.047.047,0,0,1,.038-.034.364.364,0,0,1,.059-.006.157.157,0,0,0,.054-.018c.009,0,.027-.01.018-.012s-.038-.006-.033-.014.008-.007.023-.009l.059,0c.02,0,.031,0,.039-.009a.1.1,0,0,1,.031-.04c.016-.009.033,0,.073-.006s.035.008.048.018.022.005.039.008.007.014.02.019.038.011.067.02.011.005.047.005a.244.244,0,0,0,.064,0,.127.127,0,0,0,.062-.03c.02-.014.006-.046,0-.07s-.04-.04-.054-.051-.046-.047-.063-.062a.315.315,0,0,0-.055-.029c-.019-.01-.052-.027-.055-.041s.007-.014.035-.021.019-.012.024-.027.008-.014.03-.022-.026-.025-.033-.035.015-.007.038-.012a.03.03,0,0,0,.027-.025c0-.01,0-.014-.024-.014a.517.517,0,0,0-.105.024c-.045.012-.024.012-.051.033s-.029.012-.025.024.005.023.033.037.016.015.023.017.026,0,.018.007-.016.016-.028.016-.018.013-.039.025a.118.118,0,0,1-.046.016c-.015,0-.026,0-.024-.029s-.008-.008-.024-.015a.063.063,0,0,1-.023-.013.175.175,0,0,0,.033-.016.065.065,0,0,0,.032-.037c.008-.02-.018-.009-.037-.012s-.013,0-.032-.007a.034.034,0,0,1-.025-.017.058.058,0,0,0,.024,0c.015,0,.012-.006.018-.01s.01-.008.006-.008-.023,0-.037,0a.125.125,0,0,0-.039,0c-.018,0-.011.01-.024.018a.049.049,0,0,0-.021.024c-.007.013-.009.011-.014.019a.121.121,0,0,0,0,.043.042.042,0,0,1-.012.031c-.009.012-.009.007-.023.013s0,.012-.007.026-.007.019-.008.038-.008.019-.019.031-.017.013-.018.026a.155.155,0,0,0,0,.045c0,.025.01.019.03.045s.031.016.023.029-.006.009-.031.006-.028,0-.046.018-.021.026-.031.033-.006-.012-.01-.021-.044-.012-.072-.02a.36.36,0,0,0-.043-.013.08.08,0,0,0-.047.015c-.029.016-.023.025-.021.046s.025.025.019.075.024.027.038.057,0,.028-.007.032-.016.03-.022.054,0,.028-.007.027a.029.029,0,0,1-.03-.016c-.014-.02-.025,0-.027-.013s-.019-.032-.013-.059.018-.03-.007-.044-.018-.016-.029-.046a.168.168,0,0,0-.036-.061c-.022-.027-.02-.019-.014-.046a.112.112,0,0,0,0-.08.446.446,0,0,0-.114-.095c-.045-.024-.054-.006-.075-.044s-.029-.079-.063-.1-.017-.025-.049-.014-.033.017-.03.026a.077.077,0,0,1,.006.047c-.005.025-.012.017.022.037s.019.015.036.052a.19.19,0,0,0,.033.058.076.076,0,0,0,.051.036c.034.007.028,0,.037.006s-.023.011-.017.015a.323.323,0,0,0,.041.032.216.216,0,0,1,.064.049c.008.014.032.065,0,.027s-.037-.02-.047.006.01.046.008.066-.018.012-.029.027a.2.2,0,0,1-.031.044c-.013.01-.009-.011-.016-.011s-.01.009-.02.027,0,.025,0,.049.011.026-.015.025-.02-.025-.044-.042-.038-.01-.058-.023.009-.015.058-.021.056-.011.071-.023.01-.015.027-.038,0-.033-.012-.062a.106.106,0,0,0-.04-.047.339.339,0,0,1-.039-.039.1.1,0,0,0-.055-.025c-.025-.006-.021-.029-.035-.036a.516.516,0,0,1-.06-.056c-.032-.03-.02-.052-.035-.078s-.029-.046-.062-.046-.056.022-.088.053-.025.046-.063.022-.051-.021-.077,0a.1.1,0,0,0-.032.089c0,.045-.032.026-.057.038s-.048.044-.086.117,0,.038-.006.063,0,.045-.033.077-.02,0-.042.022a.1.1,0,0,1-.1.041c-.051-.006-.036.014-.068.021s-.049.018-.041-.017,0-.032-.06-.029-.082.019-.077.01a.2.2,0,0,0,.015-.058c.007-.035.016-.046.007-.046s-.029.005-.015-.057.02-.073.013-.109,0-.084-.005-.106.016-.042.005-.053-.022-.026-.014-.026a.536.536,0,0,1,.084.009.729.729,0,0,0,.112,0c.025,0,.079.014.132.022s.052-.008.046-.086,0-.114-.012-.13-.034-.015-.051-.036,0-.052-.041-.064-.079,0-.058-.01.027-.01.007-.026-.027-.034-.011-.036.061,0,.061,0a.018.018,0,0,0,.028.013c.024-.01.055-.02.048-.036s-.019-.036-.015-.036a.081.081,0,0,0,.064.022c.05,0,.046-.008.043-.028s.033-.02.058-.038-.01-.037,0-.053.035-.026.086-.029.043-.012.038-.019,0-.032.005-.066,0-.045.023-.061.019-.01.073-.015.021-.017.031-.02.075-.019.087-.024.011,0,0-.027a.322.322,0,0,1-.038-.146c-.012-.109-.009-.109.057-.129s.052-.014.047.047-.035.06-.041.105a.154.154,0,0,0,.026.119c.028.047.025.023.085.023s.046.015.086.028.027-.025.066-.039.031.009.121,0l.049-.007s-.013,0,0-.006.026-.035.057-.039.052.009.05-.038-.018-.04-.013-.076.007-.02.009-.048,0-.034.035-.044.012.035.058.045.04.017.048-.019.034-.083.011-.08-.028,0-.05-.035-.036-.041-.021-.041a.768.768,0,0,1,.135-.011c.07,0,.09.009.095,0s-.012-.015.012-.03.1.007.091-.006a.205.205,0,0,0-.128-.025c-.047.007-.16.021-.177.02a.129.129,0,0,1-.057-.022c-.008-.009-.033-.015-.033-.056s.015-.057-.009-.1.044-.073.09-.115.035-.077.063-.08.039-.017.025-.031a.292.292,0,0,0-.087-.066c-.024-.005-.06-.033-.1.032s0,.071.009.1-.052.058-.1.089-.06.024-.074.1-.026.082.023.109.058.041.036.064-.071.022-.1.079-.017.083-.029.108-.049.036-.06.061-.011.072-.056.065-.02-.068-.04-.1-.036-.057-.06-.1-.006-.076-.028-.1a.108.108,0,0,1-.028-.059l-.008.019a.209.209,0,0,1-.049.085.134.134,0,0,1-.146.046c-.034-.014-.028-.046-.028-.087a1.225,1.225,0,0,1,0-.16c.007-.065.025-.06.1-.1s.072-.04.089-.067a.606.606,0,0,1,.1-.091.655.655,0,0,0,.106-.186,1.114,1.114,0,0,1,.124-.18.54.54,0,0,1,.243-.181c.109-.046.091-.051.116-.087s.036-.015.079-.024.036,0-.007.042-.062.087-.025.053.064-.073.12-.071.034,0,.088.025.064.027.034.047a.155.155,0,0,1-.083.015.086.086,0,0,0,.068.047c.05.006.078-.04.112-.022s.043.029,0,.026-.059.025,0,.045a.456.456,0,0,0,.134.032c.074.01.106.064.161.087s.122,0,.1.055.014.1-.083.124-.095-.008-.176-.032a1.462,1.462,0,0,1-.139-.05.52.52,0,0,0,.059.063c.037.035.041.067.037.131s-.021.08.043.111.054.022.075.018.053-.011.045-.021-.015-.028-.036-.039a.024.024,0,0,1,0-.045c.021-.011.042.01.088.008s0-.017.023-.041.024-.064.079-.085.113.01.128-.013a.063.063,0,0,0,0-.087c-.031-.036-.054-.048-.036-.066s.056-.063.074-.037.061.055.005.05-.017.083.034.078.046-.021.088-.041a1.757,1.757,0,0,1,.18-.105c.057-.02.069-.015.092-.005s.023.028.085.016.081-.027.14-.038,0,.021.022.03.029.016.049,0,.084-.036.055-.058l-.051-.037a.08.08,0,0,1,.077-.044.523.523,0,0,1,.2.093.806.806,0,0,1,.121.117.147.147,0,0,0,0-.109c-.02-.068-.071-.052-.071-.116s-.047-.047-.031-.093.061-.064.073-.122.022-.107.064-.107.131.013.131.013a.377.377,0,0,1-.034.133c-.033.079.017.088.009.185s-.009.109.014.132.065.049.049.092a.124.124,0,0,1-.084.092c-.06.023-.136.01-.108.028a.274.274,0,0,0,.1.041c.04.006.02,0,.052-.029s.1-.078.1-.1-.041-.064-.015-.082.038-.047.079-.024.081.112.081.108a.245.245,0,0,0-.057-.137c-.049-.05-.131,0-.131-.046a1.29,1.29,0,0,0,.017-.151c-.005-.047-.024-.094.007-.135a.141.141,0,0,0,.032-.073.18.18,0,0,1,0,.087c-.011.048.005.077.028.077s.124,0,.069-.015-.071-.031-.016-.061.052-.01.132.009a.824.824,0,0,0,.126.031c.026,0,.022,0,.013-.027a.11.11,0,0,0-.047-.056c-.025-.016-.043,0-.051-.021s-.022-.087-.029-.111.02,0,.063,0,.159-.007.248-.009,0-.1-.005-.162.165-.068.249-.08a2.562,2.562,0,0,0,.339-.046c.157-.037.056-.031.079-.076a.1.1,0,0,1,.108-.052c.047,0,.089.009.072.015s-.07.032.012.05.06.016.017.031-.007.042.076.042.033-.008.02-.035.012-.017.08-.006a.209.209,0,0,1,.132.057c.037.035.044.026.057.075s0,.041-.059.085-.092.045-.174.1-.063.079-.108.114-.034.025.063,0a.624.624,0,0,1,.2-.036c.049,0,.073.023.11.023a.763.763,0,0,0,.115.006c.117,0,.1,0,.057.034s.008.044.06.044a1.239,1.239,0,0,0,.164-.005c.048-.008.007-.044.064-.046s.076-.007.137-.007.043.025.064.047.05.038.031.082-.031.046-.019.107.043.069.08.08.037-.054.073-.077.044.045.085.035a.247.247,0,0,1,.124.006.2.2,0,0,0,.117.007c.051-.011.035-.031.017-.062s-.019-.029.013-.061.053-.016.158.011.071.027.129.043a.576.576,0,0,1,.129.053c.09.041.072.089.113.115s.044,0,.127-.007.081.01.172.034.067.053.067.079-.025.046.031.058a.231.231,0,0,0,.127.011c.048-.013.005.012.112.014s.071-.013.1.01.04.067.092.062.048,0,.026-.049-.035-.054,0-.052.094.015.209.034a.415.415,0,0,1,.215.1,2.1,2.1,0,0,1,.191.118c.026.02.032.026.032.028a.162.162,0,0,1,.036.014c.074.035.061.024.125.055a.723.723,0,0,1,.118.074S183.7,129.407,183.653,129.412Zm-6.219,1.261s-.007.01.03-.02-.017,0-.039-.007-.028-.016-.021-.044,0-.027-.025-.063c0,0-.012-.008-.037.007s-.04-.015-.071,0-.064.006-.083.052-.04.016-.047.053-.064.057-.064.057.023.022.04.043.006.008.023.077.029.063.053.073a.488.488,0,0,1,.061.034s-.022-.014-.022.023-.036.063-.032.118-.049.105-.007.11.029.023.076.036a.446.446,0,0,0,.141.021c.068,0,.031-.026.021-.065a.5.5,0,0,1-.017-.105c0-.042-.019-.031-.029-.057s.006-.041.037-.041.036,0,.019-.029-.007-.04-.028-.052-.031.041-.031.041-.013-.013-.008-.065.009-.027-.007-.038-.025,0-.047-.032,0-.027-.028-.07-.012-.02.016-.02.013-.006,0-.02-.023-.035.013-.032.082.01.1.011S177.434,130.674,177.434,130.674Zm-4.973-1.912c-.012.021.021.048.045.04s.032,0,.046-.01.015-.027,0-.043-.01-.025-.012-.027C172.508,128.7,172.474,128.74,172.462,128.761Zm6.589-1.369c-.036,0-.076,0-.043.014s.02.067.084.036.05-.034.095-.052.018-.01-.035-.023C179.119,127.358,179.087,127.392,179.051,127.393Z" transform="translate(-165.16 -125.105)" fill="url(#linear-gradient-2)"/>
      </g>
      <path id="Path_33424" data-name="Path 33424" d="M330.276,239.914a4.441,4.441,0,0,0-1,.161l-.078.633a2.719,2.719,0,0,1,.853-.181c.33-.01.523.06.456.342-.979,0-1.638.2-1.774.835-.194,1.086,1,1.056,1.473.583l-.058.261h.872l.378-1.73C331.556,240.084,330.887,239.9,330.276,239.914Zm.058,1.77a.437.437,0,0,1-.455.342c-.194.01-.368-.161-.242-.362.1-.171.368-.211.533-.211h.213C330.363,241.532,330.354,241.6,330.334,241.683Z" transform="translate(1322.499 442.266)" fill="#006da0" fill-rule="evenodd"/>
      <path id="Path_33425" data-name="Path 33425" d="M356.133,233.183l-.722,3.318h.886l.731-3.318Z" transform="translate(1298.513 448.313)" fill="#006da0" fill-rule="evenodd"/>
      <path id="Path_33426" data-name="Path 33426" d="M301.716,233.283h-1.622l-.719,3.308h.942l.243-1.1h.67a1.33,1.33,0,0,0,1.351-1.086A.868.868,0,0,0,301.716,233.283Zm-.029,1.126a.606.606,0,0,1-.554.452H300.7l.194-.9h.466A.341.341,0,0,1,301.688,234.409Z" transform="translate(1348.858 448.223)" fill="#006da0" fill-rule="evenodd"/>
      <path id="Path_33427" data-name="Path 33427" d="M246.869,239.914a4.153,4.153,0,0,0-.977.161l-.077.633a2.527,2.527,0,0,1,.833-.181c.326-.01.517.06.46.342-.967,0-1.618.2-1.752.835-.192,1.086.986,1.056,1.446.583l-.057.261h.871l.373-1.73C248.143,240.084,247.473,239.9,246.869,239.914Zm.067,1.77a.443.443,0,0,1-.46.342.233.233,0,0,1-.23-.362c.1-.171.364-.211.517-.211h.22A1.99,1.99,0,0,0,246.936,241.683Z" transform="translate(1397.409 442.266)" fill="#00486d" fill-rule="evenodd"/>
      <path id="Path_33428" data-name="Path 33428" d="M272.721,240.385h.871l.141,1.541.853-1.541h.9l-2.07,3.687h-.974l.637-1.084-.356-2.6Z" transform="translate(1373.057 441.842)" fill="#00486d" fill-rule="evenodd"/>
      <path id="Path_33429" data-name="Path 33429" d="M218.333,233.283h-1.627l-.721,3.308h.955l.234-1.1h.682a1.33,1.33,0,0,0,1.344-1.086A.865.865,0,0,0,218.333,233.283Zm-.029,1.126a.6.6,0,0,1-.545.452h-.448l.2-.9h.467A.335.335,0,0,1,218.3,234.409Z" transform="translate(1423.778 448.223)" fill="#00486d" fill-rule="evenodd"/>
      <path id="Path_33430" data-name="Path 33430" d="M371.923,233.482v-.391h-.146v-.052h.352v.052h-.147v.391Z" transform="translate(1283.809 448.443)" fill="#00486d"/>
      <path id="Path_33431" data-name="Path 33431" d="M375.812,233.482v-.444h.088l.105.314.021.066.024-.071.107-.309h.079v.444h-.056v-.371l-.13.371H376l-.128-.377v.377Z" transform="translate(1280.184 448.443)" fill="#00486d"/>
    </g>
    <rect id="Rectangle_20219" data-name="Rectangle 20219" width="24" height="24" transform="translate(51 354)" fill="none"/>
  </g>
</svg>
