<svg xmlns="http://www.w3.org/2000/svg" width="24" height="24" viewBox="0 0 24 24">
  <g id="Group_26066" data-name="Group 26066" transform="translate(-202 -318)">
    <rect id="Rectangle_20208" data-name="Rectangle 20208" width="24" height="24" transform="translate(202 318)" fill="none"/>
    <g id="Group_25827" data-name="Group 25827" transform="translate(205.401 320.295)">
      <path id="Path_43197" data-name="Path 43197" d="M405.876-145.365c0,.761,0,1.451,0,2.141,0,.418-.065.484-.473.485q-6.289,0-12.578,0c-.424,0-.471-.049-.473-.476,0-.619-.008-1.239,0-1.858,0-.211-.062-.3-.286-.291-.369.014-.739-.011-1.107,0-.318.012-.453-.112-.452-.437q.009-3.591,0-7.182c0-.29.13-.411.411-.408.462,0,.924,0,1.433,0v-.486q0-3.591,0-7.182c0-.461.034-.5.482-.5,3.276,0,6.551,0,9.826.009a.885.885,0,0,1,.552.235c.815.784,1.6,1.6,2.412,2.386a.8.8,0,0,1,.258.628c-.01,1.477-.006,2.954-.007,4.431v.475c.462,0,.9,0,1.333,0s.493.061.493.5q0,3.5,0,7c0,.485-.038.519-.537.52C406.752-145.364,406.338-145.365,405.876-145.365Zm1.246-7.418H391.106v6.831h16.016Zm-1.839-.619v-4.855c-.353,0-.683,0-1.013,0a1.641,1.641,0,0,1-1.69-1.726c0-.328,0-.656,0-.983h-9.631v7.565Zm-12.347,10.065h12.348v-2H392.936Zm11.96-15.535c-.326-.313-.6-.573-.87-.836s-.545-.535-.846-.83C403.041-159.205,403.564-158.685,404.9-158.872Z" transform="translate(-390.506 161.554)" fill="#282a3b"/>
      <g id="Group_25824" data-name="Group 25824" transform="translate(3.847 10.533)">
        <path id="Path_43198" data-name="Path 43198" d="M447.126-11.871a1.543,1.543,0,0,1-1.6,1.648h-1.212v-3.29h1.212A1.532,1.532,0,0,1,447.126-11.871Zm-1.664.84a.751.751,0,0,0,.8-.84.756.756,0,0,0-.8-.849h-.3v1.69Z" transform="translate(-444.315 13.565)" fill="#282a3b"/>
        <path id="Path_43199" data-name="Path 43199" d="M489.1-10.857a1.6,1.6,0,0,1-1.573-1.69,1.6,1.6,0,0,1,1.573-1.685,1.589,1.589,0,0,1,1.569,1.685A1.6,1.6,0,0,1,489.1-10.857Zm0-.849c.439,0,.7-.331.7-.84s-.265-.845-.7-.845-.7.327-.7.845S488.659-11.706,489.1-11.706Z" transform="translate(-484.439 14.231)" fill="#282a3b"/>
        <path id="Path_43200" data-name="Path 43200" d="M536.888-13.971a1.439,1.439,0,0,1,1.469,1.223h-.917a.6.6,0,0,0-.565-.383c-.391,0-.647.327-.647.831s.256.835.647.835a.6.6,0,0,0,.565-.383h.917a1.438,1.438,0,0,1-1.469,1.223,1.524,1.524,0,0,1-1.525-1.675A1.523,1.523,0,0,1,536.888-13.971Z" transform="translate(-528.853 13.99)" fill="#282a3b"/>
      </g>
      <rect id="Rectangle_20174" data-name="Rectangle 20174" width="6.579" height="0.574" transform="translate(3.951 3.214)" fill="#282a3b"/>
      <rect id="Rectangle_20175" data-name="Rectangle 20175" width="9.046" height="0.574" transform="translate(3.951 4.754)" fill="#282a3b"/>
      <rect id="Rectangle_20176" data-name="Rectangle 20176" width="9.046" height="0.574" transform="translate(3.951 6.293)" fill="#282a3b"/>
    </g>
  </g>
</svg>
