<svg xmlns="http://www.w3.org/2000/svg" width="24" height="24" viewBox="0 0 24 24">
  <g id="Group_26067" data-name="Group 26067" transform="translate(-108 -311)">
    <rect id="Rectangle_20209" data-name="Rectangle 20209" width="24" height="24" transform="translate(108 311)" fill="none"/>
    <g id="Group_25826" data-name="Group 25826" transform="translate(112.826 313.664)">
      <path id="Path_43195" data-name="Path 43195" d="M424.181-736.453H409.852V-755.1c.128-.006.27-.019.413-.019,2.955,0,5.911,0,8.866,0a1.626,1.626,0,0,1,1.232.509q1.655,1.68,3.336,3.335a1.549,1.549,0,0,1,.5,1.154q0,6.69,0,13.38C424.2-736.666,424.188-736.586,424.181-736.453Zm-.731-.71a1.881,1.881,0,0,0,.023-.193q0-6.406,0-12.813c0-.432-.217-.638-.66-.643-.664-.007-1.329,0-1.993,0h-.9a1.318,1.318,0,0,1-.025-.146q0-1.322,0-2.644c0-.621-.175-.8-.8-.8h-8.135c-.131,0-.261.012-.387.018v17.217Zm-2.833-14.4h1.557l-1.557-1.572Z" transform="translate(-409.852 755.125)" fill="#282a3a"/>
      <g id="Group_25822" data-name="Group 25822" transform="translate(4.6 7.258)">
        <path id="Path_43196" data-name="Path 43196" d="M471.46-664.342a.28.28,0,0,1,.076.2.228.228,0,0,1-.076.178.283.283,0,0,1-.2.068h-.773l-.323,1.869h.765a.265.265,0,0,1,.2.076.264.264,0,0,1,.076.2.227.227,0,0,1-.076.179.283.283,0,0,1-.2.068h-.85l-.229,1.317a.265.265,0,0,1-.085.161.249.249,0,0,1-.17.059.247.247,0,0,1-.187-.081.279.279,0,0,1-.076-.2l.008-.068.2-1.189h-1.665l-.229,1.317a.224.224,0,0,1-.081.161.265.265,0,0,1-.174.059.247.247,0,0,1-.187-.081.279.279,0,0,1-.076-.2l.008-.068.2-1.189h-.688a.261.261,0,0,1-.191-.081.261.261,0,0,1-.081-.191.227.227,0,0,1,.077-.178.283.283,0,0,1,.2-.068h.782l.314-1.869H467a.27.27,0,0,1-.2-.081.271.271,0,0,1-.081-.2.222.222,0,0,1,.081-.178.3.3,0,0,1,.2-.068h.85l.221-1.274a.255.255,0,0,1,.089-.161.254.254,0,0,1,.166-.06.243.243,0,0,1,.208.1.3.3,0,0,1,.047.242l-.2,1.155h1.665l.221-1.274a.264.264,0,0,1,.085-.161.25.25,0,0,1,.17-.06.243.243,0,0,1,.208.1.3.3,0,0,1,.047.242l-.2,1.155h.68A.258.258,0,0,1,471.46-664.342Zm-1.818,2.315.314-1.869h-1.665l-.323,1.869Z" transform="translate(-466.388 665.918)" fill="#282a3a"/>
      </g>
    </g>
  </g>
</svg>
