<svg xmlns="http://www.w3.org/2000/svg" width="24" height="24" viewBox="0 0 24 24">
  <path id="download" d="M564-136.015a12,12,0,0,0-12,12,12,12,0,0,0,12,12,12,12,0,0,0,12-12A12,12,0,0,0,564-136.015Zm-4.34,11.39a.8.8,0,0,1,1.165-.069c.728.64,1.444,1.294,2.258,2.026v-.6q0-3.21,0-6.421a.844.844,0,0,1,.657-.946.861.861,0,0,1,1.13.878c.007,2.056,0,4.111,0,6.167v.951c.8-.7,1.525-1.339,2.244-1.984a.779.779,0,0,1,1-.145.644.644,0,0,1,.107,1.139q-1.81,1.618-3.631,3.224a.8.8,0,0,1-1.232,0q-1.774-1.6-3.54-3.2C559.427-123.967,559.377-124.318,559.66-124.625Zm8.042,7.261c-1.238,0-2.477,0-3.716,0s-2.449,0-3.673,0c-.609,0-.863-.28-.86-.931,0-.621.264-.909.844-.909q3.695,0,7.389,0c.61,0,.861.283.861.939C568.548-117.646,568.29-117.365,567.7-117.363Z" transform="translate(-552 136.015)" fill="#6e6f6f"/>
</svg>
