<svg xmlns="http://www.w3.org/2000/svg" width="24" height="24" viewBox="0 0 24 24">
  <g id="Group_26081" data-name="Group 26081" transform="translate(-45 -218)">
    <path id="Path_43221" data-name="Path 43221" d="M-1164.35,274.846V277.2c1.142.583,1.223.73,1.045,1.97-.327,2.283-.665,4.565-.988,6.848a7.7,7.7,0,0,0-.042.956c-.015.949-.327,1.264-1.3,1.265q-4.651.006-9.3,0h-6.275c-1.125,0-1.578-.43-1.579-1.551q-.01-6.2,0-12.4c0-.947.217-1.147,1.188-1.148,1.3,0,2.609.031,3.912-.015a1.107,1.107,0,0,1,1.225.687,1.728,1.728,0,0,0,1.914,1.058c3.1-.07,6.2-.026,9.3-.026Zm-17.585,10.215.1.016q.833-3.218,1.664-6.437c.278-1.082.576-1.324,1.688-1.324h13.328v-1.642c-3.324,0-6.595-.039-9.864.025a1.73,1.73,0,0,1-1.863-1.039c-.135-.285-.42-.7-.652-.706-1.464-.065-2.931-.033-4.4-.033Z" transform="translate(1230.013 -50.687)" fill="#000812"/>
    <rect id="Rectangle_20222" data-name="Rectangle 20222" width="24" height="24" transform="translate(45 218)" fill="none"/>
  </g>
</svg>
