<svg xmlns="http://www.w3.org/2000/svg" xmlns:xlink="http://www.w3.org/1999/xlink" width="24" height="24" viewBox="0 0 24 24">
  <defs>
    <clipPath id="clip-path">
      <rect id="Rectangle_20212" data-name="Rectangle 20212" width="24" height="24" transform="translate(11752 1292)" fill="#fff" stroke="#707070" stroke-width="1"/>
    </clipPath>
  </defs>
  <g id="gender" transform="translate(-11752 -1292)" clip-path="url(#clip-path)">
    <path id="Path_62005" data-name="Path 62005" d="M851.461,128.549c-.08-.968-.156-1.936-.238-2.9-.023-.277-.136-.374-.412-.351-.968.08-1.935.166-2.9.249-.2.017-.346.1-.341.323,0,.183.169.291.409.271.76-.062,1.52-.121,2.276-.217l-3.474,4.109a5.913,5.913,0,0,0-7.525.126l-.888-1.05.953-.8a.292.292,0,1,0-.377-.447l-.954.8-2.113-2.5c.756.1,1.516.155,2.276.217.239.019.4-.088.409-.271.005-.226-.139-.306-.341-.323-.968-.082-1.935-.168-2.9-.249-.277-.023-.389.074-.412.351-.081.968-.158,1.936-.238,2.9-.017.2.042.357.264.389.181.027.311-.118.332-.361.062-.725.12-1.451.186-2.252q1.05,1.237,2.091,2.472l-1.188,1a.292.292,0,0,0,.377.447l1.189-1,.909,1.075A5.917,5.917,0,0,0,842.8,140.57V142.8h-1.4a.292.292,0,0,0,0,.585h1.4v1.6a.292.292,0,1,0,.585,0v-1.6h1.4a.292.292,0,0,0,0-.585h-1.4V140.57a5.917,5.917,0,0,0,3.834-10.153c1.154-1.361,2.3-2.725,3.461-4.091.066.8.125,1.526.186,2.252.021.243.151.387.332.361C851.419,128.906,851.477,128.753,851.461,128.549Zm-2.914,6.11a5.455,5.455,0,0,1-5.163,5.447h0c-.1.005-.194.008-.292.008s-.2,0-.292-.008h0a5.454,5.454,0,0,1-3.673-9.192h0q.1-.106.2-.206l0,0q.105-.1.216-.195a5.45,5.45,0,0,1,6.927-.126q.113.09.221.185l.006.005q.109.1.213.2h0A5.438,5.438,0,0,1,848.547,134.659Z" transform="translate(10921.338 1168.709)"/>
  </g>
</svg>
