<svg xmlns="http://www.w3.org/2000/svg" width="24" height="24" viewBox="0 0 24 24">
  <g id="Group_26066" data-name="Group 26066" transform="translate(-41 -408)">
    <g id="invitefriend" transform="translate(16.07 -10.551)">
      <path id="Path_8008" data-name="Path 8008" d="M327.687,691.942c-.263.083-.518.154-.767.242a9.489,9.489,0,0,0-3.551,2.142,5.026,5.026,0,0,0-1.461,2.491,1.58,1.58,0,0,0-.037.343q0,1.811,0,3.623v.147h9.8v.611H321.247c0-.036-.006-.075-.006-.114,0-1.45-.006-2.9,0-4.35a3.484,3.484,0,0,1,.342-1.357A5.8,5.8,0,0,1,323,693.782a10.315,10.315,0,0,1,3.062-1.94c.033-.014.066-.03.106-.049a5.173,5.173,0,0,1-1.916-4.277,5.035,5.035,0,0,1,1.6-3.546,5.208,5.208,0,0,1,7.19-.034,5.073,5.073,0,0,1,1.64,3.911,5.159,5.159,0,0,1-1.807,3.852,7.84,7.84,0,0,1,2.4,1.268l-.391.5a9.289,9.289,0,0,0-3.485-1.582,4.528,4.528,0,0,0,2.62-4.306,4.306,4.306,0,0,0-1.5-3.223,4.539,4.539,0,0,0-6.574.492,4.4,4.4,0,0,0-.9,3.981A4.5,4.5,0,0,0,327.687,691.942Z" transform="translate(-293.238 -261.513)" fill="#000812"/>
      <path id="Path_8009" data-name="Path 8009" d="M474.394,849.29a3.533,3.533,0,1,0,3.531,3.537A3.529,3.529,0,0,0,474.394,849.29Zm0,6.515a2.983,2.983,0,1,1,2.983-2.983A2.983,2.983,0,0,1,474.4,855.805Z" transform="translate(-432.065 -416.252)" fill="#000812"/>
      <path id="Path_8010" data-name="Path 8010" d="M499.544,879.743v-1.269H498.27v-.643h1.269v-1.274h.638v1.268h1.287c0,.206,0,.4,0,.59,0,.019-.062.052-.1.053-.343,0-.686,0-1.029,0h-.148v1.272Z" transform="translate(-457.492 -441.551)" fill="#000812"/>
    </g>
    <rect id="Rectangle_20203" data-name="Rectangle 20203" width="24" height="24" transform="translate(41 408)" fill="none"/>
  </g>
</svg>
