<svg xmlns="http://www.w3.org/2000/svg" width="24" height="24" viewBox="0 0 24 24">
  <g id="Group_26083" data-name="Group 26083" transform="translate(-198 -259)">
    <g id="imagenotavailable" transform="translate(199.671 262.736)">
      <path id="Path_5541" data-name="Path 5541" d="M252.353,316.827a2.448,2.448,0,0,1-2.667,1.642c-5.215-.04-10.43-.016-15.645-.017a2.1,2.1,0,0,1-2.41-2.4q0-5.915,0-11.831a2.073,2.073,0,0,1,2.344-2.343q7.906,0,15.811,0c1.509,0,2.008.325,2.567,1.672Zm-1.05-3.42c.018-.19.03-.256.03-.322,0-3,.006-6,0-9.007,0-.794-.433-1.183-1.267-1.183q-8.068,0-16.136,0c-.9,0-1.265.372-1.265,1.274q0,5.443,0,10.886c0,.155.015.31.028.567,1.232-1.232,2.43-2.349,3.53-3.555s2.147-1.265,3.233.026c.279.331.576.647.89,1,1.363-1.635,2.626-3.144,3.882-4.66A1.6,1.6,0,0,1,247,308.4c1.048,1.211,2.084,2.433,3.127,3.649C250.491,312.476,250.86,312.9,251.3,313.407ZM232.85,316.9l-.02.24a4.965,4.965,0,0,0,1.1.272c1.769.029,3.539.013,5.308.013,3.576,0,7.152.011,10.728-.016a1.825,1.825,0,0,0,1.088-.379,2.27,2.27,0,0,0,0-2.316l-4.713-5.5c-.662-.772-.8-.766-1.467.034q-1.909,2.295-3.823,4.585c-.533.637-.66.638-1.264.037q-.745-.741-1.488-1.484a.573.573,0,0,0-.914-.01Z" transform="translate(-231.628 -301.882)" fill="#e0e0e0" opacity="0.55"/>
      <path id="Path_5542" data-name="Path 5542" d="M261.831,334.072a2.012,2.012,0,0,1-2.021-2.1,2.046,2.046,0,0,1,2.059-2.016,2.074,2.074,0,0,1,2.06,2.084A2.034,2.034,0,0,1,261.831,334.072Zm.017-3.1a1.059,1.059,0,0,0-1.019,1.081,1.03,1.03,0,0,0,1.079,1.006,1.053,1.053,0,0,0,1-1.039A1.09,1.09,0,0,0,261.849,330.973Z" transform="translate(-256.693 -326.854)" fill="#e0e0e0" opacity="0.55"/>
    </g>
    <rect id="Rectangle_20224" data-name="Rectangle 20224" width="24" height="24" transform="translate(198 259)" fill="none"/>
  </g>
</svg>
