<svg xmlns="http://www.w3.org/2000/svg" width="12.746" height="13.887" viewBox="0 0 12.746 13.887">
  <path id="iban" d="M14,0H5.883a.624.624,0,0,0-.624.624V13.263a.624.624,0,0,0,.624.624H14a.625.625,0,0,0,.624-.624V.624A.625.625,0,0,0,14,0Zm.244,13.263a.244.244,0,0,1-.244.244H5.883a.244.244,0,0,1-.244-.244V.624A.244.244,0,0,1,5.883.38H14a.244.244,0,0,1,.244.244Zm1.648-4.855v-.43a.19.19,0,0,1,.38,0v.43a.19.19,0,0,1-.38,0Zm1.819-6.341V1.845a.761.761,0,1,0-1.523,0v.223a.406.406,0,0,0-.3.39V6.943a.19.19,0,0,0,.38,0V6.41h1.356v3.6H16.269V9.443a.19.19,0,0,0-.38,0v1.376a.19.19,0,0,0,.035.108l.434.618a.19.19,0,0,0,.155.081h.244v.986a.19.19,0,1,0,.38,0v-.986h.244a.19.19,0,0,0,.155-.081l.434-.618A.19.19,0,0,0,18,10.819V2.457a.406.406,0,0,0-.3-.39Zm-1.143-.223a.382.382,0,1,1,.763,0V2.05h-.763Zm-.3,4.185V2.457A.027.027,0,0,1,16.3,2.43h1.3a.027.027,0,0,1,.027.027V6.03Zm1.356,4.728-.343.489h-.67l-.343-.489V10.39h1.356ZM13.571,1.264V4.95a.19.19,0,0,1-.19.19H8.73a.19.19,0,0,1,0-.38h4.462V1.454h-6.5V4.761H7.55a.19.19,0,0,1,0,.38H6.5a.19.19,0,0,1-.19-.19V1.264a.19.19,0,0,1,.19-.19h6.883a.19.19,0,0,1,.19.19Zm0,5.121a.19.19,0,0,1-.19.19H6.5a.19.19,0,0,1,0-.38h6.883a.19.19,0,0,1,.19.19Zm0,1.434a.19.19,0,0,1-.19.19H6.5a.19.19,0,0,1,0-.38h6.883a.19.19,0,0,1,.19.19Zm0,1.434a.19.19,0,0,1-.19.19H6.5a.19.19,0,1,1,0-.38h6.883a.19.19,0,0,1,.19.19Zm0,1.434a.19.19,0,0,1-.19.19H6.5a.19.19,0,1,1,0-.38h6.883a.19.19,0,0,1,.19.19ZM9.546,12.443a.19.19,0,0,1-.378.025,1.882,1.882,0,0,0-.248.075c-.215.076-.437.154-.6.039A.3.3,0,0,1,8.2,12.4l-.107.071a1.146,1.146,0,0,1-.618.267c-.278-.007-.433-.284-.519-.569l-.291.542a.19.19,0,1,1-.335-.179l.547-1.021a.19.19,0,0,1,.357.074c.035.424.177.771.251.773h0a1.081,1.081,0,0,0,.393-.2c.2-.135.372-.252.54-.163a.3.3,0,0,1,.147.26,2.129,2.129,0,0,0,.226-.07c.22-.078.448-.158.616-.039a.341.341,0,0,1,.135.3Z" transform="translate(-5.259)"/>
</svg>
