<svg xmlns="http://www.w3.org/2000/svg" width="24" height="24" viewBox="0 0 24 24">
  <g id="Group_26070" data-name="Group 26070" transform="translate(-65 -288)">
    <g id="Group_2191" data-name="Group 2191" transform="translate(15.792 -36.774)">
      <g id="lock" transform="translate(54 326.815)">
        <g id="Group_2189" data-name="Group 2189" transform="translate(0 8.299)">
          <path id="Path_7962" data-name="Path 7962" d="M15.814,21.619H4.6A1.633,1.633,0,0,1,3,19.959v-8.3A1.633,1.633,0,0,1,4.6,10H15.814a1.633,1.633,0,0,1,1.6,1.66v8.3A1.633,1.633,0,0,1,15.814,21.619ZM4.6,10.83a.817.817,0,0,0-.8.83v8.3a.817.817,0,0,0,.8.83H15.814a.817.817,0,0,0,.8-.83v-8.3a.817.817,0,0,0-.8-.83Z" transform="translate(-3 -10)" fill="#000812"/>
        </g>
        <g id="Group_2190" data-name="Group 2190" transform="translate(2.228)">
          <path id="Path_7963" data-name="Path 7963" d="M15.544,9.129a.415.415,0,0,1-.415-.415V4.979a4.15,4.15,0,0,0-8.3,0V8.714a.415.415,0,0,1-.83,0V4.979a4.979,4.979,0,1,1,9.959,0V8.714A.415.415,0,0,1,15.544,9.129Z" transform="translate(-6)" fill="#000812"/>
        </g>
      </g>
      <path id="Path_7964" data-name="Path 7964" d="M15.6,24.031a.666.666,0,0,1-.666-.666v-1.35a.666.666,0,0,1,1.326,0v1.35a.666.666,0,0,1-.66.666Z" transform="translate(45.704 318.731)" fill="#000812"/>
    </g>
    <rect id="Rectangle_20205" data-name="Rectangle 20205" width="24" height="24" transform="translate(65 288)" fill="none"/>
  </g>
</svg>
