<svg xmlns="http://www.w3.org/2000/svg" width="24" height="24" viewBox="0 0 24 24">
  <g id="Group_26071" data-name="Group 26071" transform="translate(-50 -733)">
    <g id="logout" transform="translate(407.156 -256.841)">
      <path id="Path_8062" data-name="Path 8062" d="M-354.457,1031.428a9.378,9.378,0,0,1,2.663-6.648c.226-.234.476-.526.809-.2s.049.571-.176.816a8.116,8.116,0,0,0-1.934,8.529,8.038,8.038,0,0,0,6.52,5.605,8.346,8.346,0,0,0,8.786-4.23,8.42,8.42,0,0,0-1.179-9.731c-.253-.275-.824-.569-.323-1,.473-.409.739.165.991.44a9.258,9.258,0,0,1,1.271,10.781,9.3,9.3,0,0,1-9.723,4.637,9.291,9.291,0,0,1-7.6-7.824C-354.416,1032.175-354.431,1031.738-354.457,1031.428Z" transform="translate(0 -28.815)" fill="#000812"/>
      <path id="Path_8063" data-name="Path 8063" d="M-250.772,998.062c0-1.478,0-2.956,0-4.434,0-.339,0-.708.446-.708s.448.369.447.707q0,4.434,0,8.869c0,.337,0,.707-.446.707s-.448-.368-.447-.706Q-250.769,1000.279-250.772,998.062Z" transform="translate(-94.839 -1)" fill="#000812"/>
    </g>
    <rect id="Rectangle_20208" data-name="Rectangle 20208" width="24" height="24" transform="translate(50 733)" fill="none"/>
  </g>
</svg>
