<svg xmlns="http://www.w3.org/2000/svg" width="24" height="24" viewBox="0 0 24 24">
  <g id="Group_26082" data-name="Group 26082" transform="translate(-76 -320)">
    <g id="amountsend" transform="translate(77.791 313.849)">
      <g id="Group_2213" data-name="Group 2213" transform="translate(0 14.457)">
        <g id="Group_2212" data-name="Group 2212" transform="translate(0 0)">
          <path id="Path_7991" data-name="Path 7991" d="M17.329,160.017H.292a.292.292,0,0,0-.292.291H0v8.177a.292.292,0,0,0,.291.292H11.877a.292.292,0,0,0,0-.584H.584V160.6H17.036v.73a.292.292,0,0,0,.291.292h0a.292.292,0,0,0,.292-.291h0v-1.022A.292.292,0,0,0,17.329,160.017Z" transform="translate(0 -160.017)" fill="#282a3b"/>
        </g>
      </g>
      <g id="Group_2215" data-name="Group 2215" transform="translate(0.681 10.028)">
        <g id="Group_2214" data-name="Group 2214" transform="translate(0 0)">
          <path id="Path_7992" data-name="Path 7992" d="M30.662,59.093,17.033,56.026a.292.292,0,0,0-.349.221L16,59.314a.292.292,0,0,0,.57.127l.618-2.781,13.343,3a.276.276,0,0,0,.064.007.292.292,0,0,0,.064-.577Z" transform="translate(-15.995 -56.019)" fill="#282a3b"/>
        </g>
      </g>
      <g id="Group_2217" data-name="Group 2217" transform="translate(4.424 7.982)">
        <g id="Group_2216" data-name="Group 2216" transform="translate(0 0)">
          <path id="Path_7993" data-name="Path 7993" d="M113.144,11.412,104.966,8a.293.293,0,0,0-.375.139l-.681,1.363a.293.293,0,0,0,.516.279l.009-.017h0l.559-1.119,7.925,3.3a.293.293,0,1,0,.226-.54Z" transform="translate(-103.875 -7.982)" fill="#282a3b"/>
        </g>
      </g>
      <g id="Group_2219" data-name="Group 2219" transform="translate(10.903 15.82)">
        <g id="Group_2218" data-name="Group 2218" transform="translate(0 0)">
          <path id="Path_7994" data-name="Path 7994" d="M259,192.017h-2.7a.292.292,0,1,0,0,.584H259a.292.292,0,0,0,0-.584Z" transform="translate(-256 -192.017)" fill="#282a3b"/>
        </g>
      </g>
      <g id="Group_2221" data-name="Group 2221" transform="translate(5.471 15.84)">
        <g id="Group_2220" data-name="Group 2220">
          <path id="Path_7995" data-name="Path 7995" d="M131.454,192.473a3,3,0,1,0,3,3A3,3,0,0,0,131.454,192.473Zm0,5.452a2.453,2.453,0,1,1,2.453-2.453A2.453,2.453,0,0,1,131.454,197.925Z" transform="translate(-128.456 -192.473)" fill="#282a3b"/>
        </g>
      </g>
      <g id="Group_2223" data-name="Group 2223" transform="translate(12.899 16.794)">
        <g id="Group_2222" data-name="Group 2222">
          <path id="Path_7996" data-name="Path 7996" d="M306.6,214.873c-1.806,0-3.748.427-3.748,1.363v8.177c0,.936,1.942,1.363,3.748,1.363s3.748-.427,3.748-1.363v-8.177C310.352,215.3,308.41,214.873,306.6,214.873Zm3.066,9.535c-.051.189-1.073.687-3.066.687s-3.015-.5-3.067-.681v-.536a9.043,9.043,0,0,0,6.133,0Zm0-1.363c-.051.189-1.073.687-3.066.687s-3.015-.5-3.067-.681v-.536a9.043,9.043,0,0,0,6.133,0Zm0-1.363c-.051.189-1.073.687-3.066.687s-3.015-.5-3.067-.681v-.536a9.043,9.043,0,0,0,6.133,0Zm0-1.363c-.051.189-1.073.687-3.066.687s-3.015-.5-3.067-.681v-.536a9.043,9.043,0,0,0,6.133,0Zm0-1.363c-.051.189-1.073.687-3.066.687s-3.015-.5-3.067-.681v-.536a9.043,9.043,0,0,0,6.133,0Zm0-1.363c-.051.189-1.073.687-3.066.687s-3.015-.5-3.067-.681v-.536a9.043,9.043,0,0,0,6.133,0Zm-3.066-.676c-1.99,0-3.012-.5-3.067-.675v0c.055-.19,1.076-.686,3.067-.686s3,.489,3.066.681C309.6,216.429,308.58,216.917,306.6,216.917Z" transform="translate(-302.856 -214.873)" fill="#282a3b"/>
        </g>
      </g>
      <g id="Group_2225" data-name="Group 2225" transform="translate(1.363 15.82)">
        <g id="Group_2224" data-name="Group 2224" transform="translate(0 0)">
          <path id="Path_7997" data-name="Path 7997" d="M36.373,197.468H33.8l-1.221-1.336v-2.215l1.349-1.317h2.448a.292.292,0,1,0,0-.584H33.806a.292.292,0,0,0-.2.083l-1.522,1.485a.366.366,0,0,0-.088.239v2.423a.292.292,0,0,0,.076.2l1.384,1.514a.292.292,0,0,0,.216.1h2.7a.292.292,0,1,0,0-.584Z" transform="translate(-31.992 -192.017)" fill="#282a3b"/>
        </g>
      </g>
      <g id="Group_2227" data-name="Group 2227" transform="translate(7.447 17.305)">
        <g id="Group_2226" data-name="Group 2226">
          <path id="Path_7998" data-name="Path 7998" d="M176.049,228.066h-.341c-.106,0-.17-.059-.17-.085s.064-.085.17-.085h.852a.341.341,0,0,0,0-.681h-.341a.341.341,0,1,0-.681,0v.015a.793.793,0,0,0-.681.75.814.814,0,0,0,.852.768h.341c.106,0,.17.059.17.085s-.064.085-.17.085H175.2a.341.341,0,1,0,0,.681h.341a.341.341,0,1,0,.681,0v-.015a.793.793,0,0,0,.681-.75A.814.814,0,0,0,176.049,228.066Z" transform="translate(-174.856 -226.873)" fill="#282a3b"/>
        </g>
      </g>
    </g>
    <rect id="Rectangle_20216" data-name="Rectangle 20216" width="24" height="24" transform="translate(76 320)" fill="none"/>
  </g>
</svg>
