<svg xmlns="http://www.w3.org/2000/svg" width="24" height="24" viewBox="0 0 24 24">
  <g id="Group_26069" data-name="Group 26069" transform="translate(-56 -392)">
    <rect id="Rectangle_20211" data-name="Rectangle 20211" width="24" height="24" transform="translate(56 392)" fill="none"/>
    <g id="Group_25868" data-name="Group 25868" transform="translate(21.608 107.724)">
      <path id="Path_43189" data-name="Path 43189" d="M55.571,291.09c0-.564-.242-.787-.83-.789-1.512,0-3.024,0-4.535,0h-.611c0-.607-.012-1.155,0-1.7.01-.324-.116-.439-.438-.437q-2.775.014-5.549,0c-.331,0-.437.127-.428.443.016.547,0,1.094,0,1.7-1.774,0-3.463,0-5.152,0-.588,0-.824.224-.825.791q-.006,6.189,0,12.379c0,.64.273.918.909.919q8.27.007,16.541,0c.633,0,.908-.28.909-.921Q55.579,297.279,55.571,291.09Zm-11.929-2.459h5.489v1.643H43.642Zm11.511,6.389a1.12,1.12,0,0,1-.6,1.106,4.207,4.207,0,0,1-1.59.541c-1.67.061-3.343.031-5.043.026v.439h.131c1.369,0,2.738-.017,4.107.005a4.362,4.362,0,0,0,2.989-.907c0,2.5,0,4.878,0,7.257,0,.379-.208.484-.546.48-.818-.008-1.636,0-2.454,0H38.386c-.728,0-.749-.022-.749-.751q0-3.2,0-6.4v-.59a5.143,5.143,0,0,0,3.745.911c1.15-.013,2.369.008,3.483.013v-.46c-1.674.006-3.349.022-5.022-.009a3.481,3.481,0,0,1-1.227-.323,1.443,1.443,0,0,1-.993-1.526c.053-1.154.032-2.312,0-3.467-.011-.469.1-.651.615-.649q8.163.029,16.326,0c.43,0,.6.109.588.567C55.129,292.53,55.133,293.776,55.153,295.02Z" transform="translate(0)" stroke="#000" stroke-width="0.1"/>
      <path id="Path_43190" data-name="Path 43190" d="M114.014,356.6v-2.59a.45.45,0,0,0-.45-.45h-1.427a.45.45,0,0,0-.45.45v2.59a.45.45,0,0,0,.45.45h1.427A.45.45,0,0,0,114.014,356.6Zm-.312-.186a.321.321,0,0,1-.309.332h-1.086a.321.321,0,0,1-.309-.332v-2.227a.321.321,0,0,1,.309-.332h1.086a.321.321,0,0,1,.309.332Z" transform="translate(-66.527 -58.415)" stroke="#000" stroke-width="0.1"/>
    </g>
  </g>
</svg>
