<svg xmlns="http://www.w3.org/2000/svg" width="24" height="24" viewBox="0 0 24 24">
  <g id="Group_26078" data-name="Group 26078" transform="translate(-111 -120)">
    <g id="Group_25808" data-name="Group 25808" transform="translate(112.692 128.307)">
      <path id="Path_33804" data-name="Path 33804" d="M240.625-653.688c2.215,0,4.431-.019,6.646.006a3.666,3.666,0,0,1,3.638,3.2,3.705,3.705,0,0,1-2.619,4.017,3.568,3.568,0,0,1-1.01.146c-4.43.01-8.861.026-13.291,0a3.609,3.609,0,0,1-3.451-2.437,3.7,3.7,0,0,1,1.12-4.082,3.544,3.544,0,0,1,2.4-.85C236.247-653.68,238.436-653.688,240.625-653.688Zm.05.369c-2.11,0-4.22,0-6.329,0a3.319,3.319,0,0,0-3.582,3.286A3.3,3.3,0,0,0,234.3-646.7q6.329.015,12.659,0a3.3,3.3,0,0,0,3.542-3.325,3.319,3.319,0,0,0-3.572-3.3C244.841-653.323,242.758-653.318,240.674-653.318Z" transform="translate(-230.322 653.694)" fill="#282a3b" stroke="#282a3b" stroke-linecap="round" stroke-linejoin="round" stroke-width="0.25"/>
      <path id="Path_33805" data-name="Path 33805" d="M249.419-637.44l-.361-.627.816-.48-.806-.456.344-.642.813.466v-.893h.728v.91l.8-.489.385.644-.86.463.845.452-.357.667-.795-.5v.92h-.721v-.9Z" transform="translate(-246.089 642.23)" fill="#282a3b" stroke="#282a3b" stroke-linecap="round" stroke-linejoin="round" stroke-width="0.25"/>
      <path id="Path_33806" data-name="Path 33806" d="M323.371-638l-.8.522-.425-.608.836-.477-.809-.5.369-.626.8.5v-.932h.718v.884l.822-.44.354.635-.81.432.785.483-.311.662-.8-.49v.885h-.779Z" transform="translate(-307.595 642.263)" fill="#282a3b" stroke="#282a3b" stroke-linecap="round" stroke-linejoin="round" stroke-width="0.25"/>
      <path id="Path_33807" data-name="Path 33807" d="M274.142-639.712l.827.519v-.923h.7v.913l.823-.462.4.592-.825.488.788.468-.328.642-.816-.477v.907l-.7.036v-.949l-.823.467-.391-.593.81-.5-.767-.441Z" transform="translate(-266.91 642.267)" fill="#282a3b" stroke="#282a3b" stroke-linecap="round" stroke-linejoin="round" stroke-width="0.25"/>
      <path id="Path_33808" data-name="Path 33808" d="M297.3-638.295l.853-.451-.792-.486.314-.636.874.491c-.016-.331-.028-.589-.043-.918l.692-.043v.933l.833-.448.381.615-.839.471.8.443-.3.67-.82-.481v.889l-.716.064v-.961l-.813.46Z" transform="translate(-286.686 642.454)" fill="#282a3b" stroke="#282a3b" stroke-linecap="round" stroke-linejoin="round" stroke-width="0.25"/>
    </g>
    <rect id="Rectangle_20219" data-name="Rectangle 20219" width="24" height="24" transform="translate(111 120)" fill="none"/>
  </g>
</svg>
