<svg xmlns="http://www.w3.org/2000/svg" width="24" height="24" viewBox="0 0 24 24">
  <g id="Group_26076" data-name="Group 26076" transform="translate(-90 -669)">
    <rect id="Rectangle_20218" data-name="Rectangle 20218" width="24" height="24" transform="translate(90 669)" fill="none"/>
    <g id="Group_25871" data-name="Group 25871" transform="translate(92.417 671.419)">
      <path id="Path_33434" data-name="Path 33434" d="M-307.437,334.533a2.082,2.082,0,0,1-.51-.242c-.456-.4-.358-.824.233-1.06a2.872,2.872,0,0,1,2.455.173,5.9,5.9,0,0,0,1.741.582,3.65,3.65,0,0,1,1.595.671,1.2,1.2,0,0,0,1.835-.164c.155-.159.211-.438.58-.363.341.069.337.308.4.525a1.4,1.4,0,0,0,.15.229,4.015,4.015,0,0,0,.627-.514.793.793,0,0,1,1.066-.16,1.31,1.31,0,0,1,.71,1.534c-.118.391.029.5.421.509a.436.436,0,0,1,.2.085,2.406,2.406,0,0,1-.027,4.252.652.652,0,0,0-.152,1.064,2.076,2.076,0,0,1,.593,1.647,1.348,1.348,0,0,0,.283.72c.215.339.484.652.728.977.191.255.332.511-.029.718.188.129.435.219.51.375a.6.6,0,0,1-.107.526,2.5,2.5,0,0,0-.441,1.832c.059.673-.381,1.125-1.147,1.12a2.627,2.627,0,0,1-1.1-.247,1.157,1.157,0,0,0-1.285.109,1.654,1.654,0,0,1,.345.183.747.747,0,0,1,.2.919.938.938,0,0,1-.836.576c-.116.01-.287-.137-.374-.249a1.468,1.468,0,0,0-1.808-.639.949.949,0,0,0-.168.1,1.531,1.531,0,0,1-.241,1.412c-.175.231-.355.41-.688.137a.581.581,0,0,0-.787.033c-.036.03-.067.074-.109.085-.277.075-.635.27-.816.181-.22-.108-.33-.449-.415-.708a5.579,5.579,0,0,1-.148-.888l-.183-.006c-.069.123-.149.241-.205.368-.128.293-.377.513-.7.38-.228-.094-.517-.409-.49-.589a3.645,3.645,0,0,1,.479-1.153c.276-.5.6-.975.92-1.49-.914-.135-1.057-.341-.928-1.168a1.733,1.733,0,0,0-.02-.369c-.152.016-.307.02-.455.05-.4.081-.8.173-1.253.273a6.661,6.661,0,0,1-.435.855c-.268.395-.539.4-.89.062-.175-.169-.332-.354-.525-.563-.09.145-.159.269-.241.385a.785.785,0,0,1-.883.3c-.169-.039-.324-.121-.492-.168-.152-.043-.311-.065-.532-.109.372-.5.255-.874-.216-1.264s-.41-.867.065-1.259c.3-.249.462-.482.179-.818a.7.7,0,0,0-.976-.108c-.083.046-.163.1-.24.149a.75.75,0,0,1-1,0c-.327-.291-.2-.621.072-.85.416-.355.891-.655,1.344-.975.169-.119.348-.227.569-.371a1.22,1.22,0,0,1-.515-1.458.675.675,0,0,0-.533-.912c.667-.784.336-1.6.223-2.408a.962.962,0,0,1,.038-.579,10.479,10.479,0,0,1,1.177-1.827,1.91,1.91,0,0,1,2.16-.442c.263.091.538.155.807.231Zm-.191,12.757a2.972,2.972,0,0,0,.195-.523c.078-.417.4-.519.8-.57.322-.041.637-.139.96-.161a2.187,2.187,0,0,1,.954.054c.348.152.37.512.3.85-.036.164-.041.333-.062.516a2.356,2.356,0,0,0,.237.017c.755-.036.941.171.626.777-.3.587-.672,1.148-1.01,1.722-.119.2-.23.407-.345.611.115-.03.142-.109.2-.148.233-.153.494-.428.712-.4a1.241,1.241,0,0,1,.694.5,1.364,1.364,0,0,1,.145.625c.025.159.027.322.047.577a1.554,1.554,0,0,1,1.858-.377,4.341,4.341,0,0,0-.008-.775.655.655,0,0,1,.493-.861,2.018,2.018,0,0,1,2.109.328c.159.136.316.273.476.411.248-.365.191-.484-.276-.607-.348-.092-.536-.355-.366-.541a1.952,1.952,0,0,1,2.285-.508,1.8,1.8,0,0,0,.717.234.594.594,0,0,0,.732-.506c.035-.654.1-1.307.156-2-.376-.138-.577-.425-.288-.763.385-.449.116-.717-.148-1.05a2.044,2.044,0,0,1-.683-1.4,1.693,1.693,0,0,0-.5-1.36,1.18,1.18,0,0,1,.412-1.875,1.7,1.7,0,0,0,.915-1.785,1.89,1.89,0,0,0-1.278-1.562c-.659-.236-.745-.485-.579-1.09a.567.567,0,0,0,.015-.381,1.841,1.841,0,0,0-.463-.577c-.043-.033-.324.194-.505.286a2.326,2.326,0,0,1-.837.367c-.258.011-.528-.209-.82-.339a1.844,1.844,0,0,1-2.612.052,2.814,2.814,0,0,0-1.058-.476,5.5,5.5,0,0,1-2.2-.713,1.844,1.844,0,0,0-1.946-.029,1.77,1.77,0,0,1,.4.372c.112.2.276.509.185.648a1.044,1.044,0,0,1-.721.381,6.577,6.577,0,0,1-.973-.212,2.466,2.466,0,0,0-1.025.022,2.751,2.751,0,0,0-1.472,2.5,3.234,3.234,0,0,1,.034,1.89.263.263,0,0,0,.028.236c.34.386.235.816.216,1.253a1.081,1.081,0,0,0,.231.683c.2.25.338.5.14.749a2.339,2.339,0,0,1-.748.636,2.988,2.988,0,0,0-1.234.984c.285-.152.455-.257.639-.338a1.254,1.254,0,0,1,1.646.38c.409.508.367.943-.205,1.418-.336.279-.234.458.018.72a1.591,1.591,0,0,1,.459.77c.049.316.194.415.451.394.283-.243.593-.589.9-.585C-308.295,346.739-307.979,347.077-307.627,347.29Z" transform="translate(313.166 -333.03)"/>
      <path id="Path_33435" data-name="Path 33435" d="M-229.34,402.753a2.087,2.087,0,0,1-2.1-2.152,2.088,2.088,0,0,1,2.121-2.084,2.132,2.132,0,0,1,2.145,2.127A2.131,2.131,0,0,1-229.34,402.753Zm-1.762-2.146a1.8,1.8,0,0,0,1.783,1.836,1.862,1.862,0,0,0,1.816-1.782,1.87,1.87,0,0,0-1.814-1.838A1.8,1.8,0,0,0-231.1,400.607Z" transform="translate(239.319 -393.007)"/>
      <path id="Path_33436" data-name="Path 33436" d="M-221.992,409.258a1.151,1.151,0,0,1,1.184-1.155,1.137,1.137,0,0,1,1.138,1.195,1.18,1.18,0,0,1-1.151,1.15A1.2,1.2,0,0,1-221.992,409.258Z" transform="translate(230.823 -401.668)"/>
    </g>
  </g>
</svg>
