<svg xmlns="http://www.w3.org/2000/svg" width="24" height="24" viewBox="0 0 24 24">
  <g id="Group_26074" data-name="Group 26074" transform="translate(-55 -614)">
    <rect id="Rectangle_20216" data-name="Rectangle 20216" width="24" height="24" transform="translate(55 614)" fill="none"/>
    <g id="Group_25870" data-name="Group 25870" transform="translate(-267.387 368.74)">
      <path id="Path_43191" data-name="Path 43191" d="M428.641,347.038c-.191.005-.3-.062-.349-.205a.264.264,0,0,1,.118-.314.615.615,0,0,1,.243-.056,1.465,1.465,0,0,0,1.373-1.422.29.29,0,0,1,.286-.319.294.294,0,0,1,.289.333A2.038,2.038,0,0,1,428.641,347.038Z" transform="translate(-93.888 -88.038)"/>
      <path id="Path_43192" data-name="Path 43192" d="M364.316,313.029c0,.1,0,.2,0,.295a.286.286,0,0,1-.572.016c-.008-.205-.006-.411,0-.616a.275.275,0,0,1,.295-.266.284.284,0,0,1,.273.29c0,.094,0,.188,0,.281Z" transform="translate(-35.175 -58.685)"/>
      <path id="Path_43193" data-name="Path 43193" d="M343.7,262.865q0-3.486,0-6.972a4.188,4.188,0,0,0-.156-1.153,3.776,3.776,0,0,0-3.559-2.714c-.325,0-.649,0-.974,0v0h-3.458v-1.167h1.982c.221,0,.34-.106.341-.308q0-1.142,0-2.284a.285.285,0,0,0-.308-.312h-3.412c-.237,0-.346.107-.346.343q0,1.612,0,3.224v.509h-3.948c-.112,0-.223.008-.335.01-.353,0-.708-.015-1.058.014a3.734,3.734,0,0,0-3.315,3.045,8.884,8.884,0,0,0-.074,1.391c-.007,2.2,0,4.407,0,6.61,0,.085,0,.17,0,.255a.279.279,0,0,0,.312.3c.219,0,.439,0,.658,0q3.52,0,7.039,0c.124,0,.146.04.146.154,0,.8,0,1.6,0,2.4,0,.259.1.362.354.362h2.176c.275,0,.37-.1.37-.373q0-1.2,0-2.391c0-.047,0-.094.007-.145.054,0,.094-.008.133-.008h1.693l5.427,0a.279.279,0,0,0,.309-.308C343.7,263.187,343.7,263.026,343.7,262.865Zm-9.318-14.18v-.16h2.913v1.753h-1.959c-.25,0-.359.11-.359.359q0,3.109,0,6.219a1.246,1.246,0,0,1,0,.134.3.3,0,0,1-.589,0c0-.036,0-.072,0-.107Q334.381,252.781,334.381,248.684Zm-2.32,12.631q0,.806,0,1.611v.154h-6.412v-.169c0-2.355.005-4.71,0-7.065a3.218,3.218,0,0,1,2.379-3.14c.069-.019.14-.029.209-.049a5.22,5.22,0,0,1,.938-.044,3.206,3.206,0,0,1,2.818,2.53,3.6,3.6,0,0,1,.066.679C332.063,257.653,332.061,259.484,332.061,261.315Zm3.484,4.674H333.8c0-.36,0-.7,0-1.048,0-.394,0-.787,0-1.181,0-.036.049-.1.076-.1.554-.006,1.108,0,1.672,0Zm7.433-2.9c-1.558,0-3.116,0-4.674,0H332.81c-.175,0-.175,0-.175-.173,0-2.369.006-4.738,0-7.107a3.692,3.692,0,0,0-1.4-2.94c-.1-.086-.215-.164-.345-.263H333.8c0,.036.007.062.007.088q0,2.109,0,4.218a1.043,1.043,0,0,0,.042.317.865.865,0,0,0,1.691-.278q0-2.082,0-4.165v-.168a.616.616,0,0,1,.136-.017h.071a1.5,1.5,0,0,0,.277,0h3.857a3.2,3.2,0,0,1,3.24,3.22c0,2.373,0,4.747,0,7.12C343.128,263.057,343.1,263.09,342.978,263.089Z" transform="translate(0 0)"/>
    </g>
  </g>
</svg>
