<svg xmlns="http://www.w3.org/2000/svg" width="24" height="24" viewBox="0 0 24 24">
  <g id="Group_26068" data-name="Group 26068" transform="translate(-44 -522)">
    <g id="privacypolice" transform="translate(46.249 523.792)">
      <g id="Group_15973" data-name="Group 15973" transform="translate(0 0)">
        <path id="Path_38263" data-name="Path 38263" d="M140.841,222.32h1.713a.3.3,0,0,0,0-.6h-1.713a.3.3,0,1,0,0,.6Z" transform="translate(-135.394 -212.881)" fill="#000812"/>
        <path id="Path_38264" data-name="Path 38264" d="M140.841,258.668H147.8a.3.3,0,1,0,0-.6h-6.957a.3.3,0,1,0,0,.6Z" transform="translate(-135.394 -247.779)" fill="#000812"/>
        <path id="Path_38265" data-name="Path 38265" d="M270.654,294.417H268.8a.3.3,0,0,0,0,.6h1.855a.3.3,0,0,0,0-.6Z" transform="translate(-258.25 -282.677)" fill="#000812"/>
        <path id="Path_38266" data-name="Path 38266" d="M30.565,2.008,26.694.073a.7.7,0,0,0-.624,0L22.2,2.008h0a.694.694,0,0,0-.386.624v.557h-4.2a.3.3,0,1,0,0,.6h4.2V4.7a7.619,7.619,0,0,0,.1,1.246H16.895a.3.3,0,1,0,0,.6H22.04a5.851,5.851,0,0,0,.3.851H16.895a.3.3,0,1,0,0,.6h5.748a5.883,5.883,0,0,0,.345.521q.124.167.262.33H19.8a.3.3,0,1,0,0,.6h4.017a13.34,13.34,0,0,0,2.2,1.616.7.7,0,0,0,.73,0L26.838,11v7.263H19.013v-.558a.3.3,0,0,0-.6,0v2.014a.1.1,0,0,1-.1.1h-6.17a.1.1,0,0,1-.1-.1V15.411a.1.1,0,0,1,.1-.1h6.17a.1.1,0,0,1,.1.1v.9a.3.3,0,0,0,.6,0v-.9a.694.694,0,0,0-.023-.174h4.861a.3.3,0,0,0,0-.6h-5.8v-.851h5.8a.3.3,0,0,0,0-.6H18.04a2.8,2.8,0,0,0-.216-.851h3.1a.3.3,0,0,0,0-.6H17.472a2.816,2.816,0,0,0-3.564-.781V3.787h2.307a.3.3,0,0,0,0-.6H13.809a.5.5,0,0,0-.5.5v7.7a2.814,2.814,0,0,0-.9,2.065v1.263h-.263a.7.7,0,0,0-.7.7v4.308a.7.7,0,0,0,.7.7h6.17a.7.7,0,0,0,.7-.7v-.858h7.925a.5.5,0,0,0,.5-.5V10.616a9.111,9.111,0,0,0,2.34-2.1A6.171,6.171,0,0,0,30.951,4.7V2.632a.694.694,0,0,0-.386-.624ZM16.258,14.713H14.2V13.451a1.027,1.027,0,0,1,2.054,0v1.263Zm-3.251-1.263a2.223,2.223,0,1,1,4.447,0v1.263h-.6V13.451a1.625,1.625,0,1,0-3.251,0v1.263h-.6ZM30.353,4.7c0,2.874-1.5,4.369-3.918,5.849a.1.1,0,0,1-.106,0c-2.419-1.48-3.918-2.975-3.918-5.849V2.632a.1.1,0,0,1,.055-.089L26.338.608a.1.1,0,0,1,.089,0L30.3,2.543a.1.1,0,0,1,.055.089V4.7Z" transform="translate(-11.448 0)" fill="#000812"/>
        <path id="Path_38267" data-name="Path 38267" d="M312.652,52.13a3.026,3.026,0,1,0,2.851,4.042.3.3,0,1,0-.563-.2,2.429,2.429,0,1,1,.1-1.243.3.3,0,0,0,.589-.1A3.021,3.021,0,0,0,312.652,52.13Z" transform="translate(-297.736 -50.051)" fill="#000812"/>
        <path id="Path_38268" data-name="Path 38268" d="M354.373,105.394l-1.178,1.178-.685-.685a.3.3,0,1,0-.423.423l.9.9a.3.3,0,0,0,.423,0l1.39-1.39a.3.3,0,0,0-.423-.423Z" transform="translate(-338.42 -101.107)" fill="#000812"/>
      </g>
    </g>
    <rect id="Rectangle_20205" data-name="Rectangle 20205" width="24" height="24" transform="translate(44 522)" fill="none"/>
  </g>
</svg>
