<svg xmlns="http://www.w3.org/2000/svg" width="24" height="24.001" viewBox="0 0 24 24.001">
  <g id="phone" transform="translate(-0.5)">
    <path id="Path_2152" data-name="Path 2152" d="M443.414,110.48a.469.469,0,1,1-.469-.469A.469.469,0,0,1,443.414,110.48Zm0,0" transform="translate(-421.258 -104.855)" fill="#000812"/>
    <path id="Path_2153" data-name="Path 2153" d="M383.406,110.48a.469.469,0,1,1-.469-.469A.469.469,0,0,1,383.406,110.48Zm0,0" transform="translate(-364.063 -104.855)" fill="#000812"/>
    <path id="Path_2154" data-name="Path 2154" d="M323.4,110.48a.469.469,0,1,1-.469-.469A.469.469,0,0,1,323.4,110.48Zm0,0" transform="translate(-306.872 -104.855)" fill="#000812"/>
    <path id="Path_2155" data-name="Path 2155" d="M278.086,0a5.632,5.632,0,0,0-5.626,5.626,5.566,5.566,0,0,0,.961,3.135l-.937,2.811a.469.469,0,0,0,.654.568l2.712-1.356a5.553,5.553,0,0,0,2.235.468,5.626,5.626,0,1,0,0-11.251Zm0,10.314a4.641,4.641,0,0,1-2.039-.472.47.47,0,0,0-.414,0l-1.9.95.654-1.962a.469.469,0,0,0-.068-.427,4.643,4.643,0,0,1-.92-2.78,4.688,4.688,0,1,1,4.688,4.688Zm0,0" transform="translate(-259.212)" fill="#000812"/>
    <path id="Path_2156" data-name="Path 2156" d="M179.391,312.5a.469.469,0,1,1-.469-.469A.469.469,0,0,1,179.391,312.5Zm0,0" transform="translate(-169.611 -297.401)" fill="#000812"/>
    <path id="Path_2157" data-name="Path 2157" d="M16.762,65.648a.469.469,0,0,0-.663,0L13.852,67.9a.949.949,0,0,1-1.171.155,17.8,17.8,0,0,1-1.5-1.071.469.469,0,1,0-.584.734,18.757,18.757,0,0,0,1.578,1.128,1.892,1.892,0,0,0,2.339-.282l1.915-1.915,4.4,4.4L19.1,72.779a3.774,3.774,0,0,1-4.19.825A26.323,26.323,0,0,1,1.778,60.469,3.811,3.811,0,0,1,2.565,56.2l1.709-1.709,4.4,4.4L6.761,60.8a1.892,1.892,0,0,0-.281,2.339c.331.519.693,1.027,1.074,1.51a.469.469,0,0,0,.736-.58c-.362-.459-.7-.942-1.02-1.435a.949.949,0,0,1,.155-1.171L9.671,59.22a.469.469,0,0,0,0-.663L4.606,53.492a.469.469,0,0,0-.663,0L1.9,55.532a4.752,4.752,0,0,0-.976,5.331,27.307,27.307,0,0,0,13.6,13.6,4.716,4.716,0,0,0,5.239-1.016l2.066-2.065a.469.469,0,0,0,0-.663Zm0,0" transform="translate(0 -50.853)" fill="#000812"/>
  </g>
</svg>
