<svg xmlns="http://www.w3.org/2000/svg" width="33.941" height="33.941" viewBox="0 0 33.941 33.941">
  <g id="Group_26078" data-name="Group 26078" transform="translate(-629.325 -381.838) rotate(-45)">
    <g id="Rectangle" transform="translate(166 730.001)" fill="none" stroke-miterlimit="10">
      <path d="M0,.99A.99.99,0,0,1,1.457.116L16.932,8.369a.99.99,0,0,1,0,1.748L1.457,18.369A.99.99,0,0,1,0,17.5V12.768a1.981,1.981,0,0,1,.868-1.639L3.407,9.407a.2.2,0,0,0,0-.328L.868,7.356A1.981,1.981,0,0,1,0,5.718Z" stroke="none"/>
      <path d="M 1.500003814697266 1.839614868164062 L 1.500003814697266 5.717594146728516 C 1.500003814697266 5.87701416015625 1.578794479370117 6.025654792785645 1.71075439453125 6.115204811096191 L 4.249174118041992 7.837734222412109 C 4.715414047241211 8.154114723205566 4.99376392364502 8.679384231567383 4.99376392364502 9.242824554443359 C 4.99376392364502 9.806264877319336 4.715414047241211 10.33153438568115 4.249174118041992 10.64791488647461 L 1.710774421691895 12.37043476104736 C 1.578794479370117 12.45999431610107 1.500003814697266 12.60863494873047 1.500003814697266 12.7680549621582 L 1.500003814697266 16.64603805541992 L 15.38309955596924 9.242824554443359 L 1.500003814697266 1.839614868164062 M 0.9913215637207031 -0.001379013061523438 C 1.146108627319336 -0.001379013061523438 1.304897308349609 0.03562736511230469 1.456544876098633 0.1164951324462891 L 16.93234443664551 8.369024276733398 C 17.63148498535156 8.741844177246094 17.63148498535156 9.743804931640625 16.93234443664551 10.11662483215332 L 1.456544876098633 18.36915397644043 C 0.7967967987060547 18.72096633911133 3.814697265625e-06 18.24296379089355 3.814697265625e-06 17.49535369873047 L 3.814697265625e-06 12.7680549621582 C 3.814697265625e-06 12.11163520812988 0.3252735137939453 11.49786472320557 0.8684940338134766 11.12923431396484 L 3.406914710998535 9.406704902648926 C 3.522714614868164 9.328125 3.522714614868164 9.157524108886719 3.406914710998535 9.078944206237793 L 0.8684940338134766 7.356414794921875 C 0.3252735137939453 6.987794876098633 3.814697265625e-06 6.374014854431152 3.814697265625e-06 5.717594146728516 L 3.814697265625e-06 0.99029541015625 C 3.814697265625e-06 0.4145298004150391 0.4727001190185547 -0.001379013061523438 0.9913215637207031 -0.001379013061523438 Z" stroke="none" fill="#000"/>
    </g>
    <rect id="Rectangle_20211" data-name="Rectangle 20211" width="24" height="24" transform="translate(163 727)" fill="none"/>
  </g>
</svg>
