<svg xmlns="http://www.w3.org/2000/svg" width="342" height="312" viewBox="0 0 342 312">
  <g id="redlogo" transform="translate(2 8.309)">
    <rect id="Rectangle_20130" data-name="Rectangle 20130" width="342" height="312" transform="translate(-2 -8.309)" fill="#dc1928"/>
    <path id="Path_43157" data-name="Path 43157" d="M109,209.388a139.756,139.756,0,0,0,87.818,129.753V79.635A139.756,139.756,0,0,0,109,209.388Z" transform="translate(-74.846 -59.091)" fill="#fff"/>
    <path id="Path_43158" data-name="Path 43158" d="M502.442,52.7q-5.01,0-9.931.357V67.866q3.675-.326,7.436-.329c46.6,0,84.374,38.424,84.374,85.822s-37.775,85.822-84.374,85.822q-3.759,0-7.436-.33v87.287q4.919.353,9.931.357a136.9,136.9,0,0,0,0-273.8Z" transform="translate(-333.442 -40.929)" fill="#fff"/>
  </g>
</svg>
