<svg xmlns="http://www.w3.org/2000/svg" width="24" height="24" viewBox="0 0 24 24">
  <g id="Group_26080" data-name="Group 26080" transform="translate(-52 -356)">
    <g id="Group_7161" data-name="Group 7161" transform="translate(55.5 358.08)">
      <path id="Path_33781" data-name="Path 33781" d="M-1547.721,2291.78c0,.379,0,.75,0,1.12a1.143,1.143,0,0,1-.014.412c-.049.119-.184.2-.281.3l-.322.329V2291.8H-1559.5v14.185c0,.269.112.381.382.381h10.4c.261,0,.374-.113.374-.378v-2.45q0-1.468,0-2.934a.214.214,0,0,1,.071-.168c.179-.176.353-.356.546-.552,0,.044,0,.061,0,.079q0,1.321,0,2.644,0,1.719,0,3.438a.925.925,0,0,1-.944.941h-3.312c-2.389,0-4.777,0-7.166,0a.956.956,0,0,1-.963-.79.7.7,0,0,1-.01-.106q0-1.471,0-2.944,0-3.539,0-7.079,0-2.029,0-4.058,0-.27,0-.542a.311.311,0,0,1,.313-.292,1.658,1.658,0,0,0,1.538-.988,1.7,1.7,0,0,0-1.253-2.4,1.713,1.713,0,0,0-1.969,1.393,2.127,2.127,0,0,0-.024.366q0,1.941,0,3.884,0,5.684,0,11.37a.306.306,0,0,1-.3.319.3.3,0,0,1-.315-.318q0-2.6,0-5.191c0-.433,0-.865,0-1.3v-8.842a2.307,2.307,0,0,1,1.92-2.285,4.52,4.52,0,0,1,.741-.039q4.842,0,9.684,0c.614,0,1.227-.005,1.84,0a2.182,2.182,0,0,1,1.464.589,2.249,2.249,0,0,1,.771,1.883,2.314,2.314,0,0,1-1.811,2.115C-1547.587,2291.753-1547.652,2291.765-1547.721,2291.78Zm-10.505-.6h.107l4.58,0,2.6,0h2.721a2.444,2.444,0,0,0,.612-.055,1.708,1.708,0,0,0,1.185-2.2,1.7,1.7,0,0,0-1.656-1.159h-10.153a2.317,2.317,0,0,1,.742,1.7A2.315,2.315,0,0,1-1558.227,2291.177Z" transform="translate(1562.132 -2287.147)" fill="#282a3b"/>
      <path id="Path_33782" data-name="Path 33782" d="M-1431.492,2486.452h3.552a.3.3,0,0,1,.3.2.287.287,0,0,1-.1.345.428.428,0,0,1-.223.068q-1.965.005-3.93,0h-3.156a.315.315,0,0,1-.319-.265.313.313,0,0,1,.231-.345.5.5,0,0,1,.125-.009Z" transform="translate(1439.711 -2479.632)" fill="#282a3b"/>
      <path id="Path_33783" data-name="Path 33783" d="M-1427.605,2531.886c-.146.145-.291.292-.441.433a.156.156,0,0,1-.1.02l-2.274,0-3.853,0H-1435a.307.307,0,0,1-.318-.306.307.307,0,0,1,.321-.313l5.083,0q1.007,0,2.014,0A.318.318,0,0,1-1427.605,2531.886Z" transform="translate(1439.656 -2523.352)" fill="#282a3b"/>
      <path id="Path_33784" data-name="Path 33784" d="M-1428.988,2577.033c-.214.212-.4.4-.6.59a.181.181,0,0,1-.115.028h-2.042l-2.816,0H-1435a.307.307,0,0,1-.32-.313.307.307,0,0,1,.318-.306l3.62,0,2.255,0Z" transform="translate(1439.657 -2567.113)" fill="#282a3b"/>
      <path id="Path_33785" data-name="Path 33785" d="M-1430.549,2622.33c-.2.2-.391.39-.583.576a.147.147,0,0,1-.094.032q-1.893,0-3.786,0a.3.3,0,0,1-.3-.31.3.3,0,0,1,.3-.308q2.213,0,4.426,0A.388.388,0,0,1-1430.549,2622.33Z" transform="translate(1439.657 -2610.852)" fill="#282a3b"/>
      <path id="Path_33786" data-name="Path 33786" d="M-1431.862,2667.606c-.142.208-.271.4-.4.59a.1.1,0,0,1-.074.028q-1.336,0-2.672,0a.3.3,0,0,1-.308-.325.31.31,0,0,1,.321-.292h3.138Z" transform="translate(1439.661 -2654.587)" fill="#282a3b"/>
      <g id="Group_7159" data-name="Group 7159" transform="translate(6.069 6.82)">
        <path id="Path_33787" data-name="Path 33787" d="M-1382.179,2524.462l-.89-.888.241-.227.205.234,6.2-6.2.222.236-6.171,6.169.476.476,6.685-6.685-.476-.469.228-.2.711.713a.531.531,0,0,0-.078.057q-3.454,3.452-6.906,6.9a.588.588,0,0,1-.169.117q-1.389.621-2.781,1.234l-.1.043c.085-.194.159-.365.234-.534q.529-1.189,1.059-2.377a.424.424,0,0,1,.08-.119l6.845-6.845.05-.047.25.243a.842.842,0,0,0-.115.082q-3.368,3.365-6.734,6.734a.585.585,0,0,0-.118.169c-.171.378-.336.758-.507,1.135a.115.115,0,0,0,.028.154c.121.112.232.232.351.345a.112.112,0,0,0,.095.029C-1382.9,2524.783-1382.544,2524.624-1382.179,2524.462Zm-1.959.869.5-.22-.274-.28C-1383.986,2524.987-1384.057,2525.146-1384.138,2525.331Z" transform="translate(1384.776 -2515.033)" fill="#035c96" stroke="rgba(0,0,0,0)" stroke-width="1"/>
        <path id="Path_33788" data-name="Path 33788" d="M-1129.531,2488.72l-.236-.238c.112-.109.223-.218.334-.328a.491.491,0,0,0,0-.762l-.43-.43a.5.5,0,0,0-.764,0c-.108.109-.214.22-.318.328l-.238-.244a5.4,5.4,0,0,1,.491-.448.794.794,0,0,1,1.018.1q.261.25.511.511a.815.815,0,0,1-.014,1.158Z" transform="translate(1139.862 -2486.453)" fill="#035c96" stroke="rgba(0,0,0,0)" stroke-width="1"/>
      </g>
      <g id="Group_7160" data-name="Group 7160" transform="translate(6.069 6.82)">
        <path id="Path_33789" data-name="Path 33789" d="M-1382.179,2524.462l-.89-.888.241-.227.205.234,6.2-6.2.222.236-6.171,6.169.476.476,6.685-6.685-.476-.469.228-.2.711.713a.531.531,0,0,0-.078.057q-3.454,3.452-6.906,6.9a.588.588,0,0,1-.169.117q-1.389.621-2.781,1.234l-.1.043c.085-.194.159-.365.234-.534q.529-1.189,1.059-2.377a.424.424,0,0,1,.08-.119l6.845-6.845.05-.047.25.243a.842.842,0,0,0-.115.082q-3.368,3.365-6.734,6.734a.585.585,0,0,0-.118.169c-.171.378-.336.758-.507,1.135a.115.115,0,0,0,.028.154c.121.112.232.232.351.345a.112.112,0,0,0,.095.029C-1382.9,2524.783-1382.544,2524.624-1382.179,2524.462Zm-1.959.869.5-.22-.274-.28C-1383.986,2524.987-1384.057,2525.146-1384.138,2525.331Z" transform="translate(1384.776 -2515.033)" fill="#282a3b"/>
        <path id="Path_33790" data-name="Path 33790" d="M-1129.531,2488.72l-.236-.238c.112-.109.223-.218.334-.328a.491.491,0,0,0,0-.762l-.43-.43a.5.5,0,0,0-.764,0c-.108.109-.214.22-.318.328l-.238-.244a5.4,5.4,0,0,1,.491-.448.794.794,0,0,1,1.018.1q.261.25.511.511a.815.815,0,0,1-.014,1.158Z" transform="translate(1139.862 -2486.453)" fill="#282a3b"/>
      </g>
    </g>
    <rect id="Rectangle_20221" data-name="Rectangle 20221" width="24" height="24" transform="translate(52 356)" fill="none"/>
  </g>
</svg>
