<svg xmlns="http://www.w3.org/2000/svg" width="24" height="24" viewBox="0 0 24 24">
  <g id="Group_26077" data-name="Group 26077" transform="translate(-105 -749)">
    <g id="Group_25765" data-name="Group 25765" transform="translate(108.198 750.655)">
      <path id="Path_43151" data-name="Path 43151" d="M260.1,346.771c-.191-.389-.367-.752-.55-1.112a.349.349,0,0,0-.133-.141,3.2,3.2,0,0,1-1.516-2.376,1.734,1.734,0,0,1,.015-.8,1.052,1.052,0,0,1,.409-.521c.151-.1.226-.166.227-.363a14.6,14.6,0,0,1,.079-2.223,4.432,4.432,0,0,1,4.2-3.783,4.882,4.882,0,0,1,3.711,1.045,4.376,4.376,0,0,1,1.6,3.276c.022.568.007,1.138.025,1.707a.359.359,0,0,0,.143.256.773.773,0,0,1,.409.688,4.508,4.508,0,0,1-.688,2.44.58.58,0,0,1-.21.234c-.464.2-.593.654-.826,1.031-.147.238-.3.471-.468.733.1.046.2.093.3.135l3.57,1.5a2.641,2.641,0,0,1,1.093.782,2.067,2.067,0,0,1,.456,1.226q.1,2.574.186,5.148c.014.392-.068.473-.467.473H255c-.4,0-.481-.08-.468-.473.059-1.725.1-3.452.19-5.176a2.131,2.131,0,0,1,1.391-1.987c1.26-.53,2.514-1.074,3.771-1.613C259.952,346.845,260.019,346.809,260.1,346.771Zm11.428,8.733a.862.862,0,0,0,.012-.1c-.057-1.532-.136-3.064-.163-4.6a1.792,1.792,0,0,0-1.216-1.776q-1.881-.778-3.755-1.573a.361.361,0,0,0-.49.09,3.482,3.482,0,0,1-5.272-.123.26.26,0,0,0-.367-.08c-1.351.585-2.714,1.146-4.055,1.754a1.553,1.553,0,0,0-.673.636,2.387,2.387,0,0,0-.245.993c-.076,1.483-.119,2.967-.174,4.451,0,.1,0,.206,0,.322Zm-3.968-13.738a1.059,1.059,0,0,1-.809-.879c-.081-.307-.131-.624-.239-.921-.242-.668-.442-.739-1.034-.34-.479.323-.924.695-1.388,1.039a1.308,1.308,0,0,1-1.818.018,10.147,10.147,0,0,1-1.005-.911c-.408-.4-.656-.4-1.017.051a2.321,2.321,0,0,0-.206.346c-.246.447-.5.891-.732,1.343a1.438,1.438,0,0,0-.15.447c-.033.225-.119.368-.365.349s-.357.112-.341.323a3.387,3.387,0,0,0,.144.877,2.206,2.206,0,0,0,1.24,1.542c.089.033.15.163.206.259a16.923,16.923,0,0,0,.938,1.585,2.886,2.886,0,0,0,4.426.328,7.329,7.329,0,0,0,1.346-1.9c.121-.247.232-.477.534-.556a.519.519,0,0,0,.253-.227,4.061,4.061,0,0,0,.589-2.027c0-.077-.1-.23-.15-.228C267.607,342.3,267.537,342.08,267.556,341.766Zm-8.365-1.2c.142-.3.252-.533.366-.766a1.233,1.233,0,0,1,2.205-.37,7.976,7.976,0,0,0,.88.789.717.717,0,0,0,1.046-.006c.317-.235.618-.492.939-.722a6.573,6.573,0,0,1,.873-.56.92.92,0,0,1,1.4.481,12.511,12.511,0,0,1,.41,1.287c.043.134.106.262.161.392l.081-.027c0-.391.012-.783,0-1.173a3.851,3.851,0,0,0-2.107-3.418,4.784,4.784,0,0,0-2.617-.426A3.934,3.934,0,0,0,259.191,340.57Z" transform="translate(-254.529 -335.435)" stroke="#000" stroke-width="0.5"/>
    </g>
    <rect id="Rectangle_20210" data-name="Rectangle 20210" width="24" height="24" transform="translate(105 749)" fill="none"/>
  </g>
</svg>
