<svg xmlns="http://www.w3.org/2000/svg" width="14.922" height="16.75" viewBox="0 0 14.922 16.75">
  <g id="reason" transform="translate(-2032.2 -353.401)">
    <path id="Path_61982" data-name="Path 61982" d="M2047.12,361.8c0,1.1-.008,2.2,0,3.3a1.564,1.564,0,0,1-.85,1.481q-2.872,1.645-5.732,3.31a1.612,1.612,0,0,1-1.756,0q-2.859-1.667-5.732-3.31a1.554,1.554,0,0,1-.846-1.456c.007-1.757,0-3.514,0-5.271a.886.886,0,1,1,1.764.009q0,2.449,0,4.9a.454.454,0,0,0,.263.459q2.607,1.491,5.2,3.006a.392.392,0,0,0,.454,0q2.616-1.527,5.247-3.028a.4.4,0,0,0,.225-.4q-.01-3.021,0-6.042a.375.375,0,0,0-.214-.378q-2.654-1.521-5.3-3.059a.3.3,0,0,0-.36,0c-.324.2-.656.389-.989.575a.889.889,0,1,1-.881-1.538c.429-.251.857-.5,1.291-.743a1.459,1.459,0,0,1,1.521,0q2.975,1.711,5.944,3.431a1.423,1.423,0,0,1,.746,1.3Q2047.122,360.063,2047.12,361.8Zm-.515,0v-3.407a1,1,0,0,0-.52-.923c-.1-.059-.2-.115-.3-.172q-2.777-1.6-5.552-3.206a.984.984,0,0,0-1.034-.055c-.45.249-.9.507-1.338.769a.373.373,0,0,0-.186.533.379.379,0,0,0,.556.1c.378-.214.76-.422,1.127-.655a.513.513,0,0,1,.608,0q2.8,1.636,5.62,3.247a.492.492,0,0,1,.286.484q-.008,3.247,0,6.5a.535.535,0,0,1-.3.529q-2.825,1.615-5.637,3.253a.475.475,0,0,1-.539,0q-2.8-1.631-5.618-3.241a.568.568,0,0,1-.318-.574c.009-1.677.006-3.354.006-5.031a1.305,1.305,0,0,0-.013-.238.363.363,0,0,0-.717.013,1.579,1.579,0,0,0-.009.239v5.191a1.022,1.022,0,0,0,.551.959q2.936,1.693,5.871,3.39a.975.975,0,0,0,1.037,0l5.87-3.389a1.035,1.035,0,0,0,.556-.982c-.022-1.111-.012-2.22-.012-3.329Z" fill="#000812"/>
    <path id="Path_61983" data-name="Path 61983" d="M2081.99,389.449a1.883,1.883,0,1,1-.546-1.343,1.89,1.89,0,0,1,.546,1.343Zm-1.849-1.381a1.373,1.373,0,1,0,1.34,1.4,1.373,1.373,0,0,0-1.34-1.4Z" transform="translate(-40.455 -30.038)" fill="#000812"/>
    <path id="Path_61984" data-name="Path 61984" d="M2061.44,425.024a1.762,1.762,0,1,1,1.778-1.744,1.762,1.762,0,0,1-1.778,1.744Zm.029-.514a1.252,1.252,0,1,0-.89-.355,1.247,1.247,0,0,0,.89.355Z" transform="translate(-24.165 -59.887)" fill="#000812"/>
    <path id="Path_61985" data-name="Path 61985" d="M2102.4,423.272a1.75,1.75,0,1,1-.5-1.249,1.762,1.762,0,0,1,.5,1.249Zm-3.008-.012a1.249,1.249,0,1,0,1.229-1.245,1.249,1.249,0,0,0-1.229,1.245Z" transform="translate(-58.623 -59.888)" fill="#000812"/>
    <path id="Path_61986" data-name="Path 61986" d="M2055.45,370.538a.831.831,0,1,1-.829-.824.831.831,0,0,1,.829.824Zm-.836.331a.307.307,0,0,0,.316-.319.311.311,0,0,0-.622-.016.306.306,0,0,0,.3.334Z" transform="translate(-18.979 -14.35)" fill="#000812"/>
    <path id="Path_61987" data-name="Path 61987" d="M2088.19,397.133a.731.731,0,1,0,.646.369A.731.731,0,0,0,2088.19,397.133Zm-.016,1.02a.289.289,0,1,1,.294-.284.289.289,0,0,1-.294.284Z" transform="translate(-48.556 -38.46)" fill="#000812"/>
    <path id="Path_61988" data-name="Path 61988" d="M2068.81,430.061a.731.731,0,1,0,.646.37.731.731,0,0,0-.646-.37Zm-.016,1.02a.29.29,0,1,1,.273-.133A.289.289,0,0,1,2068.794,431.081Z" transform="translate(-31.512 -67.415)" fill="#000812"/>
    <path id="Path_61989" data-name="Path 61989" d="M2107.97,429.714a.731.731,0,1,0,.646.369A.731.731,0,0,0,2107.97,429.714Zm-.016,1.02a.289.289,0,1,1,.294-.284A.289.289,0,0,1,2107.954,430.734Z" transform="translate(-65.942 -67.11)" fill="#000812"/>
  </g>
</svg>
