<svg xmlns="http://www.w3.org/2000/svg" width="17.976" height="17.376" viewBox="0 0 17.976 17.376">
  <g id="sendmoney" transform="translate(0 -7.982)">
    <g id="Group_2213" data-name="Group 2213" transform="translate(0 13.689)">
      <g id="Group_2212" data-name="Group 2212" transform="translate(0 0)">
        <path id="Path_7991" data-name="Path 7991" d="M15.274,160.017H.257a.257.257,0,0,0-.257.257H0v7.207a.257.257,0,0,0,.257.257H10.468a.257.257,0,0,0,0-.515H.515v-6.693h14.5v.644a.257.257,0,0,0,.257.257h0a.257.257,0,0,0,.257-.257h0v-.9A.257.257,0,0,0,15.274,160.017Z" transform="translate(0 -160.017)" fill="#000812"/>
      </g>
    </g>
    <g id="Group_2215" data-name="Group 2215" transform="translate(0.6 9.785)">
      <g id="Group_2214" data-name="Group 2214" transform="translate(0 0)">
        <path id="Path_7992" data-name="Path 7992" d="M28.922,58.728l-12.012-2.7a.257.257,0,0,0-.308.2l-.6,2.7a.257.257,0,1,0,.5.112l.544-2.451L28.809,59.23a.243.243,0,0,0,.057.006.257.257,0,0,0,.056-.508Z" transform="translate(-15.995 -56.019)" fill="#000812"/>
      </g>
    </g>
    <g id="Group_2217" data-name="Group 2217" transform="translate(3.899 7.982)">
      <g id="Group_2216" data-name="Group 2216" transform="translate(0 0)">
        <path id="Path_7993" data-name="Path 7993" d="M112.044,11.005l-7.207-3a.258.258,0,0,0-.33.123l-.6,1.2a.258.258,0,0,0,.454.246l.008-.015h0l.493-.986,6.985,2.91a.258.258,0,1,0,.2-.476Z" transform="translate(-103.875 -7.982)" fill="#000812"/>
      </g>
    </g>
    <g id="Group_2219" data-name="Group 2219" transform="translate(9.61 14.891)">
      <g id="Group_2218" data-name="Group 2218" transform="translate(0 0)">
        <path id="Path_7994" data-name="Path 7994" d="M258.641,192.017h-2.384a.257.257,0,1,0,0,.515h2.384a.257.257,0,0,0,0-.515Z" transform="translate(-256 -192.017)" fill="#000812"/>
      </g>
    </g>
    <g id="Group_2221" data-name="Group 2221" transform="translate(4.822 14.908)">
      <g id="Group_2220" data-name="Group 2220">
        <path id="Path_7995" data-name="Path 7995" d="M131.1,192.473a2.643,2.643,0,1,0,2.643,2.643A2.643,2.643,0,0,0,131.1,192.473Zm0,4.8a2.162,2.162,0,1,1,2.162-2.162A2.162,2.162,0,0,1,131.1,197.278Z" transform="translate(-128.456 -192.473)" fill="#000812"/>
      </g>
    </g>
    <g id="Group_2223" data-name="Group 2223" transform="translate(11.369 15.749)">
      <g id="Group_2222" data-name="Group 2222">
        <path id="Path_7996" data-name="Path 7996" d="M306.159,214.873c-1.592,0-3.3.376-3.3,1.2v7.207c0,.825,1.712,1.2,3.3,1.2s3.3-.376,3.3-1.2v-7.207C309.463,215.249,307.751,214.873,306.159,214.873Zm2.7,8.4c-.045.167-.946.605-2.7.605s-2.657-.438-2.7-.6v-.472a7.971,7.971,0,0,0,5.406,0Zm0-1.2c-.045.167-.946.605-2.7.605s-2.657-.438-2.7-.6v-.472a7.971,7.971,0,0,0,5.406,0Zm0-1.2c-.045.167-.946.605-2.7.605s-2.657-.438-2.7-.6v-.472a7.971,7.971,0,0,0,5.406,0Zm0-1.2c-.045.167-.946.605-2.7.605s-2.657-.438-2.7-.6v-.472a7.971,7.971,0,0,0,5.406,0Zm0-1.2c-.045.167-.946.605-2.7.605s-2.657-.438-2.7-.6V218a7.971,7.971,0,0,0,5.406,0Zm0-1.2c-.045.167-.946.605-2.7.605s-2.657-.438-2.7-.6V216.8a7.971,7.971,0,0,0,5.406,0Zm-2.7-.6c-1.754,0-2.654-.437-2.7-.6v0c.048-.167.949-.6,2.7-.6s2.643.431,2.7.6C308.8,216.244,307.9,216.675,306.159,216.675Z" transform="translate(-302.856 -214.873)" fill="#000812"/>
      </g>
    </g>
    <g id="Group_2225" data-name="Group 2225" transform="translate(1.201 14.891)">
      <g id="Group_2224" data-name="Group 2224" transform="translate(0 0)">
        <path id="Path_7997" data-name="Path 7997" d="M35.853,196.822h-2.27l-1.076-1.177v-1.952l1.189-1.161h2.158a.257.257,0,0,0,0-.515H33.591a.258.258,0,0,0-.18.073L32.069,193.4a.323.323,0,0,0-.077.21v2.136a.258.258,0,0,0,.067.174l1.22,1.335a.257.257,0,0,0,.19.084h2.384a.257.257,0,0,0,0-.515Z" transform="translate(-31.992 -192.017)" fill="#000812"/>
      </g>
    </g>
    <g id="Group_2227" data-name="Group 2227" transform="translate(6.564 16.199)">
      <g id="Group_2226" data-name="Group 2226">
        <path id="Path_7998" data-name="Path 7998" d="M175.907,227.924h-.3c-.093,0-.15-.052-.15-.075s.057-.075.15-.075h.751a.3.3,0,1,0,0-.6h-.3a.3.3,0,1,0-.6,0v.013a.7.7,0,0,0-.6.661.717.717,0,0,0,.751.677h.3c.093,0,.15.052.15.075s-.057.075-.15.075h-.751a.3.3,0,1,0,0,.6h.3a.3.3,0,1,0,.6,0v-.013a.7.7,0,0,0,.6-.661A.717.717,0,0,0,175.907,227.924Z" transform="translate(-174.856 -226.873)" fill="#000812"/>
      </g>
    </g>
  </g>
</svg>
