<svg xmlns="http://www.w3.org/2000/svg" width="24" height="24" viewBox="0 0 24 24">
  <path id="check" d="M24,12.5a11.953,11.953,0,0,1-2.033,6.662.938.938,0,1,1-1.559-1.042,10.1,10.1,0,0,0,1.4-8.151A.938.938,0,0,1,23.622,9.5,12.043,12.043,0,0,1,24,12.5Zm-6.762,8.667a10.125,10.125,0,1,1,.511-17,.938.938,0,0,0,1.066-1.543,12,12,0,0,0-15.3,18.364,12,12,0,0,0,14.694,1.785.937.937,0,1,0-.972-1.6ZM12.09,15.218a.534.534,0,0,1-.395-.149l-4.91-4.655a.937.937,0,1,0-1.29,1.36L10.4,16.429a2.394,2.394,0,0,0,1.661.665l.1,0a2.4,2.4,0,0,0,1.7-.8l.032-.038,9.893-12.3a.938.938,0,0,0-1.461-1.175L12.458,15.053A.536.536,0,0,1,12.09,15.218Zm0,0" transform="translate(0 -0.5)" fill="#fff"/>
</svg>
