<svg xmlns="http://www.w3.org/2000/svg" xmlns:xlink="http://www.w3.org/1999/xlink" width="108.033" height="100.075" viewBox="0 0 108.033 100.075">
  <defs>
    <linearGradient id="linear-gradient" x1="-0.273" y1="0.826" x2="1" y2="0.5" gradientUnits="objectBoundingBox">
      <stop offset="0" stop-color="#e1b64a"/>
      <stop offset="0.161" stop-color="#e8bc4c"/>
      <stop offset="0.64" stop-color="#f9cc52"/>
      <stop offset="1" stop-color="#ffd255"/>
    </linearGradient>
    <filter id="Path_7646" x="0" y="5.648" width="83.925" height="85.06" filterUnits="userSpaceOnUse">
      <feOffset dx="-25" dy="-25" input="SourceAlpha"/>
      <feGaussianBlur stdDeviation="12.5" result="blur"/>
      <feFlood flood-color="#fff"/>
      <feComposite operator="in" in2="blur"/>
      <feComposite in="SourceGraphic"/>
    </filter>
    <filter id="Path_7647" x="8.729" y="3.481" width="84.889" height="85.236" filterUnits="userSpaceOnUse">
      <feOffset dx="-25" dy="-25" input="SourceAlpha"/>
      <feGaussianBlur stdDeviation="12.5" result="blur-2"/>
      <feFlood flood-color="#fff"/>
      <feComposite operator="in" in2="blur-2"/>
      <feComposite in="SourceGraphic"/>
    </filter>
    <filter id="Path_7648" x="16.771" y="1.595" width="81.776" height="84.8" filterUnits="userSpaceOnUse">
      <feOffset dx="-25" dy="-25" input="SourceAlpha"/>
      <feGaussianBlur stdDeviation="12.5" result="blur-3"/>
      <feFlood flood-color="#fff"/>
      <feComposite operator="in" in2="blur-3"/>
      <feComposite in="SourceGraphic"/>
    </filter>
    <filter id="Path_7649" x="22.15" y="0" width="85.038" height="85.01" filterUnits="userSpaceOnUse">
      <feOffset dx="-25" dy="-25" input="SourceAlpha"/>
      <feGaussianBlur stdDeviation="12.5" result="blur-4"/>
      <feFlood flood-color="#fff"/>
      <feComposite operator="in" in2="blur-4"/>
      <feComposite in="SourceGraphic"/>
    </filter>
    <linearGradient id="linear-gradient-5" y1="0.499" x2="1" y2="0.499" gradientUnits="objectBoundingBox">
      <stop offset="0" stop-color="#b98501"/>
      <stop offset="0.06" stop-color="#c28d04"/>
      <stop offset="0.26" stop-color="#e0a810"/>
      <stop offset="0.44" stop-color="#f2b817"/>
      <stop offset="0.57" stop-color="#f9be19"/>
      <stop offset="0.6" stop-color="#f3b917"/>
      <stop offset="0.76" stop-color="#d29b0a"/>
      <stop offset="0.91" stop-color="#be8903"/>
      <stop offset="1" stop-color="#b78300"/>
    </linearGradient>
    <linearGradient id="linear-gradient-7" x1="0.002" y1="0.499" y2="0.499" xlink:href="#linear-gradient-5"/>
    <linearGradient id="linear-gradient-8" y1="0.499" x2="1.001" y2="0.499" xlink:href="#linear-gradient-5"/>
    <linearGradient id="linear-gradient-11" y1="0.5" y2="0.5" xlink:href="#linear-gradient-5"/>
    <linearGradient id="linear-gradient-12" y1="0.5" x2="0.999" y2="0.5" xlink:href="#linear-gradient-5"/>
    <linearGradient id="linear-gradient-14" x1="0.002" y1="0.5" y2="0.5" xlink:href="#linear-gradient-5"/>
  </defs>
  <g id="stamp" transform="translate(-13309.853 -4800.926)">
    <path id="Union_56" data-name="Union 56" d="M30.9,58.265a.141.141,0,0,0,.011-.132c-.037.015-.079.037-.114.049l-.031-.023c.014-.02-.017-.035-.054-.042L29.1,56.823l-1.839,1.45-.13-.132c.1-.022.266-.14.272-.218-.276.194-.268,0-.327-.117a.294.294,0,0,0-.169.1l-.035-.035c.1-.1.171-.237.059-.231-.041.1-.078.064-.126.027a.106.106,0,0,0-.14-.017l-.072-.076h.04c-.015-.094.122-.174.08-.269a.674.674,0,0,1-.249.132l-.623-.635c.1-.078.221-.154.251-.238a.746.746,0,0,0-.307.179l-.152-.158-2,1.215-.358-.479a2.42,2.42,0,0,1,.337-.093c.025-.266.467-.241.7-.249,0-.031.029-.058.1-.084-.1-.249.535-.35.893-.571.032.042.035.126.115.1.039-.119.416-.212.319-.34a.352.352,0,0,0-.251.194c.019-.084-.041-.055-.1-.025s-.1.048-.109.01a.354.354,0,0,0,.251-.2c.025.047.1.021.181,0a.38.38,0,0,1,.144-.03,1.587,1.587,0,0,1,.61-.37,26.562,26.562,0,0,0,5.907-.043.045.045,0,0,0-.01.035.692.692,0,0,0,.07-.042,26.517,26.517,0,0,0,6.758-1.751.141.141,0,0,0,.119.014c.06-.039.06-.062.039-.077l.29-.121a.094.094,0,0,0,.066-.029c.259-.112.516-.226.778-.345a26.9,26.9,0,0,0,3.3-1.834v.01l.167-.078a.147.147,0,0,1,.018-.045l.342-.231a.224.224,0,0,1-.074.156c.164-.054.271-.031.437-.089.113-.164-.221,0-.216-.167.329-.092.4.027.638.194a.6.6,0,0,1,.222-.257c.045.1-.194.194-.136.293.374-.144.313-.449.021-.389.043-.076.028-.109-.06-.127l.224-.1c-.032-.043-.033-.127-.115-.1-.058.117-.245.169-.449.244a25.192,25.192,0,0,0,2-1.594c.14-.056.269-.112.2-.194a26.662,26.662,0,0,0,2.472-2.529c.121,0,.216.012.194.076-.067.037-.092.016-.117,0a.077.077,0,0,0-.1-.014c.01.041.053.086-.012.121a.106.106,0,0,1-.075.014.092.092,0,0,0-.051.007c.024.1.142.06.26.025a.359.359,0,0,1,.221-.025c.142-.162,0-.194-.119-.253.111-.062.07-.137.181-.194l-.015-.031a.154.154,0,0,0-.065-.086A26.764,26.764,0,0,0,55.8,31.089a.235.235,0,0,0,.129.054,1.2,1.2,0,0,0-.113-.253,26.439,26.439,0,0,0-.019-3.832.68.68,0,0,1,.43-.1c.079-.1.305-.194.332-.309-.253.121-.509.194-.778.319a26.573,26.573,0,0,0-1.868-7.85,3.714,3.714,0,0,1,.665-.212c-.05-.064-.043-.124.052-.177a.4.4,0,0,0,.2-.009.279.279,0,0,1,.214.009c-.014-.062.062-.116.194-.167-.041.139.072.157.257.112a.778.778,0,0,1,.344-.43.169.169,0,0,0,.194.138.188.188,0,0,1,0-.084l.345.174-.827,2.191,1.946,1.3-1.078,2.08,1.769,1.533-.211.315a.032.032,0,0,0-.012-.037c-.2.057-.293,0-.506.082.077.068-.088.117-.125.175-.015-.033-.029-.065-.044-.1l-.29.137c.041.054-.031.1,0,.151a.507.507,0,0,1,.194-.014.458.458,0,0,0-.153.109c-.023-.017-.03-.062-.085-.037,0,.041-.072.076-.152.111-.01.053-.055.255.031.216.1-.231.618-.35.513-.509.14.076.355-.109.449-.208.04.052-.031.1,0,.151L56.83,27.5l1.556,1.751L56.81,30.982l1.333,1.926-.941.806a.156.156,0,0,0-.154.035.127.127,0,0,0,.035.066l-.053.045c-.074-.094-.087-.183.156-.253-.139-.033-.486-.047-.344-.3a.031.031,0,0,0-.016-.031c-.26-.077.094.553.2.6l-.656.558,1.082,2.078L55.494,37.8l.812,2.2-2.1,1.031.529,2.282-2.2.751a.194.194,0,0,0-.072,0c.059.086.04.266.109.355l.123,1.192c-.012.176-.238.052-.256,0-.155.231.144.218.246.233a10.613,10.613,0,0,0-1.167.583c.022.2.29.033.354.028,0,.044.018.089,0,.131l-.128.027c-.016-.037-.035-.07-.09-.053a.1.1,0,0,0,0,.072l-1.017.212c.151-.076.367-.173.5-.233-.068,0-.21.087-.212-.016-.112.082-.293.16-.292.249l-.144.031L50.422,49.2l-2.335.2-.273,1.816a.348.348,0,0,0-.079-.023.679.679,0,0,1-.675.162c-.117.107.146.049,0,.151-.221.1-.264.044-.3-.017s-.068-.1-.208-.052a.257.257,0,0,1,.127.229l-1.109-.051a1.166,1.166,0,0,0,.4-.1c-.089,0-.221.068-.268,0,.074-.05.077-.082.169-.077-.146-.08-.107,0-.074-.16-.228.117-.243.068-.228-.047-.214.067-.2.061-.225.056a.655.655,0,0,0-.164.007.421.421,0,0,0-.249.194c.047-.014.076,0,.085.037a.1.1,0,0,0,.1-.028c.025-.024.043-.05.078-.019.033.055-.021.1-.139.142a3.223,3.223,0,0,0,.323,0l-.166.583c-.058,0-.134.037-.119-.062-.329.146-.166.131-.549.14,0,.089.068.087.136.086s.119,0,.135.056a1.412,1.412,0,0,1,.374-.138l-.442,1.57-2.307-.4-.341.829a.088.088,0,0,1-.107-.049c-.023-.033-.048-.063-.1-.049-.037.089-.046.033-.071-.022s-.063-.111-.157-.026c.124.121.018.225.022.337.07-.028.136-.053.142.012.072-.038.163-.072.235-.11l-.525,1.241-2.246-.7L38.129,56.94l-.811-.365c.161-.075.313-.15.266-.239-.058.037-.194.151-.292.228l-.628-.284a.681.681,0,0,1,.239-.089c-.107-.09.266-.142.094-.236a1.035,1.035,0,0,0-.427.283l-.584-.259-1.111,1.455a.2.2,0,0,1-.194.019c-.014.154-.31.15-.362.241l-1.75-1.076-1.638,1.669Zm3.647-.825h0a3.2,3.2,0,0,0,.474-.3.293.293,0,0,1-.224.024.266.266,0,0,0-.165,0c-.028.084.218.027.058.127l-.212-.016c.079.093-.061.153.073.165Zm-6.828-.012-.007.008c.126-.05.167-.109.124-.173-.362.125-.058.084-.113.165Zm.152-.262-.008.007c.162.01.162-.042.31-.068.011-.046-.021-.064-.067-.064-.085,0-.225.059-.231.125Zm.047-.341c-.085.127.064.147.189.115l0-.01c-.023-.063-.047-.122-.118-.122a.22.22,0,0,0-.072.017Zm5.11-.447a.665.665,0,0,1-.265.162c.062.121.3,0,.506-.082.013-.088-.065-.05-.141-.012s-.153.076-.14-.012c.05-.021.111-.062.075-.062l-.031.006Zm-1-.383c.139.154.489-.1.534-.171h-.04c-.169,0-.322.152-.487.17Zm3.371-.261c.176-.076.332-.156.355-.245-.172.078-.33.157-.348.244Zm.427-.351.031.064c-.035.017-.064.035-.042.057a4.135,4.135,0,0,1,.9-.425h0c-.01-.1-.094-.087-.178-.079a.291.291,0,0,1-.133-.006c.128.178-.3.283-.571.388Zm.9-.425h0a2.186,2.186,0,0,0,.325-.035c-.041-.054.031-.1,0-.153-.165.124-.243.089-.315.188Zm2.174-.32c.127-.134.516-.3.43-.39-.01.026-.15.131-.224.1.03-.022.059-.039.038-.059a.6.6,0,0,0-.233.343Zm2.366-.484.013.027c.022.019.07,0,.086.037a.277.277,0,0,0,.249-.194c-.057.01-.113.019-.14-.01-.1.048-.1.1-.2.139Zm2.342-.524s.092-.047.185-.087a.5.5,0,0,0-.175.086Zm.2-.086a1.468,1.468,0,0,0,.167,0l.057-.027c.05-.044.053-.061.028-.061a.988.988,0,0,0-.243.087Zm-.7-.4c.187,0,.352-.231.166-.231.006.082-.274.142-.159.232Zm1.1-1.162c.013.029.026.058.085.023-.049-.046.211-.1.193-.012h0c.139-.07.146-.139.28-.132-.079-.066.082-.114.053-.176-.239.122-.584.128-.743.307a.16.16,0,0,1,.088-.047.051.051,0,0,1,.055.038Zm-.232-.213c0,.144.33,0,.292-.1h0a.678.678,0,0,0-.281.1Zm.392-.023V51.74c.169-.049.122-.112.264-.163-.015-.032-.029-.062-.044-.1-.214.075-.174.176-.209.269Zm2.165-.358c.109-.042.107-.094.21-.136a.225.225,0,0,0-.194-.137c-.111-.068-.112-.072-.1-.188a2.487,2.487,0,0,1-.557.258c.014.033.03.065.043.1.21-.1.2-.037.266-.161.041.052-.032.1,0,.151a.872.872,0,0,0,.337-.156c.121.1-.116.17.006.269Zm-.986-.924c0,.043-.072.076-.152.112.082.076.23.06.244.231.394-.216.186-.44.156-.539h0c.1,0,.194.1.146.164.152-.06.112-.134.109-.2a.617.617,0,0,0-.688.282c.014.052.045.014.079-.025s.047-.05.069-.05a.047.047,0,0,1,.048.025Zm.7-.406c-.012.132.122.067.265-.01h0A.059.059,0,0,0,46.461,50a.82.82,0,0,0-.2.058Zm.984-.39c.231-.2.2-.122.458-.175,0-.051-.048-.043-.094-.034s-.107.02-.094-.065v-.006c-.227.081-.158.191-.259.28Zm1.207-.9h0c-.031.116-.157.181-.023.241-.4.05-.715.4-.364.247-.056.025-.1-.023-.029-.064s.084.022.1.07a1.476,1.476,0,0,1,.688-.283.289.289,0,0,0-.376-.216Zm.825-1.308c.023.021.046.041.128-.021.012-.092.35-.156.222-.257-.193.072-.438.109-.481.3h0a.155.155,0,0,1,.085-.04.058.058,0,0,1,.057.016ZM49.039,47c.042.049-.218.22-.052.179,0-.081.049-.059.1-.038a.115.115,0,0,0,.1.013v.01c0-.072.134-.132.039-.211a.429.429,0,0,1-.176.044Zm1.01-.33a1.6,1.6,0,0,0-.522.36,5.733,5.733,0,0,0,.559-.335c.124.1.194.045.445-.022-.022-.045-.158-.091-.146-.161l.054-.025-.015-.031a.123.123,0,0,1,.142-.022c.045.016.078.033.1-.05-.068.025-.084-.022-.1-.07-.221.174-.343.172-.506.353Zm.908-.111a.751.751,0,0,0,.325-.035c0-.05-.06-.076-.127-.076a.205.205,0,0,0-.187.109Zm-1.1-.142h0c.194-.119.265-.057.464-.177a.291.291,0,0,0-.37-.058c.066.076-.194.127-.179.194a.219.219,0,0,1,.08-.023c.048-.005.048.018.017.061Zm1.708-.306c-.07.094-.094.222.131.132-.046-.02-.022-.143-.089-.143a.112.112,0,0,0-.03,0Zm.248-.328c0,.045-.054.049-.112.052-.094.144.092.22.148.316l.224-.1c-.022-.125-.091-.09-.164-.055a.2.2,0,0,1-.119.032c-.141-.069.158-.243.048-.243Zm-.342.308a.137.137,0,0,1,0-.152c-.119.121-.214.055-.266.161a.075.075,0,0,1,.086,0,.068.068,0,0,0,.053.013c0-.021-.009-.042.041-.058.03.042.083.11.1.033Zm.911-2.156c.032.054-.022.1-.14.142.052.031.012.194.131.131-.163-.088.26-.278.02-.278h-.01Zm-.717.127c.016.061.045.123.145.1-.1-.144-.033-.406-.27-.449.044.087-.2.308,0,.305.037-.039.06-.054.076-.054s.047.04.061.1Zm.277-.927h0c-.014.116.055.274.185.107-.089.016-.087-.025-.08-.067s.016-.069-.021-.069a.244.244,0,0,0-.072.026Zm1.8-2.031a.155.155,0,0,1,.138-.023.161.161,0,0,0,.057.007c-.083-.109.221-.056.115-.2h0C53.853,41.012,53.777,40.967,53.74,41.1Zm2.3-9.421c.152.4.131.6.465.859h0l-.074-.158c0-.012-.01-.022-.014-.033-.162-.245-.212-.643-.44-.8Zm-.149-.469a.386.386,0,0,0,.062.28l.014.031c.2-.067.013-.311-.075-.311h-.005Zm.7-3.872c-.02.14-.315.259-.422.393a.516.516,0,0,0,.194.29c.214-.076,0-.183.151-.263l.055-.027a.5.5,0,0,1,.14-.14.916.916,0,0,1-.045-.1.149.149,0,0,0-.015-.031c.018-.063.1-.148.03-.148a.309.309,0,0,0-.091.024Zm-1.7-5.867c.023.109.328,0,.293-.1a.677.677,0,0,0-.294.1ZM27.1,58.094ZM27.1,58.094Zm-.13-.134a.141.141,0,0,1,.13.134Zm7.376-.267a.992.992,0,0,0,.368-.064.106.106,0,0,1,0,.018l-.062.081a.549.549,0,0,1-.14.068Zm-7.554.084-.08-.084c.04.016.092.012.088.084Zm7.925-.13Zm-11.592-.52A1.147,1.147,0,0,1,23.29,57c-.21-.041-.148-.139-.357-.181.1-.043.132-.092.138-.14a1.468,1.468,0,0,0-.228.076l-.062-.081v-.018h-.015l-.3-.4a.253.253,0,0,0,.126-.022c.131-.136-.072-.239-.292-.194l-.084-.112-2.14.947L18.907,54.84l-2.244.67-.322-.826a4.8,4.8,0,0,1,1.149-.641c.194-.025.041.132.194.137a.627.627,0,0,1,.432-.389c-.194-.051-.092-.179-.245-.232-.194.409-.9.691-1.6.973l-.487-1.177-2.311.39-.437-1.609c.3-.389.554-.792.815-1.194a26.73,26.73,0,0,0,4.591,2.591,1.218,1.218,0,0,0-.229.171c.194,0,.218-.072.422-.087l.146.062c-.194.255-.778.389-1.064.718-.2.029-.2.134-.31.068.039-.027.109-.052.1-.084-.112.035-.173,0-.31.067.255.092-.047.34.218.323,0-.065.39-.467.629-.409a4.657,4.657,0,0,1,.912-.609,26.866,26.866,0,0,0,5.953,1.7.43.43,0,0,0,.179.128l-.05-.107.148.023.045.094.03.064.014.031a.3.3,0,0,0,.121-.157c.272.039.543.074.815.1a10.011,10.011,0,0,1-1.272.632c.07.1-.221.166-.294.251-.042-.035-.091-.022-.042-.094-.473.214-.95.472-1.455.725Zm1.2-1.106c-.014.058-.031.116.059.081,0-.074.047-.3-.062-.278,0,.02,0,.041-.041.057s-.064.037-.042.059a.172.172,0,0,1,.052-.01c.045,0,.038.045.028.091Zm-2.484-.534c.165-.064.558-.208.434-.239.021.063-.222.072-.3.1,0,.029.027.062-.027.087a.029.029,0,0,0-.028-.013c-.037,0-.09.027-.085.065Zm-5.016-.519c.149-.05.228,0,.382-.062h0c-.306.027-.3-.117-.259-.265-.126.072-.228.146-.237.226a.345.345,0,0,1,.086-.016c.047,0,0,.049.022.117ZM16.566,53.7l-.056.027a.153.153,0,0,0,.017.184c.09-.049.164-.269.112-.269C16.626,53.643,16.6,53.66,16.566,53.7Zm-1.913-.458a.128.128,0,0,0,.1.069.643.643,0,0,0,.235-.226.507.507,0,0,0-.335.158Zm-.9-.312c-.1.162.012.15.077.311l.167-.08c.072-.144.026-.248-.127-.248a.517.517,0,0,0-.114.018Zm1.78.014c.041.055-.031.1,0,.154a.388.388,0,0,0,.285-.129h0a.093.093,0,0,0-.1-.089.416.416,0,0,0-.182.064Zm-1.119-.938c.119.142-.306.241-.3.374a2.064,2.064,0,0,1,.325-.037c0-.1.2-.346.041-.346a.276.276,0,0,0-.063.01ZM28.23,54.872a.527.527,0,0,1,.4-.149c.01-.208.541-.257.557-.415-.3.109-.2.035-.115-.1a3.278,3.278,0,0,0-.474.3c.194.092-.526.21-.376.365q-.644-.026-1.282-.081a.371.371,0,0,0-.194-.031l.015.014q-.937-.088-1.864-.247c.112-.148-.247-.1-.046-.308-.1.033-.084.076-.154.111l.059.127a.192.192,0,0,1,.021.05,25.782,25.782,0,0,1-3.089-.739H21.7c-.059-.129.194-.234.169-.36h.012a.266.266,0,0,0,.179-.194.184.184,0,0,1-.095-.014c-.051-.018-.1-.036-.229.049a.289.289,0,0,0,.084.14.818.818,0,0,0-.447.263c.119-.062.194-.057.212.017a.435.435,0,0,1-.059.057c-.257-.08-.509-.164-.765-.251a.224.224,0,0,1,0-.114.217.217,0,0,0-.116.072l-.261-.094a25.919,25.919,0,0,1-6.021-3.147,1.684,1.684,0,0,0,.154-.283.7.7,0,0,0-.194.249,25.617,25.617,0,0,1-4.3-3.829c-.111-.338-.247-.688-.335-.94-.158.273.074.434.111.679v.02a25.8,25.8,0,0,1-2.221-2.936c.076-.044.122-.1.1-.139a.245.245,0,0,1-.144.079l-.084-.132a1.27,1.27,0,0,1,.42-.266.6.6,0,0,1,.4.274.371.371,0,0,0,.1-.041,24.73,24.73,0,0,0,2.156,2.8c-.055.047-.144.092-.074.149a.523.523,0,0,0,.211,0,24.961,24.961,0,0,0,9.947,6.7c-.127.121-.442.1-.251.194.037-.085.094-.074.164-.062a.241.241,0,0,0,.2-.032c-.014-.066-.093-.04-.114-.1l.042.015q.471.171.946.323a.391.391,0,0,0-.134.194c.32-.118.225.123.074.158.042,0,.3-.051.28-.131.084-.179-.163-.111-.156-.194l.247.076.044.014c-.027.033-.094.092-.064.109a1.261,1.261,0,0,1,.194-.072l.146.043a.408.408,0,0,1-.052.052.5.5,0,0,1,.067-.049l.4.112a.173.173,0,0,1-.068.059c-.074-.089-.268,0-.41,0a.125.125,0,0,1-.012.121c.362-.161-.045.049.059.127a4.456,4.456,0,0,1,.5-.286q.744.194,1.5.355c-.139.058-.1.131-.1.2.086-.053.109-.016.183-.047l-.031-.065-.014-.031-.025-.055A24.843,24.843,0,0,0,38.8,52.192l.039-.022c.307-.129.617-.265.922-.407q.392-.184.779-.377a1,1,0,0,0-.1.08,1.1,1.1,0,0,0,.544-.294l-.1.033a24.991,24.991,0,0,0,13.2-24.23.482.482,0,0,1,.052.621c.052.068.136-.105.138-.142.234.082.067.337.263.419.049-.266-.3-.679-.3-.938l-.148-.317-.05-.109a24.845,24.845,0,0,0-1.6-6.521,4.388,4.388,0,0,1,.416-.258c.012.13.216,0,.325,0v0q.432,1.091.755,2.2a2.119,2.119,0,0,1-.438.194c.078.07.329-.067.447-.161a25.6,25.6,0,0,1,.707,3.126c-.175.067-.342.172-.33.261a1.913,1.913,0,0,0,.342-.181,25.715,25.715,0,0,1,.3,3.437c-.029-.062-.06-.132-.142-.142.137.112-.149.2-.134.294.226-.087.167.22.28.288V29.5H54.9a.623.623,0,0,0,.064.1,25.892,25.892,0,0,1-3.824,13.034c-.012-.03-.033-.045-.086-.018,0,.078-.075.072-.139.066s-.1-.01-.085.038c.035-.014.068-.025.07,0-.067.035-.129.072-.082.114a.478.478,0,0,1,.245-.085l-.1.162.012-.033c-.194.107-.333.218-.319.342a.389.389,0,0,1,.116-.012c-.076.115-.151.229-.229.345a.487.487,0,0,0-.286.276l.131-.049a25.6,25.6,0,0,1-8.855,7.962.02.02,0,0,0-.015-.018c-.174.072-.43.248-.584.229-.181.058-.194.131-.206.2-.211.1-.427.209-.643.31A25.631,25.631,0,0,1,29.2,54.89c-.319,0-.643-.005-.967-.018Zm6.791-.814c.186-.212.274-.107.533-.172-.019-.146-.179-.092-.339-.038a.578.578,0,0,1-.268.052ZM20.98,53.466c.031.068.121.135.261.019l-.112.053c-.069-.115-.116-.155-.14-.155S20.961,53.425,20.98,53.466Zm-.324-.209a.139.139,0,0,1,0-.153.6.6,0,0,1-.241.074l-.057.025c.025.06.074.047.127-.022C20.5,53.262,20.554,53.294,20.656,53.257Zm.523-.052c.156-.081.174-.174.255-.261-.136.124-.342.1-.34.224a.147.147,0,0,1,.031,0A.049.049,0,0,1,21.179,53.205Zm19.51-1.328c.017.081-.14.151-.164.231a.458.458,0,0,1,.185-.043V52.06c-.02-.041.112-.189.023-.189a.177.177,0,0,0-.044.006Zm-.445.208c-.06-.067-.109-.144-.216-.164,0,.1.013.239.215.164Zm.679-.739c.159.017-.116.112-.266.161.109.07.09.1-.082.117l.03.062c.023.019.031.062.085.037.01-.167.194-.055.389-.183.057-.132,0-.107.037-.211.047.057.358-.007.37-.087v-.006c-.094.012-.228.076-.228-.049-.128.1-.313.03-.336.159Zm.275.3V51.64c.091-.064.223-.124.251-.194h-.005c-.112,0-.337.108-.244.2Zm5.76-3.882c-.058-.041.1-.208-.074-.158.032.086-.307,0-.337.156.152-.074.139,0,.226-.1a.151.151,0,0,0,.184.1Zm.967-1.725a.131.131,0,0,1-.012.121c.107-.1.249-.015.224-.1-.1.031,0-.047-.045-.1Zm-38.42-.9c.126.1-.041.3.173.226-.109-.055-.019-.256-.1-.256a.167.167,0,0,0-.078.029Zm39.389-.113c-.043.094-.212.183-.064.3.213-.086.317-.179.275-.284a.08.08,0,0,1-.094-.014A.085.085,0,0,0,48.956,45a.13.13,0,0,0-.063.025ZM9.429,44.977c.225-.158-.183-.643-.313-.817a4.8,4.8,0,0,1,.313.817Zm40.148-.817c.2-.144.447-.107.432-.241-.158.026-.475.081-.432.24ZM30.213,52.954a.779.779,0,1,1,.027,0Zm-2.4-.017a.791.791,0,1,1,.048,0Zm4.442-.187a.139.139,0,0,0-.114-.039v.008a.809.809,0,1,1,.342.025v.005a.725.725,0,0,1-.228,0Zm-7.356-.7a.806.806,0,0,1,.385-.847l.067-.027c.157,0,.1.311.355.179a.564.564,0,0,1,0-.263.556.556,0,0,1,.253.033,1.129,1.129,0,0,0-.165.1,1.871,1.871,0,0,0,.517.137.807.807,0,0,1-.74,1.319v.01a.806.806,0,0,1-.676-.637Zm9.1-.123c.058-.033.088-.07.06-.109l-.1.044a.82.82,0,0,1-.06-.165.808.808,0,1,1,.973.583v.008a.783.783,0,0,1-.193.023.808.808,0,0,1-.68-.384Zm-10.475.146.337-.156a.848.848,0,0,1,.337-.348.514.514,0,0,1-.014.062.808.808,0,0,1-.764.6c.044-.047.128-.123.1-.158Zm-.434-.033c.1-.05.136-.015.237-.072.129.07-.159.109-.042.179a.749.749,0,0,1-.11.012c-.076,0-.1-.031-.088-.119Zm17.873-.015a.047.047,0,0,1,.01.017h0l-.124.065c.01-.03.033-.057.111-.082Zm-18.1,0a.815.815,0,0,1-.194-.245l.017-.02c.023.092.139.051.255.012a.377.377,0,0,1,.212-.037c.012.094-.218.166-.221.257a.56.56,0,0,1-.068.037Zm-9.867,0-.149-.547-2.335.094-.29-2.033a.355.355,0,0,0,.151.082,1.62,1.62,0,0,0,.362-.245.367.367,0,0,0-.548-.08v-.042L7.853,49.06l-.037-2.335-2.29-.492L5.783,43.9,5.2,43.691c.107-.039.194-.064.315-.111a.623.623,0,0,0-.4.082l-1.543-.541.225-.934a.176.176,0,0,0,.063-.107l-.041.014.3-1.25-1.14-.574c0-.072-.013-.148.139-.208a.213.213,0,0,1,.241.079c.3-.1-.068-.248.319-.34-.194-.167-.652.282-.945.345l-.067-.033c.323-.185.932-.535,1.068-.338.074-.085.362-.154.292-.251-.089.022-.272.171-.3.1A1.773,1.773,0,0,0,4.1,39.41c.067.1.282-.012.452-.056-.016-.067-.1-.041-.115-.1l.067-.035q.244.6.521,1.193.429.919.918,1.788a1.673,1.673,0,0,1-.238.089c.016.041-.05.076-.012.121a1.287,1.287,0,0,0,.283-.149c.149.266.3.527.463.778a3.063,3.063,0,0,1-.778.3.144.144,0,0,1,0,.154.585.585,0,0,1,.478-.146,1.31,1.31,0,0,1,.36-.2,26.474,26.474,0,0,0,7.305,7.778,4.693,4.693,0,0,1-.485.675c0,.05-.074.1-.066.148-.046.075-.149.286-.26.286ZM8.038,47.4a.8.8,0,0,0,.578-.076l-.029-.064C8.356,47.372,8.264,47.29,8.038,47.4Zm-3.5-4.3c.027.083.06.158.193.1.026-.041-.011-.129-.1-.129a.2.2,0,0,0-.093.024Zm1.438-.7c-.087.063.06.356.144.164-.086,0-.081-.039-.076-.082s.01-.082-.06-.082H5.972Zm-.918-1.543c.068.121-.092.031-.139.142.022.074.092.08.212.018-.055-.032.067-.167-.026-.167a.185.185,0,0,0-.047,0Zm-.663-.535c.035.055-.02.1-.139.142l.074.158c.1,0,.259-.087.346-.074-.092-.053-.09-.237-.22-.237a.187.187,0,0,0-.061.006ZM23.257,51.505c.074-.025.086.035.029.062a1.153,1.153,0,0,0,.533-.171,1.163,1.163,0,0,1-.6.319C23.173,51.639,23.26,51.575,23.257,51.505ZM36,51.159a.805.805,0,1,1,.763.544A.805.805,0,0,1,36,51.159Zm.887-.852-.056.025c0,.053-.053.1,0,.154.153-.06.239-.124.183-.2a.143.143,0,0,1-.07.011h-.009a.123.123,0,0,0-.048.009Zm10.155,1.356a4.481,4.481,0,0,1,.666-.247c-.047-.059.041-.108.092-.149l-.065.429Zm-24.449-.238a.23.23,0,0,0,.066-.027c0-.052.052-.1,0-.154l-.047.02v-.04a.813.813,0,0,1,.311-.451c0,.122.031.292.157.233l-.121-.258a.8.8,0,0,1,1.055.166c-.212.1-.094.223-.194.328-.172.049-.125.112-.267.164,0-.125.018-.088-.114-.1.1-.057.139-.022.239-.072a.382.382,0,0,0-.313.025.716.716,0,0,1-.271.05,1.278,1.278,0,0,1-.474.329.843.843,0,0,1-.026-.213Zm-1.537.117h-.01a.808.808,0,0,1,.169-1.557.132.132,0,0,0,0,.053,1.333,1.333,0,0,0,.185-.057.828.828,0,0,1,.208.047.807.807,0,1,1-.553,1.516Zm.428-.176c.019.111.167.045.325-.035-.035-.112.029-.257-.174-.228h0c.073.1.065.2-.15.264ZM21.6,50.31c-.031.041-.057.255.132.13h0c.059-.076,0-.133-.091-.133l-.041,0Zm-.068-.006h0a.159.159,0,0,0-.017-.184c-.164.07-.14.265.017.18ZM47.8,51.26v.006h0Zm-9.6-.906a.807.807,0,1,1,1.073.391.824.824,0,0,1-.341.076.808.808,0,0,1-.727-.468ZM18.807,50.6a.433.433,0,1,0,.005,0Zm7.427-.355c.055-.023.122-.053.216-.088a2.357,2.357,0,0,1,.249-.346c.121-.082.412-.09.476-.147-.124-.019-.225-.052-.235-.136.476.053.953.09,1.434.109a.1.1,0,0,0-.027.074c.069-.029.138-.052.141.012l-.223.1c.031.119.325,0,.389-.062.041.119.157.128.355.029a.634.634,0,0,1-.2-.142h.526c-.022.053.029.112-.115.154a.03.03,0,0,0-.037-.008.031.031,0,0,0-.017.033c.082-.027.1.041.156.043a.621.621,0,0,1,.365-.094c-.089-.066-.22-.072-.315-.129a20.323,20.323,0,0,0,4.5-.536l.02.015-.337.157c.022-.107-.255-.052-.253.041.221-.094.4.062.356.181l.223-.1c0-.055-.046-.047-.094-.04s-.109.018-.1-.066c.333-.084.154-.077.479-.146a.826.826,0,0,0-.1-.089c.176-.043.354-.09.531-.139l.014.018.091-.047a20.417,20.417,0,0,0,2.01-.675.1.1,0,0,0,.09,0c-.01-.014.025-.041.064-.07.335-.134.67-.28,1-.434a20.428,20.428,0,0,0,10.213-10.55c.012,0,.018.014.018.041-.031.014-.05.054.015.031,0-.041.039-.078.082-.115.173.144.179.29.251.537a.568.568,0,0,0-.249-.778c.1-.238.194-.477.276-.718a20.515,20.515,0,0,0,1.181-8.581c.308-.138.541-.228.762-.345a21.339,21.339,0,0,1-1.2,9.193c-.179.488-.373.972-.584,1.447a.081.081,0,0,0-.015.042,21.5,21.5,0,0,1-1.4,2.6,1.438,1.438,0,0,1-.229.009,1.386,1.386,0,0,0-.183,0c.153.056-.14.227-.2.167s.053-.138-.032-.213c-.062.126-.337.389-.327.613.114-.041.091-.094.138-.14.122,0-.159.389.144.164-.074.032-.111-.055-.045-.1.139-.07.194-.031.311-.068.023-.119.184-.229.247-.347a.294.294,0,0,0,.1.014c-.107.167-.216.333-.327.5a.242.242,0,0,1-.06.044H46.8a21.355,21.355,0,0,1-15.059,9.13c.163-.1.583-.194.508-.311-.338.15-.4.236-.633.256a.093.093,0,0,1,.022.067q-.54.062-1.084.1c.064-.06.076-.119-.01-.124-.1.039-.119.086-.116.132-.162.01-.323.017-.485.022a.158.158,0,0,1,.2-.154c-.156-.169-.047-.181-.107-.375l-.281.13c.276.075.109.283.167.4q-.359.012-.718.012a21.253,21.253,0,0,1-2.965-.2Zm.413-.18c.048,0,.041.056.038.111,0,.075,0,.15.157.088v.006c-.016-.131-.049-.362-.286-.176a.208.208,0,0,1,.089-.03Zm4.231-.22c-.216.219-.688.14-.7.4a1.8,1.8,0,0,1,.715-.218c-.049-.067-.042-.127.053-.179a1.086,1.086,0,0,0,.244-.039c.184-.041.357-.084.24.077h.012c.247-.139.151-.131.149-.263a4.091,4.091,0,0,1-.965.073,4.156,4.156,0,0,0-.883.058c.151.14.428.114.684.087a2.821,2.821,0,0,1,.284-.021.529.529,0,0,1,.172.024Zm-3.858.072c.129.1-.2.164-.091.263l.012.006c.24-.12.287-.274.133-.274a.3.3,0,0,0-.05,0Zm1.886.12c-.038.009-.04-.016-.048-.042s-.024-.059-.112-.034c.022.029-.212.177-.012.121,0-.022,0-.04.041-.058-.041.081.141.1.136.012Zm3.711-.232c-.14.07-.283.14-.235.226a1.182,1.182,0,0,1,.49-.273c0,.05-.107.094-.138.142.1.039.146.144.311.084.134-.043-.209-.111-.032-.216.136-.07.194-.032.31-.066a.408.408,0,0,1-.107-.376c-.261.072-.134.174-.22.259a.433.433,0,0,0-.154.109c-.082,0-.117-.082-.146-.164-.154.043-.278.074-.321.194a.276.276,0,0,1,.126-.042c.074,0,.1.057.12.123Zm4.091-1.183h.012l.015.033a2.191,2.191,0,0,1,.439.064.265.265,0,0,0-.272-.151.332.332,0,0,0-.189.053Zm6.336-4.262a.339.339,0,0,0,.176.38c-.029-.053,0-.1.068-.148-.116-.08-.162-.251-.214-.251a.042.042,0,0,0-.025.018Zm1.173-.586c.179-.107.184-.076.2-.047s.028.041.113.016h.012a.117.117,0,0,0-.086-.194h0c-.124.071-.225.143-.234.224Zm.358-.546c0,.113-.134.025-.226.1-.068.076-.025.194.119.132h.012c-.045-.066.334-.239.124-.239Zm1.077-.586h.012c.1-.151-.128-.124-.3-.052.044.067.089.049.138.032a.215.215,0,0,1,.068-.014.112.112,0,0,1,.087.033ZM25.89,50.172c.216-.054.055-.06.129-.221-.1.056-.14.021-.238.072a.236.236,0,0,1,0,.132l-.346-.06c0-.018.014-.047.067-.094a.156.156,0,0,0-.119.084l-.22-.041c-.144-.052-.337-.064-.286-.212-.221.131-.478.042-.389-.092a.146.146,0,0,1,.131.031.153.153,0,0,0,.167.022c0-.077.064-.071.13-.065a.218.218,0,0,0,.11-.007c-.14-.082.247-.123.109-.2l-.281.131c-.257-.123.012-.257.337-.4h0q.845.169,1.707.266a.554.554,0,0,1-.422.1,1.4,1.4,0,0,0-.276.01c.03.084.134.057.194.107-.212.134-.365.276-.346.43a.111.111,0,0,0-.039.025Zm-.733-.442.012.006.281-.131c0-.044-.039-.062-.083-.062C25.254,49.544,25.076,49.658,25.157,49.73Zm15.018-.32a.808.808,0,1,1,.7.4.808.808,0,0,1-.7-.4Zm-17.611-.045.027-.015c.08-.248-.233-.224-.327-.117-.074-.07-.047-.284-.194-.258,0,.041-.072.076-.154.111.086.064.2.084.239.144l-.239-.086q-.292-.1-.583-.221c.054-.04.074-.081.039-.128-.047.014-.111.05-.126.019l-.057.028a.051.051,0,0,1,0,.023,21.473,21.473,0,0,1-4.249-2.313,2.316,2.316,0,0,0,.325-.569c-.111.158-.255.341-.389.522-.36-.253-.71-.519-1.055-.8a.243.243,0,0,0,.026-.144.145.145,0,0,0-.1.081l-.054-.044a.086.086,0,0,0-.016-.113.668.668,0,0,1-.066.047,21.124,21.124,0,0,1-4.041-4.457l.288-.122a.325.325,0,0,0-.221-.026.614.614,0,0,1-.167,0,21.032,21.032,0,0,1-1.17-1.978l.284-.132c0-.116-.14-.049-.146-.163a.439.439,0,0,0-.2.194c-.121-.235-.237-.474-.35-.715q-.261-.556-.484-1.123c.144-.058.224-.121.169-.194-.1.041-.179.086-.194.134a21.408,21.408,0,0,1-.744-2.25.713.713,0,0,0,.062-.055.18.18,0,0,0-.1-.109c-.014-.054-.027-.109-.042-.163a.181.181,0,0,1,.072-.039c.165,0-.031.178.194.1.042-.087.132-.171.151-.263.162-.066.244-.081.321-.122a20.031,20.031,0,0,0,.6,1.971l-.1.045c.169.084-.31.375,0,.274-.042-.084.107-.091.208-.049.026.067.049.132.075.194a.329.329,0,0,0-.053.053l.067-.018q.247.643.543,1.274a20.66,20.66,0,0,0,1.634,2.891,3.989,3.989,0,0,0-.371.175l.042.1c.13-.03.261-.115.4-.164a20.452,20.452,0,0,0,8.456,7.038.385.385,0,0,0,.037.068l.016.032c.015.046.033.093.1.067l-.059-.126c.43.194.868.367,1.309.529a20.434,20.434,0,0,0,2.951.831c-.194,0-.86.371-1.139.338.123-.065-.109-.047-.074-.157a.244.244,0,0,0-.136.307C23.378,49.62,22.969,49.5,22.564,49.365Zm.883-.375.012.005a.855.855,0,0,0,.293.481l.169-.079c-.115-.15-.118-.442-.328-.442a.381.381,0,0,0-.146.035Zm-1.278-.1a.34.34,0,0,0,.257.111c-.031-.07-.051-.155-.131-.155a.262.262,0,0,0-.126.048Zm-5.336.625a.808.808,0,1,1,.418.117.808.808,0,0,1-.418-.117Zm6.706-.487c.229-.037.122.164.183.253l.012.006h-.022c-.118.006-.1-.194-.173-.255Zm19.186-.523a.8.8,0,0,1-.7-.673c.171-.1.332-.27.494-.229-.057-.076.327-.117.178-.194a4.287,4.287,0,0,0-.68.362.8.8,0,0,1,.328-.712h0a.8.8,0,1,1,.381,1.451Zm-27.9-.354a.805.805,0,1,1,1.288-.553l-.012.031.007-.005a.788.788,0,0,1-.156.372.8.8,0,0,1-.148.149,2.572,2.572,0,0,0,.3-.516.388.388,0,0,1-.09.051c-.114.185-.228.369-.35.554a.809.809,0,0,1-.836-.084ZM11.083,33.8a18.678,18.678,0,1,1,18.1,14.044A18.678,18.678,0,0,1,11.083,33.8ZM24.7,11.736a17.978,17.978,0,1,0,8.972,34.818h-.008A17.977,17.977,0,1,0,24.7,11.736ZM43.915,46.879a.8.8,0,0,1-.2-.5.2.2,0,0,0,.072-.017.441.441,0,0,1-.062-.148.808.808,0,0,1,.247-.471h0a.96.96,0,0,1,.154-.107.683.683,0,0,1-.109.231c.239.022.132.37.248.537a.5.5,0,0,0-.183.047l.016.033c.122,0,.319-.1.313.084l.029.064c.152-.181-.1-.389.428-.547-.068-.079-.2-.087-.355-.027.025.043.05.085-.012.122-.119,0-.022-.229.109-.206-.206-.037-.134-.544-.317-.237l-.059-.127c.087,0,.109-.02.119-.057a.808.808,0,1,1-.449,1.329Zm-30.821-.166.008.005a.8.8,0,1,1,.575.213h-.031a.81.81,0,0,1-.552-.217Zm39.111-.278h0c-.053-.074-.041-.145.11-.194.05.059.039.135-.11.194Zm-6.449-1.047a.053.053,0,0,0,.011-.025l-.029.014-.025-.015c0-.047.076-.156-.06-.1a.188.188,0,0,1-.015.037l-.062-.065c.058-.059.064-.109-.053-.1a.036.036,0,0,1,0,.044.808.808,0,1,1,1.4-.148c-.148.045-.309.132-.155.14,0-.043.044-.051.112-.057a.776.776,0,0,1-.1.138.8.8,0,0,1-1.021.14Zm.155-.447c-.076.111.06.042.075.159.026.013.076-.007.125-.027.072-.029.145-.059.143.017.163-.049.084-.116.194-.169.015.033.064.018.085.037-.025.043-.064.222.117.1h0c-.092-.142.153-.139.307-.221-.144-.062-.258.035-.074-.158a.255.255,0,0,1-.2.059.234.234,0,0,0-.163.034c.085.092-.331.05-.362.245-.014-.072-.065-.09-.129-.09a.885.885,0,0,0-.117.015Zm-34.521.045a.81.81,0,1,1,.6.269.81.81,0,0,1-.6-.269Zm35.7-1.316a.807.807,0,0,1-.161-1.129h0a.808.808,0,1,1,.158,1.129ZM9.974,43.233v-.005a.74.74,0,1,1,0,.005ZM7.4,42.852a.284.284,0,0,1,.087,0,.142.142,0,0,1-.037.072v.01Zm-.3-.478a.364.364,0,0,0,.072-.032c.017-.131-.03-.074-.088-.194A.386.386,0,0,0,7,42.2c-.064-.111-.128-.22-.194-.33.055-.022.112-.04.194-.067a.483.483,0,0,1,.03.22c.233-.093.317.144.231.2.021.028.042.01.065-.007s.041-.032.061-.013c.107.129.023.278-.146.407A2.535,2.535,0,0,0,7.1,42.374Zm.309-.545c-.054.026-.025.059-.027.09s-.079-.084-.14-.2-.122-.263-.029-.175H7.205l.057.057a.068.068,0,0,0-.015.043l.042-.018a.912.912,0,0,1,.236.31c0,.033-.013.046-.023.046-.029-.006-.08-.12-.089-.154Zm41.071-.058a.806.806,0,0,1-.28-1.1l.009-.005a.808.808,0,1,1,.271,1.109ZM6.766,41.8l-.092-.164a.226.226,0,0,1,.3.121.534.534,0,0,0-.194.045Zm-.212-.379c.094.037.211.068.241.124a.129.129,0,0,0-.13.057H6.653Zm2.1-.214H8.641v-.025a.136.136,0,0,1-.014-.025.427.427,0,0,0-.031-.068.206.206,0,0,0-.02-.06.152.152,0,0,1,.039-.014.168.168,0,0,0-.056-.057.733.733,0,0,1-.012-.247l.052-.037-.05.022a.806.806,0,1,1,.1.51ZM6.76,41.3c-.066-.1.226-.26-.144-.163.127-.241-.176-.174-.064-.432a2.141,2.141,0,0,1,.461.549.129.129,0,0,1-.106.006c-.046-.011-.082-.022-.075.04a.09.09,0,0,1-.041.015A.044.044,0,0,1,6.76,41.3Zm.253-.046Zm-.554-.008-.035-.067a.289.289,0,0,0,.127-.015.587.587,0,0,0-.082.082Zm.708-.1c.04-.034.072-.062.1-.081l.058.1h-.08a.094.094,0,0,1-.078-.023Zm-.374-.365a.306.306,0,0,1,.268-.1h0c.055.107.111.213.169.321a.946.946,0,0,1-.437-.226Zm39.661.049c.166-.07.253.027.189.121l.006-.014a.2.2,0,0,1-.073.017c-.067,0-.093-.064-.122-.129Zm-40.2.006h.018a.083.083,0,0,1-.008.021Zm.055-.216c.131-.041.222-.033.281.022a.314.314,0,0,1-.155.058c-.061,0-.093-.045-.126-.085Zm.281.022Zm.042-.21c.072-.1.128-.072.245-.114h0l.089.177a.325.325,0,0,1-.119.023.317.317,0,0,1-.215-.09Zm-.765-.455c.2-.093.078-.069-.062-.076H5.8l-.029-.067a.274.274,0,0,0,.166,0c.1-.21-.035-.163-.115-.1a.8.8,0,0,0-.292-.44l-.111-.258c.06-.037.05-.08.089-.119.074,0,.072.109.212.018,0-.043-.051-.086.012-.123.06.076.194.053.389-.06.019-.085-.041-.055-.1-.026s-.1.048-.11.009a2.059,2.059,0,0,1,.194-.109q.223.537.469,1.067.143.308.293.608c-.218-.035-.2-.177-.492.025-.139-.2-.285-.4-.5-.353ZM2.013,39.8l.827-2.2L.895,36.3l1.092-2.066L.218,32.7l.119-.169a.8.8,0,0,0,.33-.057c-.077-.066.088-.114.125-.173.014.031.029.064.044.1l.281-.131c-.041-.055.029-.1,0-.154a.526.526,0,0,1-.194.015.427.427,0,0,0,.151-.111c.025.02.031.062.086.037,0-.041.074-.074.154-.109,0-.054.055-.255-.033-.216-.1.232-.617.35-.511.508a.267.267,0,0,0-.253.047l.938-1.355v.01c-.022.077-.14.184.06.126.027-.14.32-.258.429-.389a.5.5,0,0,0-.194-.29c-.214.074,0,.183-.151.263l-.057.025a.317.317,0,0,1-.027.041L0,29.034,1.576,27.3.243,25.375l.868-.742c.02.067-.022.129-.194.179.14.031.489.047.347.3l.013.032c.22.065,0-.374-.129-.538l.881-.753L.943,21.776,2.9,20.49l-.814-2.2,2.1-1.031L3.661,14.98l1.881-.644a.177.177,0,0,0,.119.022.2.2,0,0,1-.025-.055l.13-.044c0,.1-.269.231-.047.225-.033-.052.022-.1.138-.141-.025-.016-.027-.065-.039-.1l.059-.019-.154-1.492a.088.088,0,0,0,0-.074l-.019-.2a9.866,9.866,0,0,0,.9-.466c-.022-.2-.293-.031-.355-.028,0-.072-.042-.146.109-.2.031.043.035.127.115.1.027-.067,0-.107-.067-.132l1.526-.316.054-2.334,2.335-.194.271-1.8a.716.716,0,0,1,.469-.019c.116-.107-.147-.049,0-.154.219-.105.262-.044.3.017s.067.1.207.053a.269.269,0,0,1-.1-.368l1.527.072.132-.469c.158-.079.1-.07.418-.077,0-.09-.068-.088-.137-.087s-.121,0-.135-.057a1.009,1.009,0,0,1-.1.052l.454-1.616,2.311.4.249-.584h.022c.036-.09.045-.034.07.022s.063.11.158.025c-.125-.121-.018-.223-.022-.337a.215.215,0,0,1-.117.028l.549-1.311L19.1,3.36l1.166-2.025,1.39.626a.862.862,0,0,1-.452.257c.107.09-.266.142-.1.238.415-.146.42-.389.7-.427l.584.269L23.2,1.23c.09,0,.142.045.259,0,.025-.084-.218-.027-.058-.126.068,0,.14.014.212.017-.082-.086.059-.148-.074-.157-.068.047-.162.094-.247.14l.2-.269c.1-.049.236-.067.265-.131a.534.534,0,0,0-.16,0l.1-.132h0l.1-.136L24.233.7l.022.047c.042-.014.06.012.087.019L25.8,1.66,27.161.268c.068-.025.156-.079.183-.047-.119.043.052.086.1.068.078-.109-.031-.082-.074-.158l.146-.086,1.751,1.4L31.135,0l.344.356c-.262.118-.457.144-.469-.09-.091,0-.3.13-.305.22.276-.194.268,0,.327.117.157-.023.194-.194.28-.13-.118.074-.278.3-.136.294.041-.1.08-.064.129-.025a.111.111,0,0,0,.139.025c-.012-.088-.134-.022-.128-.132.116.012.128-.076.29-.14l.218.226a.3.3,0,0,1-.092.064.133.133,0,0,0,.125-.031L31.9.8l-.044.03L31.871.8a.587.587,0,0,1-.39.032C31.5.923,31.359,1,31.4,1.1c.14-.126.325-.134.419-.214.159.03.027.232.248.172-.109.083.115.194,0,.274l.03.062c.194-.175.07-.23.074-.329l.313.325-.049.025c-.032.15-.358.278-.417.427a1.242,1.242,0,0,0,.524-.39l.228.234L34.779.474l.362.482a2.171,2.171,0,0,1-.628.222c-.025.268-.469.243-.7.251,0,.029-.03.058-.1.084.1.248-.535.35-.893.57-.033-.043-.035-.127-.117-.1-.037.119-.415.21-.317.34a.353.353,0,0,0,.25-.194c-.02.084.041.055.1.025s.1-.048.11-.008a.359.359,0,0,0-.251.194c-.027-.047-.106-.021-.185.006a.426.426,0,0,1-.139.032.81.81,0,0,1-.327.235A26.526,26.526,0,0,0,18.913,4.541a.157.157,0,0,0-.1,0c-.046.033-.056.054-.046.068q-.419.177-.831.371A26.68,26.68,0,0,0,14.3,7.021c.033-.031.06-.068.033-.094l-.167.078a.558.558,0,0,1-.049.138l-.356.249a.513.513,0,0,0,.07-.076c-.039.051-.022-.128.055-.178-.164.054-.273.031-.438.087-.113.166.222,0,.216.169-.33.094-.4-.025-.64-.194a.616.616,0,0,1-.221.258c-.045-.107.194-.194.136-.3-.373.144-.313.449-.022.389-.042.077-.027.111.06.126l-.225.1c.032.043.035.126.116.1.084-.166.424-.194.708-.356a26.391,26.391,0,0,0-2.221,1.794V9.3l-.027-.057-.015-.032c-.15.06-.286.121-.179.194l.221-.1q-.655.583-1.268,1.221a.015.015,0,0,1,0-.009.154.154,0,0,0-.015.035c-.144.148-.288.3-.428.449H9.627c.09-.039,0-.111-.014-.031a.181.181,0,0,0-.06.129l-.261.29-.025.012h.012c-.151.173-.3.347-.451.523-.177,0-.409.026-.372-.069.067-.038.093-.018.118,0a.081.081,0,0,0,.1.013c-.01-.04-.053-.084.012-.121a.1.1,0,0,1,.075-.015.1.1,0,0,0,.051,0c-.025-.1-.145-.062-.264-.027a.365.365,0,0,1-.217.027c-.141.162,0,.194.117.253-.109.062-.07.139-.179.194l.014.031a.144.144,0,0,0,.117.1.477.477,0,0,0,.211-.122A26.664,26.664,0,0,0,6.734,14.78a.216.216,0,0,0-.076-.037c-.14.072-.194.149-.165.232.054,0,.087,0,.1.025A26.8,26.8,0,0,0,2.745,25.8c-.037.025-.045.055-.1.08a.451.451,0,0,1-.151.12.121.121,0,0,0-.012.121,1.136,1.136,0,0,0,.245-.194q-.112.925-.161,1.859c-.221-.143-.086-.5-.377-.533.086.306.346.465.126.71.106-.049.1-.024.109,0s.017.039.1.019c-.1.077-.137.276.017.334V28.4l-.019.01.015.031v.227H2.519a2.638,2.638,0,0,1,0,.3h.01q0,1.1.077,2.2c-.241.129-.472.3-.717.251-.082.1-.306.194-.333.31.347-.164.7-.259,1.058-.463a26.563,26.563,0,0,0,1.86,7.866,3.2,3.2,0,0,1-.943.36c.05.065.043.125-.052.179a.38.38,0,0,0-.2.008.277.277,0,0,1-.213-.008c.014.062-.062.119-.194.169.039-.139-.072-.158-.257-.112a1.294,1.294,0,0,1-.163.29Zm.914-2.758a.652.652,0,0,0,.3-.1c-.007-.032-.04-.046-.081-.046-.1,0-.246.071-.218.142Zm-.7-9.838h0a.39.39,0,0,0-.062-.278l-.014-.031c-.206.062-.011.317.078.305Zm-.544-1.169.013.031c.159.247.212.645.439.8l-.058-.127c-.158-.4-.135-.6-.469-.858.026.044.052.1.077.15Zm2.492-8.708c.086.113-.218.059-.113.206.2-.136.271-.089.308-.221a.148.148,0,0,1-.133.02.147.147,0,0,0-.04-.007ZM6.051,15.24c-.008.05-.024.1.106.042h0c.014-.114-.054-.272-.184-.1a.158.158,0,0,1,.038,0c.051-.012.048.018.042.054Zm.245-.978c.089.138.027.406.27.447-.045-.085.194-.308,0-.306-.1.109-.1.031-.125-.048-.014-.05-.036-.1-.1-.1a.151.151,0,0,0-.041,0ZM6.313,12.4c.149.076-.194.266-.023.241,0-.042.055-.046.112-.05.092-.146-.091-.22-.148-.317l-.223.1c.023.125.091.088.164.053a.24.24,0,0,1,.1-.034Zm.31-.068a.142.142,0,0,1,0,.153c.119-.121.213-.056.266-.163a.078.078,0,0,1-.082,0,.06.06,0,0,0-.059-.007c0,.02,0,.04-.042.059-.011-.031-.039-.074-.059-.074s-.019.007-.025.032Zm-.216-.169c.052.032.014.194.131.132.053-.071.079-.162-.011-.162a.353.353,0,0,0-.121.03Zm1.375.012a.289.289,0,0,0,.368.06c-.065-.076.194-.129.181-.2-.1.051-.13.031-.086-.037v0c-.195.116-.267.056-.464.174ZM7.54,12.1c.228-.175.35-.173.514-.354a1.574,1.574,0,0,0,.521-.362c-.2.109-.377.221-.554.332-.124-.1-.194-.047-.446.022.012.047.154.092.142.164l-.055.023.015.032a.123.123,0,0,1-.142.022c-.045-.016-.078-.032-.1.053a.093.093,0,0,1,.034-.007C7.513,12.021,7.527,12.058,7.54,12.1Zm-.715-.2c0,.107.272.1.324-.037a.779.779,0,0,0-.079,0,.756.756,0,0,0-.245.029Zm.375-.07c.113-.084.3-.161.292-.253-.154.076-.372.177-.5.236a.256.256,0,0,0,.091-.016.308.308,0,0,1,.077-.015C7.18,11.781,7.2,11.792,7.2,11.83Zm1.721-.568c0,.07-.134.132-.039.21a.465.465,0,0,1,.183-.047c-.042-.049.218-.221.053-.178-.006.073-.049.05-.1.029a.182.182,0,0,0-.071-.021.055.055,0,0,0-.028.007Zm-.2-.29c-.011.089-.35.156-.221.257.189-.072.434-.109.474-.3-.082.062-.1.041-.127.022a.057.057,0,0,0-.04-.021.161.161,0,0,0-.092.042Zm.71-1.352a.29.29,0,0,0,.233.023c.032-.119.158-.181.023-.244.4-.049.71-.382.373-.249.051-.016.082.029.02.067s-.08-.017-.1-.068a1.47,1.47,0,0,1-.687.282.294.294,0,0,0,.139.189ZM10.6,9.014c.243-.084.167-.194.276-.284-.238.194-.194.126-.464.176,0,.054.049.047.1.04a.3.3,0,0,1,.046-.005C10.586,8.942,10.609,8.955,10.6,9.014Zm.99-.65c.022.092.156.028.268,0,0-.063-.02-.086-.059-.086a.545.545,0,0,0-.209.087Zm.464-.183A.614.614,0,0,0,12.74,7.9c-.014-.054-.045-.015-.08.023s-.075.077-.1.023c0-.041.075-.076.154-.109-.084-.076-.231-.06-.245-.234-.4.214-.191.436-.159.537-.1,0-.2-.1-.144-.164-.156.06-.117.134-.112.206Zm-.681-1.029a.226.226,0,0,0,.194.138c.1.068.1.074.092.191a2.465,2.465,0,0,1,.56-.263c-.015-.031-.029-.062-.044-.1-.211.1-.2.04-.265.164-.041-.055.031-.1,0-.154a.947.947,0,0,0-.337.158c-.113-.1.124-.173.01-.274-.11.048-.107.1-.211.141Zm1.171.031c.212-.068.194-.063.224-.057a.614.614,0,0,0,.166-.005c.141-.06.225-.124.25-.194-.046.014-.077,0-.085-.037a.1.1,0,0,0-.1.028c-.027.025-.044.049-.078.019-.033-.052.022-.1.139-.14a2.113,2.113,0,0,0-.9.113c.077,0,.212-.068.258-.01-.076.049-.077.082-.169.077.146.08.107,0,.074.157a.482.482,0,0,1,.183-.067c.045,0,.047.048.037.117Zm.926-.356c.014.033.03.064.043.1.228-.074.186-.167.221-.257-.169.045-.124.11-.265.158Zm.366-.094a.634.634,0,0,0,.293-.1c0-.042-.03-.059-.07-.059-.1,0-.251.094-.223.161Zm-.553-.005c.239-.125.583-.129.743-.308-.1.077-.113.042-.128.007s-.027-.058-.084-.024c.042.042-.216.1-.2.015-.138.068-.146.14-.28.13.083.07-.079.118-.051.181ZM14.833,5.5c0-.082.278-.142.166-.232h0C14.81,5.268,14.648,5.5,14.833,5.5Zm-.706-.636-.055.025c-.136.124.068.045.238-.025h-.092C14.187,4.864,14.158,4.861,14.127,4.864Zm.183,0a.554.554,0,0,0,.183-.088Zm2.318-.469c.1-.048.1-.1.211-.14a.03.03,0,0,0-.015-.029c-.016-.01-.07,0-.085-.037a.28.28,0,0,0-.251.194c.031,0,.062-.005.088-.005a.068.068,0,0,1,.052.017Zm2.146-.236c0-.025.151-.131.223-.1-.033.031-.064.031-.041.062a.6.6,0,0,0,.248-.346c-.124.125-.513.3-.429.384Zm2.283-.667c.041.054-.031.1,0,.151.166-.127.242-.1.312-.187a2.156,2.156,0,0,0-.311.036Zm.642-.078.006.006c-.115-.179.313-.283.572-.389l-.029-.065c.033-.017.064-.035.04-.059a3.892,3.892,0,0,1-.9.418c0,.1.088.09.175.081h.07a.147.147,0,0,1,.067.008Zm.662-.491c.168-.081.322-.157.354-.242-.174.075-.33.153-.354.241Zm3.173-.337c.2.025.372-.152.543-.174h-.01a.151.151,0,0,0-.116-.047.709.709,0,0,0-.416.221Zm-5.006-.512a3.231,3.231,0,0,0,.348-.278c-.183.087-.4.172-.347.278Zm4.594-.1c-.06.027-.137.082-.041.059a.659.659,0,0,1,.265-.164c-.064-.121-.3,0-.508.084-.012.086.065.048.142.01a.335.335,0,0,1,.113-.041c.022,0,.035.011.03.051ZM30,1.469v.008c.029.081.06.158.194.1.057-.091-.007-.126-.094-.126a.437.437,0,0,0-.1.018Zm-.074-.159c-.023.126.3.025.309-.067-.158,0-.16.041-.305.066Zm.337-.164c.374-.121.069-.084.122-.173-.122.05-.162.109-.119.173Zm18.89,38.235h.032a.09.09,0,0,1-.042-.032.808.808,0,0,1,.062-.517v-.008A.809.809,0,1,1,50,39.98h-.068A.808.808,0,0,1,49.153,39.381Zm-43.438.335.02-.023a.117.117,0,0,0-.012.027Zm1.872-.5a.806.806,0,1,1,.733.466.806.806,0,0,1-.733-.466Zm-3.1-2.881.149-.054c-.033-.03-.1-.023-.166,0a25.4,25.4,0,0,1-.7-3.144.124.124,0,0,0,.047-.1l-.058.021a25.737,25.737,0,0,1,1.256-12.74,26.035,26.035,0,0,1,2.2-4.6c.05,0,.09,0,.076-.043a.093.093,0,0,1-.058.014l.025-.039c.044-.027.076-.054.052-.086a25.589,25.589,0,0,1,3.832-4.8c0,.035,0,.056.084.035-.031-.085.308,0,.335-.158-.152.074-.136,0-.224.1a.155.155,0,0,0-.079-.1A25.637,25.637,0,0,1,16.6,6.674c.175-.072.43-.247.584-.23.169-.057.194-.122.194-.194.307-.152.62-.3.936-.454h.007a25.676,25.676,0,0,1,8.932-2.335c.035.033.049.1.149.038a.331.331,0,0,1,.023-.051,25.5,25.5,0,0,1,3.1-.025.375.375,0,0,1,0,.045l.084-.04.429.027c.031.128.121.216.323.194-.066-.049-.035-.109.015-.173A25.763,25.763,0,0,1,36.9,4.566h0c.176.057.354.113.529.173-.2.092-.053.211-.094.313.258-.085.052-.206.109-.307.194.062.374.128.558.194l.226.084-.02.01c.016.027.053.031.1.021a25.792,25.792,0,0,1,4.571,2.267c-.3.146.025.274.183.221-.093-.062-.077-.124-.107-.175.316.2.626.4.932.619a2.775,2.775,0,0,0-.308.508c.194-.15.194-.317.364-.469a25.575,25.575,0,0,1,3.973,3.422,11.106,11.106,0,0,0,.5,1.568c.157-.274-.074-.434-.111-.679-.022-.043-.041-.085-.06-.127A4,4,0,0,1,48,11.54a25.508,25.508,0,0,1,2.819,3.613c-.2.027-.452.153-.415.245a.358.358,0,0,1,.481,0,.129.129,0,0,1,.043-.082l.066.1a.539.539,0,0,1-.374.138c0-.05.068-.094.068-.148-.176.1-.2.194-.45.29a24.33,24.33,0,0,0-1.517-2.128c-.015-.055-.031-.105-.046-.15a.173.173,0,0,0-.04.041A24.906,24.906,0,0,0,37.795,5.69c.021-.015.014-.032-.049-.064a.185.185,0,0,1-.021.037q-.438-.158-.877-.3c.094-.033.175-.052.173-.132-.047.014-.077,0-.085-.037a.453.453,0,0,0-.167.144l-.13-.038-.2-.06a.21.21,0,0,1,.13-.1.622.622,0,0,0-.239.066H36.3a.612.612,0,0,0,.066-.041.3.3,0,0,0-.093-.142.815.815,0,0,0,.449-.261c-.121.062-.194.057-.212-.017.139-.176.311-.056.389-.177a1.637,1.637,0,0,0-.493.082c.058.128-.194.231-.169.358H36.23a.249.249,0,0,0-.156.136l-.13-.037a.155.155,0,0,1,.022-.094,1.151,1.151,0,0,1-.142.059H35.8c.009-.022.163-.131.1-.183a.911.911,0,0,1-.229.146q-.825-.221-1.667-.39a.135.135,0,0,1,0-.027.224.224,0,0,1-.039.02,24.845,24.845,0,0,0-4.891-.461,2.211,2.211,0,0,0,.436-.284c-.194-.092.531-.21.374-.365a.545.545,0,0,1-.407.151c-.01.209-.541.257-.558.412.276-.1.216-.042.136.072A24.86,24.86,0,0,0,18.65,6.5c-.389.179-.762.366-1.132.563a1.446,1.446,0,0,0,.166-.131,1.086,1.086,0,0,0-.545.292,2.188,2.188,0,0,0,.22-.076,24.777,24.777,0,0,0-7.616,6.346c0-.027-.041-.039-.13,0,.033.052-.022.1-.139.142.088.066-.04.118.018.183A25.025,25.025,0,0,0,4.474,32.586c-.066-.151-.13-.286-.13-.132.039.084.077.169.118.253l.043.094a24.845,24.845,0,0,0,1.457,5.438c-.312.193-.386.271-.67.428a24.64,24.64,0,0,1-.8-2.336Zm-.608-4.857.148.315.251.539c.068-.226-.278-.553-.183-.685l-.012-.031a.289.289,0,0,1,.124-.173c-.305.126-.408-.428-.227-.628-.053-.068-.137.107-.14.142-.231-.08-.064-.335-.263-.417-.046.26.3.675.3.934ZM8.1,14.489c.158-.027.476-.08.434-.239C8.33,14.4,8.088,14.357,8.1,14.489Zm1.007-1.1c.025.02.05.04.117,0,.033-.1.2-.186.064-.3-.215.085-.317.178-.275.283a.1.1,0,0,1,.041-.011.083.083,0,0,1,.058.024Zm39.327-.341c.132.068-.027.347.174.228-.11-.081,0-.243-.1-.243a.229.229,0,0,0-.069.011Zm-38.418-.6.167-.08a.126.126,0,0,1,.012-.121c-.107.1-.249.018-.224.1a.114.114,0,0,1,.034-.007c.044-.007-.022.055.016.1ZM16.85,7.221c.129-.1.313-.027.337-.156-.159-.018.115-.113.266-.164-.109-.069-.089-.1.082-.114L17.5,6.722c-.025-.017-.031-.06-.085-.037,0,.167-.194.057-.389.184-.057.134,0,.109-.039.21-.045-.049-.356.015-.366.094.051,0,.115-.023.162-.023s.068.007.067.064Zm-.181-.256c.1.009.335-.1.251-.2-.087.061-.22.122-.247.192Zm.73-.616h.007c.023.047-.148.226.018.185-.015-.084.139-.152.166-.231a.454.454,0,0,1-.19.038Zm.474-.025c.052.075.1.162.214.169.01-.078,0-.19-.112-.19a.317.317,0,0,0-.1.013ZM37.455,5.152a.133.133,0,0,1,0,.151.568.568,0,0,1,.244-.072l.056-.027c-.025-.06-.076-.047-.126.022-.014-.058-.044-.091-.1-.091A.212.212,0,0,0,37.455,5.152Zm-.323-.209c-.032-.068-.121-.135-.26-.019l.112-.053C37.125,5.1,37.17,5.024,37.132,4.943ZM22.566,4.517c.016.145.176.091.337.037a.558.558,0,0,1,.271-.05L23.1,4.346C22.9,4.562,22.815,4.459,22.566,4.517Zm10.669-.67c-.194.185.231.115.02.337.1-.032.084-.074.153-.109l-.058-.126c-.025-.041-.029-.109-.082-.109a.111.111,0,0,0-.034.008ZM5.832,38.569l.214-.1.027.069a.457.457,0,0,1-.183.065.056.056,0,0,1-.058-.034Zm.13-.33h0a.026.026,0,0,0,0,.012Zm44.607-.465a.806.806,0,1,1,.277.049.806.806,0,0,1-.277-.049ZM6.681,36.961a.808.808,0,1,1,.764.543.808.808,0,0,1-.764-.543Zm41.443.078.006-.014c.017-.041.032-.08.05-.119.037.052.091.107,0,.149a.243.243,0,0,0-.056-.015ZM51.3,35.718a.806.806,0,1,1,.2.025A.806.806,0,0,1,51.3,35.718ZM6.581,35.39a.221.221,0,0,0,.032-.1.364.364,0,0,1-.131.058.812.812,0,1,1,1.129-.936.8.8,0,0,1,0,.375c-.031.03-.047.06-.027.094a.8.8,0,0,1-.564.521.817.817,0,0,1-.193.023.792.792,0,0,1-.246-.035Zm.73-.509c.082.132-.628.235-.628.406.086.044.146,0,.2-.053s.1-.107.168-.04c.127-.112.31-.22.461-.329.009-.041-.034-.059-.083-.059s-.129.026-.118.074Zm.683-3.755a1.331,1.331,0,0,1,.32-.1c0-.03-.027-.062.027-.087a2.592,2.592,0,0,0,.413-.2A20.578,20.578,0,0,0,9.277,34a1.079,1.079,0,0,0-.491.233c-.023-.074-.093-.079-.212-.017l-.047.029a20.867,20.867,0,0,1-.533-3.119Zm43.85,2.3a.806.806,0,0,1-.681-.912l.008-.008a.8.8,0,1,1,.8.93.844.844,0,0,1-.127-.005ZM5.587,32.419a.807.807,0,1,1,.91.688.785.785,0,0,1-.112.008.807.807,0,0,1-.8-.7Zm46.562-1.138a.808.808,0,0,1-.759-.852h0a.807.807,0,1,1,.806.856Zm-41.027-13.4h.194c-.153-.056.14-.225.2-.167s-.053.139.032.216c.062-.128.337-.389.327-.615-.114.043-.091.1-.138.142-.122,0,.159-.389-.144-.163.072-.033.111.054.043.094a.533.533,0,0,1-.232.051q.525-.8,1.123-1.557a.662.662,0,0,0,.223-.056c-.05-.068-.1-.049-.151-.033a21.19,21.19,0,0,1,7.6-5.955h0a21.242,21.242,0,0,1,6.283-1.827.24.24,0,0,0-.029.039c-.025.14-.658.234-.572.39.338-.15.389-.236.63-.257-.039-.035,0-.148-.018-.167q.66-.085,1.323-.126c-.01.019,0,.039.02.062l.156-.074a21.142,21.142,0,0,1,4.2.181c-.173.06-.212.105-.519.22a2.139,2.139,0,0,1-.247.348,1.107,1.107,0,0,1-.325.1q-.675-.065-1.362-.084l.1-.045c-.03-.107-.268-.029-.358.041h-.031c-.047-.1-.164-.1-.347,0H28.83a.246.246,0,0,1,.055-.023c0,.019.062.015.056-.025-.082.029-.1-.04-.156-.043a.609.609,0,0,1-.365.094h-.074a1,1,0,0,0-.686-.077,1.354,1.354,0,0,1-.429,0c.214-.218.687-.14.7-.4a1.833,1.833,0,0,1-.715.22c.049.064.04.124-.053.178a1.1,1.1,0,0,0-.249.036c-.187.041-.365.082-.247-.075-.248.14-.151.13-.151.263a3.685,3.685,0,0,1,.8-.077,20.344,20.344,0,0,0-2.387.364c.194-.07.094-.166.173-.243a.443.443,0,0,0,.154-.112c.082,0,.115.084.144.164.156-.041.28-.072.323-.194-.169.1-.212.015-.243-.08.142-.07.286-.142.235-.226a1.18,1.18,0,0,1-.488.267c0-.051.1-.094.138-.142-.1-.041-.146-.144-.311-.085-.134.044.209.113.031.216-.136.069-.194.031-.31.068a.4.4,0,0,1,.107.37l-.074.015a.054.054,0,0,0,0-.017c-.221.1-.405-.06-.355-.179l-.226.1c0,.055.046.048.094.04s.11-.017.1.067c-.335.082-.154.078-.479.146l.041.041a20.492,20.492,0,0,0-2.613.881.078.078,0,0,0-.067,0,.049.049,0,0,1-.022.037c-.253.1-.5.218-.754.333A20.441,20.441,0,0,0,10.252,21.261c0-.071-.063-.05-.126-.029S10,21.273,10,21.209c.032-.016.052-.057-.014-.033,0,.042-.039.079-.084.117-.173-.144-.176-.291-.248-.537-.144.236-.055.72.3.778,0-.07-.156-.154-.033-.216.062.049.14.077.313-.03-.111.271-.216.541-.318.815a20.668,20.668,0,0,0-1.1,4.636.44.44,0,0,0-.033.037.05.05,0,0,0,.025.041c-.032.283-.058.564-.077.846a.327.327,0,0,0-.014.144,20.553,20.553,0,0,0,.035,2.9,2.357,2.357,0,0,0-.253.113c-.194.087-.36.158-.51.223a21.381,21.381,0,0,1,3.127-13.164ZM13.64,14.95c.047.068-.365.251-.1.236,0-.112.135-.025.224-.1.047-.06.029-.15-.055-.15a.186.186,0,0,0-.069.014Zm-.062-.28.008.007a.119.119,0,0,0,.087.2c.127-.072.228-.146.238-.226-.191.1-.2.071-.219.041a.05.05,0,0,0-.051-.03A.231.231,0,0,0,13.578,14.67Zm1.241-.858c.139.1.175.33.246.243a.336.336,0,0,0-.177-.389C14.917,13.719,14.888,13.767,14.819,13.812ZM21.4,9.791a.339.339,0,0,1-.015-.031,2.329,2.329,0,0,1-.439-.064C20.984,9.87,21.29,9.88,21.4,9.791Zm6.7-1.276.282-.13c-.315-.084-.052-.347-.208-.446v.008c.041.087-.022.216-.179.194.158.17.047.181.105.374Zm3-.014c-.142-.1.184-.167.079-.266-.264.132-.295.3-.079.265Zm-1.839-.077c.008.03.024.059.113.036-.022-.031.212-.176.012-.122,0,.022.009.043-.041.059.03-.1-.166-.109-.142-.012a.07.07,0,0,1,.024,0c.026-.005.028.015.035.039Zm2.016-.273c.015.128.049.36.285.173-.148.07-.14-.007-.136-.085,0-.056,0-.112-.059-.112a.257.257,0,0,0-.089.024Zm-3.691-.014.006.007c.153-.059.114-.132.109-.194-.155.055-.24.182-.114.188ZM5.64,30.74a.808.808,0,1,1,.583.214H6.189a.81.81,0,0,1-.549-.214Zm46.029-2a.8.8,0,0,1-.261-.569h.009a.806.806,0,1,1,.841.778h-.043a.81.81,0,0,1-.546-.209ZM6.159,28.6a.8.8,0,1,1,.049,0Zm42.977-4.285a.5.5,0,0,0,.194-.132c.022.074.094.079.212.015A3.636,3.636,0,0,1,49.869,24a21.429,21.429,0,0,1,.539,3.157,1.941,1.941,0,0,1-.611.238c0,.031.029.064-.025.089l-.115.02a20.369,20.369,0,0,0-.521-3.191ZM51.53,26.6a.806.806,0,1,1,.6.155.776.776,0,0,1-.112.008.806.806,0,0,1-.488-.163ZM6.316,26.429a.8.8,0,1,1,.125.01.846.846,0,0,1-.125-.01Zm44.839-2.074a.812.812,0,0,1-.365-.5.852.852,0,0,1-.019-.27.056.056,0,0,0,.031-.055c-.081-.134.626-.235.626-.409-.085-.045-.144,0-.2.054s-.1.107-.169.04a2.12,2.12,0,0,1-.253.194.8.8,0,0,1,.869-.541.419.419,0,0,0-.179.265.261.261,0,0,1,.2-.059.25.25,0,0,0,.106-.008c-.014-.055.043-.088.122-.119a.806.806,0,1,1-.778,1.41Zm-5-6.788.082-.042c-.014-.031-.029-.062-.044-.1a.834.834,0,0,0-.107.037A20.382,20.382,0,0,0,40.93,12.31c.146-.194.327-.424.469-.633.347.244.687.494,1.019.759l-.06.018c.082.132-.118.194-.091.389.112-.042.091-.1.138-.142.086.078-.054.139.033.216.156-.121.284-.121.338-.194A21.135,21.135,0,0,1,46.84,17.2l-.583.247a.365.365,0,0,0,.24.029.586.586,0,0,1,.184,0c-.049-.064-.041-.124.053-.179.169.068.134.043.163-.02a22.014,22.014,0,0,1,1.181,2c-.041.023-.05.039.01.049a.066.066,0,0,1,0-.019q.211.4.407.828a21.242,21.242,0,0,1,1.32,3.669H49.62c-.089-.1.084-.407-.116-.253.034-.014.068-.025.069,0,.014.072-.121.134-.178.194.037.121.173.1.229.194-.072.035-.059.076-.154.111-.166,0,.031-.181-.194-.106-.041.087-.131.173-.15.262v.02a20.671,20.671,0,0,0-2.973-6.658Zm2.373,4.026c.152-.06.236-.125.182-.2-.154.057-.24.121-.184.2Zm-1.007-2c0,.115.139.047.146.164.161-.107.233-.206.191-.321ZM6.711,24.107a.809.809,0,1,1,.2.025.8.8,0,0,1-.2-.025ZM50.19,21.84a.806.806,0,1,1,.761.541.806.806,0,0,1-.761-.541Zm-42.911.177a.808.808,0,1,1,.276.049.8.8,0,0,1-.276-.048Zm42.064-2.274h0a.807.807,0,0,1,1.463-.679.831.831,0,0,1,.068.237.806.806,0,0,1-1.531.442ZM7.875,19.635a.807.807,0,0,1-.127-.894l-.005,0a.811.811,0,0,1,.764-.461c.1.245.206.338.144.02a.861.861,0,0,1,.169.06.808.808,0,0,1,.43.523.124.124,0,0,1-.072-.054c-.094.111-.047.153-.251.194.115.042.057.288.159.194-.021-.086.072-.072.194-.1a.807.807,0,0,1-1.406.515Zm44.381-.075v0c-.134-.327-.278-.652-.428-.972-.067-.144-.136-.286-.206-.428a.991.991,0,0,0,.127-.074c.136.194.282.389.5.342-.352.162.345-.019.3.206-.085.026-.111,0-.167.08.09-.124-.058-.183-.194-.138-.107.21.035.163.115.1.056.333.354.389.451.675-.114.04-.091.094-.138.14-.074,0-.072-.107-.212-.016,0,.041.05.086-.012.121a.126.126,0,0,0-.136-.04Zm1.593-.6c-.151-.367-.313-.731-.482-1.1-.064-.141-.132-.28-.194-.42A.116.116,0,0,0,53.2,17.4a.074.074,0,0,0-.076-.059q-.332-.676-.7-1.325A.053.053,0,0,0,52.413,16q-.225-.39-.457-.778a3.721,3.721,0,0,1,.491-.161.137.137,0,0,1,0-.152.583.583,0,0,1-.479.146l-.077.058A26.493,26.493,0,0,0,44.459,7.26a2.223,2.223,0,0,1,.323-.452c0-.05.076-.1.068-.146.049-.08.16-.311.278-.284a.6.6,0,0,1,.068-.247,12.347,12.347,0,0,0-.772,1.1A26.6,26.6,0,0,0,39.905,4.7H39.88l-.341-.148a3.3,3.3,0,0,0,.86-.546c.194-.029.194-.132.309-.066-.039.027-.109.052-.1.083.113-.037.174,0,.31-.067-.255-.09.047-.34-.218-.321,0,.064-.389.467-.628.409a3.5,3.5,0,0,1-.656.461A26.8,26.8,0,0,0,32.16,2.632a7.5,7.5,0,0,1,1.02-.494c-.07-.1.218-.167.292-.253.042.035.094.023.045.1.5-.232,1-.5,1.533-.763v.006a1.258,1.258,0,0,1-.226.194c.211.041.148.138.358.179-.1.042-.132.091-.14.142.152-.022.37-.2.284.021.194-.064.023-.149.21-.136,0-.057-.126-.124-.035-.176l.681.894L38.323,1.4,39.49,3.43l2.244-.671.389.95L42,3.77a.121.121,0,0,0-.082-.007c-.052.006-.1.013-.089-.067a4.773,4.773,0,0,1-1.189.669c-.194.025-.041-.132-.194-.138a.623.623,0,0,1-.432.389c.185.053.092.181.246.234.216-.465,1.1-.769,1.9-1.092l.481,1.167,2.311-.389.364,1.325a.332.332,0,0,0-.066.015c-.142.074.1.017.059.126l-.036.045c.073-.014.058.019.045.052s-.021.063.055.053l.012-.014.177.647L47.9,6.692l.331,2.318,2.335.194.037,2.335,2.3.519-.27,2.342,2.21.779-.214.895c-.183.077-.358.194-.362.282.1-.035.211-.069.32-.114l-.292,1.216,1.033.516c-.36.111-.043.274-.331.389a.213.213,0,0,1-.241-.078c-.3.1.068.249-.319.341.116.1.336-.027.556-.158.193-.114.385-.228.512-.186-.306.173-.973.584-1.125.37-.074.086-.362.156-.292.253.089-.022.273-.174.293-.1a1.814,1.814,0,0,0-.377.213c-.024-.065-.081-.068-.151-.055Zm-.132-.871c-.032-.052.022-.1.14-.142-.025-.052-.05-.1-.074-.157-.1,0-.259.089-.347.076.1.058.088.29.281.226ZM53.394,15.2c-.045.057.022.186.184.1-.021-.063-.045-.122-.112-.122a.2.2,0,0,0-.072.017Zm-.2-.6a4.1,4.1,0,0,1-.582.229h0a.7.7,0,0,0,.578-.228ZM49.5,11.089l.029.062c.232-.115.321-.031.549-.14a.816.816,0,0,0-.578.078ZM47.379,9.034c.122.167.372.3.72-.067-.216-.04-.173-.128-.356-.181A1.7,1.7,0,0,0,47.379,9.034Zm-3.7-2.971c0,.107-.243.4.021.338-.118-.141.306-.241.3-.373a2.187,2.187,0,0,1-.325.035ZM42.3,5.444c.022.11.116.118.284.021-.041-.055.031-.1,0-.152h0a.368.368,0,0,0-.287.131Zm1.819-.2c-.087.179,0,.294.243.234.1-.164,0-.15-.076-.311Zm-.988.08a.5.5,0,0,0,.336-.159.136.136,0,0,0-.1-.067.631.631,0,0,0-.24.226Zm-1.576-.618.057-.025a.157.157,0,0,0-.018-.185c-.118.062-.2.4-.042.21Zm-.377-.942c.126-.069.226-.143.235-.225-.175.049-.084-.018-.114-.1-.148.05-.226.005-.38.062a.733.733,0,0,1,.074,0c.226,0,.218.13.181.263Zm-5.326-.593c-.022-.062.221-.072.3-.1,0-.032-.027-.062.025-.089.016.031.119,0,.113-.053-.175.055-.567.2-.442.242ZM33.8,2.578c0-.022-.01-.04.041-.059s.065-.035.041-.057c-.108.032-.1-.023-.086-.079s.031-.113-.058-.078V2.3C33.736,2.372,33.69,2.6,33.8,2.578Zm2.074-.236c-.107-.069-.132-.26-.358-.173V2.161c-.141.15.115.263.356.181ZM52.639,18.715c-.057-.055,0-.094.05-.135v.006l.07.157a.359.359,0,0,1-.12-.028Zm-.509-.806a.155.155,0,0,0,.171.074c-.094-.1.014-.086.054-.119v0c.062.129.124.259.185.39.038.077.072.156.107.233C52.291,18.42,52.2,18.228,52.13,17.909Zm-3.758-.025h0a.808.808,0,0,1,1.391-.819c0,.054-.078.1-.194.151a.312.312,0,0,0,.032.065l-.1-.051a.429.429,0,0,0,.07.146l-.053.018a.149.149,0,0,0,.121.077c.053.082.065.154-.1.263.218-.1.166-.02.135.061-.023.059-.032.118.081.108,0-.07.019-.087.054-.087a.807.807,0,0,1-.693.465h-.039a.806.806,0,0,1-.706-.4Zm1.122-.654v-.015c-.025,0-.02.006,0,.015Zm5.857.733.175.088a.633.633,0,0,1-.1.01c-.063,0-.083-.026-.075-.1Zm-46.26-.086a.807.807,0,1,1,.417.117.807.807,0,0,1-.417-.117Zm42.749-.293c.044-.139.161-.164.274-.2v0c.074.144.146.291.218.437a3.241,3.241,0,0,0-.492-.242Zm-.316.186c.175-.106.226-.041.278.025a.49.49,0,0,1-.141.024.185.185,0,0,1-.137-.048Zm0,0Zm-.387-.556v0L51.1,17.16a.139.139,0,0,1,.1,0c.047.011.083.021.075-.038.045-.03.059-.012.07,0,.067.1-.224.258.146.163-.127.241.177.174.064.432a2.076,2.076,0,0,1-.426-.506Zm-39.656.253c.124-.053.158.023.184.1a.268.268,0,0,1-.116.032c-.092,0-.124-.072-.071-.135Zm38.239-.119a.691.691,0,0,0,.072-.226.82.82,0,0,1,.084.372l-.039.023c.026-.062-.037-.117-.12-.172Zm1.835-.094c.359-.265-.174-.251-.249-.389.1,0,.154-.03.154-.109a.227.227,0,0,1-.324-.1,1.044,1.044,0,0,0,.483-.194q.213.389.414.766h-.014c-.047.057.037.125-.124.171-.165-.056-.1-.216-.343-.148Zm-.837-.769a1.149,1.149,0,0,1,.229.383l-.007.006Zm.415.167v0h-.005Zm-.047-.243c-.234.094-.318-.142-.232-.194-.022-.027-.043-.01-.065.008s-.041.032-.061.013c-.159-.212.1-.445.437-.562l-.009.012c.143.236.285.477.424.72l-.067.031a1.056,1.056,0,0,1-.4.194.475.475,0,0,1-.03-.224Zm-.142-.332c-.017.125.027.072.087.192.154-.067.09-.1.224-.1a.132.132,0,0,1,.014-.122.216.216,0,0,1-.139,0,.232.232,0,0,0-.064-.01.243.243,0,0,0-.125.038Zm-3.287.239a.8.8,0,1,1,.124.01.825.825,0,0,1-.127-.012Zm-37.315-.423a.806.806,0,1,1,.487.164.806.806,0,0,1-.487-.164Zm36.024-1.26a.8.8,0,0,1-.558-.271h0a.8.8,0,1,1,.6.274Zm-34.329-.26a.8.8,0,0,1-.617-.7.232.232,0,0,0,.177-.032c-.086-.094.33-.053.362-.248.019.113.13.1.241.08.077-.109-.059-.041-.075-.158-.026-.013-.074.005-.122.024-.074.028-.148.056-.147-.024-.163.049-.082.114-.194.167-.015-.031-.064-.015-.087-.037.029-.041.068-.22-.115-.1.043.065.015.1-.042.125a.811.811,0,0,1,1.277-.548.58.58,0,0,1-.264,0c.022.052-.085.086-.084.126.076-.044.053,0,.038.049s-.023.093.076.051c.035-.144.239-.091.238-.222h0c.022.017.045.035.067.055l.052.052c-.179.033-.471.259-.226.251-.064-.08.179-.136.263-.194a.8.8,0,0,1-.818,1.279ZM44.22,12.751l.01.006a.8.8,0,1,1,.574.212h-.031a.808.808,0,0,1-.555-.22Zm-30.122-.2c-.239-.022-.132-.37-.251-.539a.451.451,0,0,0,.184-.047l-.022-.035c-.122,0-.319.1-.313-.086l-.03-.062c-.151.181.1.389-.427.544.068.08.194.089.354.027-.025-.042-.05-.085.012-.121.119,0,.022.228-.109.2.112.022.142.179.175.273a.808.808,0,0,1-.319-1.381h0a.808.808,0,0,1,1.306.846.392.392,0,0,0-.1.076c-.062-.087-.052-.274-.229-.194.066.077.074.311.194.389a.842.842,0,0,1-.1.1.8.8,0,0,1-.428.194.663.663,0,0,1,.105-.192Zm-.319.186.035-.054.029.054ZM36.221,9.865c-.512-.194-1.031-.354-1.556-.5a.94.94,0,0,0-.29-.418l-.169.077a1.428,1.428,0,0,1,.112.261c-.321-.084-.646-.157-.973-.226a2.166,2.166,0,0,1,.778-.223c-.122.062.109.044.074.158.268-.164.052-.356.14-.526h0a21.382,21.382,0,0,1,7,3.163,4.906,4.906,0,0,0-.434.657A20.538,20.538,0,0,0,36.221,9.865Zm.511-.255c.047-.013.113-.05.129-.022l.055-.025c0-.05.052-.1,0-.154-.149.061-.238.123-.184.2Zm-.787-.1a.341.341,0,0,0-.253-.113h0c.038.1.06.229.252.118Zm.1-.085c0-.041.072-.074.154-.109-.14-.1-.344-.094-.22-.321l-.055.025-.056.025c-.1.064-.133.032-.168,0s-.071-.061-.17,0l-.006.006c-.079.245.234.223.327.116.075.073.049.289.2.262ZM8.666,12.119a.583.583,0,0,1-.059.073Zm-2.759-.148h.01c.055.076.043.146-.109.206-.063-.077-.053-.145.1-.205Zm-.266-.082.273-.057a2.1,2.1,0,0,1-.273.109ZM42.6,11.406a.807.807,0,1,1,.486.163A.807.807,0,0,1,42.6,11.406Zm-27.67-.368a.807.807,0,1,1,.653.33.807.807,0,0,1-.653-.33ZM15.415,11c.325-.158.706-.311.8-.486-.218.074-.417.34-.616.292C15.652,10.88,15.267,10.922,15.415,11Zm25.316-.864.01-.015a.225.225,0,1,1-.01.015ZM16.844,9.68a.808.808,0,1,1,.808.392.776.776,0,0,1-.112.008.809.809,0,0,1-.7-.4ZM34.421,9.3c-.011-.059,0-.136-.029-.181.121-.019.119.129.159.216Zm4.467-.171.008.008a.327.327,0,1,0-.008-.008Zm-14.314,0a.035.035,0,0,0,0,.023l0,.008-.146.032Zm-5.889-.676a.805.805,0,0,1,.442-.923h0a1.159,1.159,0,0,1,.111-.04.248.248,0,0,0,.124-.03.812.812,0,0,1,.094,0v.053a.649.649,0,0,1,.1-.051l.074.012c0,.041-.023.119.113.06V7.5a.8.8,0,0,1-.229,1.563h-.04a.8.8,0,0,1-.789-.607Zm13.1.334a.9.9,0,0,0,.131-.012c-.029-.082-.134-.057-.194-.1.212-.136.364-.276.345-.43.058-.027.056-.056.1-.084.017.045.058.057.1.068-.268.062-.086.062-.166.231.1-.057.14-.023.239-.074,0-.07-.042-.146.109-.2-.04.164.412.027.176.228.159-.025.116-.208.208-.136.084.159.486.1.417.305.221-.132.478-.045.389.092a.151.151,0,0,1-.133-.032.15.15,0,0,0-.165-.023c-.006.076-.069.07-.133.065a.193.193,0,0,0-.106.009c.139.082-.247.122-.109.2l.281-.138c.167.089.1.176-.06.268q-.714-.137-1.433-.23Zm.893.017c.008.154.4-.029.281-.13Zm4.142-.556H36.8a.762.762,0,0,1-.111-.05c.037-.074,0-.149-.117-.1v.014l-.052-.045c.022-.064.02-.194-.107-.128a.8.8,0,0,1-.089-.73c0,.062.035.105.156.089-.074-.1-.068-.194.149-.265-.015-.079-.1-.066-.194-.023a.814.814,0,1,1,.38,1.24ZM21.254,8.087l.028-.014c0-.05.05-.1,0-.151A.569.569,0,0,0,21.13,8a.777.777,0,1,1,.124.085ZM34.8,7.626h.007a.8.8,0,0,1-.525-.434.133.133,0,0,1,.023-.027c.171-.047.124-.111.266-.162,0,.123-.018.088.114.1-.1.056-.139.023-.238.074a.38.38,0,0,0,.31-.028.689.689,0,0,1,.273-.05,1.914,1.914,0,0,1,.765-.451.811.811,0,0,1,.023.238.857.857,0,0,1-.025.157.806.806,0,0,1-.6.583c0-.122-.033-.288-.157-.231l.112.239a.839.839,0,0,1-.157.015.819.819,0,0,1-.191-.023Zm.663-.615c0,.05-.052.1,0,.154.136-.059.228-.123.176-.2-.07.029-.094,0-.177.046Zm-12.489.021a.808.808,0,0,1,1.455-.682c-.176.074-.417.142-.352.236a2,2,0,0,0,.369-.206.781.781,0,0,1,.074.194.807.807,0,0,1-1.546.458Zm9.7.145c-.062-.082-.079-.226-.27-.129a.271.271,0,0,1,.017.076.806.806,0,1,1,.288.054Zm-7.441-.743a.808.808,0,0,1,.689-.911h.066a1.493,1.493,0,0,1-.194.075c.057.04.089.116.184.1,0-.114.162-.025.281-.13a.06.06,0,0,0,0-.018.808.808,0,0,1-.117,1.574V7.118a.788.788,0,0,1-.112.008.807.807,0,0,1-.8-.693Zm9.667.261h0c.044.074-.043.138-.04.21-.074.025-.085-.037-.029-.064a1.169,1.169,0,0,0-.533.173,1.169,1.169,0,0,1,.6-.32Zm-4.4.253a.793.793,0,1,1,.048,0Zm-3.1-.792a.808.808,0,1,1,.835.776H28.2a.808.808,0,0,1-.8-.777Zm-16.73.417.66.031a3.559,3.559,0,0,1-.712.319Zm24.286.095c-.012-.091.216-.165.22-.257.194-.094.292-.057.313.086.238-.136.06-.3-.087-.194a.7.7,0,0,1,.06-.122.8.8,0,0,1,.26.3.53.53,0,0,0-.3.167c-.022-.093-.137-.053-.252-.014A.612.612,0,0,1,35,6.676a.1.1,0,0,1-.044-.01Zm-.222-.575a.126.126,0,0,0-.022.042c.117-.037-.153.148-.109.2l-.309.142a.8.8,0,0,1,.436-.386Zm.1.171h.007c.164-.027.206-.018.185.105-.1.05-.137.017-.239.074-.127-.072.161-.111.045-.181Zm-17.683.117.1-.055a.21.21,0,0,1-.1.058ZM36.232,5.006v.021Zm-.886-3.642a.218.218,0,0,1,.082-.019h0l.05.068-.031.017a.13.13,0,0,0-.1-.067Zm-.2.015c.074-.034.025-.079.084-.114a.663.663,0,0,1,.1-.052h0l.054.07a2.035,2.035,0,0,1-.221.1.014.014,0,0,1-.014,0Zm.1-.245.014-.012v.012ZM32,.924A.146.146,0,0,1,32,.9l.028.028Zm0-.03h0V.9ZM32,.9Z" transform="translate(13359.5 4842.714)" fill="#6d6e83"/>
    <g id="Group_678" data-name="Group 678" transform="translate(13372.353 4863.447)" opacity="0.9">
      <g transform="matrix(1, 0, 0, 1, -62.5, -62.52)" filter="url(#Path_7646)">
        <path id="Path_7646-2" data-name="Path 7646" d="M34.785,106.337l-.776.2-.288-1.114a6.19,6.19,0,0,0,.806-.153,6.319,6.319,0,0,0,1.41-.524,3.373,3.373,0,0,0,.979-.774,2.18,2.18,0,0,0,.49-1.092,3.407,3.407,0,0,0-.113-1.411,4.135,4.135,0,0,0-.3-.806,2.571,2.571,0,0,0-.393-.574,2.263,2.263,0,0,0-.467-.4,1.866,1.866,0,0,0-.536-.23,3.178,3.178,0,0,0-.588-.093,3.023,3.023,0,0,0-.631.018c-.218.026-.437.058-.663.1a6.514,6.514,0,0,0-.685.149c-.23.064-.459.123-.689.179l-.131.032-.115.03-.127.032-3.458.893.482,1.874.806-.2,1.245,4.836-.828.2.49,1.908,4.574-1.177ZM32.77,101.7l.445-.115a1.11,1.11,0,0,1,.754.044.864.864,0,0,1,.463.629q.272,1.068-.933,1.378l-.218.054Z" transform="translate(33.99 -31.21)" fill="url(#linear-gradient)"/>
      </g>
      <g transform="matrix(1, 0, 0, 1, -62.5, -62.52)" filter="url(#Path_7647)">
        <path id="Path_7647-2" data-name="Path 7647" d="M81.242,94.7l-.457.117a.177.177,0,0,1-.153-.03.431.431,0,0,1-.127-.129c-.034-.05-.081-.129-.137-.232L77.129,88.6,71.85,89.96l.482,1.874,1.126-.29.014,3.843a5.71,5.71,0,0,1-.026.737.85.85,0,0,1-.459.657,1.941,1.941,0,0,1-.4.149l.492,1.906,3.6-.927L76.184,96l-.445.115c-.075.018-.147-.03-.22-.147a1.209,1.209,0,0,1-.145-.326c-.016-.075-.028-.131-.034-.171a.246.246,0,0,1,.014-.125.125.125,0,0,1,.091-.085l1.461-.375q.357-.09.58.78l-.637.163.5,1.916,4.389-1.128Zm-5.995-.8-.1-2.851,1.316,2.539Z" transform="translate(-0.62 -22.62)" fill="url(#linear-gradient)"/>
      </g>
      <g transform="matrix(1, 0, 0, 1, -62.5, -62.52)" filter="url(#Path_7648)">
        <path id="Path_7648-2" data-name="Path 7648" d="M116.8,81.1l-.482-1.876L111.73,80.4l.484,1.876.758-.2,1.245,4.84-.78.2.49,1.908,4.58-1.179-.492-1.906-.748.191-1.245-4.83Z" transform="translate(-32.46 -15.13)" fill="url(#linear-gradient)"/>
      </g>
      <g transform="matrix(1, 0, 0, 1, -62.5, -62.52)" filter="url(#Path_7649)">
        <path id="Path_7649-2" data-name="Path 7649" d="M138.44,72.807l.48,1.87.9-.23,1.245,4.836-.864.224.49,1.922,4.262-1.1a5.239,5.239,0,0,0,1.846-.854,3.994,3.994,0,0,0,1.167-1.322,4.433,4.433,0,0,0,.486-1.6,4.788,4.788,0,0,0-.131-1.717,4.488,4.488,0,0,0-1.906-2.922,4.6,4.6,0,0,0-3.558-.25Zm5.813,1.068a1.94,1.94,0,0,1,.4.5,3.807,3.807,0,0,1,.3.6,6.929,6.929,0,0,1,.2.665,5.374,5.374,0,0,1,.135.683,3.563,3.563,0,0,1,.016.691,2.109,2.109,0,0,1-.141.641,1.354,1.354,0,0,1-.371.51,1.529,1.529,0,0,1-.643.326l-.187.048L142.717,73.7l.25-.064a1.507,1.507,0,0,1,.723-.026,1.314,1.314,0,0,1,.563.262Z" transform="translate(-53.79 -8.92)" fill="url(#linear-gradient)"/>
      </g>
    </g>
    <g id="Group_1" data-name="Group 1" transform="translate(13236.195 4836.959) rotate(-14)">
      <g id="Group_1601" data-name="Group 1601" transform="translate(128.602 59.179)">
        <g id="Group_1599" data-name="Group 1599">
          <path id="Path_1" data-name="Path 1" d="M390.73,173.3V171h.7v2.3a.928.928,0,0,0,1.856,0V171h.7v2.3q0,1.518-1.631,1.518T390.73,173.3Z" transform="translate(-390.73 -171)" fill="url(#linear-gradient-5)"/>
          <path id="Path_2" data-name="Path 2" d="M448.86,174.782V171h1.722q1.164,0,1.164,1.011,0,.686-.9,1.138l1.2,1.638h-.885L450,173.135v-.32q1.006-.173,1.007-.782,0-.419-.472-.419h-.962v3.168Z" transform="translate(-444.216 -171)" fill="url(#linear-gradient-5)"/>
          <path id="Path_3" data-name="Path 3" d="M499.05,171v.6h-1.9v.954h1.808v.629h-1.816v.994h1.943v.611H496.45V171Z" transform="translate(-488.004 -171)" fill="url(#linear-gradient-7)"/>
          <path id="Path_4" data-name="Path 4" d="M541.25,174.788V171h.729l1.285,2.876,1.26-2.876h.7v3.791h-.647v-2.645l-1.029,2.641h-.6l-1.05-2.641v2.641Z" transform="translate(-529.225 -171)" fill="url(#linear-gradient-8)"/>
          <path id="Path_5" data-name="Path 5" d="M605.362,171v3.791h-.7V171Z" transform="translate(-587.57 -171)" fill="url(#linear-gradient-5)"/>
          <path id="Path_6" data-name="Path 6" d="M624.976,171v.61H623.89v3.182h-.7v-3.186H622.1V171Z" transform="translate(-603.616 -171)" fill="url(#linear-gradient-5)"/>
        </g>
      </g>
    </g>
    <g id="Group_1600" data-name="Group 1600" transform="translate(13376.17 4880.275) rotate(-15.009)">
      <path id="Path_13" data-name="Path 13" d="M471.07,252.642V248.9h.53v1.544h1.41V248.9h.528v3.742h-.528v-1.6H471.6v1.6Z" transform="translate(-471.07 -248.874)" fill="url(#linear-gradient-11)"/>
      <path id="Path_14" data-name="Path 14" d="M507.064,252.642h-.544l1.214-3.742h.572l1.245,3.742h-.572l-.326-1.024H507.7l.182-.6h.576l-.45-1.407Z" transform="translate(-503.493 -248.874)" fill="url(#linear-gradient-12)"/>
      <path id="Path_15" data-name="Path 15" d="M546.812,252.2v-.628a2.189,2.189,0,0,0,.973.21q.659,0,.659-.576a.364.364,0,0,0-.4-.418H547.6q-.879,0-.879-1.047,0-1.151,1.251-1.151a2.3,2.3,0,0,1,.908.184v.628a2.049,2.049,0,0,0-.91-.209q-.722,0-.721.549,0,.419.348.419h.448q.933,0,.934,1.046a1.046,1.046,0,0,1-1.187,1.178,2.462,2.462,0,0,1-.976-.185Z" transform="translate(-540.255 -248.592)" fill="url(#linear-gradient-11)"/>
      <path id="Path_16" data-name="Path 16" d="M576.816,252.2v-.628a2.19,2.19,0,0,0,.973.21q.659,0,.659-.576a.364.364,0,0,0-.4-.418H577.6q-.879,0-.879-1.047,0-1.151,1.25-1.151a2.306,2.306,0,0,1,.911.184v.628a2.049,2.049,0,0,0-.911-.209q-.719,0-.721.549.007.42.348.42h.448q.939,0,.939,1.046a1.046,1.046,0,0,1-1.187,1.178,2.461,2.461,0,0,1-.979-.186Z" transform="translate(-567.695 -248.592)" fill="url(#linear-gradient-14)"/>
      <path id="Path_17" data-name="Path 17" d="M611.44,248.9v3.14h1.136v.6H610.91V248.9Z" transform="translate(-598.972 -248.874)" fill="url(#linear-gradient-11)"/>
      <path id="Path_18" data-name="Path 18" d="M640.649,248.9v.6h-1.432v.941h1.366v.62h-1.372v.982h1.47v.6H638.69V248.9Z" transform="translate(-624.38 -248.874)" fill="url(#linear-gradient-12)"/>
      <path id="Path_19" data-name="Path 19" d="M684.459,248.9v.6H683.1v.941h1.281v.62H683.1v1.583h-.519V248.9Z" transform="translate(-664.524 -248.874)" fill="url(#linear-gradient-11)"/>
      <path id="Path_20" data-name="Path 20" d="M712.26,252.637V248.9h1.3q.876,0,.876,1a1.3,1.3,0,0,1-.683,1.122l.907,1.618h-.668l-.871-1.631v-.317q.761-.171.761-.768,0-.413-.356-.414H712.8v3.128Z" transform="translate(-691.671 -248.874)" fill="url(#linear-gradient-11)"/>
      <path id="Path_21" data-name="Path 21" d="M747.668,248.9v.6h-1.432v.941H747.6v.62h-1.37v.982h1.47v.6h-1.989V248.9Z" transform="translate(-722.264 -248.874)" fill="url(#linear-gradient-11)"/>
      <path id="Path_22" data-name="Path 22" d="M779.089,248.9v.6h-1.433v.941h1.366v.62H777.65v.982h1.467v.6H777.13V248.9Z" transform="translate(-751.003 -248.874)" fill="url(#linear-gradient-11)"/>
    </g>
  </g>
</svg>
