<svg xmlns="http://www.w3.org/2000/svg" width="24" height="24" viewBox="0 0 24 24">
  <g id="Group_26067" data-name="Group 26067" transform="translate(-42 -462)">
    <g id="trackyourtransaction" transform="translate(-299.624 -528.187)">
      <path id="Path_38276" data-name="Path 38276" d="M343.87,997.154c1.131-1.133,2.259-2.269,3.4-3.393.092-.091.311-.181.381-.135a.583.583,0,0,1,.193.4c.028.312.009.628.009.987h7.538c.512,0,.546.034.546.538,0,.635-.013,1.271.007,1.906a.534.534,0,0,0,.2.389,5.016,5.016,0,0,1,1.829,6.834,1.208,1.208,0,0,0-.06.154h1.5c0-.345-.017-.673.008-1,.01-.131.086-.323.183-.364a.46.46,0,0,1,.386.126c1.088,1.068,2.162,2.151,3.245,3.224a.352.352,0,0,1-.012.583c-1.074,1.065-2.139,2.138-3.217,3.2-.094.093-.306.192-.381.148a.559.559,0,0,1-.2-.393c-.029-.313-.009-.63-.009-1H352c-.667,0-.667,0-.668-.685,0-.6.01-1.195-.011-1.791a.491.491,0,0,0-.2-.354,5.008,5.008,0,0,1-1.832-6.83,1.21,1.21,0,0,0,.06-.154h-1.5c0,.346.017.674-.009,1-.01.131-.089.323-.186.362a.466.466,0,0,1-.387-.131c-1.14-1.124-2.268-2.259-3.4-3.391Zm8.053,11.613h.449q3.543,0,7.087,0c.474,0,.528.056.534.521,0,.133,0,.266,0,.425l2.553-2.563-2.553-2.562c0,.066,0,.178,0,.289-.005.521-.048.565-.567.566-.546,0-1.092.01-1.638,0a.743.743,0,0,0-.6.246,4.838,4.838,0,0,1-4.117,1.465c-.383-.042-.759-.143-1.152-.219Zm-4.657-8.886c0-.167,0-.278,0-.39.005-.52.044-.559.569-.56.558,0,1.118.017,1.675-.011a.861.861,0,0,0,.518-.222,5.031,5.031,0,0,1,5.289-1.23v-1.864h-4.441c-1.041,0-2.082-.009-3.122,0-.363,0-.517-.139-.489-.5.011-.141,0-.284,0-.453l-2.621,2.607Zm6.379-2.114a4.419,4.419,0,1,0,4.406,4.422A4.43,4.43,0,0,0,353.644,997.767Z" fill="#000812"/>
      <path id="Path_38277" data-name="Path 38277" d="M446.606,1073.4a3.839,3.839,0,1,1-3.829-3.831A3.835,3.835,0,0,1,446.606,1073.4Zm-3.834-3.248a3.258,3.258,0,1,0,3.254,3.252A3.275,3.275,0,0,0,442.772,1070.156Z" transform="translate(-89.136 -71.228)" fill="#000812"/>
    </g>
    <path id="Path_38278" data-name="Path 38278" d="M229.244,92.869c.215,0,.358.105.358.175a.214.214,0,1,0,.428,0,.645.645,0,0,0-.572-.582V92.4a.214.214,0,1,0-.428,0v.062a.645.645,0,0,0-.572.582c0,.471.451.617.72.7.394.128.424.2.424.3,0,.07-.143.175-.358.175s-.358-.105-.358-.175a.214.214,0,0,0-.428,0,.645.645,0,0,0,.572.582v.062a.214.214,0,1,0,.428,0v-.062a.645.645,0,0,0,.572-.582c0-.471-.451-.617-.72-.7-.394-.128-.424-.2-.424-.3C228.886,92.974,229.029,92.869,229.244,92.869Z" transform="translate(-175.491 380.456)" fill="#000812"/>
    <rect id="Rectangle_20204" data-name="Rectangle 20204" width="24" height="24" transform="translate(42 462)" fill="none"/>
  </g>
</svg>
