<svg xmlns="http://www.w3.org/2000/svg" xmlns:xlink="http://www.w3.org/1999/xlink" width="24" height="24" viewBox="0 0 24 24">
  <defs>
    <clipPath id="clip-path">
      <rect id="Rectangle_20182" data-name="Rectangle 20182" width="19.604" height="18.848" fill="#000812"/>
    </clipPath>
  </defs>
  <g id="Group_26082" data-name="Group 26082" transform="translate(-226 -456)">
    <g id="viewbutton" transform="translate(228.198 458.576)" style="isolation: isolate">
      <g id="Group_25862" data-name="Group 25862" clip-path="url(#clip-path)">
        <path id="Path_43222" data-name="Path 43222" d="M15.022,5.351c0,2.1,0,4.125,0,6.151,0,1.5,0,3,0,4.5a2.673,2.673,0,0,1-2.857,2.84q-4.626.007-9.252,0A2.682,2.682,0,0,1,.03,16.554a2.643,2.643,0,0,1,2.079-2.983c.32-.053.268-.272.268-.481,0-3.3,0-6.6.006-9.895a4.991,4.991,0,0,1,.133-1.32A2.6,2.6,0,0,1,5.131.005C8.693,0,12.255,0,15.817,0,16.2,0,16.576,0,16.955,0A2.649,2.649,0,0,1,19.6,2.594,2.664,2.664,0,0,1,17.01,5.347c-.639.026-1.281,0-1.989,0M3.171,13.5h8.837c.315,0,.692-.044.712.4.017.385-.325.389-.609.412a1.176,1.176,0,0,0-.145.028,1.879,1.879,0,1,0,2.221,2.18,4.2,4.2,0,0,0,.043-.738q0-6.5,0-13a2.82,2.82,0,0,1,.536-1.712,2.521,2.521,0,0,0,.145-.272H5.362A1.922,1.922,0,0,0,3.171,2.969q-.007,4,0,8.009c0,.82,0,1.639,0,2.518m7.214.79h-.5q-3.483,0-6.966,0A1.894,1.894,0,1,0,2.9,18.056q3.508,0,7.016,0c.135,0,.271-.023.43-.037a2.84,2.84,0,0,1,.042-3.731M17.3,4.458a1.81,1.81,0,0,0,1.474-2.037,1.881,1.881,0,1,0-3.694.689c.545,0,1.1.006,1.655,0,.392-.006.58.169.567.565-.008.259,0,.519,0,.785m-2.259.061h1.442V3.932H15.042Z" transform="translate(0 0)" fill="#000812"/>
        <path id="Path_43223" data-name="Path 43223" d="M56.5,45.54c-.037.04-.073.078-.107.118a.042.042,0,0,0-.008.031.225.225,0,0,1-.05.206l-.355.428-.608.74c-.235.286-.47.573-.707.859a.572.572,0,0,1-1-.212.569.569,0,0,1,.176-.576c.234-.226.465-.455.7-.683l.653-.641.513-.5a.222.222,0,0,1,.193-.063.044.044,0,0,0,.032-.011c.037-.037.071-.076.106-.114a2.371,2.371,0,0,1-.54-1.832,2.314,2.314,0,0,1,.786-1.5A2.391,2.391,0,1,1,56.5,45.54m3.154-2.226A1.806,1.806,0,1,0,58.1,45.368a1.8,1.8,0,0,0,1.552-2.054" transform="translate(-48.338 -37.111)" fill="#000812"/>
        <path id="Path_43224" data-name="Path 43224" d="M57.652,26.43H50.787a.408.408,0,1,1,0-.816h6.865a.408.408,0,0,1,0,.816" transform="translate(-45.394 -23.079)" fill="#000812"/>
        <path id="Path_43225" data-name="Path 43225" d="M58.051,122.264H51.193a.367.367,0,1,1,0-.734h6.858a.367.367,0,1,1,0,.734" transform="translate(-45.797 -109.505)" fill="#000812"/>
        <path id="Path_43226" data-name="Path 43226" d="M83.64,110.112H79.235a.334.334,0,0,1,0-.668H83.64a.334.334,0,1,1,0,.668" transform="translate(-71.093 -98.614)" fill="#000812"/>
      </g>
    </g>
    <rect id="Rectangle_20223" data-name="Rectangle 20223" width="24" height="24" transform="translate(226 456)" fill="none"/>
  </g>
</svg>
