<svg id="verified" xmlns="http://www.w3.org/2000/svg" width="14.861" height="19.392" viewBox="0 0 14.861 19.392">
  <path id="Path_33472" data-name="Path 33472" d="M1745.329-851.907c-2.8,2.73-3.811,5.66-5.072,8.865-.037-.093-.077-.181-.107-.272a7.165,7.165,0,0,0-.913-1.871q-.117-.19-.241-.375t-.259-.369q-.132-.18-.273-.353c-.094-.116-.189-.23-.288-.341s-.2-.221-.3-.326-.215-.21-.327-.31-.229-.191-.351-.293c.041-.025.077-.05.116-.068a1.342,1.342,0,0,1,.422-.1,1.641,1.641,0,0,1,1.184.365,4.4,4.4,0,0,1,.725.669c.195.222.378.455.566.683l.026.031c.049-.094.094-.185.142-.274.178-.335.353-.672.537-1s.383-.676.583-1.009c.171-.285.351-.565.534-.842a13.887,13.887,0,0,1,.988-1.329,7.711,7.711,0,0,1,1.068-1.06,2.449,2.449,0,0,1,.614-.362,1,1,0,0,1,.595-.061Z" transform="translate(-1733.813 857.348)" fill="#45bf43"/>
  <path id="Path_33473" data-name="Path 33473" d="M219.872-1078.623c2.971-.091,5.7-.623,7.414-3.438,1.7,2.8,4.424,3.348,7.422,3.436q0,.283,0,.563c0,2.388-.043,4.776.012,7.162a6.266,6.266,0,0,1-1.557,4.254,14.157,14.157,0,0,1-5.608,3.923.714.714,0,0,1-.506.012,13.527,13.527,0,0,1-6.077-4.534,5.867,5.867,0,0,1-1.111-3.53c.038-2.451.01-4.9.01-7.355Zm.825.79v.544c0,2.145.042,4.29-.015,6.433a5.269,5.269,0,0,0,1.2,3.481,13.171,13.171,0,0,0,5.176,3.782.616.616,0,0,0,.454,0,13.2,13.2,0,0,0,5.147-3.743,5.288,5.288,0,0,0,1.236-3.517c-.058-2.159,0-6.9,0-6.9-1.961-.235-4.79-.544-6.623-2.834C225.486-1078.76,223.989-1078.132,220.7-1077.833Z" transform="translate(-219.861 1082.061)" fill="#45bf43"/>
</svg>
