<svg xmlns="http://www.w3.org/2000/svg" width="24" height="24" viewBox="0 0 24 24">
  <g id="Group_26079" data-name="Group 26079" transform="translate(-142 -177)">
    <g id="oldpasswordnotification" transform="translate(143.968 179.509)">
      <path id="Path_33459" data-name="Path 33459" d="M429.058-322c-2.366,0-4.732.01-7.1-.009a3.98,3.98,0,0,1-1.376-.2,2.315,2.315,0,0,1-1.233-3.275q3.736-7.09,7.513-14.157a2.4,2.4,0,0,1,2.24-1.335,2.435,2.435,0,0,1,2.282,1.375q3.7,6.961,7.4,13.928a2.38,2.38,0,0,1-2.181,3.658c-2.514.042-5.03.01-7.544.01Zm.042-1.458c2.451,0,4.9,0,7.352,0,1.11,0,1.5-.653.979-1.631q-3.6-6.8-7.209-13.592a1.222,1.222,0,0,0-1.1-.825,1.213,1.213,0,0,0-1.11.813q-3.6,6.8-7.214,13.589c-.531,1-.135,1.645,1.017,1.647Q425.455-323.457,429.1-323.463Z" transform="translate(-419.072 340.979)" fill="#d60101"/>
      <path id="Path_33460" data-name="Path 33460" d="M440.813-328.493c-.166,2.076-.337,4.151-.494,6.227-.037.492-.347.584-.745.578-.38-.006-.628-.116-.662-.579-.152-2.077-.348-4.151-.5-6.227a1.146,1.146,0,0,1,1.195-1.267A1.18,1.18,0,0,1,440.813-328.493Z" transform="translate(-429.566 334.891)" fill="#d60101"/>
      <path id="Path_33461" data-name="Path 33461" d="M439.793-310.293a1,1,0,0,1,1.023,1.06,1.009,1.009,0,0,1-1.013,1.012,1.029,1.029,0,0,1-1.061-1.033A1.015,1.015,0,0,1,439.793-310.293Z" transform="translate(-429.747 324.326)" fill="#d60101"/>
    </g>
    <rect id="Rectangle_20220" data-name="Rectangle 20220" width="24" height="24" transform="translate(142 177)" fill="none"/>
  </g>
</svg>
