<svg xmlns="http://www.w3.org/2000/svg" width="24" height="24" viewBox="0 0 24 24">
  <g id="Group_26068" data-name="Group 26068" transform="translate(-239 -330)">
    <g id="apple-black-logo" transform="translate(196.478 332)">
      <g id="Group_125" data-name="Group 125" transform="translate(46.315)">
        <path id="Path_2150" data-name="Path 2150" d="M60.035,127.444c-.553-2.786,2.09-4.419,2.09-4.419a5.052,5.052,0,0,0-2.761-1.874,4.813,4.813,0,0,0-3.461.456,3.854,3.854,0,0,1-1.3.361c-1.249,0-2.161-1.322-4.54-.72a5.609,5.609,0,0,0-3.676,4.563,12.376,12.376,0,0,0,1.658,7.375c1.3,2.235,2.618,3.076,3.556,3.1s1.874-.672,3-.841,1.824.409,2.932.721,1.49.022,2.761-1.059,2.428-4.182,2.428-4.182A4.478,4.478,0,0,1,60.035,127.444Z" transform="translate(-46.315 -116.165)"/>
        <path id="Path_2151" data-name="Path 2151" d="M254.982,3.184A3.808,3.808,0,0,0,255.793,0a5.873,5.873,0,0,0-2.875,1.5,4.328,4.328,0,0,0-.962,3.1A5.418,5.418,0,0,0,254.982,3.184Z" transform="translate(-243.713)"/>
      </g>
    </g>
    <rect id="Rectangle_20203" data-name="Rectangle 20203" width="24" height="24" transform="translate(239 330)" fill="none"/>
  </g>
</svg>
