<svg xmlns="http://www.w3.org/2000/svg" width="24" height="24" viewBox="0 0 24 24">
  <g id="Group_26067" data-name="Group 26067" transform="translate(-136 -376)">
    <g id="facebook" transform="translate(137.539 377.539)">
      <path id="Path_2140" data-name="Path 2140" d="M18.374,0H2.548A2.551,2.551,0,0,0,0,2.551V18.377a2.551,2.551,0,0,0,2.548,2.548H18.374a2.551,2.551,0,0,0,2.548-2.548V2.551A2.551,2.551,0,0,0,18.374,0Z" transform="translate(0 -0.003)" fill="#0055c3"/>
      <path id="Path_2141" data-name="Path 2141" d="M303.709,0h-6.218V20.926h6.218a2.551,2.551,0,0,0,2.548-2.548V2.551A2.551,2.551,0,0,0,303.709,0Z" transform="translate(-285.334 -0.003)" fill="#003282"/>
      <path id="Path_2142" data-name="Path 2142" d="M185.57,98.62a.618.618,0,0,0,.618-.618V95.008a.618.618,0,0,0-.618-.618h-2.221V93.048h2.221a.618.618,0,0,0,.618-.618V89.436a.618.618,0,0,0-.618-.618h-2.76a3.694,3.694,0,0,0-3.69,3.69v1.883H176.9a.618.618,0,0,0-.618.618V98a.618.618,0,0,0,.618.618h2.221v7.491h4.23V98.62Z" transform="translate(-169.077 -85.189)" fill="#fff"/>
      <path id="Path_2143" data-name="Path 2143" d="M301.826,93.048a.618.618,0,0,0,.618-.618V89.436a.618.618,0,0,0-.618-.618h-2.76a3.666,3.666,0,0,0-1.575.354v16.939h2.115V98.62h2.221a.618.618,0,0,0,.618-.618V95.008a.618.618,0,0,0-.618-.618h-2.221V93.048Z" transform="translate(-285.334 -85.189)" fill="#dce1eb"/>
    </g>
    <rect id="Rectangle_20202" data-name="Rectangle 20202" width="24" height="24" transform="translate(136 376)" fill="none"/>
  </g>
</svg>
