<svg xmlns="http://www.w3.org/2000/svg" width="36" height="36" viewBox="0 0 36 36">
  <path id="Shape" d="M606.931,754a1.039,1.039,0,0,1-.864-.407,1.27,1.27,0,0,1-.22-1.023l.086-.305a53.186,53.186,0,0,0,1.953-15.122A1.129,1.129,0,0,1,608.994,736h.017a1.16,1.16,0,0,1,1.126,1.108,55.356,55.356,0,0,1-2.037,15.764l-.086.307A1.132,1.132,0,0,1,606.931,754Zm7.11-5.3a1.124,1.124,0,0,1-1.112-1.308,59.283,59.283,0,0,0,.782-10.552,4.822,4.822,0,0,0-8.137-3.323,4.271,4.271,0,0,0-1.259,3.116,50.629,50.629,0,0,1-1.033,10.993,1.138,1.138,0,0,1-1.329.875,1.125,1.125,0,0,1-.873-1.33,48.339,48.339,0,0,0,.985-10.5,6.5,6.5,0,0,1,1.918-4.742A6.967,6.967,0,0,1,609,729.947,7.07,7.07,0,0,1,613.886,732a6.892,6.892,0,0,1,2.075,4.806,61.506,61.506,0,0,1-.813,10.954A1.118,1.118,0,0,1,614.041,748.7Zm6.2-2.48a1.034,1.034,0,0,1-.13-.008,1.125,1.125,0,0,1-.991-1.244,64.94,64.94,0,0,0,.409-8.346,10.8,10.8,0,0,0-10.714-10.4l-.177,0a10.792,10.792,0,0,0-2.447.285,1.118,1.118,0,0,1-.256.03,1.136,1.136,0,0,1-1.1-.864,1.124,1.124,0,0,1,.835-1.354,12.813,12.813,0,0,1,2.962-.347l.215,0a13.065,13.065,0,0,1,12.928,12.613,67.466,67.466,0,0,1-.421,8.635A1.124,1.124,0,0,1,620.241,746.221Zm-23.563-.349a1.184,1.184,0,0,1-.2-.018,1.128,1.128,0,0,1-.907-1.309,42.792,42.792,0,0,0,.674-8.269,11.99,11.99,0,0,1,2.677-7.744,1.125,1.125,0,1,1,1.746,1.419,9.608,9.608,0,0,0-2.174,6.29,45.19,45.19,0,0,1-.709,8.707A1.126,1.126,0,0,1,596.678,745.872Zm29.194-7.313h-.009a1.127,1.127,0,0,1-1.116-1.133c.005-.522,0-1.051-.006-1.616a15.053,15.053,0,0,0-.351-3,1.129,1.129,0,0,1,.857-1.342,1.171,1.171,0,0,1,.239-.025,1.12,1.12,0,0,1,1.1.881,17.242,17.242,0,0,1,.4,3.456c.009.543.011,1.1.006,1.668A1.127,1.127,0,0,1,625.873,738.559Zm-33.747-.5h-.031A1.127,1.127,0,0,1,591,736.9c.016-.539.02-1.074.012-1.59a16.722,16.722,0,0,1,4.933-12.184,17.352,17.352,0,0,1,5.671-3.8A17.683,17.683,0,0,1,608.4,718c.118,0,.238,0,.358,0a18.717,18.717,0,0,1,15.007,7.942,1.124,1.124,0,0,1-.916,1.77,1.135,1.135,0,0,1-.925-.479,16.464,16.464,0,0,0-13.2-6.983l-.243,0a15.336,15.336,0,0,0-10.947,4.465,14.5,14.5,0,0,0-4.274,10.558c.009.54.005,1.108-.011,1.69A1.121,1.121,0,0,1,592.125,738.058Z" transform="translate(-591 -718)" fill="#000812"/>
</svg>
