<svg xmlns="http://www.w3.org/2000/svg" width="36" height="36" viewBox="0 0 36 36">
  <path id="Color_Overlay" data-name="Color Overlay" d="M705.243,754.265a.924.924,0,0,1,0-1.848h4.132a4.285,4.285,0,0,0,4.255-4.326v-3.864a.909.909,0,1,1,1.818,0v3.864a6.135,6.135,0,0,1-6.074,6.174Zm-20.167-.284a5.7,5.7,0,0,1-5.627-5.747v-3.6a.843.843,0,1,1,1.685,0v3.6a3.979,3.979,0,0,0,3.942,4.027H688.9a.859.859,0,0,1,.843.86.835.835,0,0,1-.843.861Zm12.237-6.8a8.98,8.98,0,0,1-6.443-2.748.852.852,0,0,1,0-1.236.824.824,0,0,1,1.218,0,7.3,7.3,0,0,0,5.225,2.231h.314a7.362,7.362,0,0,0,5.224-2.231.825.825,0,0,1,1.219,0,.853.853,0,0,1,0,1.236,8.915,8.915,0,0,1-6.443,2.748Zm-1.543-5.953a.884.884,0,0,1,0-1.767h.2a1.474,1.474,0,0,0,1.47-1.486V731.9a.874.874,0,1,1,1.748,0v6.106a3.214,3.214,0,0,1-3.219,3.214Zm7.707-7.078v-2.852a1.212,1.212,0,0,1,1.288-1.125,1.186,1.186,0,0,1,1.287,1.125v2.893a1.241,1.241,0,0,1-1.287,1.084A1.213,1.213,0,0,1,703.476,734.147Zm-15.447,0v-2.852a1.3,1.3,0,0,1,2.574,0v2.893a1.181,1.181,0,0,1-1.287,1.084A1.213,1.213,0,0,1,688.03,734.147Zm-8.581-5.708v-4.286a5.772,5.772,0,0,1,5.627-5.888H688.9a.882.882,0,0,1,0,1.763h-3.828a4.031,4.031,0,0,0-3.942,4.125v4.286a.843.843,0,1,1-1.685,0Zm34.182-.068v-4.224a4.158,4.158,0,0,0-4.255-4.066h-4.132a.87.87,0,1,1,0-1.738h4.132a5.953,5.953,0,0,1,6.074,5.8v4.224a.91.91,0,0,1-1.818,0Z" transform="translate(-679.449 -718.265)" fill="#000812"/>
</svg>
